<?xml version="1.0" standalone="no"?>
<!DOCTYPE svg PUBLIC "-//W3C//DTD SVG 1.1//EN" "http://www.w3.org/Graphics/SVG/1.1/DTD/svg11.dtd" >
<svg>
<metadata>
Created by FontForge 20090622 at Wed Jun 21 09:48:08 2017
 By ffonts
Copyright \(c\) 2017 by David Kerkhoff. All rights reserved.
</metadata>
<defs>
<font id="DKFullBlast-Regular" horiz-adv-x="480" >
  <font-face 
    font-family="DK Full Blast"
    font-weight="400"
    font-stretch="normal"
    units-per-em="1000"
    panose-1="0 0 0 0 0 0 0 0 0 0"
    ascent="800"
    descent="-200"
    x-height="484"
    cap-height="677"
    bbox="-138 -252 808 943"
    underline-thickness="0"
    underline-position="0"
    unicode-range="U+000D-U+20AC"
  />
<missing-glyph horiz-adv-x="828" 
d="M723 18l-464 507l4 19l21 31l-1 3l-14 20l-7 7l1 2l3 1l7 10h1l25 -26l28 24l10 5l9 1l462 -507l-5 -18l-18 -28l-22 -24l-22 -19zM152 487l-16 -29l14 -2l-17 -8l41 -18l-41 9l41 -42l-51 40l20 -61l-33 66l-54 -69l48 75l-73 -29l74 37l-42 10l45 -2l-13 15l19 -11
l-15 57l-12 62l4 61l21 29l24 14l28 6l39 -8l41 -31l27 -35l-7 -6l-4 -8l-28 35l-36 26l-32 7l-30 -7l-16 -16l-11 -23l-2 -47l2 -17v-3l6 -24v-3l15 -72zM479 440l-67 -60l25 -23l33 29l-4 -62l30 -30l51 55l-21 23l-21 -22l-3 60zM683 181l-29 53l9 -57l-50 9l38 -31
l-20 -13l26 -3l-3 -31l16 18l44 -69l-13 48l37 -17l-24 30l48 10l-38 15l24 24l-31 -2l4 29l-15 -17l-6 32zM396 541l-15 -21l11 -13l-43 -51l34 -35l44 43l20 -21l14 12l-8 12l-4 17zM573 337l-14 -23l22 -26l-40 -46l23 -22l39 45l21 -22l16 19zM105 397l-1 -16l-19 -11z
M149 354l10 2l8 -25zM186 431l31 -9h-29zM72 496l-10 -2l-9 20zM44 459l-8 -6l-16 9zM269 603v-5l6 4l1 3l2 4h-5z" />
    <glyph glyph-name=".notdef" horiz-adv-x="828" 
d="M723 18l-464 507l4 19l21 31l-1 3l-14 20l-7 7l1 2l3 1l7 10h1l25 -26l28 24l10 5l9 1l462 -507l-5 -18l-18 -28l-22 -24l-22 -19zM152 487l-16 -29l14 -2l-17 -8l41 -18l-41 9l41 -42l-51 40l20 -61l-33 66l-54 -69l48 75l-73 -29l74 37l-42 10l45 -2l-13 15l19 -11
l-15 57l-12 62l4 61l21 29l24 14l28 6l39 -8l41 -31l27 -35l-7 -6l-4 -8l-28 35l-36 26l-32 7l-30 -7l-16 -16l-11 -23l-2 -47l2 -17v-3l6 -24v-3l15 -72zM479 440l-67 -60l25 -23l33 29l-4 -62l30 -30l51 55l-21 23l-21 -22l-3 60zM683 181l-29 53l9 -57l-50 9l38 -31
l-20 -13l26 -3l-3 -31l16 18l44 -69l-13 48l37 -17l-24 30l48 10l-38 15l24 24l-31 -2l4 29l-15 -17l-6 32zM396 541l-15 -21l11 -13l-43 -51l34 -35l44 43l20 -21l14 12l-8 12l-4 17zM573 337l-14 -23l22 -26l-40 -46l23 -22l39 45l21 -22l16 19zM105 397l-1 -16l-19 -11z
M149 354l10 2l8 -25zM186 431l31 -9h-29zM72 496l-10 -2l-9 20zM44 459l-8 -6l-16 9zM269 603v-5l6 4l1 3l2 4h-5z" />
    <glyph glyph-name="NULL" horiz-adv-x="0" 
 />
    <glyph glyph-name="NULL" horiz-adv-x="0" 
 />
    <glyph glyph-name="CR" unicode="&#xd;" horiz-adv-x="290" 
 />
    <glyph glyph-name="space" unicode=" " horiz-adv-x="290" 
 />
    <glyph glyph-name="exclam" unicode="!" horiz-adv-x="165" 
d="M71 282h-5l-2 -15l-9 4l-6 26l-9 7l-3 -4l-8 37l-4 7l-5 100l11 156v3l2 9l3 36l11 9l4 55h6l7 -6h7l2 -4l9 -3v-4l-3 -6h8l8 -7l5 -15l10 -4l3 -7l7 -1l6 -6l4 -2l8 -10v-65l-3 -21v-18l-2 -6v-2l-5 -35v-69l-2 -16l2 -44l-2 -6v-26l-6 -2v-4l6 -6v-7l-6 -3l-3 -9l4 -7
l-4 -16l-5 20h-5l-3 -3l-4 -2l-3 -26l-9 18h-6v-10l-6 -6zM90 6l-7 17h-10v-8l6 -8v-4h-3l-5 8l-14 9l-2 7l-7 3l-4 6l-7 5l15 3v10h-10l-7 5l4 7l4 14l5 4l15 -4h3l12 -5l13 -9l6 -2l7 -12l9 -8l12 -3l5 -11l15 -14l-7 -11l-16 -2l-14 -5h-8zM42 23v5l8 -7v-6zM107 311v-9
h3v9h-3zM120 428l-3 -3h5v3h-2zM95 372l2 -2h3v2h-5zM95 661v-2h2v2h-2zM120 339v-2h2v2h-2z" />
    <glyph glyph-name="quotedbl" unicode="&#x22;" horiz-adv-x="271" 
d="M22 714l6 5v3l4 2l8 9l13 2v2h2l4 -13l4 5l3 1l6 3l3 -6l6 2l2 -6l4 -3h8l1 2l-2 4l3 2h5l4 -4l2 3h2v-1l-4 -4l-1 -6l-2 2l-1 6h-4v-1l2 -2v-3l5 -13l3 -33l3 -6l1 2l-1 -5h-1v-2l2 -2l-1 -2l1 -3l-2 1l-1 -8l4 -9l-1 -10l-1 -2l4 -3l-2 -5l-4 4l-3 -3l2 -2h3l-1 -1
l-4 -3l1 -2l5 -2l3 -10l-3 -5l-1 -25l1 -2l-1 -21l-2 -3l-2 -18l1 -4l-2 -7v-3l-1 -17h-4l3 -4l-1 -2l-1 -11l-2 -2l-6 -15l-4 1h-2l-1 1l6 3l4 10l-3 1l-2 -5l-2 2v3l-3 -2v-3h-2l-1 4l-2 2l2 12h-3v-9l-4 -2l-1 -5l2 -2l-2 -2l-2 4l2 9l2 3l-1 2l-2 2h-1l1 -3l-3 -5v-2h-5
l-1 4l-4 3v10l-3 -1l1 -5l-1 -4l2 -3h-5v9l-2 2l3 8l-1 4l-3 -2l-2 -7h-3l-1 9h-2l-2 4l-2 1l1 11h-4l2 3v10h-3l-3 -12h-2l-1 8h-1l-4 -8h-2l3 130l-7 56zM103 567l-1 -21l1 -1l2 1v2l2 2l-1 3v14h-3zM31 542l-1 -8l1 -1l2 5v4h-2zM106 589l-1 -5l1 -2l2 5l1 1v1h-3z
M108 630l-2 -1v-5h3zM109 700v-9h-1l-1 9h2zM103 540l-3 -4l1 -1h2v5zM31 516v3h1l-1 -6h-2v2zM100 530l-1 -10h1v10zM90 454v-2l-2 -1v1zM45 536l-2 1v-1l2 -1v1zM90 468v-1h-1v1h1zM158 717l6 5v3l4 2l8 9l13 2v2h2l4 -13l4 5l3 1l6 3l3 -6l6 2l2 -6l4 -3h8l1 2l-2 4l3 2
h5l4 -4l2 3h2v-1l-4 -4l-1 -6l-2 2l-1 6h-4v-1l2 -2v-3l5 -13l3 -33l3 -6l1 2l-1 -5h-1v-2l2 -2l-1 -2l1 -3l-2 1l-1 -8l4 -9l-1 -10l-1 -2l4 -3l-2 -5l-4 4l-3 -3l2 -2h3l-1 -1l-4 -3l1 -2l5 -2l3 -10l-3 -5l-1 -25l1 -2l-1 -21l-2 -3l-2 -18l1 -4l-2 -7v-3l-1 -17h-4l3 -4
l-1 -2l-1 -11l-2 -2l-6 -15l-4 1h-2l-1 1l6 3l4 10l-3 1l-2 -5l-2 2v3l-3 -2v-3h-2l-1 4l-2 2l2 12h-3v-9l-4 -2l-1 -5l2 -2l-2 -2l-2 4l2 9l2 3l-1 2l-2 2h-1l1 -3l-3 -5v-2h-5l-1 4l-4 3v10l-3 -1l1 -5l-1 -4l2 -3h-5v9l-2 2l3 8l-1 4l-3 -2l-2 -7h-3l-1 9h-2l-2 4l-2 1
l1 11h-4l2 3v10h-3l-3 -12h-2l-1 8h-1l-4 -8h-2l3 130l-7 56zM239 570l-1 -21l1 -1l2 1v2l2 2l-1 3v14h-3zM167 545l-1 -8l1 -1l2 5v4h-2zM242 592l-1 -5l1 -2l2 5l1 1v1h-3zM244 633l-2 -1v-5h3zM245 703v-9h-1l-1 9h2zM239 543l-3 -4l1 -1h2v5zM167 519v3h1l-1 -6h-2v2z
M236 533l-1 -10h1v10zM226 457v-2l-2 -1v1zM181 539l-2 1v-1l2 -1v1zM226 471v-1h-1v1h1z" />
    <glyph glyph-name="dollar" unicode="$" horiz-adv-x="437" 
d="M208 -101l-4 -3v7l-4 -8l-3 10h-4l-1 -6h-3l-4 4h-6l-15 12v84l-5 -3l-5 5l10 4v14l-1 3h-6l4 -8l-8 3l-12 9h-26l-2 3l13 4v5l-6 7l-5 2l-5 4l-15 7l25 5v7l-16 5v8l4 7v22l16 4l11 -4h25l38 16l49 30l39 40l14 18v11l-3 5l-2 8l-34 21l-14 4l6 8l9 -3l28 -18l16 -13
l3 1v14l-8 13l-20 10l-13 10l-13 3h-5l-7 5l-12 3l-16 9l-42 8l-20 5l-8 -4l-5 6l-3 9l-12 -6l-15 10l-11 3l-17 7l-9 6h-7l-12 9v-9l3 -4l3 -12l32 -18v-9l-10 4v-11h-3l-40 43l-4 6l-5 4l-10 18v26l4 18l-4 9v37l5 10l-5 3l3 2v10l10 41l8 12l4 9l12 15l6 13l39 42v85h-3
v23l-2 11l4 2h5l3 6l7 -14l7 7v-10h11l1 -3l3 4l3 -11l5 -6l7 -4l1 -5l3 -6l3 -25l9 7l29 18l6 5l6 -8h11l11 -10v-12h20l-5 -12l13 -4l6 -9h9v-4l-3 -3l12 -12l13 -11v-10l-11 -12l-27 -13l-45 -35l-32 -35l-33 -41l-18 -38v-9l9 -4l102 -23l37 -14l36 -24l18 -16l3 -4
l4 -2l32 -32l2 -5l6 -6v-5l6 -8v-5l2 -4l2 -8l5 8l4 -8l5 -4l13 -24v-7l-4 -5v-2l4 2v-14l-3 -4v-18l-4 -7v-13l-5 -11l-1 -8l-8 -6l-3 -14l-14 -27l-5 -4l-27 -30l-14 -9l-11 -10l-26 -14l-7 -7l-19 -7l-13 -13h-7v13h-4l-3 -8l-17 -4l1 -26l-2 -5l3 -4v-40l-1 5h-5v-5
l3 -2l1 -5h1l-1 -16h-1v10h-1l-2 -5l-1 5v8h-3v-33l-7 -6zM230 270l-14 4h16v3l-18 9h7l22 -9v-4l3 -6zM196 288l-9 4h4l19 -4l3 -3zM390 149l5 -3l1 3v4l-6 -3v-1zM39 367l2 -4v13h-2v-9zM216 -60l1 -2l4 4l-2 3h-2zM401 245l3 -2v5h-3v-3zM162 300l11 -3h-8zM392 174v-3h3
v3h-3zM221 -35v-2h4v2h-4zM224 -44l1 -2h1v4h-1zM331 69v-2h2v2h-2zM399 191v-2h2v2h-2zM215 0v-4h1v4h-1zM243 4v-2h-2z" />
    <glyph glyph-name="quotesingle" unicode="'" horiz-adv-x="135" 
d="M22 714l6 5v3l4 2l8 9l13 2v2h2l4 -13l4 5l3 1l6 3l3 -6l6 2l2 -6l4 -3h8l1 2l-2 4l3 2h5l4 -4l2 3h2v-1l-4 -4l-1 -6l-2 2l-1 6h-4v-1l2 -2v-3l5 -13l3 -33l3 -6l1 2l-1 -5h-1v-2l2 -2l-1 -2l1 -3l-2 1l-1 -8l4 -9l-1 -10l-1 -2l4 -3l-2 -5l-4 4l-3 -3l2 -2h3l-1 -1
l-4 -3l1 -2l5 -2l3 -10l-3 -5l-1 -25l1 -2l-1 -21l-2 -3l-2 -18l1 -4l-2 -7v-3l-1 -17h-4l3 -4l-1 -2l-1 -11l-2 -2l-6 -15l-4 1h-2l-1 1l6 3l4 10l-3 1l-2 -5l-2 2v3l-3 -2v-3h-2l-1 4l-2 2l2 12h-3v-9l-4 -2l-1 -5l2 -2l-2 -2l-2 4l2 9l2 3l-1 2l-2 2h-1l1 -3l-3 -5v-2h-5
l-1 4l-4 3v10l-3 -1l1 -5l-1 -4l2 -3h-5v9l-2 2l3 8l-1 4l-3 -2l-2 -7h-3l-1 9h-2l-2 4l-2 1l1 11h-4l2 3v10h-3l-3 -12h-2l-1 8h-1l-4 -8h-2l3 130l-7 56zM103 567l-1 -21l1 -1l2 1v2l2 2l-1 3v14h-3zM31 542l-1 -8l1 -1l2 5v4h-2zM106 589l-1 -5l1 -2l2 5l1 1v1h-3z
M108 630l-2 -1v-5h3zM109 700v-9h-1l-1 9h2zM103 540l-3 -4l1 -1h2v5zM31 516v3h1l-1 -6h-2v2zM100 530l-1 -10h1v10zM90 454v-2l-2 -1v1zM45 536l-2 1v-1l2 -1v1zM90 468v-1h-1v1h1z" />
    <glyph glyph-name="parenleft" unicode="(" horiz-adv-x="361" 
d="M276 -2l-3 2v4h3l2 -1h3v5h-6l-2 6l-2 -4l-4 -4l-3 -10l-27 7l-4 4l-5 -3l-2 2h-15l-3 -2l-3 2h-3v-5l-7 3l3 4l-3 2l-6 -5l-5 3l-6 2l-2 2l-18 8l-2 4l-8 3l-29 24l-29 33v-5l7 -11l10 -20l16 -16v-8l-18 18l-2 3l-12 13l-19 37l-13 20l-3 16l-5 9l-4 18l-11 28l-2 13
l-4 16l-2 14l-4 12v24l-4 35v32l2 17v10l6 30v19l2 6l6 36l4 12l2 12l2 4v5l16 53l14 26l3 13l5 7l1 9l16 26l18 24l12 20l31 32l9 12l8 -2l-3 -15l-6 -2v-3h4l4 4h7l4 9l3 -3v-8l-10 -10v-4l14 7v-15h-4v-6l5 6h5l-6 -12h6v-4h3l8 4h7l13 -13l8 -16v-12l-24 -24l-12 -18
l-8 -8l-22 -40l-23 -58l-13 -48l-8 -41l-6 -67l-2 -4l2 -4v-10l-2 -3l2 -3v-21l8 -72l11 -35l5 -8l1 -6l2 -1l6 -8l14 -28l17 -18l23 -10l27 -7l69 -13h4l25 -7l-11 -3v-5h-8v-2l2 -3v-3h-6l-2 -2h-2v2l-4 -3l-10 3l-2 3h-1v-8h-5l-2 4l-4 -4l6 -3l5 -4l8 -2l-3 -2l-7 -3
l-5 -17h-6zM137 45l3 -2v2l-11 13h-3l5 -10zM253 3h7l3 1l-4 4h-6v-5zM278 22l3 -2h2v2h-5zM308 45l-2 -2h4zM178 695l2 1v-3zM340 48l1 -3h-1v3zM195 647l-1 -2h1v2z" />
    <glyph glyph-name="parenright" unicode=")" horiz-adv-x="361" 
d="M167 645l-1 2v-2h1zM20 45l1 3v-3h-1zM181 696l2 -1l-2 -2v3zM55 43l-2 2l-2 -2h4zM80 20l3 2h-5v-2h2zM101 3h7v5h-6l-4 -4zM221 43l3 2l6 3l5 10h-3l-11 -13v-2zM88 0l-3 -2l-2 -2h-6l-5 17l-7 3l-3 2l8 2l5 4l6 3l-4 4l-2 -4h-5v8h-1l-2 -3l-10 -3l-4 3v-2h-2l-2 2h-6
v3l2 3v2h-8v5l-11 3l25 7h4l69 13l27 7l23 10l17 18l14 28l6 8l2 1l1 6l5 8l11 35l8 72v21l2 3l-2 3v10l2 4l-2 4l-6 67l-8 41l-13 48l-23 58l-22 40l-8 8l-12 18l-24 24v12l8 16l13 13h7l8 -4h3v4h6l-6 12h5l5 -6v6h-4v15l14 -7v4l-10 10v8l3 3l4 -9h7l4 -4h4v3l-6 2l-3 15
l8 2l9 -12l31 -32l12 -20l18 -24l16 -26l1 -9l5 -7l3 -13l14 -26l16 -53v-5l2 -4l2 -12l4 -12l6 -36l2 -6v-19l6 -30v-10l2 -17v-32l-4 -35v-24l-4 -12l-2 -14l-4 -16l-2 -13l-11 -28l-4 -18l-5 -9l-3 -16l-13 -20l-19 -37l-12 -13l-2 -3l-18 -18v8l16 16l10 20l7 11v5
l-29 -33l-29 -24l-8 -3l-2 -4l-18 -8l-2 -2l-6 -2l-5 -3l-6 5l-3 -2l3 -4l-7 -3v5h-3l-3 -2l-3 2h-15l-2 -2l-5 3l-4 -4l-27 -7l-3 10l-4 4l-2 4l-2 -6h-6v-5h3l2 1h3v-4z" />
    <glyph glyph-name="comma" unicode="," horiz-adv-x="141" 
d="M32 -166l2 -2v3l-2 1l-1 -1l-3 -1l-3 -6h-4l7 34l1 10l4 15v2l-1 -1l-1 -4h-2l23 82l-3 6h-3l-1 6l2 10l-1 10l-5 7l-1 3l-12 12l-7 12l-1 13l6 -6v6l-2 13l-3 3l5 4l2 8h2v7l7 2l4 10h4v-1l13 -7l3 -9h5l2 -5l6 -5l2 -4l29 -34l15 -35l1 -15l-4 1l1 -6l-1 -8l-5 -2v-17
l-6 -19l-2 -2l-4 -13l-1 -2l-2 -7l-3 -6v-4l-4 -4l-1 -15l-6 -3l-2 -3l-2 -1l-11 -32l-5 8l-3 -15l-2 2l-4 -1l5 15l-1 4l-11 -22l-2 14l5 1v3l-2 1l3 1l-1 9h-1l-10 -19v-4l-4 -3l-2 -5zM60 -149h2v10zM69 -150v-4l1 1v3h-1zM114 -40l1 1v-3h-1v2z" />
    <glyph glyph-name="hyphen" unicode="-" horiz-adv-x="472" 
d="M59 194l-8 7l-5 1l-3 4l-14 9l-6 17l-3 1v2l20 6l-9 6l-1 4l-5 7l9 4l-3 8l9 3l3 7v10h-3l-5 -2l-5 3v7l7 5l-6 3v3h2l7 -6h8l-2 -2l-10 -3v-5h2l3 3h5l20 8l49 8l9 4l-4 1h8v-1h3l3 3l4 -2l4 2l-1 -3h11l13 6h17l3 -1l3 5l7 -2l-4 -5l4 -4l3 2v4h2l5 -6l3 2l2 7l15 4
l7 -2l19 1h20l3 2h32l4 -2l28 -1l7 2l10 -2l4 1h26v-3l1 -2l5 4l4 -2h16l3 -2l25 -6l-2 -5v-3l-2 -2l-4 8l-17 4v-3l7 -3l-2 -3h-5l3 -3h4v-3l-5 -2l-2 -2h-19v-3h14l3 -5h7l3 2l4 -2l-7 -3l-13 2l-5 3l-3 -3l-3 -2l1 -2l3 2l9 -3h3v-7l-5 -1l-5 -5l-15 -2l2 -4l7 2h6l5 2
v-7h-13l-3 -3l-13 3l-5 -2l3 -3l11 -3v-4l-13 -1l-1 -4l-5 -3l-2 -2h-16v-5l-5 2l-15 -1v-5l18 -2l2 -2l-13 -3v-1l13 -4v-3l-197 -10l-86 -15zM275 317h31l2 2l-2 2h-3l-2 3l-6 -3h-20v-4zM319 224h12l2 1l-7 2h-7v-3zM241 317h8l2 2l-7 2l-1 1h-2v-5zM178 316l2 -2h8v4z
M72 310l13 2v-2l-13 -2v2zM359 227h-5v1h10v-3h-4zM315 319l6 -3l2 1v2h-8zM331 317l3 -1h12v1h-15zM447 311h3l2 -2h-2zM28 288l2 -2h-5zM326 243v-2h2v2h-2zM319 241v-1h2v1h-2zM426 309h1v-1h-1v1z" />
    <glyph glyph-name="period" unicode="." horiz-adv-x="119" 
d="M34 4l4 18h-2l-4 -8l-4 -4l-6 6l4 12v2l1 3h-2l-2 6l-1 1v5l-2 4l6 24l17 34l4 3l2 2l7 12h5l2 -6l3 3l5 -6l-2 -5l4 -6l3 1l4 -3l-2 -4l6 -3l7 -11l1 -1l7 -12v-13l-20 -43h-4l-2 4h-3l-4 4l-3 -3l-1 2l-2 -2h-3l-2 -4l-4 2l-6 -4l-5 -10l-6 -7v7z" />
    <glyph glyph-name="slash" unicode="/" horiz-adv-x="286" 
d="M79 5v14h-6v-8l-4 -5l-8 5l-5 5h-18l-12 6h-6v83l29 144l12 38l4 17l59 202l10 24l3 25l8 20l1 8l4 10v3l12 38l4 16l2 4l1 7l8 24v24h10l3 -8l3 2h16v-6l-5 -8h17v4l2 2v-8l2 -10v-3l2 -5v-2l6 4l12 -7h4l17 -18v-14l-29 -102v-12l-10 -42l-4 -8l-4 -18l-4 -11v-6l-4 -8
l-10 -40l-1 -3v-6l-10 -34l-3 -2l-15 -57v-16l-10 -19l-3 -20l-7 -14v-12l-4 -16l-3 -6l-7 -23l-6 -38l-3 -12l-2 -15l-8 -35v-15h-6v6l-4 4h-4l-5 -5l3 -3l-7 -5l3 -2l2 2h2v-2l-5 -6l5 -10l-7 -2h-3l-2 -13l-3 3l-1 10h-2l-4 -18zM122 147l5 -4h2l-3 8l6 2v12h-5zM105 75
l4 -4l3 6l7 3v12h-5v-8zM154 265l-2 -19h2l4 7v8l4 4l-2 2zM117 107v-3l7 4v11h-6l-4 -6l3 -2h2zM124 186v-2h5l3 8l8 2l-2 2l-7 3l-2 -8zM134 188v-13h4v13h-4zM114 21l-1 1v20l4 -7zM122 127l2 -4l3 6v6h-5v-8zM179 674l-3 -13l6 6v8zM134 204l3 -2h8v4h-8zM156 295l6 -2
v11h-2l-2 -8zM168 330l8 -8v8h-8zM145 222v-4h1l5 5l-3 2zM185 692l2 -3l3 2v4h-3zM173 342l3 -8h1v8h-4zM156 316h4v4h-4v-4zM197 423h4v4h-4v-4zM166 304l2 -8l1 5v3h-3zM162 624v-6l2 4v6zM193 699v-4h2l2 2l-2 2h-2zM182 361v-5l2 2v6zM93 50l3 -3v5h-3v-2zM114 74
l-1 -3h4v3h-3zM119 100v-5h2v5h-2zM85 52l2 -2v6h-2v-4zM154 275v-2h2l2 4zM146 253v-2h2v5zM134 253l3 -4v4h-3zM162 279l2 -2v4h-2v-2zM169 314v-2l3 2v2zM109 66v-2h2v2h-2zM121 191v-3h1v4zM119 160l2 -1v1h-2zM113 14h1v-1h-1v1z" />
    <glyph glyph-name="zero" unicode="0" horiz-adv-x="479" 
d="M187 64l-32 21l-25 13l-27 27l-26 41l-11 35l-9 17l-8 26l-5 22l-5 10l-5 35l4 54h-5l5 11v15l17 60l-2 5l-4 -15l-9 -24l-6 -21l-2 -2v-12l-7 -25v10l2 12v17l5 8l11 43l14 28l5 4v4l4 7l3 8l37 60l7 6l7 10l6 4l14 15l5 8l40 24l35 12l28 5l4 2l15 2l8 8l3 -2l11 -3
l6 -5h4l8 -2h9l4 -5l16 -12h2l21 -17v-11h4l5 1v-1l3 -9l5 -2v-5l7 2l-3 -4l7 -19l2 -2l-3 -3l3 -4l2 5l5 -3l-5 -12l9 7l2 -5l8 -2l-4 -4v-9h-8v-2l8 -2l2 -5h8l7 -14l2 -7h2v-4l-4 -4l2 -7l6 -2l5 -9l-6 -6l2 -4h18l-4 -8l3 -3l3 -8l-12 4l-4 8h-2l3 -11l5 -3v-5l-6 3v-3
l5 -10l-3 -3l2 -4l9 -2v-3l-6 -2l-5 -13l9 -8l-3 -5l3 -7h2l2 3l3 -1v-5l2 -6l-7 -6h-5v-17h3l2 -5l5 -2l-7 -7l-6 -2l3 -4l6 3l-3 -9v-7l-3 -2l-6 -9l-2 -8l9 -6l4 16l6 3l-6 -17l-6 -25l-7 -19l-4 3l4 7l-4 4h-5l-2 -4l-2 -3v-4l7 7v-10l5 -4l-10 -21l-4 -12h-2l-3 8
l-4 -17l-4 -4l-10 -20l-13 -7v-10l-22 -14h-6l-6 -7l-14 -7l-32 -30l-18 -11v-6l3 -4h17v-5l-34 -12l-17 -2l-4 -4h-21zM185 199l28 -7l26 4l32 16l31 30l19 29l8 24l3 3l5 16l7 13l4 17l6 16v7l5 55l-4 27l-2 6v13l-8 15l-7 27l-8 15l-8 3l-10 11v10h-2l-3 -1l-2 3l-8 9
l-2 4l-7 6l-20 -5l-8 -7l-34 -21l-22 -23l-20 -33l-26 -64l-8 -28v-19l-3 -5v-10l-2 -17v-43l6 -35l17 -44zM170 98l35 -6h9v5l-32 5l-7 7l-13 6l-8 7l-14 4v4l-10 3v-5l24 -23l13 -5zM275 103v-11h4l26 16v6zM20 297l3 53l4 -3l-2 -3l-2 -55zM337 477l-12 38h2l10 -24v-14z
M260 652l-10 5h20v-5l-3 -4zM207 631l-7 -7l20 5v2h-13zM402 207l4 -4h4v11l-4 -4l-2 2h-2v-5zM431 273l4 -8l7 9l-2 2zM339 462v8l5 -4v-13zM411 512l6 -16h2v9zM412 231l-4 -9h7l3 4zM454 323l3 2v-4l-3 -9l-3 2zM438 244l2 2l4 8v-8l-6 -7v5zM440 481h4v-4l-4 -9v13z
M186 620l-7 -5h7l6 7zM421 291v-7h2l4 7h-6zM421 239l4 -6l2 2v4h-6zM378 563v-5h2l3 2l-3 3h-2zM427 438l3 -2l2 2v3h-2zM438 321v-5h2v7zM427 477v-4h3v4h-3zM448 404l3 7v-7h-3zM427 426l3 -3h2v3h-5zM402 229v-2h2l2 2l-2 2zM427 385v-3h3v3h-3zM329 620l2 -2h3v2h-5z
M143 490l-3 -3h3l2 3h-2zM243 580v-2h3v2h-3zM427 301v-2h3v2h-3zM457 399v-3h-2zM434 394l-2 -3h2v3zM449 399h2v-1h-2v1zM457 350l2 -2h-2v2zM423 528h2v-2zM383 548l2 -2v2h-2zM434 381v-2l2 2h-2zM432 284l2 -2v2h-2zM344 526l2 -2v2h-2zM374 575v-2l2 2h-2z" />
    <glyph glyph-name="one" unicode="1" horiz-adv-x="421" 
d="M308 -13l-10 8l-2 -6l-9 20l-16 48l-8 34l-10 27l-23 97l-28 203l-7 11l-10 -6l-23 -32l-37 -35l-11 -3l-19 -8h-12l-14 18v20l8 8v2h-1l-13 -10h-4l-11 4l-5 -4l-5 1h-3l10 15l-2 7v8h-9v4l4 9l-18 -13v4l9 9v23l24 19l10 12l10 9l4 6l4 2v5l5 4l16 21l8 1l4 7l5 1l2 8
l4 6v3l10 5v7l5 4l3 9l14 17l7 1l2 5l8 10l6 12l2 3l13 14l8 14h6v8l10 13l2 -4l9 -9l5 -11h8l7 -5l-2 -6l8 -3l7 10v-7l-5 -15l15 -5v-19h3l4 8l2 -6h5v8h4l5 -10l22 -6v-19l-2 -5v-80l-2 -11l4 -4l-4 -30l-2 -7l9 -5l-5 -12v-20l5 -4v-8l5 -8v-16l4 -53l4 -8v-17l2 -14v-8
l3 -4l-3 -7l-4 -2v-2l4 -3l5 -8v-9l-2 -2l-3 -6l5 -2l2 -7l9 -10l-5 -8l6 -22l7 -2v-32l-2 -2v-5h2l4 5l6 -8l-5 -3l4 -6l-8 -2v-2h8v-14l7 -6l1 -7l3 -4v-8l4 -5l-6 -11l13 -18l3 -14l-3 -6l4 -4l-2 -2l-2 -11l-11 -9l-9 14h-5v-10l-6 12h-7l-2 -2l-5 -2l3 -3l7 3l-5 -7
l5 -10v-8l-10 15h-5v-18l-9 18h-11l-7 -3l2 -4l-2 -5v-6h-4zM390 -4l7 10l4 -3v-5l-9 -4zM341 187v-6h8v6h-8zM308 423v-3h5v3l-3 3zM238 645v-4h3v4h-3zM243 661h3v-4h-3v4zM59 365l2 2v-5h-2v3zM326 300l-3 -3h5v3h-2zM330 269v-4h2v4h-2zM287 453v-2h2v2h-2zM332 238
l2 -2h2v2h-4zM316 370v-2h2v2h-2zM266 618l-1 -2h3zM314 386l-1 -2h1v2z" />
    <glyph glyph-name="two" unicode="2" horiz-adv-x="382" 
d="M107 22l-26 21v9h7l5 9v15l-10 4l-2 6l2 2l-2 4h-7v11l5 5l-8 8l3 38l2 9v13l12 36l20 46v4l19 39l5 7l24 50l3 2l12 26l9 15l6 16l32 68l18 64v11l-22 7l-19 -6l-20 -16l-11 -12l-7 -3l-8 -15l-17 -10l-12 -2l-10 -6h-24l-10 10l-2 13h-9l7 11v4h-2l-5 -3l-12 9l-14 -6
l-6 -6h-3l9 18l-19 7v6l4 3l2 -3h4l-9 18l11 10l5 18l2 3l23 29l12 9l12 13h12l18 17h7l2 4h7l7 7l13 3l4 2l-2 -5h5l5 3h7v6h21l5 4v-8h20v4l6 4l11 -6l17 -5l5 -9h7l11 -13l6 -3l7 -16l4 -5l3 -11h20v-2h-7v-6l4 -6v-5l7 -8l9 -5l4 -7h11l-6 -21l9 4v-5l9 -20v-23l-2 -17
l-2 5h-3l-8 -18h6l5 6v-18l-8 -35l-7 2l-2 -2v-22l-5 -10h-2v2l2 2l-3 5l7 6l-4 4v10h-10v-8l3 -2v-7l-7 3l-5 -20v-9h-3l-5 7h-2l-2 -7h-3v7l-3 2l-5 -11l9 -20l-6 -26h-7v-6h9l8 6l-4 6l10 3l4 9v-7l-7 -17l-11 -8v-7l-9 -16l-2 4h-5v-4l7 -11l-4 -9h-15l-9 -20v-11l-9 3
v-10l-7 -3v-2h5v-7l-2 -2v-5l10 7v-2l-4 -4v-5l-6 -3l-3 -15l-14 -36v-10l85 13l28 -4l15 -7l10 -10l-2 -3l-12 6l-3 -3l-2 -7h-12v-5h31v-9l-16 5l-18 -9h-2l-2 -4l-8 -4v-7l10 -4l-3 -3l4 -5l-3 -3h-8v-10h16l3 -11l-9 -10v17l-11 -5l6 -4l-3 -9l3 -3h9l-6 -9h-13l-4 -5
l-17 -4l-12 -6l-15 -3l-12 -11l-4 -6l-13 -4l-5 -3l-34 -4l-20 -5h-50zM329 463h14v15h-8l-7 5l-2 -3zM257 309l6 -3h9v8h-2l-2 -3l-3 5l4 6l-8 4zM201 189l14 -4v6h-5v12h-9v-14zM222 216l2 -2h2v8l-2 2v7h-7v-13zM238 681h7l-9 10h-7l-7 2l-4 -4l16 -3zM108 50l4 -5h13v2
l-9 5l2 2v2h-2zM328 488l7 -3h5v4l-6 7l-6 -4v-4zM314 397l7 11v-16l-7 -4v9zM333 538l4 -5h3v12h-7v-7zM326 509v-10h7l2 6l-4 2l-3 2h-2zM278 335l2 -3h7v10h-3zM257 275l6 9l5 2l2 5h5l-10 -10l-3 -6h-5zM301 432v-5h6v5l-2 2zM287 430v-6h4v6l-2 2zM256 268h3v-4l-8 -4z
M301 503v-4h4l2 4l-2 2zM234 238l-5 -5h7v5h-2zM340 526v-2h5v2l-2 3zM251 327v-4h3l2 4h-5zM229 277l-3 -2h6v2h-3zM243 301v-2h4v2h-4zM328 520l-2 -3h5zM287 420l-3 -3h5zM347 552v-2h3v2h-3zM261 335v-3h2v3h-2zM222 205v-2h2l2 2h-4zM316 143v-2h2v2h-2zM215 182v-2h2
v2h-2zM76 90l3 -2h-3v2z" />
    <glyph glyph-name="three" unicode="3" horiz-adv-x="386" 
d="M151 5l-3 3h-19l-7 7l-6 -5l-5 5l-13 5h-6l-7 3l5 2l-3 2h-20l-6 3l-10 2l5 8v5l-5 2l-3 3h-18l5 6h13v21l-23 5l2 4l19 2l-7 8v9l-4 5v5h6l4 3l6 -5h10l19 -11l20 3l39 6l16 13l13 4l35 33l3 7l20 31l23 56v26l-4 5h-7l-37 8h-28l-4 4l-16 -7h-9l-6 -3l-2 8v3h-5v-8h-22
l-2 -5h-15l-9 -3l-2 5l4 13l9 13l-9 13l-9 10v7l5 17l-5 10l11 15l-5 6l78 81l39 51l19 39v12h-15l-23 -7l-32 -20l-14 -15h-7l-5 -2v7h-3l-7 -6l-10 -3h-12l-5 2l-4 -2h-7l-7 13l4 16v10l3 4v5l-12 -7h-8l6 17h-4l-7 -4l-4 5l-7 -16h-5l4 7l2 10l6 9l-7 13l-6 -8l-2 -9h-5
l-5 -2l7 9v13l24 30l34 35l37 12h5l18 9l3 -7h5l4 -4l8 4l3 7l49 -10l25 -10l12 -11l10 -18v-4h9l4 -14h-4v-2l3 -3v-6l10 4l5 -10l2 -2l5 -16l3 -2l2 -7l7 -7v-19l5 -11l3 8l-3 8l2 9l4 -7l6 -3l-8 -19l8 -3l5 -24l-4 -16l-3 -2l5 -5l-5 -18l-13 -23l-3 -13l-11 -10l-5 9
l-10 6l-6 -11l7 -6l2 -8l4 14l4 -12l-14 -20l-9 -9l-5 -11l25 -27l4 -9l8 -8l-2 -9l9 5l6 -19l5 -5l4 -20h6l8 -17v-9l3 -14l-3 -14l-4 -5v-2l4 2h4l4 16l6 3l-4 6l-5 4v4h5l7 -10l-5 -13h3v-14h2l3 6l4 -4v-5l3 -6l-5 -4v-9l4 -2l-2 -16v-6l-7 -5l-7 7l-4 -6l6 -5l-9 -4
l12 -7v-16l-7 -8l-6 -22l-7 -8l-6 6h-7v-2l12 -7l-3 -5h-5l-9 -15h6l-12 -19h-4l-8 -5l-5 -10v-8l-11 -6h-11l-12 -13l-2 -4h-5l-5 -5h-7l-3 7h-3l-4 -5l-8 -5v5h-2l-2 -2h-7l-3 5l-5 -5l-17 -5v-8l-6 3h-18l-7 -7h-11zM94 301v-10h6l7 8v2h-13zM20 64h26l-2 -3h-17z
M309 506l5 -6l4 14h-3zM354 176h6l-4 -8h-2v8zM310 149v-6l7 3v3h-7zM303 87l7 -5v6l-4 2zM298 449l3 -3h2v6h-2zM76 572v-4h5v4h-5zM254 36v-4h5v4h-5zM266 64v-5l3 2v8zM342 165v-9h2v9h-2zM301 76l-6 -5h6v5zM339 205l3 -2h2v2l-2 2zM217 11l3 -3h-7zM208 684l3 -3v5h-3
v-2zM319 531v-5h2v5h-2zM266 411v-3h3v3h-3zM303 582v-3h3v3h-3zM339 187v-5l3 3zM131 18l3 -3v5zM352 224l-3 -2h5v2h-2zM284 50v-3h2v3h-2zM303 524v-2h3v2h-3zM252 45v-2h5zM259 67v-3l3 3h-3zM317 497v-2h2v2h-2zM361 251h2v-2h-2v2zM122 25l2 -2v2h-2zM94 279v-2h-2z
M328 98h2l-2 -2v2zM282 441h2v-2z" />
    <glyph glyph-name="six" unicode="6" horiz-adv-x="434" 
d="M92 -10l-2 3l-13 6l-29 33l-12 27l-4 17l-7 6l-3 8l4 9l-6 37v90l7 36l3 8l7 38l5 10v12l28 91l46 107l11 10l4 14l10 22l10 3v10l9 9l13 16l13 12l4 12l31 28l27 9l4 4l5 2l13 12v-5l-3 -9h5l-8 -8h-4v-4h7l5 -3h15v-3l-7 -3v-12l2 -2v-21l2 -2l3 -7h9v-6l-5 -3v-2h7
l5 5l3 -3v-9l2 -2v-16l-8 -10l-2 -10l-9 -11l-5 -2l-22 -26l-2 -3l-19 -25v-4l-5 -5l-3 -7l-6 -3l-12 -24v-10h-6l-3 -6l-7 -3l-10 -39l-7 -12v-9l-8 -12l-3 -18l-10 -13l7 -6l-7 -5l-4 -12l-2 -2l-2 -18l-5 -9v-19l5 2h7l8 7h5l5 2l2 -2l-5 -5l12 3h12l25 2h4l19 2h71
l17 -2h4l15 -7l5 5l6 3l-4 5v3l11 -3v-6l2 -2l3 4h2v-6l-5 -7v-9l5 11h2v-15l5 2l2 -2v-5l-7 -2l2 -3l9 -2l5 -11l3 -3h2v-3l-6 -2v-2l6 -4v-4l-4 3l-6 -3l-2 6h-3l4 -16l-8 -2l7 -5v-12h-4l-17 -26v-27h-8v-15l-7 -8v22l-12 -8l-5 -20l-16 -6l-3 -7l-3 -2v-7l-2 3v6h-5
l-15 -9l-3 -7l-9 -5l-4 7h-3l-2 -11l-20 -8v-6l3 -11l-20 -8l3 8v4h-2l-8 -9l2 -8h6l-4 -9h-4l-2 7l-7 5l-2 -7v-7l-2 -2l-6 7h-3v-7l-7 4l-3 18l-9 -13l3 -2l2 4h2v-6l-11 -5l-10 7l-11 -5h-14l-4 -6l-15 -7h-7l-5 -3h-12zM160 126l5 -2l10 2h5l43 14l13 14l-3 2h-7l-18 5
l-35 4v7l-11 4v6h11l9 5l-2 2h-7l-4 10l-9 4v4h-19l-3 -11l3 -20l-3 -20l6 3l4 -4l-7 -4v-15l7 -7zM90 20l8 -3l7 3l4 -2h6l-4 6l-11 6l-6 11l-15 11l-9 12l-14 9v-9l6 -5l11 -22v-3l6 -7l9 -4zM314 97l6 -11h6l2 2h7v25h-2l-5 -5v-16h-5v6l-3 7l10 16v5h-2l-10 -11l-4 -13
l-6 -6v-4zM379 134l4 15h3v-28l-7 -4v17zM356 141v-5h4l4 13h-3zM342 141v-5h4l5 14zM342 92l8 11h3l-7 -11h-4zM396 172v6h2l2 -2l-2 -6zM398 187v2h7v-4zM381 176v-4h5l-3 6zM397 118l5 6l-2 -9zM284 596l-2 -4h5v4h-3zM383 108h3v-5h-3v5zM402 163v5l3 -3v-4zM365 88h7
l-3 -2h-6zM264 40h3v-4h-3v4zM369 108h3l-3 -3h-4zM306 43h7v-3zM267 197v-3l3 3v3zM197 268h2v-4h-2v4zM289 47h2v-4h-2v4zM293 623v-4h-4zM165 191l3 -2h-6zM298 73v-2l2 2v3zM287 222v-4h2zM144 214v-2h2v2h-2zM153 216v-2l2 2v2zM180 172v-2h2v2h-2zM289 635h4v-2z
M412 168h2l-2 -3v3zM412 149l2 -3h-2v3zM267 635v-2h3zM400 218h2v-2zM272 625l-2 -2h2v2z" />
    <glyph glyph-name="seven" unicode="7" horiz-adv-x="435" 
d="M151 -57h-6l-3 -10l-5 -5v9l6 25l-4 15h-2l-2 -13l-3 -2v7l-5 7l8 17l21 85l28 85l4 -7l2 5v21l7 25h8v-16l4 16v19h5l14 33l7 45l8 28v5l-8 -14v7l8 20l4 15l7 10l3 15l-2 6l5 17v17l8 13l2 3v13h3l-3 7l3 23l-3 14v7l-35 -3h-28l-10 -2h-23l-39 -4l-35 6h-34l-2 2l5 3
h6l3 2l-5 3h-28l-8 3h-8v11l4 2l10 -4h23v12h-21l-2 -3h-16l-7 7h29l11 6l-6 7v8l-10 10l3 3h12l6 7l-4 3v3h14l10 -3v7h-26v2h2l10 3l-2 8l-5 3v2l14 7l13 12l3 7h48l6 2h24l2 -2l9 4l9 -4l15 -3v5l2 2l6 -2l5 2l4 -2l7 4l4 -4l4 3l7 -3h5l8 -3l15 8l7 -13l5 10h11l2 -2
l26 -2l6 6l3 -4v-7l5 -3l4 12h4l12 -5l8 5l4 -4v-7h5v-14l-4 -10l8 -6h3v-16l-3 -5l4 -3l7 13h5l2 -3l-7 -3v-14l5 -4l-5 -5v-5l5 -2v-4h-8v-8l8 4l4 -10v-14h2l4 5l9 -14v-20l-13 -59l-6 -6v-17l-6 -5l-5 -20h6v-4l-8 -5v-17l-7 -3v-12l-6 -6l8 -9l-9 -9v-9l2 -6v-4h-9v-18
l-6 -5h-4l-5 5l-4 -7l-2 -2v-7l-4 -12l6 -5l2 11v8l5 5h6v-9h-2v-8l-4 -2v-3l-5 -10v-17l-8 -14v-14l-3 -6v-7h-16v-2l2 -3v-2h-4v-4h7l-5 -6v-9l-4 -10l-6 -2l-2 -6h-6l-3 -7v-10l3 3l8 -3v-18l-7 -5v10h-4l-8 -33l-12 -16l-5 -12v-5l-7 -14l5 -3v-12l-2 -3v-7l2 -2l2 2h3
l-3 -7h-10v-8l-5 -5l-3 4l9 14h-6l-4 -7l-2 -2v-14l-3 -2l-9 6l-6 -27v-10l-7 -5l-2 -4l-6 -4v10h-4l-9 7l-3 -17l-2 -4l-3 -13h-3l8 35l3 5l-3 7h-2l-8 -12l-4 -14l-4 -6l-2 -7v46h-4v-10l-10 -9l-5 -14l-6 -7l-6 -20v29zM315 203l3 -12h7l5 18l-3 3l-4 -5zM232 -59l11 21
h5v-5l-5 -2l-8 -14h-3zM170 113v-8l8 14v7zM272 77v-6h5l5 11zM220 284l6 4v-4l-6 -12v12zM227 -65h8v-4l-4 -3zM211 238l3 11l2 -4l-5 -14v7zM279 33l7 3l-3 -6l-4 -3v6zM334 249l3 -4h4v4h-7zM292 73h7l-7 -6v6zM356 318v-10l4 3zM316 149h4l-4 -10v10zM194 185v-5l3 7v7z
M383 621h3l-3 -12v12zM243 -23h4l-4 -8v8zM260 23v-5h2l2 2l-2 3h-2zM323 222l3 -5l3 5h-6zM218 268l2 -4v-4l-2 -2v10zM283 47l6 5l-6 -9v4zM56 570l3 -2h2v2l-2 2zM304 197v-6l2 3v6zM257 43v-3h3v3h-3zM162 78l3 8v6zM316 214v-7l2 7h-2zM255 -26l2 5v-5l-2 -2v2z
M393 406h3v-2h-3v2zM289 103l-3 -3h3v3zM391 395h2v-2h-2v2zM380 354h3v-2zM332 218v-2l2 2h-2zM388 371v-2h-2zM243 -63v-2h-2z" />
    <glyph glyph-name="eight" unicode="8" horiz-adv-x="472" 
d="M209 -5l-56 17l-30 16l-32 25l-18 27l-8 8l-14 23l-8 3v5l-6 10l-9 35v12l-4 1l-2 -3v-8l-2 -2v13l22 68l4 6l9 21l16 32l29 32v4l-12 -7l16 16l28 24l15 4l4 7l-3 5l13 -3v7l-4 3l-2 6l-10 9l-10 19l-7 8l-43 68l-22 56v5l-6 11v61l6 18l6 3v8l16 14l24 10h55l29 -7
l5 -3l33 -6l6 -6l23 -10l8 -2l40 -14l19 -9l3 -1l5 -5l10 -4l3 -6l8 -4l9 -11v-12l5 -12l5 3l3 -5l-3 -9l6 -3l-4 -4l5 -10l-2 -6v-29l-2 -7v-6l-3 -4v-5l-5 -9v-12l-9 -7l-2 -4l-3 6l3 4l2 6l3 2l1 17l-1 -2l-5 -15l-5 -8l-6 -18l-2 -3v-11l-6 -17l-3 1v8l-6 -4l-8 -22h-4
v13l-8 -3l-6 3l-9 -15l-3 6h-7v11l-10 3l-5 -2l-6 9h-7v-4l5 -7l7 -18l22 -18l18 -18l7 -11v-4l11 -4l9 -12l3 -2l4 -8l8 -4v-4l16 -14l4 -7v-6l5 3l22 -19l6 -12v-7h4l8 -14v-8h2l8 7l9 -7v-2l-10 4l-7 -6h-6l-4 -2l14 -1l6 1l2 -2l7 2l14 -27v-25l-13 -22l-34 -33v-14
l-11 -19l-30 -39l-8 -8l-2 -6l-11 -10l-8 -4l-20 -13l-34 -11l-44 -6zM181 121l7 -6l21 4h14l37 15l45 38l15 25l-8 28l-47 54l-6 10l-22 24l-3 5h-9l-9 -10l-2 -7l-34 -30l-6 -15l-2 -2l-5 -11v-9l-14 -55l8 -12l3 -16zM228 453l7 -5l9 16l3 12l5 10l11 47v20l-5 4l-2 5h-7
l-2 7l-24 9l-21 6h-25v-17l6 -11l-4 -10v-8l2 8h7v-17l5 -2l3 -8l5 -7h-6l5 -17l4 5l8 -5l-5 -3v-5l8 -2l7 -12h-3v-4l4 2v-16zM365 80l5 -5l2 3v5h6v-5l10 9l-6 3l3 5h-5l-15 -12v-3zM389 104l2 -7l8 6v12h-6zM102 344h5l25 23v2zM212 598l19 -7v1l-10 8h-9v-2zM424 209
l6 -6l5 9l-4 2l-2 -3h-5v-2zM429 181l4 -3l4 9l-8 3v-9zM421 196v-3h10l-5 4zM104 685l4 -4l3 4l-3 2zM424 219l2 -2l3 2v1h-5v-1zM442 203l2 -6v8l-2 2v-4zM368 514v-4h2l2 4h-4zM239 589l2 -5l3 2l-5 5v-2zM256 420l4 -4v2l-4 4v-2zM433 172l-4 -5h4v5zM387 559l2 2v-8z
M370 46v-2l-9 -5zM354 596l-2 -4h4zM399 254l-3 -3h3l2 3h-2zM387 250l2 -2v3zM364 299v-5h1v3zM186 524v-3l2 3h-2zM172 524l-3 -3h3v3zM378 272l2 -2v2h-2zM212 481l2 -2v2h-2zM233 438l2 -2v2h-2zM364 521v-2h1v2h-1zM396 258l-2 -2h2v2zM403 251v-1h2z" />
    <glyph glyph-name="nine" unicode="9" horiz-adv-x="400" 
d="M223 18v4h-2l-5 -5l-16 -6l-4 6l7 7l7 4l2 7l-7 3l-14 3l3 4l-5 2l-6 5l-17 7v5l-2 5v4l-13 4l-3 3v4h9v3l-8 3l2 8l13 -3h6v1l-4 4v4l-15 11v2h4l11 -5l-11 18v4l-6 14l-1 1v5h3l8 -4l3 5l6 -6h2v6l21 -15l19 -8l10 6l21 40l19 57l6 35l4 17v18h-13l-17 -8h-11l-4 -3h-8
l-5 -5h-4l-11 -4l-5 -10l-34 -8l-33 -4h-17v-2l4 -1l1 -5l38 -7l-7 -2l-26 3l-16 -3l-26 16l-30 34l-14 20l-8 25l-3 23l2 23l-3 34l5 29l2 5v10l4 8l10 28l8 15l5 13l8 8l3 11l5 6l2 7l16 21l10 6l15 15l3 6l17 10l8 8l13 6h5l22 15h8l3 2l6 1l7 5l22 2l10 6l11 -8l10 -3
l5 -7h7l3 12l3 -4v-6h4l4 -5l1 7h3v-8l-3 -1l7 -4l3 11h4v-21h6l2 -7l6 7l1 -8l-5 -4l4 -5l1 -3l4 -6h3l6 12v-15l8 -1l14 -37l3 -2l11 -80l-3 -3l5 -5v-30l5 -4l4 -18l-2 -1l-2 1h-2v-6h6v-4l-4 -3v-11h2l2 6v-13l-2 4h-2v-17l2 -10v-29l2 -23l-5 -2l5 -7l-2 -13l2 -11
l-2 -16v-37l-8 -31h-7l-4 -5h-4v-5h4v-19l3 2l3 13h2v-6l-5 -20l-5 -12l-8 14v-15l5 -3v-9l-6 -8l-5 -16l-3 -4l3 15l2 5h-8v-18l3 -9l-12 -20l-5 -2l-3 -7l-6 -6h-2l-1 -4l-17 -18h-8v7l12 5l7 6v4h-2l-8 -8l-4 4h-3l-5 -5l-3 2l-4 -3h-8l-3 -9h-2l-2 9h-1l-3 -15l-2 -2
l-2 5l-28 -29h-7zM127 412v-24h32l19 6l21 6l63 36l-11 121h-8l-31 -20l-9 -10l-8 -5l-12 -11l-10 -5l-25 -31v-8l-5 -14l-5 -9zM82 289l27 -5l-4 3l-13 3l-2 7l-8 -2l-8 10h-4l-6 5l-10 16v-14l16 -16zM329 130v-5h11l3 7l-7 4l-3 -4zM364 272h4l3 12l-3 3zM359 215v-11
l4 4v7h-4zM317 84v-5l4 5v5zM242 44l6 6l-2 3zM376 358v6l2 -6v-6zM378 314h2v-12zM353 215v-2h3v2h-3zM363 230l2 -2v4h-2v-2zM339 166v-7l3 4zM282 654h2v-3h-2v3zM308 69v-3h2v3h-2zM223 537h2l-2 -2h-2zM325 98v-2h2zM255 310v-2h2zM305 80v-1h1z" />
    <glyph glyph-name="colon" unicode=":" horiz-adv-x="119" 
d="M34 334l4 18h-2l-4 -8l-4 -4l-6 6l4 12v2l1 3h-2l-2 6l-1 1v5l-2 4l6 24l17 34l4 3l2 2l7 12h5l2 -6l3 3l5 -6l-2 -5l4 -6l3 1l4 -3l-2 -4l6 -3l7 -11l1 -1l7 -12v-13l-20 -43h-4l-2 4h-3l-4 4l-3 -3l-1 2l-2 -2h-3l-2 -4l-4 2l-6 -4l-5 -10l-6 -7v7zM34 4l4 18h-2l-4 -8
l-4 -4l-6 6l4 12v2l1 3h-2l-2 6l-1 1v5l-2 4l6 24l17 34l4 3l2 2l7 12h5l2 -6l3 3l5 -6l-2 -5l4 -6l3 1l4 -3l-2 -4l6 -3l7 -11l1 -1l7 -12v-13l-20 -43h-4l-2 4h-3l-4 4l-3 -3l-1 2l-2 -2h-3l-2 -4l-4 2l-6 -4l-5 -10l-6 -7v7z" />
    <glyph glyph-name="semicolon" unicode=";" horiz-adv-x="141" 
d="M34 334l4 18h-2l-4 -8l-4 -4l-6 6l4 12v2l1 3h-2l-2 6l-1 1v5l-2 4l6 24l17 34l4 3l2 2l7 12h5l2 -6l3 3l5 -6l-2 -5l4 -6l3 1l4 -3l-2 -4l6 -3l7 -11l1 -1l7 -12v-13l-20 -43h-4l-2 4h-3l-4 4l-3 -3l-1 2l-2 -2h-3l-2 -4l-4 2l-6 -4l-5 -10l-6 -7v7zM32 -166l2 -2v3
l-2 1l-1 -1l-3 -1l-3 -6h-4l7 34l1 10l4 15v2l-1 -1l-1 -4h-2l23 82l-3 6h-3l-1 6l2 10l-1 10l-5 7l-1 3l-12 12l-7 12l-1 13l6 -6v6l-2 13l-3 3l5 4l2 8h2v7l7 2l4 10h4v-1l13 -7l3 -9h5l2 -5l6 -5l2 -4l29 -34l15 -35l1 -15l-4 1l1 -6l-1 -8l-5 -2v-17l-6 -19l-2 -2
l-4 -13l-1 -2l-2 -7l-3 -6v-4l-4 -4l-1 -15l-6 -3l-2 -3l-2 -1l-11 -32l-5 8l-3 -15l-2 2l-4 -1l5 15l-1 4l-11 -22l-2 14l5 1v3l-2 1l3 1l-1 9h-1l-10 -19v-4l-4 -3l-2 -5zM60 -149h2v10zM69 -150v-4l1 1v3h-1zM114 -40l1 1v-3h-1v2z" />
    <glyph glyph-name="question" unicode="?" horiz-adv-x="392" 
d="M188 221l-9 8l-6 14l-13 11v41l2 22v20l4 28l11 32l1 6l23 48l7 11l9 24l4 4l8 17l3 3l5 10l8 21l15 31l8 33l-4 7l-17 5l-17 -3l-5 -2l-14 -3l-25 -15l-5 -2l-17 -12l-4 -5l-29 -26l-9 -16l-9 -9l-12 -16h-12l-3 -9l-2 7h-20l-6 7v18l-5 2l-2 4l-7 7l-5 20h-4v-3l-2 -3
l-4 20l2 4l2 12l2 2l13 24l12 10l8 12l20 17l21 15l13 4l4 6h7l9 9l15 3l3 2h13l33 10h18l1 -2l-26 -3l-16 -7l-13 -1l-24 -15h9l18 9l7 1l3 3l27 5h15l5 2l3 -3l6 3l28 -3l10 -4l6 9l-11 4l3 2h10l3 5l11 -7l11 -13v-16h6v9l7 -6l5 -9l6 -2v-10l6 -4l3 1h2l-2 -9l-4 -3
l21 -6v-5l-2 -2v-2l7 2v-1l5 -10l-5 -3v-1h5v-2l-4 -2l6 -9v-25l-5 -1l3 -2l-3 -4v-14l-4 -14l-5 -6v-4l-9 -8l5 -5l-7 -12l-5 -21l-10 -2v-5l4 -3l-10 -18l-11 -28l-7 -10l-1 -4l-23 -49l-7 -27l-7 -14l-2 -34l-3 -16l5 -4l7 -24l-4 -4l6 -4l-5 -17l-11 -5l-13 12l-20 2
l-11 10h-13v-10l-3 8h-8v-26h-2zM199 21h-11l-3 7h-8l-11 14l-8 8l-3 8l-4 4v10l4 2v6l-4 5l5 3l6 -3l3 3l-11 12l9 8l7 20l32 -15l5 -11l9 -3l3 -21h9l26 -27v-9l-4 -6l-15 -3l-5 -5l-19 -4l-3 -8zM166 9h-6l-8 6l-1 6l-4 6l4 4l11 -3l10 -11l-4 -12zM232 718h33l3 -2
l-3 -2l-5 2l-13 -2h-17zM193 39l2 -3l4 5v13h-11l5 -8v-7zM279 674l4 -3l3 7l-14 3v-3zM258 233v-7h5v7h-5zM290 429h7v5h-7v-5zM303 436h7v5h-7v-5zM336 510v-6h7l-2 2l-2 4h-3zM343 529v-2h6v6h-2zM179 687l-9 -5h10l1 2zM290 689v-5h5v5h-5zM275 714v2l9 -2l-5 -2z
M299 623l-2 -6h4v6h-2zM173 41l7 -7l1 2l-4 5h-4zM177 -1v4h3v-8zM261 346v-3h4v3h-4zM285 698v-2h3l2 2h-5zM322 471l-3 -2h7zM48 547v-2h3v2h-3zM288 406l2 -3h2v3h-4zM24 564v-3h-4zM316 667l-2 -2h5v2h-3zM247 690l5 -1v1h-5zM299 418v-2h2l2 2h-4zM288 706l4 -1v1h-4z
M288 671l2 -2h2v2h-4zM275 358v-2h2l2 2h-4zM250 710h4v-2h-2zM219 716l2 -4h-2v4zM326 667v-2h2l1 2h-3zM193 690v-1h2v1h-2zM288 392v-2h2v2h-2z" />
    <glyph glyph-name="at" unicode="@" horiz-adv-x="642" 
d="M443 171v4h-2l-1 -4l-6 4l-3 -2l-4 4l-8 4l-11 68l-1 3l-1 7l-6 -3l1 -4l2 -2l-7 -3v-1h5l2 -3l-8 -6h-6v-5h-7l-4 -5v-8h-4l-2 -2h-4l-2 -1h-4l-8 -4h-7l-5 -4l-7 -3l-12 -8l-11 -4h-40l-52 12l-18 9l-9 9l-6 2l-15 22l-3 12l3 4l3 -12l4 -3l-2 17l-5 5l-2 5h-3l2 -12
h-1l-3 17h-3v-15l-3 3l1 21l-2 18l9 20v11l14 14l7 4l7 8l36 16l13 8l29 9l29 7l45 6h14l23 7l-2 2l2 4l-11 30l-4 3l-14 5h-27l-5 1h-16l-1 1l1 2h37l22 -2l-17 5h-58l-5 -3l-27 -11l-16 -5l-3 2l-9 -4l-2 2l-7 -1l-2 -2h-5l-2 2h-8v1l6 3l7 7l3 2l1 9h-1l-1 -2l-6 -1
l-1 -5l-7 8l-3 1l-1 5h-1l-1 2l-6 3l5 6l-5 11h-4v2l2 3h3l4 2v2h-5v5l7 5v3l2 1l-2 8l21 10l10 3l2 2l35 11h4l9 4l40 3l9 -3h15l7 -4l13 -2l27 -18l6 -7h4l11 -11v-2l6 -8l3 -6h5l4 -8l8 -10l12 -12l13 -20l15 -35l-4 -4l2 -2h2l-1 -2l1 -7h-3l2 -11l-4 -2l1 -1h7v-7l2 -2
v-14l5 -27l-2 -1l4 -22l-2 -11l3 -6l1 -12l5 5l18 36l3 2l12 39l6 25l5 32v61l-3 24l-2 5l-4 22l-4 9l-1 7l-27 36l-27 28l-4 7l-16 11l-10 5l-3 3l-34 8h-57l-37 -8l-39 -14l-26 -15l-3 -2l-26 -21l-38 -38l-32 -50l-12 -29l-9 -16l-18 -62v-2l-4 -53l1 -46l3 -33v-3
l11 -44l14 -30v-3l2 -3l3 -8l5 -9l1 -5l4 -4l18 -34l3 -3l6 -12l20 -27l3 -7l23 -13h24l14 5h4l12 6l19 4l6 6l5 2l2 2l16 9l3 -1l2 5l8 6l5 2l7 6l3 2l5 5l3 2l8 8l12 7l-4 -6h4l6 7l2 7l5 3l-4 -7h7v-11l-5 -7l-6 -5l-2 -4l10 3l1 -9l-3 -6l-10 -10l-4 -2l-4 -6l-2 -2v-1
h2l2 1l13 7l-4 -9l5 2l-7 -13l3 -4l9 3l2 1l3 2l2 3l10 4v-2l-5 -5l-2 -3h-5v-15l-6 -2l-7 -6l-2 -8l-13 -6l-3 2h-1v-4l-10 -5l-2 -2l-3 -2l-8 -6h-4l4 5h-2l-3 -4l-3 -1l-3 -6l-5 5l-6 -6h-1l-2 -3l-13 -5l-1 3l-2 -3l-21 -6h-40l-8 4h-5l-3 4l-6 1l-4 2h-3l-9 7l-4 -5
l-7 5h-13l-25 16l-24 24h-3l16 -18l1 -4l8 -10v-4h-1l-7 8l-4 10l-14 13l-18 27l-3 9l-10 15l-39 76l-1 5l-7 13l-7 20l-4 8l-5 23v4l-4 9l-1 19l-3 7l-5 42v18l2 3l-4 4l2 13h3v5h-4l2 6h3l-3 12l4 27l9 41l11 36l12 29l8 8l2 9l3 5l4 11l8 12l6 6l12 22l8 3v6l8 6l3 1
l-2 3l2 4l8 8l4 2l2 5l12 6l2 3h2l4 7h2l13 13l3 2l4 3v-4l8 4l5 5l23 13l9 4v2l-4 2l22 10v-2l-8 -3l-2 -6l13 4l1 2l36 11l3 -4l6 6l24 3h8l3 2l12 2l-5 4l-38 -6l-6 -2h-5l-16 -5h-5l1 2l11 4l57 9h22l3 -2h23l34 -4l45 -18l8 -5l17 -8l4 -9h5l3 -5l4 -1l11 -15h3l3 2v-5
l10 -5l10 -10l7 -5l4 -6l7 -7v-5h6l7 -9v-7l2 -2l3 3l5 -8l6 -6v-11h2l5 -5l5 -1v-8l3 -4l3 4l2 -2l-3 -6l5 -9v-3l-2 -2l2 -5l5 2v2h2v-3l-3 -3l1 -11h2l2 4h2l-2 -7v-8l-4 -3v-4l6 6l3 -2v-10l-2 -2v-5l-5 -3v-4l5 3l2 -4v-13l4 -5v-36l-3 -6l2 -3v-13l-2 -7v-11h-1l-2 -2
l3 -5l-1 -3v-8l-4 -18v-4l-5 -18l-2 -3v-10l-5 -8l-5 -14l-15 -33l-9 -10v-6l-7 -10l-3 -2l-2 -5l-11 -11l-11 -15l-29 -14l-9 -2l-2 -1l2 -8h-4v6h-3l-5 -2l-1 -2l-1 1l-3 -1h-9v-5h-4l-1 5h-6v-2l-4 8h-1l-1 -9l-3 3l-4 18l-1 -4l1 -16l-3 -3zM260 287l42 -3l48 11l25 10
l23 3l3 5l-2 12l1 2l3 -5v15l-4 12l1 -19l-2 1l-2 18l-3 3l-9 -3l-40 -6h-4l-30 -7l-4 -3l-8 -2l-20 -8l-23 -12l-10 -14v-3l8 -2zM199 229l15 -2l-1 2l-9 11l-3 1l-12 17l-7 3l1 -6l10 -20zM389 270v-5h17l-1 13h-5l-6 -9l-1 1h-4zM338 708v-4l8 4l-4 4zM191 10l11 -5v3
l-11 4v-2zM391 109l-3 -9h3l3 6zM481 343l4 -2v3l-2 2l-3 5zM162 27l11 -7l-8 8h-3v-1zM576 574v-4l5 2v2h-5zM404 133h2l-3 -5h-2zM172 649l1 -4h2v4h-3zM378 53l-1 -2h5v2h-4zM160 7h4v-3h-2zM398 289l-2 -4h2l2 1zM548 610l-2 -4h2l2 2zM175 -8v2l5 -5h-2zM477 359v-2h3
l1 2h-4zM352 105l3 -2v4h-1zM455 456l1 -2h2v2l-3 1v-1zM403 272v-3h-4zM375 118v-1h3v3zM409 136v2h2v-3zM155 33l5 -3l-5 5v-2zM604 519l-2 -5l3 3zM540 608v-3l3 5zM401 263v-2h2v2h-2zM393 53l2 -2v4zM522 623v-2h2v2h-2zM587 277v-1h2v3zM382 223h2v-2h-2v2zM442 693
v-3l2 1zM605 509v-3l2 2zM41 406v-1l2 1v2zM462 445l2 -1v2h-2v-1zM594 543l1 -1v3h-1v-2zM377 74v-3l1 1v2h-1zM192 488h2v-1h-2v1zM264 685l-2 -2h2v2zM367 108v-1h2v1h-2zM362 112l-2 -2h2v2zM498 652v-2h1v2h-1zM346 377l-2 -2h2v2zM243 667l-2 -2h2v2zM413 701v-2h1v2
h-1zM605 375v-1h2zM329 4v-2h-1zM246 694v-1h-2zM401 86v-2h-1zM175 339v-1h2zM595 522l2 -1v1h-2zM169 -3h1v-1zM165 307v-1h1z" />
    <glyph glyph-name="A" unicode="A" horiz-adv-x="554" 
d="M93 25l-3 3l-6 -12h-5l-5 -6l-6 18h-6l-4 7l-3 -7l-9 -5l-8 12l-2 -6h-3l-2 7h-4l-7 11v19l5 22l2 20l16 84l1 10l7 39l2 4l3 16l17 67v7l79 283l25 56l3 -2l2 -9h4v-7l2 -1l2 4v10h9l4 -4l-4 -2v-4l2 -3l2 -6h11l3 6l4 -8l13 2v-11h4l6 10l12 -9l4 -14l7 2l2 2h7l5 -12
l10 -4l3 -8h6l1 -4l5 4l7 -14l13 -4l7 -7l25 -59l6 -6l68 -123l59 -128l10 -29l3 -4l13 -35v-13h6l3 -11v-12l7 -3v-35l1 -7v-11l-4 -1l-6 -7v-6l2 -5l-2 -4h-3v6h-8l-6 -6l-12 8l-6 -6h-6l-5 8l-15 3l-6 3l-3 -7l-4 4l-6 3l-10 18l-4 16l-11 26l-2 9l-24 50l-6 8l-5 16
l-5 4l-8 17v-8h-9l-4 -2l-2 2l-3 -6l-24 -10l-4 -4l-16 -6l-10 -7l-84 -30l-14 -7l-28 -6l-7 -6l-8 -51l-3 -6v-14l-6 -26l-4 -2v-11l1 -7l-1 -14l-8 -18l3 -2l-5 -12l-3 3v24h-3l-2 -11l-6 7l-3 -4v-6h7v-8h-7l-4 2h-5l-1 2l-3 -2h-9l-1 -6v15zM192 308l3 -7l6 3l122 35
l3 3l-9 14l-37 66l-37 76l-8 -16l-9 -40l-3 -7l-16 -63l-1 -7l-9 -33v-4l-3 -5zM116 58v-4l3 1l1 7zM127 47v-2h3v2h-3zM132 55v-4l2 3zM127 64v-2h3z" />
    <glyph glyph-name="B" unicode="B" horiz-adv-x="680" 
d="M221 2l-14 6l-3 -15l-13 13l-3 -6h-7l-6 9h-8l-2 -4l-9 9h-19l-3 9h-9l-12 12l-4 49l-8 30l-4 38l-7 38l-10 124v97l9 98l-8 4l-13 31h-13l-3 10l-9 19l-5 2v12l-2 2l-7 -3l-9 18l13 9l12 11l14 7l12 12l26 9l2 3l10 3l25 17l76 24h2l5 3l9 2l9 5h29l6 6l9 -4l12 6l22 -3
l8 -4l6 6l9 5v-3h5l5 5h11l5 -5h19l2 -8l10 5l11 -6l7 -7l4 3l18 -13l13 -7l5 -9l5 -2l5 -5l9 -5l12 -12v-9l5 -5l2 -7h7l15 -14l-4 -8l3 -10l-7 -15v-11l-11 -11l-5 -18l-10 -4v-5l-14 -19l-9 -9l4 -5h73l14 -4l5 -3h5l7 -5l8 -2l3 -7l10 -2l11 -12l10 -5l8 -15l11 -6l7 -7
v-15l9 -6l2 -5l19 -18v-5l-4 -5v-25l-25 -41l-6 -7l-12 -18l-26 -31l-86 -89l-22 -14l-18 -19l-54 -45v3l7 7v2h-3l-4 -5l-10 -4l-4 -5h-7l-35 -23h-5l-6 2l-10 -3l-8 3h-12l-2 -5l-14 -7l-2 3l4 4v3h-4l-5 4v10l-2 4v6l-7 -3l-3 2h-19v5l3 4l-9 4l9 8v4l-16 -8l11 14h-7
l-5 4l5 10v18l5 12l12 5l18 14l18 11l6 5l21 12l23 19l3 2l7 3l14 11l9 10l14 7l26 20l5 10l5 5l2 5l9 2l7 9l5 3l19 21l4 14l19 19l6 11l-6 5h-16l-82 -21l-21 -7l-38 -9l-7 -3l-31 -9h-11l-18 -12h-16l-11 -7l-4 -8l-19 -7v-8h30v-9l-36 -6l-11 -11v-62l27 -168l-8 -7v-7
l2 -3l3 7v-7l-4 -11l6 -3v-7h-5l-4 -9h-3v9zM208 473l2 -35l34 36l4 2l14 14l10 5l16 16h5l31 27l16 34l-64 -6l-58 -14zM390 87h11l-11 -7v7zM317 594l-3 -4l20 4h-17zM235 326v-5h7l-2 5h-5zM78 495l2 5v-5l-2 -2v2z" />
    <glyph glyph-name="C" unicode="C" horiz-adv-x="446" 
d="M95 118l-19 20l-14 24l-4 23l-14 23l-5 3l-5 21l-14 21v54l24 94l5 7l19 46l52 96l56 65l36 24l12 5l7 5l44 14l15 3l41 -8l3 -2l5 -2l10 -11l21 -4l10 -7l12 -3v-9l11 -3l4 -14l12 -8h7v-5l-12 -12l-7 -2l-15 -8h-12l-51 -12l-8 -7l-24 -9l-27 -20l-39 -43l-34 -59
l-5 -6l-16 -38l-5 -15l-10 -19l-3 -15l-14 -52v-31l7 -6l58 -4l132 27h7l12 3h15l-2 -3l-4 -9l23 -8l5 -5l-4 -3l-4 4l-14 -5l10 -3v-5l-5 -2l3 -16l-6 -12l-7 4h-12v-8h5v-5h-10l-3 -5l9 -5l-3 -7v-7h-3l-5 5h-2v-5l-5 -2l-10 -10h-7l-4 4l-11 -4l-7 -7h-7l-20 -3h-14
l-5 -5h-15l-13 -6l-10 10l-17 -8l-25 5l-3 -3h-12l-7 7h-20l-7 5l-12 5l-8 7h-14l-3 -5l-7 3l-10 10v-10l23 -31l19 -13v-2zM47 165v5l16 -23h-4zM341 177h5v5h-5v-5zM382 186l3 3v-7l-3 -3v7zM387 262v2h7l-4 -5zM363 245l2 -3l3 3v2h-3zM373 208l2 -2h2v2h-4zM394 218h3
l-3 -2v2zM329 245v-3l2 3h-2z" />
    <glyph glyph-name="D" unicode="D" horiz-adv-x="552" 
d="M155 29l-4 23h-6v-17l-5 10l-5 2l-9 6l-2 -13v-7h-5l-11 11l-8 45l-12 101v33l-4 28v101l2 7l-2 10v131l4 38l-4 4l-9 3l-3 11l-3 4l8 15l2 3h-5l-7 7l-11 -5h-5v5l5 4l-5 5l-12 2l2 5l-14 14l7 4v5l-14 4v19l24 8h14l7 5l12 4l28 6l5 8l23 -4h26l3 3l27 -8h14l5 2l9 -4
h17v2l-9 2v3l32 -5l47 -12l30 -10l31 -18l5 -5l8 -4l30 -24l4 -2l12 -12l9 -5l9 -16h6l28 -36l4 -9l9 -4l17 -26l3 -11l7 -3v-10l7 -3v-11l9 -9v-14l-3 -11l3 -5h-11l6 -10v-9l-4 2l-4 -4l11 -5v-5l-5 -5l-5 -9l3 -2l5 2l-5 -24l-7 -7v-14l-3 -4l-4 -14l-5 -8l-2 -9l-8 -12
l-4 -2l-12 -31l-7 -3v-11l-9 -8l-12 -22l-7 -9l-5 -10l-7 -7l-2 12h-3l-9 -12l5 -10l-29 -36l-10 -7l-4 -6l-11 -8l-3 -6h-8l-6 -11l-21 -22l-14 -5l-2 10h-10v-9l7 -3v-4l-4 2h-7v-14l-3 -2v3l-7 4l-3 14h-4v-14l3 -5l-3 -2h-7l-5 2h-2l-6 3l-9 -6l-7 4l-15 -8h-7l2 5l-8 7
l-4 -7l-3 10l-10 -9l4 -4l7 3l-5 -10v-4l-8 7l-4 -9l-6 11h-12l-3 12h-8l-4 -10v-11zM206 146l3 -3l16 7l79 80l14 17l5 4l49 71l38 72l11 28l-9 17l-35 35l-14 5l-11 8l-24 11l-31 3l-9 6h-5l-3 7h-30l-4 2h-38l-4 -8l5 -9l-4 -10l3 -9l-2 -13v-14l-3 -21l3 -33v-117l-3 -7
v-24l4 -11l-6 -12l7 -41l-5 -9l3 -9l-4 -7h8zM340 507l9 -5v3l-24 16l-21 7l-4 3l-31 10l-46 9l-4 -4l7 -7l37 -7l27 -13h5l8 -6l6 3l7 -2l4 -3l3 3l7 -5zM419 448h3v13l-10 16l-16 16l-5 2l-21 14h-4l35 -37zM320 69l4 -4l31 30l-5 5zM321 86l8 -4l7 19l-3 2l-12 -11v-6z
M368 119l9 -5v8l-2 5v9h-7v-17zM490 298l7 -3v8l-5 5h-9v-10h7zM476 263l2 -2l5 4v14h-7v-16zM485 288l2 -9h5l5 5l-7 10zM274 47l2 -5h3v12l-3 2zM381 135l4 4l-5 10l-3 -3zM189 182l3 -4l7 4l-3 4zM412 186v-8h5v8h-5zM433 183v-5h3l3 4l-3 4zM444 201l4 -4l3 4l-3 3z
M473 254l4 -4l3 4l-3 3zM365 108l3 -2l2 2v5h-2zM440 228l5 -5l3 2l-3 3h-5zM396 139l2 -3l3 3v2h-5v-2zM403 157l2 -2l3 2l-3 3h-2v-3zM438 193l2 -3l3 3l-3 2h-2v-2zM311 82l3 -2h2v2l-2 3zM389 148l2 -2l3 2v2h-3zM363 141v-2l5 4v3zM358 514l3 -2l2 2l-2 2zM347 108
l2 -2l2 2l-2 2zM192 216l2 -2l2 2l-2 2zM220 52l-3 -3h3l2 3h-2zM502 305v-4h2v2zM243 664l3 -2l2 2h-5zM271 66l3 -3v3h-3zM516 455v-2h2v2h-2zM389 132l2 -3v3h-2z" />
    <glyph glyph-name="E" unicode="E" horiz-adv-x="459" 
d="M48 18l-7 29l-7 91l7 135l-3 38l-3 7v229l5 20l5 11l-3 6l5 9v13h-13l4 14l2 3v7l-10 -5l-2 2l2 7v10l-5 -4v14l-2 2l-3 24l20 6l2 -6l15 4l5 9l16 -3l7 -4l30 7h38l9 2l3 -5l5 5l12 2v-7h5l2 7h13v-9l4 9l18 5l9 -2l22 2l3 8h7l6 2l3 -2h12l7 -8h15l5 5h-17l10 4h10l7 9
h4l5 -3l7 3h64l14 -6l-18 -18l6 -7l6 4v2l-4 2h11l-4 -9l-3 -3v-5l10 -4l-2 -7l-9 7l-3 -10h-4l-3 5h-14l-4 -12l3 -5l6 -3l-4 -26l7 -4v-19l-7 -3l-7 -8h-19l-7 -2h-63l-9 -5h-10l-5 -2l-31 -3l-14 -14l5 -4l25 4v-3l-2 -2v-5h-2l-3 5h-7l-8 -7h-14l-51 -6l-9 -6v-73
l-3 -10v-31l-4 5v-9l14 -4l15 8h14l4 5h9l4 3h4l3 1l7 3l3 -4h8l4 7l7 -4l11 12l4 -4l4 -8l8 -3l-3 -7l4 -10h6v9l-4 9l7 13l4 -10l3 -3l-7 -5l4 -13l5 -6h5l-5 -4v-10h-9v-7l9 -4l-12 -8v-10h10l-3 -10v-10h-10l-7 22v-9l-9 -5h-5l-5 -8v-7h7l11 8l4 -8l5 -5l-8 -23l-2 -3
v26l-10 -6v-20l-5 -5l-14 -7h-8l-8 -9l-10 -3l-25 -12l-18 -6l-9 -10l-5 -13l3 -2l-5 -3v-10l3 -2v-5l3 -11l-3 -10l-5 -6v-2h2l5 5v-5l-5 -5v-10l4 -3l-6 -6v-14h11l54 21l24 12h10l6 7l4 -9l2 5v6l17 8l10 3l14 10h13l4 4l11 -8l4 15l7 -7h2v5l-2 5l12 4l2 -4l4 8l20 4
l3 -5l-3 -3v-4l3 -3l7 7l5 -8l-2 -9l-7 -2l-3 -7l-5 -5v-4h7v-13l-2 -2l-3 5h-2v-7h-2l-5 4l-5 -10l-6 12l-9 -9v-14l-14 -5v-10h7l7 7h5v-10l3 -2l6 -11l-16 -8l-6 -14l-4 11l-3 -11l-5 6l-4 -6l-21 -23h-6l-7 -4h-4v-7l-5 -10l-8 -5l-3 -11l-6 9l-10 -5l-5 -12l-2 -2v-6
l4 -3l-45 -14l-4 8l-4 -6l4 -3l-16 -3h-19l-7 -3h-40l-5 -10h-8l-15 -4h-31zM306 412l2 4l-3 11h20l-9 -5v-7l2 -5l-12 -5v7zM359 214l7 -7h7l4 8l-4 5l-6 -4l-4 5l-4 -1v-6zM282 55l11 24l7 5l-1 -7l-8 -7l-7 -17l-2 -3v5zM267 388l5 -4l4 4v7h-9v-7zM57 33l5 -4h3l-8 20
v-16zM431 697l-3 3v4l11 -2l-5 -10zM341 141l3 -4h7v7h-7zM390 197l10 6l-3 -8zM407 623h7l-7 -6h-3zM141 688l5 -3l3 3v2h-8v-2zM400 221h3v-1l-13 -13zM306 72v5l2 2l2 -5v-4zM245 321v-6l3 3v10zM373 236v-9l3 2v5zM216 38v-7h3v7h-3zM291 62l5 3l3 -3l-6 -2zM230 48
l3 -2v7h-3v-5zM385 248h9l-7 -4zM347 217v-10l2 3v7h-2zM359 231v-7h2v7h-2zM112 685l3 -2v5h-3v-3zM419 704v6l2 -3v-5zM407 647l3 -3v-2h-3v5zM356 197v-2h3v5zM407 197l4 6v-3l-4 -5v2zM151 212v-5h2v5h-2zM250 169v-5h2v5h-2zM279 82v-3h3v3h-3zM387 229l3 -2v4h-3v-2z
M390 700v-3h3v3h-3zM233 40v-4l3 2v2h-3zM195 690v-7l1 2v8zM337 700v-5h2v2zM361 159l2 2v-2l-2 -5v5zM317 702v-2h3v2h-3zM303 567h3v-2h-3v2zM332 91v2h2v-4zM424 695h3v-2h-3v2zM403 234v-3h-3zM407 161h3l-3 -2v2zM296 451h3v-2zM397 711v-1h3v1h-3zM325 711v-1h2v1h-2
z" />
    <glyph glyph-name="F" unicode="F" horiz-adv-x="571" 
d="M312 -24l-8 9l-6 -7l-17 18h-10l-4 4l-5 -4l-15 14l-5 8l-11 11l-18 56l-22 95v3l-2 15v7l-7 28v15l-6 20l-3 17l-6 9l-4 3v9l1 3v5h-1l-4 -6l-9 5v16l18 11l-5 54v53l-7 17l-38 -29h-12l-20 21l3 4l7 3l3 6v5h-5l-19 -12l-3 6l7 16v2l9 12l-11 6l-2 4l-4 4l6 8l-11 4
l-13 14l-5 2l-7 5l-10 3v4l3 2l1 5l7 6l-5 5l-3 -3l-6 -3l-2 -3h-5l3 7l-4 11h8l13 7l10 4l11 8l12 5l4 8l16 13v-6l7 -3l3 -3l5 6v7l14 5l12 12l6 2v12l1 3v7l-7 2l-2 8l3 7l19 -9l3 -7l16 9h5v-5h10l7 5l8 2l6 4l5 -5l3 4l8 2l7 7l7 3l15 14h11l11 8h19l15 7h12l19 7h10
l2 5l53 7l8 3h24l22 -7l15 -10h5l4 -5h7l19 -8l7 -14h4l7 -7l12 -3l-3 -6l3 -10v-6l-2 3h-6v-5l-1 -2l-4 6l-6 -6l-10 -3l-10 -7l-19 -2l-2 -12l-12 -13l-10 -6v-9l24 -4l12 -5l-9 -3l5 -9l-106 -18l-33 -12l-10 -2l-20 -10l-33 -11l-15 -10v-5l5 -3l-6 -9l14 -100h9l30 19
l26 10l6 6l42 8l15 6h26l7 -3l6 3l3 -4l6 4v-10l6 -3l1 -2l6 2h11l4 -12h1v8l4 3l14 -13l2 5l14 -10l7 -2l-1 -3h-10v-14h-12v-10l2 -6l-12 -9h-8l-9 -7l-20 -12l-9 -7l-25 -12l-12 -13l-21 -8l-4 -9l-48 -32l-10 -4l-22 -15v-4l3 -3l19 10l30 19h12l12 5h10l27 13v-7
l-63 -36l-4 -6l-42 -21l14 -79v-10l2 -2l2 -10l3 -5l7 -38l9 -14l6 -23l3 -5l8 -29l15 -21l-14 -3l-5 -3l-4 4l-3 -7l-7 6l-5 -6l-7 7h-8v-16l-5 -5h-15zM495 401v-11l3 4h7v7h-10zM502 416v-3h5l6 7l-3 3zM476 394v-10h2l5 10h-7zM315 -3l3 -1l4 4l-2 3h-5v-6zM82 612v-7
l7 4v3h-7zM481 411v-5h2l4 4l-4 3zM546 678l5 5l-3 -7l-2 -2v4zM529 681l3 -3v3l-3 5v-5zM72 482v-3l-5 -3zM544 421h4l-2 -2zM340 -10h2l-2 -4v4zM67 591v-2l2 2v2zM466 727l3 -2v2h-3z" />
    <glyph glyph-name="G" unicode="G" horiz-adv-x="631" 
d="M135 -18l-30 11h-10l-7 7l-4 2l-12 12l-11 6l-28 56l-8 63l-5 21v35l10 91l7 19l2 12l12 38l2 2l9 23l5 5l5 14l2 2l5 12l5 17l5 6l6 17l7 9l19 36l33 47l9 9l43 50l32 22l9 18l13 6l7 7l35 12l2 2h5l5 -4h7v-5l13 -7l5 -16l8 -3l6 -9l4 -10l27 -33v-15l-47 -23l-23 -18
l-53 -52l-49 -75l-23 -46l-14 -38l-5 -9l-2 -7l-5 -10l-2 -9l-5 -3l-2 -4l4 -5l-9 -12v-4l-2 -5v-10l-2 -7l-5 -42v-58l6 -20l46 -4l25 5l61 19l19 9l7 2l21 10l10 7l14 4l2 5h5l4 -4l6 13h9l2 -4l3 13l11 3h7v5l9 9h9l3 10l13 2l6 23v33l-5 16l-28 -4l-7 -7h-7l-45 -5
l-9 -2h-15l-6 -12h-9v7l-10 5l-5 5l-4 2l-6 11l7 10l-6 3l5 2v5l-17 2l-4 7h-10l10 6l-7 22l-7 2l4 3l3 5l2 2v2h-5l-9 5l-2 7l-4 6l15 3l16 6l5 -5l4 9h10l3 -3h2v5h7l5 -2l5 4l42 7l87 8h9l21 2h12l44 4l10 -6l9 -12h5l3 -13l16 -4v-16l5 -7l9 -5l-3 -10l5 3l5 5h2l-2 -10
l-10 -4l4 -13l6 3v5h7v-5l-2 -4v-14l3 9h6v-7l4 -12h-18l-24 -2h-35l-4 -5l7 -14l15 -15l-4 -55l-6 -7l6 -12v-24l-4 -18v-78l-5 -9l-6 -16l-4 -31l-9 -10h-5l-2 12l-8 -4l-7 18l-4 -12l-11 -8l-3 6l-2 2l-3 6l-8 -4l-8 13l-2 21l-7 -7l-3 8l-9 5v12l-9 -9l-5 -9l-9 -5
l-4 -7l-10 14l-10 -16v-5h-5l-4 9l-11 -19l-9 5l-4 -4l-2 -8l-21 -4h-10l-4 -5h-5l-2 2l-3 -2v-4l-33 -8h-14l-11 -2h-10l-38 -4l-18 6l-7 7l-8 -5l-20 10l-10 2l-4 3l-15 3l-8 8l-13 3l-16 14l-12 6l-13 19l-7 4l-3 6l-4 -3l4 -11l7 -2v-5l-3 -2l5 -5l5 -9l14 -17l2 -8
l17 -11l28 -14l9 -2v-4zM166 -16h21l-7 -3h-33zM393 56l3 -2l2 2v5h-5v-5zM415 70l2 -2v10l-2 -3v-5zM314 143l2 -2l2 2v3h-2zM328 24v-3h2v5zM417 85l2 -3v3h-2zM368 42l2 -2v2h-2zM403 40h2l-2 -2v2z" />
    <glyph glyph-name="H" unicode="H" horiz-adv-x="487" 
d="M186 -5v9l-10 -8l-6 10h-17l-10 10l-26 6l-3 -9l-7 13v16l-9 22l5 10l-11 95v7l-11 101l-10 12v15l7 7l-29 4l-2 6l-3 3v7l-5 7l-4 11l-12 8h12v5l-13 5l-2 20l10 4h43l2 104l27 156l3 8l3 21l14 29l4 -5v-9h3l2 2h3v-2l-7 -6l7 -7l8 20l8 -8l-4 -4v-14l7 -5l2 5l3 -3
l7 4l-5 -21l-2 -2v-12l2 6l8 -4v-10l4 3l5 -4l2 16l3 -5l17 -8v-10l8 -4l12 -14l-3 -8l-6 -23h-4v-22l-7 -15v-50l-8 -24l3 -4l-3 -23l3 -21v-16l12 -5l46 4l44 7h26l14 6l3 22l2 61l3 19l2 63l4 9l3 42l3 7v24h6l5 59h3l13 -13v-14l2 -4l5 15h4l6 -9v-12h1l6 5h2v-8h5v-7
l8 -21l6 7h5l-3 -7l13 -12l2 -6l22 -21v-46l-5 -10v-4l5 2v-17l-8 -8l4 -8l-5 -21l6 -19v-12l-6 -9h4v-5l-3 -7l3 -9l-2 -5v-16l-4 -18l4 -3v-12l-7 -3l5 -9l-3 -36v-13l-2 -1l-3 -42l-5 -10v-36l-3 -23l4 -9h-3l-3 3h-2v-19l-5 -10l-2 2h-3v-4l5 -5l2 5l3 -19l-5 -10
l-6 -24l8 -7v-10h-4v-7l-2 -3l1 -19l-6 -61l-3 13v17l-5 -10v-10l-2 -7l-5 7l-9 -9l-3 6l-16 20h-4l-4 3l-3 -15h-2l-3 13l-5 4l-11 2l-3 6l-9 -3l-5 -5l-10 14l-5 27v89l5 58v47l-12 -3l-3 -5l-14 -7l-60 -8l-7 -2l-23 -3v-9h6v-10l-6 -3l4 -20l-4 -8l3 -17l3 -2l2 4l2 -8
l-4 -21v-14l-4 -21l8 -3v-7l3 -8l-3 -5v-4l-3 -11l6 -6v-10l-4 -4l4 -22h-5v-23l6 7l-4 -11v-7l-2 -3l-5 3l-4 -6h-3v-4l3 -3v-7zM436 299h9l3 19h-5v-10zM203 38h6v12l-3 3l-3 -3v-12zM438 277v-7l5 5l4 8l-4 4zM443 386h7v5l-7 4v-9zM416 77v-5h5v5l-3 2zM438 255v-11h4z
M418 120v-7l3 3v4h-3zM448 367v-8h2v8h-2zM428 241v-5h3v5h-3zM418 144l3 -2v5h-3v-3zM448 379v-5h2v7zM196 178v-5h3v3zM397 79l3 -2v5h-3v-3zM431 193l2 -3v7h-2v-4zM435 317l3 -3v7zM203 116v-3h3v3h-3zM203 31l3 -2v4h-3v-2zM431 93h4l-4 -4v4zM438 335v-4l2 1v3h-2z
M453 468v-2h2v4zM440 178h3l-3 -2v2z" />
    <glyph glyph-name="I" unicode="I" horiz-adv-x="203" 
d="M119 70l-8 -4l-12 12l-4 -4v-7l-10 3l-6 6l-13 3l-22 25l-14 29l-5 34l-5 24v115l5 29v24l2 15v7l10 97l5 13v19l2 5v32l3 4v76l2 2v5l-2 3v17h7v12l-5 2v5l2 -2h5l4 6l23 -11h15l7 -8l7 -2l3 -2l13 -4l6 -6l3 -5l21 -15l15 -6l-16 -423l8 -88l9 -27l9 -15v-5h-12l-3 2
h-17l-5 3l-9 2l-8 4v-11zM44 661h3v-5zM64 658v-2h2v2h-2z" />
    <glyph glyph-name="J" unicode="J" horiz-adv-x="470" 
d="M322 -40l-9 -4l-3 3l7 7h-12l-4 -5h-6l-5 3l-13 4l-6 6l8 3h4v2l-25 12l-9 7l-6 2v4h15l5 3l-14 9l-2 1l-16 14v5l5 2l-9 16l-32 41l-6 24l-4 7l6 11l9 -12l6 3l7 -2h7l23 -23l5 -3l15 -17l25 -25l11 9l15 28l15 72v54l-5 43l-19 76l-6 36l-3 28l-8 21h-45l-47 7h-14
l-36 5h-30l-35 9h-27l-13 11l5 9h10l-30 30v14l9 -4h11l-6 12l2 4l3 15l6 6l-3 3l-17 -7l-2 8l-3 2v7l5 5l4 -3v12l-4 5l2 17h11v12l19 -5h4l15 -5l80 -11l13 -4h88v22l-6 50l5 8l-4 27l-5 9l4 12l-5 5l2 4h16l4 -2l9 -2l6 -12l7 3h9l3 -9l6 -3l4 -6h8l3 -3l6 3l-3 -10
l30 -16l7 -11l4 -49v-18l4 -8l3 -24l9 -18v-11l-2 -5l2 -4l-2 -5l11 -62l5 -14v-11l4 -9v-21l6 -8l7 -34l11 -32l10 -54l3 -9l-5 -18h6l2 -25l3 -11v-70l-7 -20v-43l-6 -20l-3 -4l-2 -7l-7 -14l-4 -11l-5 -5l-3 -12l-19 -19h-18l-9 -5v5h-5l-2 -5l-4 4l-5 -8l-5 -3v7h-4
l-3 -4l-2 2h-5l-3 -11zM274 457l5 -2l2 2l-3 4zM423 76l2 -2l3 2v2h-5v-2zM428 240l1 -1l3 1v3h-3zM263 698v-7h3zM326 -32v-4h3v2zM428 88v-3h1v3h-1zM353 -23l2 -2v2h-2zM20 601h2l-2 -2v2zM434 141l3 -1l1 1h-4zM24 612h2l-2 -2v2z" />
    <glyph glyph-name="K" unicode="K" horiz-adv-x="568" 
d="M132 57h-5l-2 -9l-5 5h-7l-5 -3l-10 5h-5l-4 -2v7l-5 5h-5l-5 -5l-7 6l-8 -4v6l-12 9l-11 4l-16 76v192l13 129l7 39l2 25l3 22v2l2 5l5 22l-4 12l9 28l7 62v10l5 38l-5 3v5l8 2l3 -6l7 7l16 -8v-10l6 -6l6 6h8v-9l7 -3l5 -5h7l3 -2l7 -3l6 -11l16 -8l17 -17l-22 -173h5
l14 15l47 36l128 81l27 9l22 11l36 5l8 -6h10l5 -5v-5l11 -3l-4 -4v-2h7v-5h8l4 2v-10l5 -7h8l7 -5l-3 -7l5 -3h8l5 -12l9 -9l-14 -17l-40 -11l-97 -55l-51 -34l-9 -10l-15 -7l-5 -5l-14 -10l-35 -29l-27 -33l-11 -23v-7l6 -6l27 -9l47 -7h136l58 -15l15 -10l5 -2l17 -15
v-12l-2 -2l9 -7h12v-7l-17 -3l-2 -3l2 -2l5 -8l8 -4v-8h-27l-12 -2h-5l-5 -5l-4 4l-3 -4h-17l-8 -7l-9 -3l-17 3l-8 -3h-34l-10 -2h-60l-5 -2h-15l-5 2h-25l-43 12l-5 3l-14 4l-11 11l-6 -5l-8 4l-9 7h-8v-7l14 -13l11 -4l13 -7l65 -15h17l70 -5l5 -2l-15 -2h-80v-5l5 -5v-3
h-17l-12 3l-6 -3l-11 3h-8l-17 5l-19 9l-15 5l-19 20h-5v-95l-5 -3l3 -12h2l2 10l4 -32h-7l4 -16l-10 -6l-5 -9zM303 162v5h24v-5h-24zM140 130h5v10h-5v-10zM349 162l2 3h3v-3l-3 -2zM541 267h3v-5h-3v5zM149 55l3 2v-2l-3 -5v5zM514 267l3 -3h2l-2 3h-3zM529 228l2 -3l3 3
h-5zM137 72l3 -2v2h-3z" />
    <glyph glyph-name="L" unicode="L" horiz-adv-x="394" 
d="M77 5l-10 11l-5 16h2l4 -8l12 -6h37l26 11v3l-34 -5l-31 3l-5 11l-13 4l-9 6l-13 22l-14 42l-4 64l10 136l4 17l5 241l-3 16v26l-6 23v23h2l2 -5l5 3h10l11 -11h9l8 -5l12 -10h6l2 -5l11 -10l22 -12l8 -7l2 -21v-10l3 -13v-23l2 -8v-18l4 -13v-137l-2 -11v-41l-2 -7
l2 -18l-4 -25l-1 -2l-4 -82l3 -22l21 10l69 18l32 5l70 -3l6 -3l26 -6h-15v-2l4 -5l-4 -4h-7l-2 2h-17v-6l15 -5l-11 -2v-2l6 -3l3 -1h-9v-31l-4 -5h-10l7 4v3l-2 3l-5 -3l-6 -13l-12 -3l-5 -9l-8 -3v-5h-12l-19 -8l-18 -9l-17 -4l-3 -6l-17 -6l-12 -8h-5l-6 3l-7 -5l-4 -7
l-49 -15h-11l-14 -4l4 -5h-16zM306 134v-9l10 5l-3 4h-7zM73 13l11 -3v2l-4 4h-7v-3zM352 144l-6 3h8v-6h-2v3zM371 145l3 -4h-3v4zM36 646v-4l3 1zM297 154v-3l3 3h-3z" />
    <glyph glyph-name="M" unicode="M" horiz-adv-x="689" 
d="M79 60h-4l-5 -7l-2 3l-3 7l-9 2l-2 2h-4l-4 -9l-5 -8l-3 8l-6 11l-3 16l-4 5l-5 22v29l2 8l5 38l-4 12l27 164l2 6l8 60l8 24v24l1 5v11l10 47l6 49l3 15l5 1v10l-3 2l4 45l3 -14h4l2 14v20h-1l-5 -9v21l2 4v7l-2 2v3h4l4 -10h3l2 -11l5 5v11h7l6 -7v-11h7l5 4v4h8l-4 -6
v-16l15 4l8 -6h4l9 -9l7 -5l6 -6l9 -3l8 -7l-8 -37l3 -13l16 -8l13 -15l4 -14l7 -11l25 -52l5 -7l19 -40h4l6 9l7 6l11 23l23 33l9 9l4 7l7 7v8l11 3v7l9 9l5 2l4 10l16 19l8 13l7 3h7l3 12l17 20h7l7 16l9 2l6 10l6 4l2 2l4 2l3 5l9 6l29 29l9 5l8 9l5 -10l8 8l-6 2v4h10
l5 -4h10l11 -20h7v5h10v-20l11 -4l2 -1h2v6h12v-6l-3 -3v-7l7 -4l15 -15l12 -3l-9 -25l-13 -54l-5 -27l-3 -4l-1 -9l-5 -5v-25l-2 -4v-18l-8 -16l-6 -31v-16l-6 -30v-9l-5 -13v-18l-3 -15l4 -8l-8 -4l-11 -2v-7h4l5 2h6l-5 -9l-6 -54l-6 -7h-7l-2 -5l3 -2l7 6l5 -15l-4 -5
l2 -12l-7 -7l3 -7v-36l3 -20l-3 -11l-5 -5v-2h5l5 -24l-3 -6l2 -6v-16l5 -9v-9l-9 -3v5h-8l-5 13h-5l-4 -2l-6 7h-4l-2 -5h-13l-8 4l-9 -5l-4 4l-3 9h-4l-2 -5h-4v-16l-3 3l-9 3l-14 62l-4 45v63l30 235l2 8v12h-9l-5 -9l-4 -3l-2 -4l-7 -7l-15 -26l-10 -10l-4 -15l-14 -14
l-2 -11l-3 -3l-1 -6l-7 -7v-9l-25 -50l-12 -29l-12 -12l-15 -3l-9 -9h-20l-6 2v-11h-5l-3 6l-15 6l-10 -28h-6l-29 40l-70 126h-4l-23 -180l-2 -9v-15l-8 -3l3 -7v-31l-4 -10l-5 -1v-3h5v-5l-5 -4v-20l-2 -6l2 -4v-8l-2 -2v-3h3l-3 -15v-7l-2 -3l-3 -15h-11v-13l-7 8l-1 9
h-3l-4 -7h-3l3 7l-7 6l-5 -8l-5 -5h3v-4l-7 -6l-3 10h-3l-3 -10l-2 -3v13zM284 268l2 -7l9 9l5 11l-4 4l-12 -3l-5 4h-9l-11 22h-6l13 -25h7v-6l4 -9h7zM408 571l3 -4l8 16l13 13l5 9h-2l-16 -15l-4 -7l-5 -4zM441 615v-5h3l13 14h-7zM471 642l3 -3l8 9h-4zM599 392l2 -3h5
l2 3l-2 2h-5zM590 346l4 -5l3 10h-2zM484 655l3 -2l6 7h-4zM530 712v-5h2l4 5h-6zM523 88v-5h2l2 2l-2 3h-2zM88 588v-7h2v7h-2zM595 403l2 -2h4l3 2h-9zM549 69v3h3v-5zM577 187h4l-2 4h-2v-4zM583 277l3 -3v5h-3v-2zM577 174l2 -3l2 3v1h-4v-1zM122 65l2 -2l2 2l-2 2h-2
v-2zM133 124l2 -3h2v3h-4zM94 642l3 -3l2 3h-5zM415 599v-3h1l3 3h-4zM540 716v-2l3 2v3zM597 385l2 -3l2 3h-4zM586 290l2 -2v4h-2v-2zM592 412l3 -2l2 2h-5zM151 301l2 -2l2 2h-4zM165 680h2v-2h-2v2zM601 468v-2l3 2h-3zM484 669v-2l3 2h-3zM534 698v-3l2 3h-2zM608 497
v-1h3v1h-3zM525 691v-2l2 2h-2zM93 85v-2h1v2h-1zM514 682v-2h1v2h-1z" />
    <glyph glyph-name="N" unicode="N" horiz-adv-x="518" 
d="M76 -22l-4 11l-14 -4l-7 11l-8 -3l-6 12l-3 -7l-7 7l-7 3l17 121l12 26l22 159l8 33l4 3l5 40l7 7v19l-3 3l6 24h4v17l-4 -3l7 11l3 21l4 19v19l5 31l-9 9l-6 2v14h-4l-7 -3l7 13l2 10h9l11 -3l4 59l-4 9v18l11 -3h6l7 -5v-13l9 5l3 11h5l10 -10h19l4 -3h6l37 -124
l48 -82l58 -116l2 16l3 7v32l3 3l-3 2v15h5v85l2 27v24l3 7v10h5l-3 -15v-26l-2 -6l3 -10l6 13v8l-3 10h6l3 6l-3 5l4 8l6 19l6 15v7l6 4l9 21l3 1v13l7 7h3l-3 -5l5 -15v-7l2 -2l7 7l3 -7h2l4 7l14 10l2 -5l5 -3l4 -4l6 -3l-3 -9l-4 -3v10l-6 8l-9 2l-16 -38l7 -6l-4 -14
l5 -5l5 11h3v-7l-3 -5v-10h3l2 8l3 5l2 9l8 10l1 10h6v-10l-7 -12v-5h2l7 10h2v-10h3l8 -31h4v26l10 5l4 -12h-4v-5h2v-14l-5 -22l-7 -15v-17l-4 -6l8 -4l-5 -6l-3 -11l-3 -4h4v-22h-7l-6 25l4 4v17l-3 2l-3 -30l-6 -5l7 -13v-5l7 -5h6l1 -27h6v-10h-6l-1 3l-4 -4l4 -13l4 2
l3 -2h2v-5l-2 -3v-31l4 -10v-34l-2 -10v-16h5v-10h-4l4 -22h-5v-22l5 3v-6h-3v-4l4 -4l-4 -11l6 -13l-3 -23v-17l-3 -35v-21l-5 -30l-17 -16l-14 -8l-7 -6l-3 4l-5 -5h-19l-13 10h-9l-14 3l-5 -6l-6 3l-9 2v10h-5l-2 7l-15 15l-7 15l-7 7l-3 5l-6 3l-4 14l-16 26l-3 8l-8 14
l-2 8l2 6l-53 115l-2 10l-18 39h-3l-28 -180l-7 -19v-27l-3 -6v-16l-2 -7v-10l-8 -48v-27l-9 -15l-3 9h-2l-2 -4l-8 4l-4 -4v-12l-3 2l-3 11l-4 -4l-4 -7l-6 7l-4 8l-4 -4l4 -9h-4l-10 10l-4 -17h-2l-4 9l-9 -9zM360 469l3 -2l2 2v44h-5v-44zM379 622l10 20v-9l-3 -10h4
l-5 -12zM459 343l6 -10h2l-2 10v7h-6v-7zM469 518l5 -4l4 12h-9v-8zM458 561l6 -6l3 14h-5zM374 630l7 12h4l-11 -19v7zM443 612l7 8v-8l-7 -4v4zM462 419v-3h5l3 4l-3 3zM90 596v5l3 -3v-5zM374 603l3 5v-5l-3 -5v5zM83 -17v-5l3 3v2h-3zM427 637l3 7v-7h-3zM469 377v-5
l3 3v2h-3zM421 554v-5l2 3v5zM423 618v-3h3v3h-3zM487 567v-6h2v3zM418 538v-3l3 3h-3zM484 589h3l-3 -3v3zM80 601h3l-3 -3v3zM481 312v-3l3 3h-3zM127 -3v-1h3v1h-3zM418 649h3v-2zM474 241l3 -2v2h-3z" />
    <glyph glyph-name="O" unicode="O" horiz-adv-x="585" 
d="M189 28h-8l-4 -2h-7l-5 5h-7l-5 4h-7l-14 10l-16 3l-24 15l-28 29l-10 16h-4l3 -17l25 -37l35 -35l-14 5l-14 14h-9l-18 23l-19 38l-8 33l-2 30l-2 7l-7 40v92l14 61l3 19l8 9v11l5 5l5 19l4 7v9l7 7l3 12l9 19l5 5l6 17l36 53l44 51l10 8l14 14l12 9l50 25l25 6l31 2
l7 -7h4l3 -2l9 -5l7 -7l2 -9l5 -5h5l5 -5l-4 -6l13 -13l5 5l2 -2v-8l16 -20l45 -12l5 -3l17 -5l32 -32l23 -35v-7h4l6 -12l12 -19v-30h14v-10l-4 -4l6 -3v-2h-9l-7 5l-3 -3l4 -13l-8 -17h14l4 4l3 -18l7 -3l-3 -2h-7v-9l-2 -5l-3 16l-4 -4v-7l-5 7l-2 -3v-7l7 -12l-7 -7
l2 -2l4 4l3 -9h10l7 -9v-5l-8 8l-6 -10v-9l-5 -10v-7l-2 -5l4 -7l-6 -6l-4 8l-12 -17l6 -8v-5l3 -6l-8 -4v8h-5v14l-7 -14v-7l8 -4l-17 -11v-37l-8 -16l-13 14l-2 -3v-9l5 -6l-3 -3l-3 -7l-4 4l-5 -4h-4l7 9v9l-12 -4l-7 -4l-3 6h-7v-28l-11 -11l-3 -15l-4 -7h-5l7 14v2
l-13 -12l-4 -13h-9v4l2 3l10 11l2 5l5 5v14l-12 -12v-7h-3l-4 -7h-5l-2 2l-2 -2v-14l4 -9v-17l-4 -5h-7l7 24h-4l-7 -28l-4 8l-16 -22h-2v9h-5l-5 -16h-7v15l-11 -6l-7 -7l2 -2l2 4h7l-7 -9h-21v-14h-12l-7 2l-5 -6l-4 4l-5 -5h-18l-5 3h-17l-4 -5h-26zM149 136l9 -4h40
l23 7l45 21l18 11h5v-2l4 -3l4 8l9 9h7l2 7h7v11l9 -5l4 14l6 -3v9h9l8 7l2 5l13 10l3 6l7 7l3 10l4 4l3 5h11l10 15v8l5 3v7h7l2 7l9 9v16l7 3v7l5 2l2 17l5 9l5 14v36l-5 20l-16 24l-19 10l-2 2l-10 5h-19l-9 9l5 5v4h-21l-10 5l-7 2l-3 4l5 6v7l-4 -2h-10v7h-16l-2 4
l-13 10l-17 -6l-47 -37l-52 -72l-3 -7l-8 -13l-13 -32l-9 -19l-7 -23v-5l-7 -14l-5 -33l-2 -5v-11l-3 -5v-7l3 -3l-3 -11v-14l3 -5v-21l3 -32zM444 143l5 5l4 11l5 5v-7l-4 -7l6 -11h-9l-7 -4v8zM489 228l2 -3l3 7v7l2 5v7l-6 -3l-7 -13h6v-7zM470 218l5 -4v4l-4 4l5 5l8 -9
v9l-7 3v7l-7 -7v-12zM544 397h4l4 -3l3 7l5 3l-5 -14v-5h-3zM468 242l4 -5l5 26l-9 -14v-7zM417 142l4 -10h2l6 8l-6 3l-2 3zM557 340l-5 10l4 4l9 -18zM430 120l5 2l2 7h3v-12h-7zM500 215l8 8v-12h-5zM449 174l2 -3h3v5l-3 5l-7 -4l3 -3h2zM520 282l4 -5h4l-4 7v7l-4 -5
v-4zM545 286l-4 3h11v-7h-4zM534 373l9 -7v6l-9 5v-4zM120 12l-7 7h4l10 -7h-7zM484 178h5l5 5v5zM372 507l2 -2l5 4v5zM496 228l2 -3l3 3v4zM559 390h3v-5h-3v5zM363 86l4 -4v7zM379 108l2 -2v7h-2v-5zM500 258l3 -7v7h-3zM517 218l3 3v-3l-3 -4v4zM508 376v-5l2 2v5z
M362 120v-3h3v3h-3zM390 258l3 -2v5zM527 371l-3 -2h5v2h-2zM318 35h2v-2h-5zM522 301l2 -3v5zM435 193l2 -3v5zM527 397l-3 -3h3v3zM264 26l2 -2v4zM536 317l2 -2v4zM505 394l3 -2v2h-3zM477 197l3 -2v2h-3zM522 465l-2 -3h2v3zM466 178l-3 -2h3v2zM388 129l-2 -2h2v2z" />
    <glyph glyph-name="P" unicode="P" horiz-adv-x="482" 
d="M173 29h-9l-2 -3h-7v15l-8 8l-5 -15h-2v7h-21l-20 -6l-5 6l-7 26l-5 14v16l-26 202l-2 30l-3 6v14l-18 228l-4 4v5l6 6l-6 13l-4 4l4 6v9h-9v22l5 5l1 6l8 -3l15 7l19 15h14l20 11l14 4l8 4l16 3l19 7h52l4 2l3 -4h21l15 -3l6 7l17 -12h18l22 -10l12 -7l8 -3l14 -11l9 -4
l13 -14h7l10 -20h4l2 4l11 -15h5l11 -16l2 -3l16 -17l6 -14l3 -11l7 -7l-2 -4h-9v-9l1 -4l3 6l5 2l7 -5l-3 -18l-4 -47l-8 -3v-12l-4 -19l-6 -6v-5l-5 -4l-4 -9l-7 -9l-11 -19l-14 -19l-39 -39l-6 -4l-22 -23l-9 -5l-14 -10l-3 8l-7 -15l-13 -7l-13 -4l-3 1h-4l-2 -1l4 -5
l-16 -8v3l3 5v5h-3l-13 -15h-9l-4 5l-5 -2l-3 9h-1l-5 -9l-9 -4h-2l-11 -3l-9 4l9 8l-8 4l-11 -5v-16l-2 -1l-2 -7l3 -3l4 7v-9l-6 -5l6 -6l5 -13l-3 -3l3 -7l4 -29v-20l6 -6l-5 -10l7 -13h-8l10 -10l-6 -6v-16l7 -7v-9h-4l-5 9h-5v-18l3 -2l2 7l8 -5l-10 -11v-17l7 -4v-4
h-7zM150 344l3 -2h8l62 39l13 13l44 36l40 52l24 37v8l-9 4l-5 5l-13 2l-13 5l-9 2l-28 9h-65l-31 -4l-30 -12v-41l3 -6l4 -32l2 -53l3 -12v-12l2 -4v-24zM141 570l8 -3l6 4l32 8h28l5 2h11l50 -10l4 5l-49 10h-59l-27 -7zM350 547h3v11l-15 16l-24 8l32 -26zM164 180l7 -9
h2v16h-7zM187 36h5l4 9v-11h-9v2zM155 552l-5 -5h5l9 5h-9zM159 698v-4h7v4h-7zM106 680l-5 -9l6 3v6h-1zM173 159l2 -1l2 1v3h-4v-3zM441 471l2 -3l3 3v1h-5v-1zM453 524v-4l4 2v2h-4zM173 110l2 -2l2 2v2h-4v-2zM387 367v-7l3 7h-3zM144 372v-3h5l-3 3h-2zM443 493l3 -2v6
zM173 556l2 -2l7 2h-9zM187 47h2v-2l-2 -3v5zM421 412v-5l2 3v2h-2zM134 423v-2h3v2h-3zM184 264l3 -3v3h-3zM428 453l2 -3v3h-2zM414 430l2 -2v2h-2zM173 270v-2l2 2h-2z" />
    <glyph glyph-name="Q" unicode="Q" horiz-adv-x="653" 
d="M201 9h-6l-2 -3h-5l-3 3h-14l-29 14l-20 15l-8 4l-9 13l-2 10l-10 14l-15 37l-12 14l-10 8l-7 22l-8 16l-4 20l-9 22l-8 39v68l8 68l19 66l5 12l12 37l42 87l21 29l7 13l15 14l6 13l25 19l3 8l47 37l26 6h15l24 -6l38 -23h11l9 -10l34 -11l10 -13h7l8 -8l6 -18l6 -6
l3 -24l19 19h5l12 5h36l10 -5h10l12 -5l4 -7h13l12 -10l20 -10l7 -7l11 -7l3 -10l8 -7v-3l5 -2l3 -7l6 -3h7l3 -27v-29l-2 -2v-7l2 -5l-8 -12l4 -12l-6 -8l-2 -12l-2 -3l-3 8h-2v-12h5v-3l-3 -2l-5 -30l-5 -4l-7 3v-3l2 -3v-12l-9 -24l-10 -20l-5 -7l-2 -5l-3 -2l-16 -32
l-59 -80v-9l12 -6l19 -14l9 -5l16 -20l2 -2l-5 -5h-4l-3 -7h-2l-3 4l-7 3l-3 6l-8 -16h-9l-7 -2h-14l-4 3l-13 -6l-4 -9h-14l-7 -4l-25 8l3 -12l11 -2l5 -9l28 -18v-2h-17l-44 9l-29 10h-10l-41 -19l-20 -13l-9 -2l-20 -10h-9l-10 -5h-7l-32 -9h-5l-7 -8h-25l-7 5l-14 4
l-13 6h-7l-7 10l-10 7h-5v-17l16 -16l55 -13l35 6l-4 -4l-36 -7v-5h31l30 3l-6 -6l-31 -4l-7 -8zM165 160h23l36 12l22 14l10 4l41 27l-7 13v4l12 -8v4l-17 17l-2 12l-3 5v12h-7v8l10 5l2 2l3 -5h7l10 -5h4l9 -8l8 4l10 -10h12l30 29l17 22l7 7l36 56l10 20l11 18l23 55l3 4
l2 13l7 21l4 19l-4 4l3 7v7l-7 2l-3 8l-7 2l-17 -10h-5v5l5 10h-5l-8 8l-12 -8h-7l-3 7l-14 -17l-2 -12h-5l-7 -7l-8 -3l-13 7l-9 -9h-5l-7 12v12h-2l-8 -12l-6 18l-5 5l-7 -7l-3 4h-4l-4 -8v27l-8 12l4 11l-6 11h-2v-19h-2l-5 14l-30 -23l-28 -33l-46 -73l-28 -70l-22 -102
v-71l5 -34v-12l3 -8v-4zM621 508l9 -9l-5 20l-4 -4v-7zM621 539h5v12h-5v-12zM606 456l8 -3v3l-3 3l-2 5l-3 -3v-5zM484 469l3 -3l3 10h-3zM605 553l4 -4h2v7zM623 532v-10l4 3zM460 576v-5l3 2v5zM601 561v-5l3 3v2h-3zM258 23h5l-5 -4v4zM71 96l2 -4h-2v4zM468 573l-3 -2
h3v2zM592 585l2 -2v2h-2z" />
    <glyph glyph-name="R" unicode="R" horiz-adv-x="540" 
d="M113 -51l5 5l-4 4l-3 5l-11 -3l-7 -3l-6 17l-16 -9l-4 4l-5 14l-13 6l-3 13v50l-5 9v40l-2 16v89l2 12l5 82l-3 5l17 225h-5l-4 -2l-7 2v19h-7v5l-7 9l4 10l-2 2h-8l-4 7v16l10 8h4l18 11h10l7 7v17h14l8 -8l7 3l77 14v-7h5v5l2 2l3 -6l21 4l2 4h5v-4l4 2h28l10 5v5h14
l9 2l17 -2l4 -3h10l9 5l43 -6l32 -11l24 -11l3 -7l11 -5h5l18 -19l7 -3l8 -17l7 4l-3 -5l3 -2h5l4 -12h2l3 5l7 -21l7 -10l11 -12v-16h5v-7l-5 -9h-3l-6 -19l-2 -3l-3 -4l-2 -3l-2 -4l-3 -3l-9 -14l-35 -33l-7 -4l-12 -10l-17 -11l-17 -9l-15 -13l-15 -7l-63 -42l-16 -12
l-32 -20l-6 -5v-4l17 11h4l-67 -47l-14 -21l39 -19l35 -12l14 -7l28 -9l29 -14l42 -26l30 -31l5 -7l13 -9l13 -17l-6 -3l4 -7l4 8v-13l-11 -3l-5 4l-5 -4l-5 4l-3 -7h-27l-5 -5h-9l-10 5l-18 7h-10l-11 5l-7 2l-9 6l-8 -6l-14 3l-18 7l-4 -3l17 -9l7 -5h8l30 -21v-2h-12
l-19 7h-9l7 -7l21 -9v-3l-9 2h-10l-68 26l-15 3l-27 14l-12 4l-14 7h-7v-7l5 -2l-4 -39l5 -10l-6 -12l5 -31l-2 -4l4 -8l-4 -4v-5l2 -2l-4 -7l-8 12v21h-4l-3 -31l-19 -2zM166 427v-37h4l12 12l54 35l5 2l2 2h7l3 5l26 21l9 2l18 12v5l5 2l7 7v7h-63l-40 -4l-14 -5l-28 -5
l-5 -28v-28zM330 526l5 -3h18v6l-35 8h-40l-6 -3l-3 6h-9l-5 -3l-5 3l-5 -5l-8 -3l-15 3h-19l-7 -7l3 -3l32 3h3l14 2h51l5 -4l5 2zM137 19l3 -3v7h-3v-4zM461 453v-2h3v4zM41 617h3v-2h-3v2zM506 500v-2h2v2h-2zM194 652v-2h-3zM154 -56h2v-3zM145 -10v-2l2 2h-2z" />
    <glyph glyph-name="S" unicode="S" horiz-adv-x="437" 
d="M185 -2l10 12l-4 3l-1 -4l-14 -5l-17 -8l-5 5l10 4l3 7l-4 10h-6l4 -8l-8 3l-12 9h-26l-2 3l13 4v5l-6 7l-5 2l-5 4l-15 7l25 5v7l-16 5v8l4 7v22l16 4l11 -4h25l38 16l49 30l39 40l14 18v11l-3 5l-2 8l-34 21l-14 4l6 8l9 -3l28 -18l16 -13l3 1v14l-8 13l-20 10l-13 10
l-13 3h-5l-7 5l-12 3l-16 9l-42 8l-20 5l-8 -4l-5 6l-3 9l-12 -6l-15 10l-11 3l-17 7l-9 6h-7l-12 9v-9l3 -4l3 -12l32 -18v-9l-10 4v-11h-3l-40 43l-4 6l-5 4l-10 18v26l4 18l-4 9v37l5 10l-5 3l3 2v10l10 41l8 12l4 9l12 15l6 13l11 11l47 53l14 12l16 16l9 4l9 7l29 18
l6 5l6 -8h11l11 -10v-12h20l-5 -12l13 -4l6 -9h9v-4l-3 -3l12 -12l13 -11v-10l-11 -12l-27 -13l-45 -35l-32 -35l-33 -41l-18 -38v-9l9 -4l102 -23l37 -14l36 -24l18 -16l3 -4l4 -2l32 -32l2 -5l6 -6v-5l6 -8v-5l2 -4l2 -8l5 8l4 -8l5 -4l13 -24v-7l-4 -5v-2l4 2v-14l-3 -4
v-18l-4 -7v-13l-5 -11l-1 -8l-8 -6l-3 -14l-14 -27l-5 -4l-27 -30l-14 -9l-11 -10l-26 -14l-7 -7l-19 -7l-13 -13h-7v13h-4l-3 -8l-24 -5l-9 -5l-14 -4l-9 -5zM230 270l-14 4h16v3l-18 9h7l22 -9v-4l3 -6zM196 288l-9 4h4l19 -4l3 -3zM181 17l9 -2v5h-9v-3zM390 149l5 -3
l1 3v4l-6 -3v-1zM39 367l2 -4v13h-2v-9zM401 245l3 -2v5h-3v-3zM162 300l11 -3h-8zM392 174v-3h3v3h-3zM173 11v-2h3v2h-3zM399 191v-2h2v2h-2zM331 69v-2h2v2h-2zM243 4v-2h-2z" />
    <glyph glyph-name="T" unicode="T" horiz-adv-x="573" 
d="M368 43l-4 14l-9 -4h-10l-5 8l-9 -4l-3 3l-6 -3l-11 10l-10 -6l-7 21v11l-27 128l-7 55l-7 14l-5 31v21l-4 15l-15 99v7h-7l-15 -5l-10 -2l-105 -38l-8 -5l-17 12h-5l-4 10l4 9v5h-12l-14 9v8l29 15v4l-10 10v4l4 8l-23 6v9l10 1v7l-10 17l-5 3l7 4l-5 8l-9 3l-4 19h38
l4 2h7l6 3l7 2l13 10l28 7l7 4l7 -4l25 15h9l60 12l-6 9h4l7 -3v10h5l5 -2l2 17h9l4 -19h6l3 4h47l11 8h22l3 7l11 2h10l41 5l22 7h29l7 -4l2 4h12l2 -9l3 9h27l7 -7l6 4l4 -4v-9l-9 -6l-3 3l-3 12l-5 -5l-6 -9l9 -5l10 -3l-3 -2h-8l-11 -15h-5l-6 -6l3 -3h8l-2 -5v-7l-6 -5
v-2h8l5 -7l-13 -5l-4 5h-3v-17h-8l-3 -8l-6 -7l-3 -7l-6 -3l-13 -13l-24 -5l-6 -5l6 -12v-9l5 -4h12l-14 -7l-68 -12l-12 -6l44 -255l5 -46l2 -5v-5l2 -9v-15l6 -9v-17h-8v-6l8 -7l-3 -7v-26h-3l-2 9h-2l-3 -12l-3 -7l-2 -25l-5 -4zM226 667l-6 6v3h14v-5l-3 -5l5 -7h-14z
M218 626l4 -3h5l4 7h-9zM480 658l8 -4l4 2v5h-10zM411 535l9 -9v13zM390 107l4 -4l7 5v4zM412 509v-3h6v7zM239 673h5l-5 -9v9zM415 70h3v-5h-3v5zM444 523h5v-1h-10zM514 591h2v-2h-4zM533 651h3v-2h-3v2zM550 651h3l-3 -2h-2zM65 506l2 -2v5zM386 522l2 -3v4zM135 600
l2 -1v4zM488 640l1 -3v5zM481 599l1 -3v4zM394 133l1 -3v4z" />
    <glyph glyph-name="U" unicode="U" horiz-adv-x="472" 
d="M123 14l-15 11l-14 4l-11 12l-14 21l-8 23l-6 12l-18 61l-13 69v7l-4 27v112l7 118l13 97v11l2 11l5 52v18l16 -2v-5h11l6 -6l3 -5l10 3l5 -3v-8l7 -3l-3 -4l5 -4l10 5l20 -19l14 -8l5 -11l-3 -27v-13l-4 -15l-5 -68v-15l-9 -17l4 -244l8 -7l13 12l18 27l9 11l4 10l13 18
l12 19l9 19l12 11v9l17 29v4l9 14l9 27l5 7l4 11l6 9l10 35l9 15l5 22l13 17l9 26v9l4 9l3 14l20 45h6l4 -15l4 3l4 9v-9l-3 -6l3 -3l5 5v9h4v-6l6 -16h3l9 8l2 -7h8l-4 -10l3 -5v-9l8 -4l-5 -19l3 -3l6 15v9l4 4l-3 3v4h5l4 5v-7l-4 -7v-7h4l-9 -12v-13l-1 -2l-3 5h-4v-9h8
l-5 -9l4 -4l10 22v-7l-4 -19l-6 -4v-2h6v-11l-2 4h-4l-5 -7v-26h6l14 17v-4l-6 -16l-8 -5l-4 -8h-2v8h-7l-4 -13l-6 -3l10 -5l16 13v-5l-4 -4v-7l-5 -9l-4 5h-12v-7l11 -16l-6 -9l-5 9v9h-4l-7 -13l8 -4v-16h-13l-2 -3l-8 -5l5 -6l14 -3l-9 -17l-6 -21l-6 -5l-3 -11l-7 4
v-10l-3 -3l-6 4v-4l6 -6v-7l-6 7h-7v-10l10 -4l-8 -15l-2 -3v-9l-9 -9l-7 -21l-7 -4l-7 -13l-4 -5l3 -6l-5 -3l-9 -13l-7 -14l-9 -13l-6 -14l-23 -22l-5 -9l-9 -12l-18 -20l-8 -6l-3 -5l-5 -5l-10 -17v4l5 11h-4l-10 -7l-13 -12l-10 -4l-20 -14l4 8l5 5h-9l-7 -5l-14 -7
l-12 -17l15 -7l26 9l39 35v-7l-25 -22l-2 -3l-5 -1l-15 -11l-19 -3zM80 54l16 -16v7l-12 24h-8zM98 45l6 -4h10l7 6l3 -6l8 8l-9 2l-2 3l-6 3l-2 -6zM376 364v-15h2l9 9zM290 428v-9h3l4 9v9h-2zM358 333l3 -2l8 3v6h-5zM274 406v-8h3l3 8h-6zM401 579l1 -2l8 6h-8zM344 283
l2 -1l3 1v5h-3zM306 468v-4h5v4h-5zM317 496l2 -3l2 3v4h-2zM439 527h3l-3 -9v9zM435 502l4 3v-5h-3zM324 248v-3h3v3h-3zM340 277l-3 -3h3l2 3h-2zM337 268l3 -3l2 3h-5zM450 545l2 4v-2l-2 -7v5zM394 406l2 -3l2 3h-4zM319 236v-2h2v2h-2zM293 189l2 -2h2l-2 2h-2z
M441 513l2 2v-2l-2 -2v2z" />
    <glyph glyph-name="V" unicode="V" horiz-adv-x="482" 
d="M151 16l-7 15l-7 -7h-19l-3 5l-6 3l-6 10l-10 6l-11 -11l-8 17l-3 10l-4 7l-16 64l-7 22l-19 140l-5 124l6 78l-4 8l5 13l7 30v24l13 37v21l-4 12l5 7l-4 6h3l7 -7h4l5 -8l7 4l4 -4v-4l2 -23l3 14l9 -9l6 3l4 -8l3 -14h7l24 -23l4 -6l14 -9v-12l-3 -14v-17l-2 -30v-17
l-3 -17v-126l5 -28v-18l-2 -2v-5l2 -3v-19l-2 -3l2 -5v-7l8 7l2 8l4 4l3 10l23 47l2 3l2 4l12 12l5 28l6 12l7 8l3 18l11 23l6 7l10 30l24 54l10 19l6 9l12 30l21 38l27 41l34 62l5 12l9 11l4 -5l-8 -11l-5 -13l-2 -2l-8 -12v-5h3l14 22l8 10l5 10h5l-10 -20v-5h2l3 7l7 3
v12l2 3l6 -14l-8 -11l5 -2l-8 -12l3 -3l10 10v-5h7v-7l-2 -3v-15l7 -7l5 -10l-2 -2l-6 -12l-3 3l6 17l-7 4l-3 2h-4l-6 -14v-18l-2 -7v-7l5 4l3 -2v-9l9 7h2l6 4v-4l-6 -5v-12h3l7 7l4 -23l4 3v15h5l3 -22l-3 -5h-10v-5l-5 -10v-4l-5 2h-5v2l2 3l3 7l3 -3h2v16l2 1v3h-2
l-2 -3l-8 -1l4 -9l-6 -4l-5 -12l-2 -2l-9 -17l6 -3l5 -12l-10 -15h-9l-4 11l-9 -15v-6h2l5 5h5v-7l-7 -10l-3 -15l-9 -2v-13h-8v-5l4 -4l-6 -13v-9l-6 -13l-9 13v7l-5 -10l-7 -5l-8 -25v-14l-2 -7v-6l-13 -2l3 -8l-4 -8l9 -4l3 5v7l2 3l4 -4l-4 -20v-7l-5 -6v-12l-11 -8
l-6 6v10l3 11l-3 -4l-5 -3l-2 -39h-8l7 -6l5 11l3 3l5 10v-25l-8 -8l-7 -22l-3 -2l-2 -12l-2 -5v-5l-13 -27l-4 -3l-7 -14v-10l-9 -14v-13l-6 -4l-15 -30v-10l-13 -13v-16l-7 -11l-14 -14l-6 -8l-14 -12l-25 -3l-10 -9zM296 553v-6h3l13 20l12 24l7 7l5 10l15 22l2 8l12 17
h3l6 32zM344 367l13 24l-6 10l9 18v-7h9l-13 -28v-14l-3 -3v-4zM363 439l7 -5l3 2v5l-3 3l-2 7h-5v-12zM385 488v-10h7v10h-7zM419 685v-8h5l3 13zM378 471v-8h5v8h-5zM404 675l3 -3l3 5v5h-3zM296 257l3 -2v5h-3v-3zM370 458l3 -2v5h-3v-3zM299 277l3 -3v5h-3v-2zM262 179
v-3h3v3h-3zM446 662h3v-3h-3v3zM233 108v-3l5 3h-5zM329 326l-5 -3h5v3zM425 674v-5l2 3v2h-2zM375 448v-2h3v2h-3zM285 216v-3h2v3h-2zM434 550v1h2v-4zM348 390h3v-3zM459 662v-3l-3 -2zM402 635v-3l3 3h-3zM415 532v-2h2v2h-2zM57 642l-3 -2h3v2zM331 339v-3l2 3h-2z
M429 630h3l-3 -2v2zM285 225l-3 -2h3v2zM88 632h3v-2z" />
    <glyph glyph-name="W" unicode="W" horiz-adv-x="772" 
d="M136 35v16l-5 6l-2 -6h-5l-4 -2l-7 2l-5 6l-6 -7l-3 5h-3l-7 8l-2 8h-8l-3 2l-9 6l-3 7l-5 -13l-4 14l-7 12l-2 39l-7 52l-10 22v27l-9 114v101l10 104l4 15v8h7l7 38l10 35l3 15l6 7h2l-2 -6v-8l5 11h2l2 -5h3l3 16h11l7 -23l6 7l4 -11l3 -3l2 -13h7v-7l10 -6l6 -15
l11 -11l4 -16l-5 -46l-3 -11l-4 -41v-50l-4 -10l4 -8v-43l2 -13v-30l-2 -6l2 -35l6 -6l7 4l22 32l12 14l7 16l8 8l6 12l8 7l3 15l21 37l3 10h11v6l-4 5l5 12l4 -4l11 17l14 32v11h6l25 54l5 6l10 18l-5 4l3 5h10l4 -9v-8l3 8l7 -12l8 4l3 -4v-8h4l5 -12l7 -2v-14h7l-3 -8h8
l3 10l4 -15l7 -3v-19l9 -14l16 -18l-5 -89l8 -80v-14l3 -14v-45l2 -3l5 -13l15 13h7l7 8l5 13l6 3l4 14l8 2l14 20l6 13l15 25l3 2l8 19l18 28l26 62l17 30l14 32l12 21l7 20l9 16l2 6l3 2l12 22l2 8l27 45v18h7l2 -6l2 -2l3 -11l8 9l-4 -23h13l-3 -19l-2 -3v-5l6 -7l3 10
h10l-5 -20v-10l-7 -15l4 -5l3 6h7l7 5v-11l5 -5l-3 -11v-2l-3 -7l4 -8l-3 -4l-3 8v21h-4l-5 -16v-10l2 -3v-19h9l3 8l3 -10l-3 -3h-5l-5 -17l4 -10l-8 -9l-5 8v11l-2 -3v-10l3 -8l-5 -22h-3l-2 10l-5 -4v-26l-7 -8l-3 -11l-4 -5l-2 -5l-11 -11v-19l-4 -5l-7 -17l-5 6l-2 -3
l-7 -4v-7l4 -4l-7 -4h-4v-2l7 -8v-16l-12 -5v-17h-7l-5 -8v-12h-2l-3 3l-4 -5v-11l6 4l-6 -15l-10 -6v-11l-9 -10l-2 2h-3v-20l-7 -4v-14l-5 -2v-8h-4v-6l-7 -3l-3 -7l-2 4h-2l-3 -10l-2 -2v-9l-13 -8l-4 -11l-7 -8h-3l-16 -19l-35 -14h-45l-6 3l-10 -3l-13 3l-5 3l-7 2
l-15 18l-9 -16l3 -4h16v-4l-9 -4l-12 -14l-2 -6l-7 8l-12 25l-16 24l-5 25l-7 11l-12 131l-10 -4v-13l-7 -8l-3 3l-4 -17l-5 -11l-5 -3v-8l-9 -10l-6 -14l-8 -2l-7 -18l-7 -8l-7 -3l-6 -14l-6 -3l-5 -12l-9 -5l-2 -5l-34 -41l-26 -11l-2 -19l-5 -3l-3 7l-7 -12zM657 353
l8 -6l3 11l4 -9l3 9v8h-9l-4 -5l-3 11h-2v-19zM647 313l3 -8l5 5l-3 7l-3 12l-2 -4v-12zM695 410v-14h4l4 14h-8zM117 60l10 -4v9h-10v-5zM707 624l3 11h1l-4 6l-3 -14zM591 196h8l-4 13zM269 488l7 9l-5 -14l-2 -3v8zM680 377v-8h5l-3 11zM67 692l2 6h3v-8h-3zM687 388h6v3
l-6 3v-6zM598 220l7 -8v2l-5 9zM693 424h4v4h-4v-4zM610 239v-11h2v8zM712 597v-10h2v8zM719 470v-6h2l2 2l-2 4h-2zM730 500v-3h5v3h-5zM62 654v-5l3 5v6zM240 424v-4h3v4h-3zM635 277v-6h3zM642 287v-2h3v2h-3zM570 158l-4 -4h4v4zM318 587v-4h-3zM595 188v-4l3 4h-3z
M723 595l3 -4v4h-3zM621 258l3 -3v3h-3zM60 698l2 2v-5zM79 690l3 2l-3 -6v4zM673 375l-2 -3h2v3zM645 299v-4h2zM110 68l-2 -3h2v3z" />
    <glyph glyph-name="X" unicode="X" horiz-adv-x="527" 
d="M178 22l-2 3l-5 -13l-2 20h-3l-3 -10h-1l-3 10h-5l-4 4l-5 -9l-5 2l-3 3l-8 3l-11 16l-5 12v37l2 4l1 23l50 201l7 22v15l-43 46l-5 8l-44 53l-6 20l-26 34l-4 14v5h2l15 -15h7l5 -3v6l-15 21v7h8l-5 13v8l-25 39l-8 23l-9 15h3l8 -5l4 8l2 -3l6 -3l2 -2l7 -2l4 -12h3
l4 7h11l4 -13h8l5 -7l2 3h7l18 -18h12l29 -29l14 -22l8 -7l4 -9l31 -38l6 6l11 31l4 4l5 19l9 19l7 29l3 8l12 45v15l8 13l5 13l-3 3v7l-3 3l10 19v20h12l5 -2l5 4l8 -7l7 -2l8 -9l5 5l9 -5l11 -21l15 5l8 -17l2 -2l3 -6l27 -15l-13 -33l-12 -48l-3 -5l-2 -12l-7 -22l-5 -27
l-9 -20l-3 -16l-19 -61l-3 -14l-12 -38l5 -3l6 -11l18 -11l5 -6l12 -5l24 -19l8 -5l1 -2l47 -37l17 -17l37 -33l-3 -13l-6 -9l-4 4l-7 15l-12 -9l-26 10l-8 -9l-13 6l-7 7h-4v-5l-7 -7l-22 13l-5 -6l-19 10l-15 10h-6v-12l41 -29l4 -10l-3 -4l-20 8l-23 15l-3 2l-7 2l-27 18
h-9l-11 -41v11l9 34h-4l-46 -214l-6 -5l4 -4l3 -16l-8 -4l-17 17h-4l6 -10l-7 -7h-8l-6 -3l-7 8l-4 -12h-6zM35 640l2 -3l4 10h-6v-7zM271 644v-4h2v9zM232 59v-3h3v3h-3zM269 634v-4l2 3v1h-2zM232 88v-3l3 3h-3z" />
    <glyph glyph-name="Y" unicode="Y" horiz-adv-x="500" 
d="M289 -76l-16 3l-4 4l-3 -6h-11l-4 7l-8 2l-5 5h-2l-7 5l-7 -7l-3 -7l-7 2l-2 9l-5 5l-5 58l3 59l7 47l25 96l-4 8l-40 40l-120 178l-28 56l-23 61v10l7 -5l2 9l5 7l-7 22l-6 29l4 4l14 -10l5 5l-14 21l4 5h2l3 2l-3 5h-7l-2 21l3 3l11 -8l5 2v-4h9l5 -19h4l7 -7h9l22 -19
l12 -2l10 -15l12 -4l8 -12l10 -28l37 -75l14 -21l7 -14l69 -104h5l4 15l4 9l52 172l5 30l4 14l6 32l9 17v26h9l5 -2h7l9 -10l5 -2l9 -9l10 -3l4 -9l5 -5l2 -5l7 -2l-4 -2h-7l-3 -3l7 -4h10v-6l11 -6l3 -6l7 -3l7 -7l7 -4v-8l-12 -28v-12l-5 -14l-2 -12l-7 -21l-2 -24l-5 -9
v-21l-7 -14l-2 -12l-3 -2v-7l-7 -7v-14l-9 -19v-19l-3 -5l-3 -15l-6 -6v-4l-7 -15v-4l-5 -21l-4 -7l-3 -12l-4 -7l-3 -14h-11l9 -10l-12 -19v-11l-4 -5l-4 -24l-8 -13v-5l-5 -19l-5 -2l3 -6l-4 -8l-3 -14l-3 -5l-4 -24v-4l-10 -45v-28l-2 -14v-10l-2 -7v-14l-3 -7v7l-9 10
l-5 -5l5 -7v-7l4 -8l-8 -8zM306 -47l8 -4l-8 16h-7v-12h7zM323 108h9v2l-5 5l-2 5h-2v-12zM344 148l3 -3l4 9l-3 3l-4 -4v-5zM310 12l3 -3l6 6l-5 5zM354 189l4 -3l6 5l-4 4zM71 650v4l9 -4l-4 -4zM328 95l4 -3l5 4l-4 4zM78 629l5 -5l3 3l-5 5zM306 35v-7h3l2 5l-2 2h-3z
M381 263l-2 -7h5v7h-3zM316 -84l3 3l-3 4v2l4 -2v-5l-4 -7v5zM334 157l4 -3l3 3l-3 4zM332 134l2 -2l7 7h-4zM311 -12l2 -2l3 2l-3 3zM428 423l3 -3l2 3l-2 2zM395 315v-3h3l2 3h-5zM341 176l3 -2l2 2l-2 2zM240 237l3 -2l2 2l-2 2zM367 239l5 -4v4h-5zM391 291l2 -2l2 2
l-2 2h-2v-2zM358 254v-3h2v5zM222 357l2 -2l2 2l-2 2zM36 664l3 -2h2l-2 2h-3zM416 371v-2h3zM412 345l-3 -2h3v2zM318 35v-2h2z" />
    <glyph glyph-name="Z" unicode="Z" horiz-adv-x="513" 
d="M193 5l-11 15l-4 26l-7 13l-12 47v63l5 45l3 7l2 9l35 101l19 38l19 32l4 14l17 26l26 51l-4 5l-156 -8l-66 4l-24 30l-8 4l-3 7l2 6l-2 16h12l2 3l-16 23v3l7 -3l2 3l-5 7v4l-7 7l9 6l4 -9l4 8l-3 5l-2 9l-7 7v3h5v9h-7l-6 6l3 3l3 -3l14 6v6l11 -4l12 -2l7 -3h28l3 3
h12l5 -3l11 3h19l8 -3l13 6l16 -3h19l7 4h10l4 3h10l9 -5l2 2v6l16 -8l22 5h7l14 3l62 -7l11 -6h4l12 -4l14 -14l18 -8l3 -7l15 -14l5 3l8 -4l-4 -8l5 -11l7 -3l2 -5l16 -3v-9l-7 7l-7 -4v-12h3l2 12l5 -8l-4 -25l-12 -17l-11 -25l-13 -24l-12 -16l-5 -10l-25 -40l-16 -31
l-8 4v-12l-16 -33l-9 -9l-23 -58l-13 -20l-5 -17l-4 -7l-11 -13l4 -4l-6 -12l4 -12l103 20h58l7 -6l3 6h4l4 -13l3 4v5h17l-3 -16l-12 -6l3 -7h-21v-7h-7l-2 -2l2 -2h5l7 -3l-12 -2h-14v-5l5 -4l7 3v-8h-12l-17 -9l6 -7l-8 -5h-7l-7 -7l-2 -12l-7 -5h-5l-3 -7l-16 -4l-7 -5
l-9 -3l-15 -8l-19 -7l-6 -6l2 -4l-37 -17l-13 -4l-23 -17h-14l-10 -7h-13zM449 180l4 -4h12l4 4l-16 4zM197 28l2 -2l3 2v10h-5v-10zM21 657v6l11 -4l-4 -4zM282 197l4 -4l3 2l-4 7l-8 -2zM479 181l-3 -3h10l-3 3h-4zM448 573l3 -3l2 3l-2 2zM305 272l2 -2l3 2l-3 3z
M425 176l2 -2l2 2v2h-4v-2zM291 237l-2 -2h2v2z" />
    <glyph glyph-name="underscore" unicode="_" horiz-adv-x="796" 
d="M56 -20l-11 2v3l-2 1v5l1 1v3l-1 1l4 3l-2 2l2 3l6 2l2 2l-13 -2l-1 3l-6 2l-1 2l-3 2l-1 2l-2 2l-2 7l-6 1l2 5l-2 2l8 7l23 5h5l9 2h4l10 2l2 -2l2 2l3 -1l4 1l2 -2l4 3h3v-3l1 -2l2 2l7 -3v6h4l6 -4l4 3l-3 1v2h3l4 -3v3h11l3 1h6l2 -4l3 3l1 4l2 -3l2 -4h2v3h9l5 -4
l6 7h3l2 -6l1 1l2 6h3v-3h9l2 -3l2 2l2 -3l5 3h7v-3l-3 -1l2 -1l3 -8l6 9h-3v7h5l2 -3l1 -2v-2h-3l3 -4h2l-2 -12h10l3 6v5h-1l-1 -2h-1v4h5v7h-3v1l3 3l3 -3l6 3l2 -3l2 -1v-2l-9 -2l1 -1h7l6 2l7 -3l3 4v2l2 1l1 -3l7 -5l3 4l2 7l3 1l2 -1v-3l-5 -1l1 -3h2l4 -1l7 3l3 -2
h4l2 -4l-5 -3l-3 2h-12l-7 -1l2 -2h3v-5h13l-2 -4l2 -3l2 7h2v-4h3l1 6l7 -2l4 -5l2 2l1 3h3l1 4l5 -2v-4l-2 -1l8 -1v1l-2 1v2l5 2v-2h2l24 2l5 3l3 -3l2 3l3 -4v-3h16v2l-1 1v1h9v-1l-7 -4l3 -6l-4 -4l-5 -2v-3l-3 -2l1 -1l2 1l3 -1l6 4v-3l4 5l2 -6l1 1v6h-5v3h12v-4
l3 -5h6l4 3l3 -2l3 2h4v3h-5l-2 -1l-2 1h-6l3 5l5 -2l7 2l-3 2h-3l-3 3l-8 1l6 1h13v-8l4 -4l-4 -2v-4l7 -2l5 4h14l7 2l9 -4h5l2 2l5 1v2l-2 1v3h2l1 1l-3 1l-1 5l-5 1l-1 1l2 2v1l-5 1v3l2 -1l2 1h15l3 2l4 -3v-2l-7 -1v-1h5l2 -2l-4 -1l-1 -6l-1 6h-5v-7l7 -4l-7 -2v-2h4
v-9h2l1 5l4 4l15 -3l3 4l4 -4l8 4l2 4h2l4 -4l3 2v1h-2v4h5l2 -1h6v-4l-10 -3l2 -2l9 -5l1 7l1 3l2 5l3 -8l6 -3h9l3 -6l4 3l2 2l-2 1l2 3h4l5 -3l3 1l9 -1v-3l1 -2l3 8h1l2 -11h7v5h-5v3h2l3 3h5v4h4v4l2 -4l-1 -4l5 -3l5 3h10l-3 -4l1 -2v-4h5l1 7l2 1l3 -1l4 1h8l2 2
l-1 -8l1 -1l2 1v-7h-20l-22 2l-4 -2h-64l-11 4v2h-4v-4h-24v2h2v7h-4v-2l1 -2v-1h-2v-2l-3 -4l-4 4l-1 5h-3v-4l2 -3l-26 -2l-2 2l-4 -2h-7l-4 2l-4 -1l-89 -3l-3 2l-1 4l-3 1l3 4l-4 2v1l3 1l2 3l-1 2l-3 -2l-15 -2l5 -2l3 -1l1 -5l5 -4h1v-2h-12l-2 -2l-84 -3l-15 -4h-49
l-13 -4h-15l-8 1l-15 -4h-13l-18 -2h-34l-6 -2l-3 -2h-14l-19 -5zM458 24l2 3h-7v3l1 3l-1 2v4h1l4 -4l4 6l2 7l3 -7h4v3l4 1l1 4l1 -7l1 -3l-7 -1l2 -1l8 -3l-1 -3l-4 -2v-5h-2l-3 3l-4 -3h-4l-1 3l-4 -4v1zM734 54l3 3v2l-7 2v3l-6 2l2 3h4l2 -4h5v7l5 -3v-4l1 -1l4 3h7
l2 -3l2 5h3l-2 -1l2 -3l5 3v-4l4 -1l2 -3l-2 -2l-2 2h-4l-1 3h-2l-2 -5h-5l-5 6l-4 -1l-2 -5v-5h-2zM491 56h19l2 2l-4 3l-10 -3l-5 3l-8 -3l1 -4h-4l-2 -1v1l2 4l1 3l10 3h3v3h3l5 -4h4l6 3l3 -3v-3l-3 -2v-5h-7l-1 -5l-2 5h-2l-1 -2h-6l-2 -3h-2v8zM685 16l3 4l1 -4l6 3
l10 -2l3 -3l-2 -3l1 -3l-1 -2h-15l-4 -2zM269 30l3 -3l1 3l-6 3v1h4l10 3l-3 4l3 4l-5 -1h-9l-4 -3v-11h6zM710 10l2 5l2 -5h2v7l2 -2v-5l2 -2l3 9h3l2 -7h4v-4h-20zM327 16l5 -1l3 1l2 7h2l2 -3h2l1 -3l2 3v3h-2l-2 -1v3l-5 2l-3 -3l-3 3l-3 -1h-3l2 -3h5v-3l-1 -3l-1 2h-5
v-3h2zM363 42l-3 8l5 4h11l8 8l1 -2v-3h-3v-6h-9l-1 -5l-1 -1l-1 6l-3 -2l-1 2h-3v-9zM339 51l-2 8l2 2l2 -1l3 2l2 -2l4 2v-2h7v-3l-5 -1l-11 1v-3l2 -3l-1 -1zM602 27l3 4l-7 4h6l7 -4l2 2h2l1 6h4l-2 -2l2 -3l-3 -1l-1 -2l-5 -3h-5l-1 -4zM738 10l1 5h10l3 -4l-2 -3l-1 2
h-4v-4h-3zM344 26l11 -3v4h-4v3l2 1l5 4h-10v-4l-2 -3h-2l-1 -1zM567 53l-5 1l1 2h5l4 2l3 6l3 -1h5v-2l-9 -3l-6 -8zM254 37l3 -3l1 1v4l2 3h3v3h-9v-3h-5v-3h5v-2zM691 61v7l8 -3v-1h1l4 5l2 -3l-5 -5h-10zM524 27l5 4l-2 -5l7 2l1 5l2 -3l-2 -7h-5l-2 -1zM695 42h2l2 6h2
l3 1v-3l-5 -2l2 -2h5v-3h-8l-3 -1v4zM574 48l2 8h10l1 -2l-11 -2v-2l1 -1l4 2v-2l-3 -3zM447 33l-3 1v7h4l1 4l4 1v-3l-6 -6l2 -2l-2 -4v2zM537 53l2 3h7l4 5l-2 3h2v-9l-6 -2l-2 -2h-3zM364 59l7 4h3l3 -4l-5 -2zM590 28l-12 2v3l1 1l4 -3h9v-3l2 -2h-4v2zM394 58l4 5l7 -3
v-3h-6zM721 61h-7v6h7v-6zM631 28l7 6l4 -4l-1 -4l-1 2h-7l-1 -2h-1v2zM728 27l2 3l-4 4l-3 1l4 5l1 -5l6 -2l-6 -7v1zM408 63h2l6 -3l-1 -2h-5l-2 -1v6zM537 62v2l6 -1l1 4l2 -7h-6zM352 49h-4l-2 -1h-1l3 5h5v-5l-1 -4v5zM437 60h-6v3h7v-9h-1v6zM583 38l2 3h5v-2l-3 -1
l-2 -3h-2v3zM321 54v4h6v-4h-6zM652 56h11v-2l-6 -1zM200 28l2 3v7h-3zM528 63l6 -3l-6 -4v7zM539 37h11l-1 -2h-10v2zM403 53h5v-4h-5v4zM562 17l6 -6l2 3l-3 2l-2 1h-3zM645 10l3 -1v4h-6v-3h3zM236 41l-2 4h2l2 -6h2v-2h-4v4zM297 56l3 2l3 -1l-1 -3h-5v2zM233 54l3 3
l2 -4l-2 -3zM703 25l3 8l2 -6zM655 34h4v-4h-4v4zM370 27l2 -3l4 3v1h-6v-1zM428 54l3 2h3v-3h-5zM389 61v3h3v-6zM636 61l2 4v-5l-2 -7v8zM183 48v-4h2l2 2l-1 2h-3zM269 38v3h4l2 -2zM222 38l1 -5h4v1h-2l-1 4h-2zM449 54h5l-5 -5v5zM643 26h4v-3h-4v3zM565 67h2v-6h-2v6z
M712 27h6l-3 -1l-1 -3h-2v4zM524 38l2 6l2 -5l-2 -1h-2zM728 49h2l3 -2l-5 -2v4zM574 41v1h4v-4h-1zM698 54v2h3v-3l-1 -2zM287 33l1 -2h3v3h-3zM541 41h6l-1 -2h-4zM326 45h4l1 -1l-5 -2v3zM627 33l5 2l-3 -4h-2v2zM551 10l2 -2l1 2l-1 3h-1zM410 20h3v3h-3v-3zM325 50v1h2
l3 2v-2l-4 -2zM620 65h2v-4h-2v4zM506 26v1h4v-3zM625 63l2 2v-5h-2v3zM758 53h5l-5 -3v3zM288 16l-1 -5h2v5h-1zM320 16v-5l3 5h-3zM432 41l3 1v-3h-3v2zM293 16l3 -3h2l-2 3h-3zM655 61l4 2v-3h-2zM659 41h7l-7 -2v2zM709 63v6h1v-8zM624 42l1 -1v-6h-1v7zM695 11l2 -3
l2 2l-1 1h-3zM586 48h4l-4 -3v3zM552 33h2v-3h-2v3zM615 64h2v-3h-2v3zM413 54h2l-1 -4h-1v4zM282 31h2v3h-2v-3zM666 64v3l3 -3v-1zM593 39h3l-3 -4v4zM491 15l-2 -4h2l1 4h-1zM261 15v-2h2l2 2h-4zM385 39h4l3 -1h-7v1zM642 39h2v-1l-2 -3v4zM657 27l2 -1v-2h-2v3zM687 69
l2 2l-2 -7v5zM419 23v5l2 -7zM447 27l2 1v-4zM337 52v-2h-4zM449 64l2 -4h-2v4zM530 69l2 -1l-2 -3v4zM691 56h2v-2h-2v2zM452 15l1 -2l1 2v1h-2v-1zM710 33h2v-2h-2v2zM142 51l2 -2l1 1v1h-3zM389 27l-1 -1h4v1h-3zM440 61h4l-1 -1h-3v1zM767 53v3l1 -2v-3zM291 22l1 -3
l1 3h-2zM366 35l-2 -1h3l2 1h-3zM752 15v1l2 -1v-2zM304 64h1l-2 -3h-1zM625 56l2 1v-3zM710 41l2 1v-3zM748 22l2 1l-2 -4v3zM679 64h3v-1h-3v1zM735 30h2l-2 -3v3zM648 63l3 2v-1l-3 -2v1zM581 10l2 -1v2h-2v-1zM662 63h1v-3h-1v3zM593 54h3l-3 -2v2zM574 34v1h2v-2z
M650 27h3l-1 -1h-2v1zM714 57h2l1 -1h-3v1zM348 9v-1h2l1 1h-3zM770 27h3l-1 -1h-2v1zM302 23l3 -1l2 1h-5zM636 11v-1h2v1h-2zM592 63h1v-2h-1v2zM691 33v-2h-2zM357 26l2 -2v2h-2zM680 49h2v-1h-2v1zM197 27l4 -1v1h-4zM317 26l1 -2v3h-1v-1zM552 56h1v-2h-1v2zM703 15v-2
h1v2h-1zM730 41h2l-2 -2v2zM419 54h2v-1h-2v1zM410 31h2v-1h-2v1zM675 27h2v-1h-2v1zM507 67h1v-2h-1v2zM366 46h2v-1h-2v1zM286 22l1 -2l1 2h-2zM277 22l1 -2l1 2h-2zM671 11v-1h1l1 1h-2zM543 11v-2l1 1v1h-1zM363 27l1 -1l2 1h-3zM442 10l1 -1l1 1h-2zM550 42h1v-1h-1v1z
M69 42v-1h1v1h-1zM249 35l1 -1l1 1h-2zM367 9l1 -1l1 1h-2zM178 45v-1h1v1h-1zM389 50h1l-1 -2v2zM523 34h1v-1h-1v1zM313 34l1 -1l1 1h-2zM663 26h1v-2zM513 11h1v2zM577 28l1 -2h-1v2zM724 10l1 -1l1 1h-2zM461 11l1 -1l1 1h-2zM280 27l2 -1v1h-2zM776 65v-1h-1zM648 61
h-1l1 1v-1zM662 49h1v-1zM342 65h1v-1z" />
    <glyph glyph-name="a" unicode="a" horiz-adv-x="486" 
d="M387 -12v5h-3l-2 -5l-8 3l-5 -2l-4 6l-9 4l-4 12l-12 77l-2 4v10l-8 -5v-6l3 -2l-7 -5v-1h6l2 -1l-10 -10h-8l1 -7h-10l-6 -8l1 -10h-5l-3 -3h-5l-2 -2h-5l-10 -7h-10l-5 -7l-11 -3l-14 -12l-15 -5l-50 -3l-67 12l-25 10l-11 12l-6 3l-20 27l-2 15l1 5l6 -14l4 -4l-3 22
l-6 8l-3 6h-3l3 -18h-2l-3 24h-4l-1 -21l-3 4l1 27l-3 25l10 28v14l19 20l9 4l9 13l45 22l17 13l38 15l95 22l19 1l30 11l-4 2l3 5l-16 40l-4 3l-17 6l-35 -2l-7 1l-20 -1l-1 1l1 3l46 2l29 -1l-22 6l-73 -4l-7 -5l-35 -17l-22 -8l-3 2l-12 -4l-2 2l-9 -1l-1 -4h-6l-5 3
l-11 -1l1 2l10 3l12 15l1 11h-1l-1 -3l-7 -2l-3 -6l-8 9l-5 2l-2 5h-1v4l-8 1l6 11l-7 12h-5v3l3 4h4l5 5v2l-5 -1l-2 8l9 6l1 4v12l26 15l13 5l2 2l44 18h6l12 5l53 8l10 -4l19 2l8 -6l18 -1l21 -16l15 -6l7 -9h5l13 -14v-3l9 -9l4 -7h6l5 -11l11 -14l13 -13l20 -27l17 -46
l-4 -5l2 -2h3v-1l-1 -2l2 -9h-4l2 -15l-5 -2l1 -2h9v-9l3 -3l-2 -6l1 -12l6 -35l-1 -2l5 -29l-3 -14l3 -10l8 -52l-4 -8l-4 27l-2 -16l2 -16l2 -1l4 5h5l-1 -12l-6 -1l3 -68l4 -26h-5v7l-9 -1l-4 -5l-2 5l1 10h-4v-6l-9 -1l-2 -15h-6l-1 21l-4 -1l-2 -17l-6 10h-2v-11l-4 4
v14l-4 8l-3 -4l3 -22l-4 -4zM150 129l54 -1l63 18l32 14l28 7l3 6l-2 16l2 4l4 -9l-1 21l-5 15l2 -24l-2 1l-4 23l-4 6l-10 -7l-52 -10h-4l-41 -12l-4 -3l-9 -3l-27 -14l-27 -17l-16 -20l2 -2l10 -3zM71 47l21 -1l-1 2l-14 15l-3 2l-14 19l-9 4l1 -7l13 -27zM317 116v-7
l20 1v16l-7 -1l-7 -11l-1 2h-5zM455 68l4 5l2 -16l-2 -2l1 -9h-2zM433 218l7 -1l-2 4l-2 1l-3 8v-12zM461 36l-2 5h3l1 -14zM441 124v-2h6l-1 15l-2 -11zM447 4l4 -3l2 4l-4 2zM327 140l-3 -4h2l3 2zM449 29l2 -8l-1 5zM436 24l2 -4h2l-2 4h-2zM401 367l1 -2h3v2l-4 2v-2z
M334 119l1 -4l-6 -1zM429 240l-1 -3h4l2 3h-5zM306 52h2l2 -3h-3zM464 19l2 -2v-2h-2v4zM63 392h2v-2h-2v2zM409 353l3 -2v4h-2zM330 106l-1 -2l4 1v2zM448 43l1 -3h2zM41 193l-1 -3l4 1zM259 254l-1 -2h2zM29 149l-1 -2h2zM420 327v-2l2 2h-2zM423 258h2v1z" />
    <glyph glyph-name="b" unicode="b" horiz-adv-x="497" 
d="M157 -13l-3 -5l-8 9l-3 7l-6 -5l-3 -18l-4 7l-8 2l-1 -5l-15 28l-51 335l-1 12l-23 147l-4 53v29l2 8l-4 45l-5 4v3h3l2 -3h4l2 -1h4l3 14l3 1l6 -6v9l-6 8v22h3v12h5l14 -9v-9l-5 -10v-9l2 -3v6h5v-12l2 -3l2 -7h3v10l1 1l4 -11h3v14h10l2 14l2 3v-6h8l3 -6l11 -12l8 -4
l4 -13v-16l5 -9v-19l19 -122l2 -26h11l40 11h16l9 3l4 -7h16l3 7l11 2l9 -2v-3h3l6 6l48 -9l8 -8l9 2l27 -7l1 -8h8l6 -4l5 -9l5 2l17 -21l6 -19h8l13 -10l7 -18l6 6l3 -4l-3 -11l3 -3l2 3v7h2l7 -10v-5l-7 -2v-4l-2 -3l-6 6l-2 -6l3 -2l-3 -5v-3l22 4l-3 -6l2 -7v-7l3 -2
v-9l-3 1v-3l3 -3v-6l-3 -1l-4 -27l-7 -18l-2 -2l2 23l5 5v23h-7v-16l4 -4l-6 -3v-11h-5v-6l-9 -4v-5l3 -2v-5l6 -14l-12 -5l-6 -12l-2 2h-6v-9h4l-5 -9l-15 -7v-6l4 -2l-9 -8l-4 -8l-7 -7l-2 -5h-5l-4 -16l-30 -27l-4 3l-2 -3l2 -3l-8 -10l-7 -5l-13 -15l-10 -8l-2 2h-9
l-24 -14l-19 -15h-8l-5 -1l-7 1l-1 3h-8l-9 -4v11l-1 9l-15 -2l3 -10l9 -5v-5l3 -6v-9h-5l-2 18l-5 -4l2 -7v-17l7 -6v-8l-18 13l-4 -8l-7 7h-5l-3 -3l-3 5h-3l3 -15l-6 -6l-6 15h-2l-2 -17zM202 136l1 -15h8l64 54l39 49l6 12l7 8l20 42l6 28h-4l-2 -8l-34 6h-49l3 4l-4 9
l-4 -4l-5 7l-3 -7h-18l-3 -3h-9l-4 -2h-7l-23 -7l-10 -7h-6v-5h19l-4 -4h-7l-2 -19l2 -5l13 -81l-4 3l-2 8h-3l-2 -7l2 -5v-3h7l2 3l5 -31l3 -4v-5l-10 -3v-3zM200 302l44 10l2 4h3v-2h4l7 3l-3 -8l-63 -13zM270 321v-5h6l4 5l4 -3h3v-2l7 4v6h-16zM176 215h5l3 3l-5 16z
M192 116h5v15h-5v-15zM461 290h5v14h-3l-4 -4l2 -5v-5zM171 293v-19h3v13zM186 168v-7h4l3 6l-3 4zM454 274l2 7v5h-6zM29 687l2 3h4l-4 -14zM428 217l8 -6v6l-8 3v-3zM171 257h3l-2 8l-1 1v-9zM308 43l-3 -7l-8 -5zM174 247v-3h5v3h-5zM208 61v-3h5v3h-5zM300 321l-5 -3h10
zM214 52v-4h3v4h-3zM206 48v-5h2v5h-2zM416 177l2 -3v3l-2 5v-5zM389 410v-5h3v3zM200 309h2v-3h-5zM331 76v-2h3v4zM445 297v-2h3v5zM448 253v-3h2v3h-2zM282 452v-2h2v2h-2zM183 441l-2 -2h5v2h-3zM443 215l2 -5v7zM188 153v-1h2v1h-2zM454 269v-3h2v3h-2zM442 227l-3 -2
h4zM443 328v-2h2v2h-2zM171 229v-2h1zM428 388v-2h-3zM430 174h2v-1h-2v1zM343 302l2 -2h-2v2zM23 685v-2h-3z" />
    <glyph glyph-name="c" unicode="c" horiz-adv-x="436" 
d="M174 28l-48 19l-57 50l-19 24l-15 31l-3 22v67l-5 5l-3 -15h-4v40l12 25l18 29l-4 5l-9 -10l-6 1l66 72l5 11l14 7l16 13l58 34l53 21l29 5h10l15 7l-5 6h12l25 -17l14 -6h5l3 -18l11 -13l4 -2v-9l6 -8l3 8h3l2 -11l-3 -4l3 -4l5 -2l6 -11h-16l-2 -3h-5l-2 -5l-31 5
l-31 -5l-49 -22l-24 -18l-5 -5l-16 -11l-5 -12l-2 -2l-3 -5l-12 -14l-29 -50l-5 -14v-26l7 -8l5 -2l3 -9l50 -13l7 -4l33 -6l82 -4l32 4l33 -4l3 -1l7 -4l-3 -3h-4l-3 -4l-4 -3l-4 -8h-9l3 6l-3 2h-4l3 -5l-4 -4l5 -6v-8h-7l-3 3l-8 -8v-4h9l6 -9l-4 -10l-4 4v-21l-28 -11
l-4 -4l-3 -7h-54l-10 4l-2 -3v-5l8 -3l-3 -4l-18 -3l-6 -12l-11 -3l-2 -9l-32 4l-4 -7zM102 101l17 -8v4l-24 25l-2 5l-14 15h-4l4 -16zM396 135v2h15l-11 -6zM371 97l2 -3v4l-2 3v-4zM371 135v-6l2 2zM392 109l3 -3h-3v3z" />
    <glyph glyph-name="d" unicode="d" 
d="M424 -49l-9 3l-5 3h-7l-6 7l-2 4h-6l-2 9h-2l-2 -14l-7 3l-3 7l-6 -4l-4 20l-5 -3v19l-4 5l-3 15l-5 -4v6l-6 31h-4l-3 2l-5 2l-18 -9h-10l-2 -3l-31 -8v-3l5 -3l5 -5l7 -2v-5h-24l-8 -5h-8l-4 -3l-6 -2l-7 -7h-19l-12 3l-6 -4l-35 5l-7 -3l-47 19l-26 18l-31 44l-4 10
l-14 16v12h2l2 -5h2l2 15l5 13l-3 9v11l-6 8h-2v-10h-4l-4 32l17 38l5 3l4 9l5 3l24 25l5 8l4 3l13 14h6v4l47 42l58 32l6 14h5l13 4v2h-5l4 4l36 14l33 4h24l-7 117l4 37l7 -9l4 11h4l-3 12l-4 9v13l4 4l3 -9l8 7l3 9l9 4v14l4 9l2 12l5 -2l6 7h6v-21l6 -4h6l2 -15h13l4 -6
l7 -3v-23h8l6 -8v-35l2 -32v-38l4 -48v-40l-4 42l-2 -11l2 -27v-24l2 -14v-19l2 -16l-2 -22l2 -8v-10l4 -5l4 2l-9 -10l4 -15l-4 -5l9 -5v-5h-2l-2 2h-2v-33h-4v-3l4 -5v-7l2 -2v-27l2 -12v-14l-7 -3l17 -13l-6 -7v-11l2 -3l2 13l3 -3v-11l-10 -4l6 -7l-3 -7l3 -19l-3 -16
l3 -4l7 -32l-3 -4v-4l4 -5v-34h-4l-5 -11v-6l-2 -4v-5h-7l-3 17l-4 -5v-7l-6 -5zM188 168l16 -2h63l4 2h14l9 5h35l10 6l-7 114l-4 8l-13 3l-42 -8l-5 -5l-25 -9l-34 -24l-13 -15l-37 -36v-5l-11 -14l-1 -8l-4 -4l9 -3l4 -5h32zM62 94l9 -5h4l-10 16l-4 18l-17 20l-5 -14
l8 -18l10 -6zM381 600h6l4 15l4 2v4l-6 -4l-2 17h-6v-34zM346 658l-5 -7l-3 5l9 6l6 11h9v-2l-8 -3v-20zM441 291v56l2 -3l2 -53h-4zM439 358v33l2 -14v-26zM368 649l3 -3l4 5v10h-4v-4zM447 -12v-7l4 2v10zM443 262v11l2 -1v-13zM447 209l2 -21l-2 -3v24zM447 175h2v-7
l-2 -7v14zM445 230l3 -13l-3 -4v17zM458 50l2 -7v-9h-2v16zM433 164h4v4h-4v-4zM375 620v-7l2 2v5h-2zM455 62l4 -6h-4v6zM430 225l3 -4v6zM454 94l1 -7l-1 -2v9zM433 195v-5h2v5h-2zM30 164h2v-3h-2v3zM454 -23v-4h1v4h-1zM308 29h4l-4 -2v2zM431 258l-2 -3h4zM433 182v-2
h2v2h-2zM445 39v-5l2 7zM429 293l2 -2v5zM431 241v-3h2zM354 682h2l-2 -2v2zM429 305v-2h2zM431 264v-2l2 2h-2z" />
    <glyph glyph-name="e" unicode="e" horiz-adv-x="465" 
d="M178 10l-19 7l-33 15l-4 4l-18 10l-40 35l-23 30l-15 30l-4 17v57l4 35l-3 5l3 12v26l9 17l5 16l20 26l4 11l12 3v12l27 22l27 19l18 11l20 7l8 7l50 24l68 19h59l22 -6l11 -11l15 -8l6 -12l-3 -8l7 -7l2 -9l8 -2l-2 -5l2 -6v-5l7 -7l-4 -6v-4l-3 -4v-9l3 -4v-13l-5 -9
v-7h-2l-2 -2l2 -4v-5h-6v-15l-6 -9v-5l-15 -12h-4v4h-6v-4l3 -5l-17 -12l-19 -7l-10 -6l-21 -10l-7 -8l-23 -8l-69 -14h-58l2 7l-5 4l-3 7l-8 4l-5 -8l-3 -31l2 -17l11 -23l21 -15l50 -21l17 -3l12 -6l13 -4h24l29 -4h86l3 2l8 -3l-2 -4h-18l-4 -4l2 -2h14v-7l-4 3l-5 -4
l-5 5l-2 -10v-5l-24 -3l-9 -7l-6 -8l6 -5h11l2 -5h-4l-6 -2h-7l-3 -2l-10 -4l8 -5v-8l-14 6l-9 -9h-18l6 -8l-12 6h-11l-2 2h-16l-4 3h-16l-3 -5l2 -7h-9l-9 -6h-12l-9 -5h-11l-5 -2l-9 3l-4 -7zM202 341v-5h10l43 19h10l5 8h1l5 2h2l15 6v9l-3 4l-41 -14l-19 -12l-13 -6z
M98 82l28 -13l2 2l-4 5l-16 5l-16 17l-10 13l-8 8l-3 -3l4 -11zM415 108l4 7l2 -2h15l9 -2l-3 -3h-18l-7 -3zM415 319l4 9l3 -6l-7 -7v4zM356 478l4 -4l2 4l-2 3zM409 378l3 -4l4 4l-4 2zM415 371v-4h4v4h-4zM415 358v-2h2v5zM284 400l3 -2h2v2l-2 2zM380 105l4 -3v3h-4z
M432 341l2 2v-4l-2 -3v5zM371 105l4 -1v1l-4 3v-3zM20 274l2 4v-2l-2 -7v5zM332 35h5v-3zM415 393l-3 -2h3v2zM310 43l-1 -2h1v2z" />
    <glyph glyph-name="f" unicode="f" horiz-adv-x="423" 
d="M164 -8l-10 3l-6 12l-3 13l-5 -7l-5 73v4l-5 45l-2 8v9l-11 62l-4 9v8l-7 31h-31l-11 11l-7 3l7 4l8 7l-3 3h-5v8h-12l2 4l-8 2l-4 2h-10v11l-12 11l7 3h7l3 3l-13 4l10 9v6l8 13l46 13l-6 68v8l-2 12v17l-4 13l4 44l9 40l6 20l2 23l12 23l6 9l2 7l13 12l7 10l5 2v8l10 7
l10 9l17 4l4 3l26 8l14 6l26 5l7 3h6l7 3l38 -5l14 -8l15 -5l31 -34l7 -2l2 -7l3 -5l2 -12l8 -9l5 -26h2l7 -6l-3 -2l-12 2v6l-7 -6h-19l-5 4l-44 17h-22l-5 -3h-12l-27 -12l-22 -22l-4 -14l-12 -21l-10 -49v-44l6 -80h18l17 2h12l17 4h26l9 4h32l7 -14l7 -4l3 -13h15v-9
l-9 -9v-6l11 -3v-9l-4 -4l-4 2l-4 -2l8 -11v-3l23 -17l-5 -2l-4 -6h-14l-53 -7l-4 -5l-82 -8v-20l9 -55l2 -7v-4l14 -79l2 -25l2 -12v-4l2 -8v-4l2 -15v-37l-8 6h-7l-7 7l-2 7l-4 -7h-11v-4l-5 -16l-5 30l-2 2l-2 -2l-3 -32h-3v6l-2 6v12l-5 10h-8l-3 -19h-2l-3 7h-6v-35z
M363 304h11l7 6l-15 11v-11zM35 323l3 -4h4l2 9l-2 3zM354 326l5 -4l3 2l-8 13v-11zM126 45v19l2 -17v-22zM297 732l7 -4l3 2l-5 4h-5v-2zM217 33l4 -4h2v4l-3 4zM209 43v-3h2l3 3l-3 2zM376 351h3v-4l-3 -2v6zM128 656l2 -3l3 3l-3 2zM346 331l2 -3v3h-2z" />
    <glyph glyph-name="g" unicode="g" horiz-adv-x="441" 
d="M192 -160v4l7 4v3l-5 5l-26 3l-24 11v4l21 -7l17 7l-32 32l-11 22l-11 11v2l11 -6v2l-30 33h4l24 -18l9 -4l5 -6l3 4l-6 8l-2 5l-11 13h4l2 -2h7l4 -2v8l-11 12v8l-2 5v4l7 -2l8 -9l33 -28l7 -11l19 -16l8 7l8 -5h11l16 15l6 14l4 6l2 9l10 18l4 18l7 21l6 42v20l-2 -2
l-2 -12l-6 11l-5 -8l-12 -4v-7h-4l-5 6l-8 -4h-11v-10h-9l-20 4l-6 -2h-23l-8 -12h-25l-54 16h-4l-7 2h-6l-29 29l-20 28l-9 29v67l3 6l-3 11l4 10l3 24l-3 3l3 17l11 29l14 21l-6 10l69 61l3 6l10 5l13 11l42 17l46 7h93l5 -8l10 -4l4 -10l7 -6l2 -9l7 -2v-7l-3 -4l3 -13
l7 -8v-14l-3 -5v-6h3l4 4l8 -4l2 -5l6 -7v-8l5 -12l12 -82l4 -5l4 -3v-6l-3 -7l3 -4h12v-3l-7 -2l-5 -4l3 -4v-25l2 -8v-31l2 -22l-2 -20h-2l-3 -2l5 -4v-29l-2 -2v-11h2v-9l-2 2h-3v-4l-2 -11h5l4 2l-2 -6v-7l-5 -5v-10l-2 -4l-2 -21h7v-4h-7v-9l-4 -11l-8 -9l3 -6v-9
l2 -11l-3 -3l-3 22l-4 -4v-17l-4 -9l2 -3h6v-8l-6 -6l-11 -4l-9 -14h-12l-4 -9l-2 -8h-5l-6 -3l-2 7l-12 -12l-2 -13l-17 -5l-2 6l-2 -2v-8l-5 3l-9 -5h-10l-2 2l-4 -2v-5l-8 5v5h-4v-11l5 -2l-27 -11h-29zM147 193l38 -9h51l6 2h5l13 4l18 4l19 6v18l-4 15l-17 86v40h2
l2 -6l2 -2v19l-2 9v6h-5l-33 -11l-12 -9h-8l-7 -12l-15 -8l-48 -60l-17 -50v-30zM62 121l33 -21h8l-21 23l-2 6l-9 10l-5 9l-6 7l-2 4l-11 13h-3l-3 13l-3 -5v-12l4 -7l11 -29zM325 -132h8v-4l-4 -4zM361 -85l3 -2v12l-3 -2v-8zM128 -77h5l6 -6v-2zM378 -85l2 -2h4v4h-4z
M309 -142h6v2l-6 2v-4zM40 351l4 6v-4l-4 -6v4zM217 -130v-6l4 4v2h-4zM150 -85h4v4h-4v-4zM401 205l-5 -5h5v5zM121 -52h5v-5zM84 74v4l5 -4h-5zM282 88h4l2 -2h-6v2zM223 -134l2 -2l2 2l-2 2zM315 -134l2 -2v6zM401 -41h2v-3h-2v3zM370 -87v-2h2v4zM352 -75l2 -2v5z
M380 -44l-2 -4h2v4zM282 -144l-2 -2h2v2zM405 -24h2v-2z" />
    <glyph glyph-name="h" unicode="h" horiz-adv-x="515" 
d="M194 -13l-3 3l1 11l-8 -14h-5l6 9l-9 5h-11l-6 -14h-5l5 15l6 5l1 6h-8l-11 -18h-4v8l6 10v4h-8l6 5l1 7l-21 -16l-14 -26h-7l-10 5l-2 9l-11 2l1 14l-5 10l7 26l-4 80l-20 118l-7 22l-3 20l-10 -7h-2l12 14l-3 22l-4 14l-9 45l-10 75l-1 17l-5 32l5 13l1 12h4l1 -12l9 4
l13 -30l-4 26l-2 8l1 9l-5 27l6 10l7 5l7 11l1 17h10l8 -4l8 9h10l4 -5l-1 -11h5l8 5l4 -17h6l-7 -9l6 -11l-3 -16l7 -9l1 -9l6 9h7l5 -9l-1 -10l4 -13l15 -113l10 -11l35 12l21 11l54 16l13 6l2 3h19l7 2h6l17 4l9 4h31l13 -4h12l15 -9l2 -3l6 -3l8 -17v-6l4 -7h5l6 -19
l5 -21l12 -14l-2 -5l12 -25l4 -12l-1 -23l4 -4l-1 -14l-2 11h-2l-1 -25l-3 -12l3 -7l-9 -15l-3 -2l-2 -26l5 -4l-11 -4l-1 8l-2 -2l-1 -15l2 -6l-1 -4h-4l-6 -11l-1 -9l-5 -12l-5 -6l-8 -15l-1 -11h-3l-1 4h-5l-1 -13l-5 -7l2 20l-14 -20h-7l8 7v9h-2l-2 -7l-7 -3l-4 -6h-5
l-3 5h-11l-10 17l-14 -13h-6l-2 7l-8 2l-1 6l-6 8l-7 2l3 42l38 115l2 28l-5 21l-11 5l-48 -13l-13 -8l-12 -2l-15 -8l-8 -3l-24 -12l-15 -5l-20 -18l6 -19l4 -28l9 -28l3 -59l2 -12l-3 -44l2 -9l-2 -32l-2 -2l-6 -15h-5l-3 -15h-2zM40 592l4 5l6 -10l-9 -12h-2zM441 128h5
l1 15h-5zM484 287l3 -3h4l-4 8zM481 189l3 5h2v-7h-2zM470 182l3 -3v5h-3v-2zM432 128l2 -4v6l-2 2v-4zM71 594v-2h2v5zM418 423l1 -3l1 6zM189 19l2 -2v5zM176 -5l-1 -3h-3zM433 109l2 -2v5z" />
    <glyph glyph-name="i" unicode="i" horiz-adv-x="249" 
d="M137 45l-5 2l-14 9h-4l-4 10l-2 2l-5 -8l3 -4l-5 -11l-6 12l-10 -7l-5 18l-5 -2l-2 4h-3l-3 -5l-7 5l-4 -21h-8l-2 5l-11 3l-4 15l-4 -8l-7 14v117l4 60v12l5 6v31l3 9l2 32l4 4h6l3 17h4v-7l2 -2l3 5v14l-3 4v25l9 9l3 12l12 3v4l-3 4l3 11l10 -7l14 14l4 7h3l10 -7
l-8 -10l6 -9l2 -10l2 -2v19h10v-17l4 -14l-8 -6l8 -15l-5 -7l3 -4l-3 -6l3 -3h5v-9l14 6l3 8l3 -2l2 -15l8 -12l-6 -29v-45l-2 -10v-14l-2 -37v-14l-3 -38v-24l-5 -5l5 -10v-12l-3 -4l4 -18l-4 -11v-15l-2 -5v-21h-10zM114 508l6 5v7l-12 4h-7l-5 6l-9 4l5 5v10l8 12h-6
l-7 -3v9l-5 4l-9 -4v4l3 2l-3 19l-3 2l3 7l-3 3l-5 -2h-7l41 19l18 6l6 6h16l29 10l5 4l3 5h4v-9l-12 -10l4 -5l9 5l6 -10l-9 -9l2 -6v-21l-2 -6l5 -10v-8l3 -2l4 2h10l4 2h5l-5 -7l8 -5l2 -4h5l3 3l7 -6v-13l-17 -4l-12 -7h-14l-10 -4h-30l-11 6l-3 -2l6 -5l-7 -14z
M214 564l5 3h4l4 -7zM145 383h2l4 -5l-6 -4v9zM128 496l2 2h7l-7 -5zM48 436v-10h-4zM166 567l5 -4v2l-5 6v-4zM79 78v-2h3v2h-3zM166 602v-2h2v2h-2zM192 604h2v-2h-2v2zM147 152l2 -2v4zM173 590l-2 -3h2v3zM128 522l-3 -2h3v2zM149 181l2 -2v2h-2zM114 76l2 -2v2h-2z
M157 606l2 -2v2h-2z" />
    <glyph glyph-name="j" unicode="j" horiz-adv-x="204" 
d="M-71 -246l-11 7l11 11v4l-20 -5l4 5l7 3v8l-10 3l-2 2l-2 -2h-8l-4 5l-8 2l-7 4h24v9l7 -3h7v4l-10 6l-25 27l-13 10h3l12 -5v8l-5 2l-7 15l-3 9l-7 12h5l12 -10l5 -2l14 -9v7l-5 9l13 4v11l-17 21l-3 15h6l25 -27l7 -9l5 -2l15 -14h7l19 -10l19 26l48 91l5 24l12 38
l3 67l-3 21v23l-2 12v10l-4 19v51l2 37v23l4 18v23l3 6l2 -19l3 -4l2 7l3 -3v39l13 13l8 25l7 7l5 -2h10l4 5l6 2l6 8h3v-17l7 -8h3v-11l8 -4l4 -9l-8 -14v-16l12 -3h19v-22l4 -13l-5 -64l6 -72l5 -24v-122l-10 -75l-11 -46l-8 -34l-7 -16l-5 -5l-2 8h-12l-3 -3l5 -10h8v-4
l-3 -5l-2 -9l-5 -6l-3 -8l-10 6h-6l4 -5l-26 -35l-5 4h-5l3 -7l-4 -2l-4 -10l-15 -9h-13l-3 -8h-2l-8 -3l-11 7l-15 -7l-5 7l-11 -5l-3 -6h-12l-17 -9l-18 -4zM118 556l-11 -8l-5 5h-10l-2 6l-2 2l4 9l-13 -9l-7 7l-6 -7h-5l7 15l-12 5h-9v5l4 10v4l-2 5v10l-2 4l2 9l-2 5
l31 33l11 7l8 11l10 5l4 5l12 3l13 12h5l-4 -10l6 -2v-10l9 -9v-6l6 -4l-6 -8l-4 -12l-10 -15l2 -2h5l7 -3l6 11h5l-5 -10l2 -13l7 6l2 -3l3 6h4v-20l5 -8l-13 -23l-18 -9l-7 -6l-6 -3l-4 -6l-12 -5zM56 668l22 21l3 -3l-22 -23h-3v5zM63 419h6l4 -8h-4l-10 -6zM30 -220
l8 -8l4 13v5l-6 -4v-4zM140 -108l5 -7l3 4v11zM102 -120l8 -4v7l-5 2l-3 -2v-3zM43 349l5 17v-17h-5zM156 -56l4 -3h3v10zM85 -210l4 3l4 -3v-4zM153 -78v-12l2 4v10zM145 421l3 5v-5l-3 -4v4zM-21 -229l3 -3v8zM164 -40l3 -5v8zM-118 -97v4h2l2 -4h-4zM10 -220h3v7z
M116 -126l-4 -5h4v5zM-118 -136l2 -2v4l-2 3v-5zM158 684h2v-2h-6zM50 -210v-3h2v5zM157 -66l3 -2v4zM112 -179l2 2v-4h-2v2zM62 -210l-3 -3h3v3zM116 -117l4 -2v2h-4zM151 -71l2 -3v3h-2zM164 629v-2h-2zM129 555l2 -2v2h-2z" />
    <glyph glyph-name="k" unicode="k" horiz-adv-x="539" 
d="M93 -70l3 11l2 22l2 2v7h-2l-2 -5l-7 2l-3 6h-2l-2 -18l-3 10v10h-9l-5 -16h-8l-2 6h-7l-5 -5l-5 13l-7 8l3 11v4l-9 -16h-5l17 36l14 48l4 24l6 9l41 414l8 19h3v-12h6l9 42l11 15l8 4v11l2 -2h5v10l10 4h6l16 16l4 -12v-16h5v-12l7 14h2v-4l-3 -6l3 -8l-9 -30v-7l4 -5
h5l3 -4h2l3 13l10 -10l4 -11v-12l5 -12l-5 -10l-9 -59v-12l-4 -10l-2 -19v-12l-2 -2l-2 -25l-3 -12v-19l-3 -9l3 -3v-16h5l13 13l63 44l6 2l10 8l35 21l2 2l6 3l14 10h5l4 4h6l6 -3l3 6l2 -3l10 -2l3 9l5 -4l20 4l11 11h2v-13l2 -2v-12h8l4 5l8 -3l-27 -21v-12h3l-3 -10
l-7 -5v-7h2l14 14l2 5l4 3l2 5h2l-8 -15l-8 -10v-3l14 3l7 -6h7v-4l-4 -4v-2h4l4 6h6l3 -6l-6 -10v-15l-4 -6l-19 -10l-8 -3l-7 -4h-5l-10 -11l-11 -3l-3 -8l-34 -21h-9l-4 -12h-8l-5 -6l-5 10h-2v-12l-9 -12l-5 5l-3 -5h-5l-7 -5l-2 -6l-12 -4l-10 -6v-7l12 -8l8 -2l10 -8
h15l22 -8l105 -25l35 -17l4 -5l14 -9l13 -20l-8 -2l-4 8h-2l-3 -10h-2v6l-8 8h-2v-10l-8 -2l-4 8h-17v-18l-4 -7h-6v-4h6l4 2l-4 -6l-7 -2l9 -9h-8v-7h6l-6 -5l-6 5v7l-8 -10l-2 -10h-15l-10 3h-8l-26 5l-9 -3l-3 -8l-32 8l-22 4l-7 4l-114 28l-4 -4h-8l3 -8v-14l-12 -8v-11
l-4 -8v-12l-3 -2l-2 -9l-8 -14v-6l-4 -7l-3 -8l-5 3l-2 -11l-4 4h-4l-3 5l-13 -7l5 7v5l-10 2v9l-4 -4l-4 -12zM204 265v-4l16 11l7 11l11 4l7 9v6l-9 -6l-3 -4h-5l-19 -19l-2 -6zM271 323v-5h8l4 5l18 11v5h-8l-12 -12zM141 -28v-21h6v14l4 2v5h-10zM382 251l5 -5l9 15v14
h-2l-2 -13l-10 -7v-4zM168 0l5 6v-20h-5v14zM159 4l2 -4l3 4v9h-5v-9zM38 18v-8h3l3 14zM164 587v-5h2l5 14h-3zM399 343l5 -18l3 7zM151 -62l5 5h3l-5 -9h-3v4zM159 -39h6l-4 -8h-2v8zM426 283l4 -3l3 2v5h-3zM129 -47v-5h6v5h-6zM449 79v-5h8v2zM289 177h6v-3h-6v3z
M118 -39v-6h2v6h-2zM459 302v-6h2v6h-2zM79 -18l3 -3v5h-3v-2zM410 267v-2h3v5zM86 -52v-5h-4zM363 241v-5h2v5h-2zM425 383v-5l2 2v3h-2zM100 -21v-2h4v2h-4zM464 54h2v-3h-2v3zM176 37v-4l2 2v2h-2zM127 290v-3h2v3h-2zM145 -86l2 3v-3l-2 -2v2zM65 35l2 -2v4zM445 397h2
v-2h-2v2zM416 337v-2h2v2h-2zM466 39v-2h-2z" />
    <glyph glyph-name="l" unicode="l" horiz-adv-x="407" 
d="M84 -2l-5 3l-8 8l-16 8l-14 27v25l-15 13l-2 20l-3 5l3 11l-3 16l-1 17l21 202v4l2 29l8 58v35l2 3l7 -4l4 17l-4 4h-5v27l3 4l7 -8h6l4 11l7 7l2 14l2 5v7l2 3l3 7h5l3 -6l4 4v9h2v-65l3 -5l2 5l10 4l3 -9l2 5l2 2v14l14 -8h8l2 2l10 5v-11l14 -9v-38l-17 -221l-5 -29
v-51l126 51l14 3l12 6h8l2 -2l5 5h2l-3 -7l4 -4l4 15h34l2 -2h9v-8l-8 -4l-3 -8l-8 -2v-11l-9 -10h-10v-5l7 -5h29v-14h-7l-5 -5l-2 -5h-6l-4 -10l5 -10l-5 -8v-8h-5l-7 -7h-7l-4 -7l-37 -19l-17 -17l-17 -7l-14 -8l-12 -4l-5 -3l-40 -17l-30 -15l-34 -11l7 -3l5 3l32 8
l48 23l36 12l24 12l15 -1l-77 -37l-22 -8l-2 -2l-25 -9l-5 -3l-35 -12h-30zM71 571l-2 5l6 7l2 4h2l5 4v-4l-7 -6v-7l5 -5l-7 -14zM347 234l3 -4h13v4l-7 4zM136 189l4 -3h4v10l-3 7zM147 309l4 -5l2 5v7h-2zM96 557l3 -3l2 5v4h-5v-6zM142 234v-7h4v7l-2 3zM142 206l4 -3
l3 5v5l-3 -5l-4 2v-4zM146 247v-6h5v6h-5zM380 238l7 -4l-7 -3v7zM146 295v-3h5v3l-2 2zM127 177v-10h2v10h-2zM334 206v-5h3v7zM344 213v-10h2v5zM331 234l3 -2v5h-3v-3zM31 69l3 -3l-3 -3v6zM142 219v-4h2v4h-2zM77 600l2 -2l-2 -3v5zM71 544l4 3l-4 -5v2zM110 11l-2 -2h4
zM144 535v2l2 -2v-2zM353 152h3v-2zM235 35v-2h-2zM110 554l2 -2h-2v2zM60 571h2l-2 -2v2z" />
    <glyph glyph-name="m" unicode="m" horiz-adv-x="804" 
d="M143 -35l-5 19h-3v-16l-5 6l-2 -4l-8 16h-9l-4 -8v-8h-1l-3 2h-8l-13 24l-9 63l-2 29l-3 14l-3 63l-4 7l-15 102l-18 76l-2 44h2l6 -5v9l-11 28v20h3l4 -4h2v6l2 -2l3 -14l4 3l-5 25l-2 4l-2 12l-6 1l-6 7v21h12v-9l4 -10l3 6v6h5l2 -6h6l3 -10h4l14 -2l-8 -14v-11l6 -11
l6 -5v16h5v-7l5 3h11l11 -14l10 -2l4 -4v-8l8 -14l9 -44l9 5l11 11l4 2v2l8 12l20 20l11 16h3l8 12l9 6l10 9l3 8l7 4l5 9l11 3l22 22l14 10h4l11 11h6l4 -5l2 2v9l16 8h13l3 -6l8 -3l4 -9l9 -3l5 -14l4 8l4 -11h7l3 -10l-3 -1v-10h9v4h3l2 -2l4 -2l3 -6h5l3 -10h6l3 -2l7 4
l6 -4l7 -16l-3 -8l2 -5v-9l8 -21v-29l2 -6v-40l2 -14v-37h-4v-5l5 -6l5 -27l12 14l4 11l30 48l8 8l4 11l20 28l15 15h3l17 16l3 10l16 5v7l17 12l23 12l-5 -7l-2 -2v-8h5l8 9l4 -9h6l2 5h3v-22l-3 -3v-4h5l5 -14l3 12l-3 6v14h2l5 -24l3 -8l-3 -4l3 -7l6 -2l4 -5l5 -3l2 -1
l1 9h6l2 -8h9l5 -4l10 5l7 -2v-21l3 -2l2 -7l-6 -3v-6h6l6 -38v-17l2 -19h-6l-8 5v-2l14 -15l-3 -7l5 -4l2 -31l2 -5l-4 -8v-5l4 -2l2 -11l2 -3l-4 -3l8 -4l4 -13l6 -13l2 -7l8 -7l-4 -5l-9 7l-4 -5l-11 9l-3 -8h-3l-2 3h-6l-6 -7l-4 -7l-15 23l-2 -4l3 -24l-13 21l-4 -7
l-3 7l-7 -3l-3 4v-12l4 -20l6 -10h-4l-18 25l-9 23l-2 2v-9l4 -15l-4 4l-23 58l-7 31l-6 42l-5 5l4 -38l5 -31l-4 3l-7 70l-5 6l-3 7h-9l-3 -5v-5l5 -2l-4 -5l-1 -9l-7 3l-3 -3l-5 -17v-7l5 5h4l4 -4l-11 -12l-4 -3l-7 -10v-8l3 -2l-6 -11l-4 -3l-4 -15l-7 -9l-7 6l-3 -6h-4
l-7 9l3 -18l11 6l2 -2v-6l-18 -13v-3l5 2l7 -8l-3 -3l-2 -9h-4v7l-6 4l-4 -11l-3 -4v-17l-11 -4v-9l5 -4l-4 -7h4l4 7l-4 -19h-2l-3 8l-15 3l-2 3l-8 -2h-6l-5 -2l2 -5h-4l-9 -5h-6l-3 -10l-6 5h-4l-2 -5l-5 -6l-6 -17h-6l-5 9l-8 3l-5 9l-7 7l-22 54l-5 24l-3 3l-15 71
l-2 25h-3v20l-9 112v63l-9 9v-6l2 -3l-4 -4l-2 -5l-8 -1l-2 -8l-16 -10l-9 -12l-2 -5h-7v-9l-18 -19l-3 -6l-10 -13l-3 3h-4v-5l2 -2l-10 -3v-9l-11 -11h-7v-3l5 -4l-38 -52l-17 -8v-34l5 -18v-14l3 -13v-49l6 -10v-10h-6v8l-3 4v12l-5 4h-3l3 -10v-8l3 -8h-3v-16l-3 -10
l3 -4v-17l5 -16h-7v-3l7 -7v-10l3 -9l-5 -10l-7 3l-4 9l-11 -10l-4 7h-4v-11h-6zM232 354h5l5 11h14l3 13l7 4l6 15l7 4l4 7l14 13l6 3l3 -7l16 16l-4 6h4l2 -2h10v9l-6 6l-4 -4l-7 -2l-3 -4l-17 -9l-42 -37l-3 -13l-6 -5zM174 116v-16h8v2l-4 5v20l-2 4l5 7l-5 6l-2 5
l-2 -4l-5 -1v-4h2l4 -3l-5 -5zM452 289l5 -5v6l-3 3l3 5v11h-11l-3 -11l7 3zM729 300l4 -4l4 11l-7 12l-7 -19h6zM162 197l2 -3h6l-3 14h-7l-5 -5v-6h7zM329 530v-8l12 9l4 -4l2 3v9l-11 -3zM450 340v-8h2l10 8l-10 5l-5 6zM731 131v-17h3l3 3v14h-6zM189 34l-5 12l-2 2
l7 11l3 -25h-3zM39 405v14l-5 4l2 3v3h-3l-3 -10l4 -4zM557 160l3 -13h4l3 9l-4 4h-6zM556 192l8 -13l3 13h-11zM165 -12l4 -2h8l-5 12zM217 328v-8l10 11l-4 2zM168 167l4 -13l2 2v12l-2 2zM433 37v-7h6v12zM450 404v-19h2v16zM578 245v-13l3 5l4 4l-2 4h-5zM320 413l5 -6
l6 6v2h-11v-2zM573 221l8 -4v4l-8 8v-8zM686 399v9h2l2 -14l-2 -2zM454 246v-7l3 2v5l3 5l-3 2zM404 466l7 -3l2 3l-2 3h-7v-3zM448 322v-6h2l4 4v2h-6zM610 245h7v-6h-3zM28 490v-8h4v4zM211 328v-6l5 9l-3 2zM340 520l4 -3l3 3l-2 2h-5v-2zM165 44h4l3 2l-3 5zM704 359v-5
h7v2zM525 133h2l4 4l-4 3zM297 409l5 7l-3 3zM450 381v-9l2 3v3zM527 67l3 2l2 -2v-3h-5v3zM174 -19v-5h4v5h-4zM354 527v-3h2l3 3l-3 3zM164 83v-6h3v6h-3zM526 107v-5l4 3v2h-4zM301 408v-4l5 4l-2 2zM736 263v-2h1l3 2l-3 4zM228 345l3 -2l2 2l-2 2h-3v-2zM725 133v-3h4
v3h-4zM457 261v-3h3l2 2l-2 1h-3zM188 15h4l-2 -2v-5h-2v7zM764 116h4v7zM112 15v-5h2l2 3l-2 2h-2zM592 260v-7l4 7h-4zM701 320v-6l4 3zM169 181v-7l4 3zM583 184h2v-3l-2 -3v6zM443 237l3 -2l2 2l-2 2h-3v-2zM194 -28v2h3v-4zM734 282v-7l2 2v5h-2zM715 305v-5h2v2z
M532 170v-2h2l3 2l-3 2zM169 22v-6l3 8v2zM608 282v-7h2v4zM162 170v-5l2 3v2h-2zM290 408v-3h3v3h-3zM744 178v-4l4 2zM692 375l3 1v-1l-3 -3v3zM737 215v-5l3 3zM407 480v-4h2v1zM546 149v-4h2v2zM164 69v-2h3v2h-3zM475 64v-2h3v2h-3zM542 105v-3h2v3h-2zM672 368v-3l2 3
v2zM564 170v-5l2 3zM742 237v-5l2 3zM550 184v-3l3 3h-3zM548 172v-4l2 2zM26 433v-2h2v2h-2zM172 13v-3h2zM454 271v-2h3zM578 203v-2l3 2h-3zM450 361v-2l2 2h-2zM135 -8v-2l2 2h-2zM519 116v-2h2zM242 352v-2h2z" />
    <glyph glyph-name="n" unicode="n" horiz-adv-x="556" 
d="M137 44h-9l-11 6l-7 -3h-4l-2 -5h-5v8h-10l-2 -6l-5 18l-2 -5l-13 12l-5 -22l-9 3l-17 16l-6 108v207l-4 9v10l-5 40l3 6v19h6l2 -10l3 13l-4 21l-5 -4l-2 -6h-4l4 8l10 9v15l-3 7h17v-19h8l4 5l-7 2l-2 3h12l4 -5v-8l2 -14l4 5h3l-4 -17l3 -2l5 19h7v-15h-5v-36l5 -9
l14 7h7l12 -11l5 11h7l8 -7v-9l5 -42l9 3l8 7l21 12l3 9l5 -5l12 10l2 6l9 4h7l6 5l3 -4l6 6l2 5h8l2 5h5l21 7l6 6l4 -4l10 3h4l4 7h3l7 -6l3 3l-7 8l10 3l3 -8l6 -3h29l5 6l-5 8l14 -4l-4 -2v-5l4 -4l6 11l17 -3l9 -9l9 -5l6 -13l19 -6l5 -7l-4 -2v-6l11 -4l2 -7h2l2 4
l7 -7l8 -12v-5l9 -4v-15l7 10l17 -13v-28l8 -21l3 -28l4 -12l-6 -5l6 -18l-3 -3l3 -5v-28l2 -5v-12l7 -36v-22l4 -2l-4 -34l-7 -9h-2l-8 -5l-5 9l-4 -4l-5 -2l-2 -12l-10 8l-7 11l-2 -20h-2l-12 16l-3 -3l-3 -8h-3l-3 -7v-17l-17 22l-5 -3l-8 15l-5 4l-8 46l-5 5v-20h-5
l-5 37v21l-5 67l2 5l-2 6l7 10l-5 48l-7 11v8l-19 6h-24l-51 -25l-53 -40l-43 -43l-7 -2l-10 -5h-7l-2 -2h-12l-3 -31h-4v28l-5 5l-5 -18l5 -4l2 -14l7 -7v-14l-7 4h-4v-5l-5 -4l5 -3l4 -11h7v-4l2 -4v-12l-2 -2l-3 -7l-4 9l5 5v7l-4 3l-3 -13l-9 -9l7 -3l2 -17l-2 -5l7 3
v12h4v-17h-7v-43l3 -15l-3 -7h-2zM130 378v-9l12 8l-4 4zM238 349v-7l11 7l-6 6zM277 371v-14l10 4zM353 424l11 -3l4 3l-5 3h-10v-3zM522 91l8 9l3 -4l-9 -9h-2v4zM181 312v-8l7 4v4h-7zM260 355l2 -2l4 4l-11 3v-5h5zM344 465h-5l9 5l4 -8zM303 377v-6l10 6h-10zM328 378
l3 -4l5 4l-5 3zM101 453v5h5v-5h-5zM128 230l2 -7l2 2v5h-4zM149 85v8h2v-10zM203 314v-8l3 4zM134 393v-3h4v3h-4zM510 177v-5h3v2zM65 472v-7l3 4zM123 57v-5h2v5h-2zM116 76v-5h2v5h-2zM532 85l2 2l2 -2l-2 -2h-2v2zM60 496v-4l3 2v2h-3zM380 353v-6l3 2zM130 115v-6l2 3
v3h-2zM162 292v-4h2v4h-2zM289 371v-5l3 3zM151 66l3 -3l-3 -2v5zM510 239v-5l3 3zM534 119l2 -7h-2v7zM60 479v-4l3 2zM502 203v-4l3 2zM505 193v-4l3 2zM97 441h2v-2h-2v2zM130 400v-4l2 2zM116 377v-3l2 3h-2zM101 359v-2l3 2h-3zM296 371v-2l2 2h-2zM349 381v-2l2 2h-2z
" />
    <glyph glyph-name="o" unicode="o" 
d="M132 6l-5 3l-13 3l-37 38l-27 47l-9 29l-10 70l-6 30l-4 53l10 46l3 8l2 9l27 54l47 48l34 24l10 4l30 20l8 2l23 14l43 14h13v-2l-9 -2v-5h9l3 -2l-3 -2h-5v-5l18 -3l4 -7l-7 -7l-4 -2l-3 -8h-8l-6 -7v-7h14l7 5l5 -5l-7 -5h-15l-19 -10l-7 -7v-7l9 7l13 3l4 4h10l5 3
l11 2l11 10h2v-5l2 -3l2 -4l6 -3l-6 -12h-4l-5 -5h-12l-9 -9h-3l3 5l-3 2l-8 -11l-11 -8h-8l-5 -11l-17 -11l-14 -23l-7 -3l-7 -13l-5 -2l-2 -9l-10 -13l-14 -28l-10 -43v-7l-5 -39v-17l3 -7l4 -25l13 -21h33l5 3l17 5l23 14l38 31l11 15l14 13l6 15h4l3 -7l2 3v19l12 11
l5 20l7 8v11h4v-24l12 23l3 16l7 9v13l-5 -5l-6 -15h-4l9 20l-15 10l-4 12l-14 -4l-19 14l-23 6l-6 3h-9l-4 2h-8l-6 6l35 17l25 4l-4 8l12 4h58l10 -6h10l7 -4l5 11l7 -7l10 -13l12 -4v-7h-3l-3 -2l6 -5l-3 -10l-3 -2l-2 -5l-4 9l-3 -4l3 -10l6 3v-3l-4 -6l7 -12v-3h-5v-5
l2 -4v-8l-4 4h-10v-6l4 -4l-8 -6l-3 10v14l-3 3l-2 -3v-8l-2 -11v-24l-3 -6v-16l-4 -4l-3 -13l-2 -4v-8l-15 -14l5 -8l-2 -2h-5v-7h7l-10 -6l4 -5l-3 -6v-7l-6 -5l-2 -5l-6 7l-10 -14l-2 -5l-6 -4l-6 -13h4l10 7h5l-3 -2v-5h3l23 27l7 12l8 22v-15l-10 -19l-11 -14l-11 -18
l3 -6v-8h-5v8h-4l-5 -8l-2 -2v-8l-11 -7l-2 -7l-10 -5l-2 -6l-5 -4l-2 -4l-7 -5v-2h7v-7h-5l-2 -8l-2 2v6l-4 2v5l-3 3l-4 -8l-4 -5v-5l-4 -4l4 -7h-5v17l-8 -4v-11h-4l-2 2h-3v-18l-41 -10h-19l-7 -4h-2l-10 -4l-13 -3l-7 -6l-31 -8zM134 28h24v9h-14l-10 10l-19 16l-6 10
l-9 5l-15 22h-5v-13l17 -32l18 -10l2 -8zM171 26v-8h19l19 8l3 2l4 2l-3 4l-4 -4l-7 -2l-7 5h-6l-11 -7h-7zM379 134v11l10 11l6 2l4 12l12 -3l-12 -11v-11l-7 5l-9 -9v-10zM34 280v-48l2 2l5 48l-2 2zM30 131l-4 17v17l9 -37zM213 430l4 -4l10 9l-4 4zM344 258v-9l4 9l3 2
l4 13h-2zM39 301v-9h4v14l-2 3zM355 107l11 -3v-2h-11v5zM442 301l4 4l-4 -21v17zM20 183l4 3v-14zM457 342h3l-3 -9h-3zM346 131v-3h2l5 6l-2 2zM392 403l4 -5l3 2l-7 7v-4zM401 429h5l10 -5h-5zM361 309l4 4l-4 -16v12zM423 210l5 5v-5l-5 -4v4zM428 355v-2h5l2 2l-2 2z
M404 179l2 3l3 -3v-2h-5v2zM320 448h5v-2l-5 -2v4zM426 342l2 -2l2 2l-2 3h-2v-3zM428 336l2 -3l3 3l-3 2zM452 366h7v-3zM404 275l2 -4h3l-3 4h-2zM372 186v-2l5 5v2zM437 393v-3h3v3h-3zM392 239l2 -2l2 2l-2 2zM298 509h3l-3 -5v5zM452 355h5l-3 -2h-2v2zM444 405h3v-2
h-3v2zM348 117v-2h3v2h-3zM202 420v-2l2 2v4zM418 186h2v-2h-4zM223 398v-5l2 3zM413 172l3 -3h-3v3zM154 282v-4l2 2zM355 128v-2l4 5zM396 266v-2l3 2h-3zM361 141l-2 -3h2v3zM231 403v-3l2 3h-2zM401 256l-2 -2h2v2zM413 208l-2 -2h-2z" />
    <glyph glyph-name="p" unicode="p" horiz-adv-x="437" 
d="M111 -161l-6 5h-2l-6 5l-6 -10h-10l-3 30l-5 6l-2 -27l-2 5v16l-2 8v16h-8l-8 66v21l-6 13v25l3 5l-3 7v17l-5 6l2 4v6l-5 11v32l2 3l-1 2l-9 88v8l-7 10l-2 81l5 -10l-3 -5l3 -14v-21h6v93l4 14l5 -4l2 13v36l3 2l6 22l9 15l13 8v5h4l-4 -11v-18l2 -2l8 10l6 3l3 5
l10 -8l3 6l6 2l7 8h9l4 -1l14 8h2v-5l10 4l2 9h2v-7l18 7l6 4l9 -11l3 5l-1 3h3l4 -1l3 1h11v-6l6 13l3 -4h19l11 -7l4 4l4 -6h3l4 -5l8 7l6 -7h4l4 -5l6 4l11 -5l9 3l10 -8l-3 -10l11 -6l7 4l13 -15l4 -14l7 -3l2 -11l5 -6l-1 -2l-6 -16h2l8 7l5 -4l2 -17h4l5 2v-11l-5 -4
v-4l10 8v-14h-5v-6h3l2 4h4l1 2h3l-3 -7l3 -3v-14l-3 -2l-1 2v6h-2l-4 -4v-8l8 -4l-2 -8l4 -9l-3 -5v-4h7v-10l-4 3l-3 -3l3 -7l4 -4v-4l-12 10l-7 -14h-3l-4 3l-4 -9l10 -2h10v-6h-4l-6 -5v-8h-2l-3 10l-3 -4l-2 -9h8v-2l-2 -3v-2l7 2l3 5l2 -9l-10 -12l-5 -13l-5 -4v-6h-2
l-7 -3l4 6l-7 7l-2 -20l-6 3l-2 -3l4 -6v-2h-10l-5 -15h-5l-2 -5l-6 -3v-8h-4v7l-4 2l-2 -2h-2v7h-6l-2 -12v-11l-5 12l-3 -3v-9l8 -7v-2l-8 -2l-13 -22l-12 5v-11h-3l-5 4l-3 -10l-9 -13l-3 4v2l-4 2v3h-5l-9 -21v9h-4l-4 -9l-2 6l-9 -8l-15 -4l-8 -6l-11 -4l-8 -5l-7 3
l-15 -6v6l3 4v12h-8l5 6v5h-4l-5 -10v-26l2 -5v-6l3 -4l-5 -10l5 -9v-5l-1 3h-2l2 -12l1 -2v-16l-2 -4l6 -5l-4 -15l-1 3h-2l-3 -22h6v12h6l-2 -12l1 -2v-2h-14v-9l-7 -5l3 -7h4l4 5l-2 -16l-8 -5v-2h13l-11 -20l2 14l-9 2l-5 -5l-2 -11zM141 127v-23l18 6l20 11l36 29l3 1
l47 49l15 26l15 16v-3l-4 -6l2 -3l4 6l5 2l19 30l12 39v20l-13 23l-21 8h-8l-20 6v-6l15 -7l5 -5h-4l-20 8l-2 9l-6 -3h-40l-9 -5l-19 -5l-40 -18l-12 -11h-4l-4 -4l1 -10v-81l3 -17v-18l-3 -6l3 -4l2 -16l3 -8l-4 -17h3v-7l-4 -4zM307 402l8 -5l5 4l-6 7l-9 4l-10 9h-12
l-3 -3l5 -4h6l6 -7zM243 430l13 -3l3 3l-4 4h-12v-4zM327 143l-2 -14h2l4 4v10h-4zM336 145l3 -11l4 4l-4 12zM154 -160l3 4h4v-9h-2zM376 182l-3 -7l10 6v5zM387 255v-9h4v9h-4zM285 223l4 -6l2 9h-4zM156 -140l3 5h2v-10zM370 213l4 -4l2 11h-2zM211 397l3 -5l3 5l-2 3h-2
zM157 409v-7h4v7h-4zM31 418l4 7v-9l-4 -2v4zM291 106v-2h4l2 5l-2 2zM244 459l3 -5l3 5l-3 3zM353 281l2 -3l6 7h-4zM394 274l2 -4l3 4l-3 3zM409 220h5l-3 -11zM287 89v-6h2l4 6h-6zM375 192v-4h4v4h-4zM379 248l2 -6h3l-3 10zM191 384l3 -2l3 2l-3 4zM213 423l3 -3l3 3
l-3 4zM159 -129v9l2 -7v-4zM381 285l-2 -7h4v7h-2zM22 325v5h3v-7zM397 255l2 -1l2 1l-2 3h-2v-3zM123 197l2 -3h2v3l-2 2zM245 441l2 -2l2 2l-2 3h-2v-3zM143 -41l2 -2h2v4h-2zM203 393v-4h3v4h-3zM316 446v-5h3v3zM109 294l2 -3l2 3l-2 3zM219 434l1 -3l3 3l-3 3zM297 99
l2 -2h2v2l-2 2zM257 421l2 -3h1v3l-1 2zM337 159l2 -3l2 3l-2 1zM220 460l3 -3l2 3l-2 2zM143 -65v-3h4l-2 3h-2zM67 423v-5h2v5h-2zM223 400l2 -2l1 2l-1 2h-2v-2zM303 400v-3h2v1zM69 434v-3h2v6zM277 89v-4h2v4h-2zM147 -49l-2 -3h4zM151 -127l1 -4h-1v4zM143 -4l-2 -3h4
zM132 -129v-2h3v2h-3zM370 197v-3h4zM299 339h2l2 -2h-2zM141 -129l-2 -2h4zM257 450l-2 -3h2v3zM275 428v-3l2 3h-2zM45 428v-3l-3 -2zM279 215l-2 -2h2l1 2h-1zM172 439v-2h4zM333 409v-2h1v2h-1zM361 162v-2h2v2h-2zM414 278h3v-2zM206 423l4 -2v2h-4zM165 384v-2h1v2h-1
zM339 170v-3l2 3h-2zM22 364l3 -2h-3v2zM389 265l-2 -3h2v3zM269 393v-2l2 2h-2zM139 -165v-3h-2zM275 414v-2l2 2h-2zM191 439v-2l2 2h-2zM355 238l2 -2v2h-2zM334 131l-1 -2h1v2zM251 423v-2l2 2h-2zM131 378l-2 -2h2v2z" />
    <glyph glyph-name="q" unicode="q" horiz-adv-x="510" 
d="M377 -204l-5 28l-4 10l-6 -10l-3 -12l-4 28l4 -4h5v12h-6l-3 -7v14l2 3v11l-5 -9l-7 45l-3 3l3 9v7l10 5v7l-3 5v7l5 2l-2 38v29l-6 10l4 7l-3 6v10h-3l-4 -5l-3 -24h-2l-3 19h-4l-7 -4h-10l-7 -4v8h-9l2 -7l4 -4l-15 -3l-10 -7l-10 2l-5 -2l-4 2l-3 -2l3 -2h7v-7h-17
l-14 -5h-62l-2 -3l-10 -2l-5 -5v-7h-30l-15 7h-14l-28 15l-31 30l-12 24l-7 48l7 92l7 10v14h-5v19l8 3l-4 -12l4 -4l6 13v19h-2l-5 -9h-2v6l26 42v11h-2l-15 -14v4l19 22h11l-4 9l46 41l14 9l31 31h5l9 10l17 9l16 5l10 5l28 7h10l5 2l16 3v4l-9 3h16l5 -3l2 5h13l4 7
l19 -2l5 -5l10 -4l16 -15l2 2l4 39l6 9l10 26h10l6 12h8l-3 -22l4 -4l3 2l2 21l3 -16l4 -3v-7l-4 -4l4 -10v-21l10 -10l9 -2l3 -5h2l2 7l5 -9h7l5 2v-5l10 -9l-3 -22l-3 -5l3 -6l-6 -12l5 -25l-4 -8l3 -12v-24l2 -19v-41l-5 -15l8 -8v-24l2 -12v-74l5 -4v-19l-3 -7v-10h5v-2
l-5 -5v-12l7 -3l-4 -14l2 -2v-5l3 -3l-3 -6v-12l-2 -2l-3 6l-4 -4v-7l7 -3v-4l-7 -4v-3h4l3 -3l4 -2l-4 -7l6 -27l-6 -7v-4l4 -5v-7l-7 -7h10v-5h-7l8 -17l-4 -7v-21l-3 -7h6v-5l-4 -7l4 -10v-4l4 -5l-14 -29h12l3 7l2 -8l-5 -11v-16h-7v7l-8 8l-6 -3l-7 3l-10 -13l-2 5
l-7 9l-3 7l-8 3l-4 -7l-2 -10l-5 5h-2v-2l-10 -10h-7l-12 10l-2 -3v-21zM149 120l30 -4h16l15 5h7l2 3l34 11l30 17l15 11l7 3l7 7l9 5l23 25l-4 20v17l-4 52v71l-9 9l-13 -6l-24 -5l-19 -6l-23 -15l-39 -34l-5 -17l-11 -11l-7 -12l-7 -3v-9l-5 -7l-17 -33l-9 -29l-2 -2v-10
l-6 -44zM75 25l28 -8h35v4h-14l-2 3h-5l-13 13l-4 -4v-2h-4l-10 19l-24 24l-8 3l-5 -5l5 -20zM350 -78v-26h7v26h-7zM340 -47l3 -3l2 -12l2 -2l-4 -7h-3v24zM236 17l-7 -7l24 6l-3 3l-5 -2h-9zM309 48l3 -3h9l7 3l-2 2h-14zM340 -19l3 -2v-17l-3 -5v24zM317 464l7 -3l3 3
l-6 6h-4v-6zM343 62v-3h4l4 4l-4 4zM279 33v-4h7v2l-5 5zM330 86l-4 -8h5l2 5zM263 32l-7 -7l11 4zM161 331l4 -3l3 3l-3 4zM345 515h5l-5 -9v9zM464 64l-3 -5h5v5h-2zM440 423l2 -3h3v3l-3 2zM243 375l2 -2l3 2l-3 3zM404 549l3 -3v-2h-3v5zM24 271l3 5v-3l-3 -5v3z
M214 347v-3h3v3h-3zM473 -138v-2h5l-2 2h-3zM51 257l-3 -3h3l2 3h-2zM36 292l3 5v-2l-3 -5v2zM60 299v-4l2 2v2h-2zM471 -14l-2 -3h4zM328 57l-2 -2h5zM309 114l-2 -2h2l3 2h-3zM48 245v-3l3 3h-3zM466 152v-2h3z" />
    <glyph glyph-name="r" unicode="r" horiz-adv-x="420" 
d="M157 12v15l2 3v4l-8 -3l-4 -9h-9l-3 16l-6 -8l-4 6l-2 -3v-11l-3 -2l-5 27h-6v-7l-2 -8l2 -7v-6l-4 8l-2 13l-5 -4l-2 -6h-1l-3 3h-2v-13h-2l-3 8l-4 -3l-5 -22l-5 24h-6l4 -22h-4l-10 38l-4 6l3 2v5l-5 5v22l-3 2v11l-3 8l-6 44l3 3l-4 5v33l2 2l-6 11v9l3 39l-15 199
l3 7v8h2l3 -6l10 6l-3 26l3 14l6 3l2 17l3 3l3 -4l-3 -12l-3 -5v-5h3l8 10h5v8h-2l-5 -4v15h-4v11h10l6 14l8 -4v-7l2 -3l10 -17h3l2 -25h4v-6l-4 -5l3 -6h1l3 6l4 -4l3 -13l8 9l2 -10h4l3 10l3 -10l7 -6v-47l2 -13v-22h9l6 3l5 -5l2 2l-2 4l9 5l11 9l10 4l13 9l8 2l23 17
l50 21h20l3 3l23 -6l7 7l3 7l12 -7h-13v-11h14l12 -16l-2 -3l2 -3l4 4l-4 14l-6 6h4l10 -10l7 -21l10 -15v-10l10 -6l5 -28l-4 -7l-3 -11h-4l-6 16h-5l5 -10h-4l-5 3l-4 -4l-7 7l-8 -8l-14 10l-6 -6l-5 3l-5 -2l-2 -8l-7 3h-17l-3 -6l-22 -11l-7 -7l-12 -9l-14 -13l-13 -5
l-23 -19l-13 -16l-5 2l-2 -2v-9l-30 -32l-7 -2v-22l4 -20l-4 -4v6h-4v-3l4 -12v-4h-2v-5h4l5 3l-5 -9l3 -7v-9l2 -4v-18l2 -11v-6l5 -3l-3 -13v-7l-2 -5v-1l-7 -11v-3h5l6 7l3 -16l1 -2v-24l2 -3v-11zM289 373v-2l21 2v7l-5 6l-8 -9zM272 375l7 -7l11 11l-4 3l-4 -5h-10v-2z
M379 377l5 -4v13l-5 16v-25zM245 367l3 -4l15 10v2h-7zM228 359l2 -1l11 3v6h-9zM368 386l3 -4l3 3l-3 10l-3 -2v-7zM318 424l9 -7v3l-4 8zM265 367l3 -4l5 5l-4 3zM90 541h4l-4 -13v13zM109 433l3 -5h2v5h-5zM205 333v-4h4v4h-4zM205 282l-7 -4h7l1 2zM215 298v-2h7l-2 2
h-5zM367 370l4 -3v6zM112 493l2 2v-7h-2v5zM211 291l-2 -3h4v3h-2zM217 309v-3h3v3h-3zM178 278l3 -3h2l-2 3h-3zM321 462l3 -3l-3 -2v5zM125 43l-2 -3h3v3h-1zM73 562h2v-3h-2v3zM170 302l-3 -2h5zM150 87l-2 -2h5zM73 530l-2 -2h2l2 2h-2zM146 78v-2h2v2h-2zM365 409l1 -3
v5zM144 211v-2h2zM115 386v-1h3zM195 256v-3h-1z" />
    <glyph glyph-name="s" unicode="s" horiz-adv-x="374" 
d="M93 -31l-4 6h-9l-13 6l12 6l-2 2l-13 3l8 4v4l-33 5l-3 4h-3l-11 6v3l27 -5l6 7l8 -7v7l-8 6l-7 2l-2 4l-2 2l3 6h-9l-7 13l-5 19l-6 8h16l8 -8h9v3l-18 13l2 3l19 -14l-3 24l-3 5l3 2l13 -13l17 -8l23 -13h26l27 13l36 34l15 19l16 28v30l-16 16l-60 28l-21 5l-14 5v-6
l61 -22l17 -9h-4l-65 24l-11 2l-25 10l-11 11l-11 14l-19 21l-9 27l10 16l7 7v-3l-7 -11v-2l15 16v8l-6 4l-4 12l-9 3l-12 -11l-6 -15h-4v10l26 30l30 30l13 10l48 29l13 3l13 6l19 7v8l8 -4h3v8l52 5h16l4 4h19l11 -11l-3 -6h3l5 2l3 -3l-3 -10l-8 -12h-3l-3 5l-8 -8v7h-15
v-7h11l-19 -4l5 -8l-4 -5h-6l-13 -3l-5 -5l-25 -4l-3 -2h-4l-7 -4l-8 -3v-3h5l5 -6l3 4l26 8h4l4 2l31 7h9l11 5v-5h1l2 1h9v6l10 3l8 -2l6 -8h-6l-2 -3l2 -4l-8 -5l-33 -3l-22 -9l-26 -8l-7 -6l-2 -5l-10 -5l-9 -12l-6 -2l-3 -6l9 -9l16 -6l10 -6l9 -3v-3l1 -3l2 3h5l4 -5
v-2l9 -2v-6h11l6 -7l10 -6l15 -19l14 -27v-13h9l9 -21l4 -4l2 -5l9 -12v-5h-3v-4l3 -2l3 -19l8 -8v-4l-6 4l-3 -2l-5 -3v-8l-10 -10l7 -2l-3 -9h3l8 4h6v-8l-7 -19l-4 8h-3l-7 -14h-4v-13l-3 -3l-2 3v2l-4 -5v-4l-4 -2l-5 -12l-4 -3v-6l-7 3l-1 -7l-3 -4l-2 -6l-7 2l-9 -17
h-10v-11l-4 -4h-3v2l-4 -2l-2 -7l-8 8l-3 -3v-6h-7l-6 -5l4 -3l-8 -3l-2 -2l-9 -6h-15l-5 -3h-4l-8 -6l-10 -4l-4 -4h-4l13 12v2h-13l-6 -6h-5l-28 -8h-31zM217 232l22 -20h2v3l-3 7l-16 10h-5zM334 97l6 7h3l-5 -9l-1 -6h-3v8zM338 123v-2h7l3 3l-3 5zM345 152l5 5l4 -2v-5
h-6zM327 79l5 4l-9 -15l-6 -5zM74 310l3 -2v13l-3 -2v-9zM94 5v-5h2l5 9h-3zM174 405l3 -2l5 5v2h-4zM304 428l2 -2h4v2l-3 4zM193 213h7l4 -4h-2zM137 393l4 -5v7h-4v-2zM33 350l4 5v-2l-4 -9v6zM36 338h3v-5h-3v5zM323 114l3 -2h2v2l-2 2zM317 112v-6h2v6h-2zM297 445h7
l-3 -3zM250 20v-5h2v5h-2zM167 397l3 -2l1 2v2h-1zM314 251l3 2v-6zM332 190v-4h2v4h-2zM321 230v-8h2zM306 87l2 -3v5h-2v-2zM280 439h2l3 -2h-5v2zM351 173l3 -1l-3 -3v4zM330 175v-3h2v3h-2zM252 408l2 -3v5zM337 167v-3h1v3h-1zM326 104l-5 -3h2zM244 450v-2h1v3zM20 72
h2l-2 -2v2zM261 310l2 -2v2h-2zM44 363v-2h-2z" />
    <glyph glyph-name="t" unicode="t" horiz-adv-x="551" 
d="M248 -16l-5 10h-11l-19 28l-12 24l-9 11l-10 28v51l7 67l2 9v-19l-7 -77l5 -27h2v35l15 162h-7l-4 -64h-4l5 67l-21 -3h-95l4 4h29l81 5v5l-81 -2l-38 2l9 2h17l9 5h-65l-11 7v19h10l3 -3l6 6l17 3v4l-16 5l-5 -3l-7 24l-6 9l8 12l2 7h24v7h-14l-9 9l17 4l11 11l3 7
l32 -4l17 2h40l15 4l12 -6l2 4h7l2 64h8v-7h9l5 -19l5 5v40l11 12l8 24h9l5 -5l14 15l5 7h2v-7l-3 -8h3l5 5h5l-6 -9l4 -13l9 -9l2 -19l5 -4l2 -17l3 -2l4 11h3v-8l11 -5l3 -17l5 -8l3 -11h16l11 2l6 -3l16 5h19l5 3l2 -3l9 6l5 -6h19l3 3h9l11 -11l11 -4v-7h-7l-5 3l-19 2
l-4 4l-6 -6l3 -3h7l7 -7v-5l2 -2l3 7h2l2 -7l3 -2l-5 -3h-12l-2 3l-5 -5l-9 -5l-6 -13l8 -3v-3l-5 -2l-11 -12l11 -2h7v-10h-7v-7h13l-3 -7l-7 -5h-5l-5 -2h-5l-4 -5l-5 2l-12 -2l-6 -6l-32 -8h-10l-14 -5v-19l-5 -10l3 -4v-36l-3 -9v-19l-2 -3v-26l-4 -4l5 -4l-3 -6v-22
l-3 -6l3 -7l-3 -3v-22h26l119 34l5 -3l5 5l16 2l3 -2h14v-9l-2 2h-3v-5l14 -2l-4 -7l-4 4l-8 -4h-14l-4 -12h-8l6 3l-4 4l-7 -2l-5 -5l3 -3l-3 -4v-10l-2 -2l-6 -9l-14 -7l-4 -13l-2 -2v-2h2l19 19v-8l-2 -4v-12l7 -5l5 5h4l-12 -12l-2 5h-5l-7 -12l-15 -3l-16 -16h-9l-7 -7
v-3h7l5 3h9l-2 -3l-17 -5l-7 3l-2 2h-3v-14h-5v5l-4 -5l-55 -7l-21 -5h-26l-10 -5h-21v-9h-3zM222 535l5 14h5v-14l-5 -5h-5v5zM196 507l7 6l-7 -33v27zM450 32l-5 2l10 2v-7l-3 -2zM72 395v-5h8v5h-8zM44 378h5v5h-5v-5zM469 457l4 3l3 -3v-4zM526 155h2l3 -5l-3 -2h-2v7z
M498 459h11l3 -2h-12zM481 428h2v-5h-7zM448 395h4v-5h-4v5zM460 77v-10h2v10h-2zM424 359l2 -2l3 2v3h-3zM61 352v-2h4v2l-2 3zM414 383l3 -2h2v2l-2 2zM496 453l4 -3h-7zM20 402v2h3v-4zM34 407h3v-3h-3v3zM414 404l3 -2v5zM471 93h3v-2h-3v2zM445 81v-2h3v2h-3zM201 300
v-2h4l-2 2h-2zM443 428l2 -2v5zM429 400l-3 -3h3v3zM460 112v-2h2v2h-2zM308 504l-3 -2h3v2zM239 547v-2h-3zM493 461v-2h-3zM483 461v-2h-2zM460 98l2 -2v2h-2z" />
    <glyph glyph-name="u" unicode="u" horiz-adv-x="590" 
d="M470 -25l-7 6l-9 3l-3 7l-7 11l-41 146l-3 3l3 6v7l-6 6l-3 -10h-5v-5l5 -2l-5 -3l-9 -13h-5v5l6 8h-10l-3 -7v-6l5 -5v-4l-3 -3v-1h11l-5 -10h-9l-6 -10l-34 -23l6 -11l-13 -7l-3 8h-13v-19l-7 1v10h-8l-3 -7h-6l-6 5l-4 -3v-9l-4 -2l-3 -5l-4 -2l2 -6l-7 -3l-14 -2
l-4 -9h-30l-35 -4l-22 -7h-39l-27 11l-21 19l-8 19l-7 9l-9 18v7l3 3l-8 49v96l2 25v38l7 41l3 -5v-22l12 45l2 13l9 23l8 11l6 5l15 45l7 6l10 14l2 13h18l13 9l3 9h4v-11l2 2h3v-2l-3 -2l-2 -20h2l3 2l9 4v-2l-12 -16v-11h4l3 7h3v-9l-3 -5l6 -2l-8 -14v-8l2 -3l8 7l2 -2
v-7l2 -2l4 7h6l2 8l3 -8v-6l7 -4l7 -14l-17 -42l-7 -6v-18l-5 -5v-5l-7 -22v-4l-5 -16v-14l-4 -4v-18l-3 -2v-18l-2 -18v-25l-5 -4l5 -10v-29l7 -7h17l38 18l57 46l47 55l12 23l7 18l10 11l12 23l4 18l8 11h3l5 -19l6 5l5 11l7 -4h2l6 -3l6 3h9v9l6 3l9 12v-6h2l2 3l12 4
l5 4h7v7l5 3l2 -7v-18l7 -14v-22l6 13l4 -4v-5l-2 -2l-3 -9l-5 -4l5 -5l3 -5h7l5 -7l9 -6v7l2 -2l3 -11l9 -4v-35l-2 -2l5 -2l4 -18v-28l6 -11l4 -26l2 -7l5 -32l2 -4v-5l3 -5v-8l2 -10v-4l2 -4l-3 -10h6v-24l5 -9v-25h7v-18l-3 -7l-3 -11l-4 -4l-2 4l2 4v6l-7 -3l-6 -5
l-6 16h-2v-8l-10 -3l-2 -9h-4l-6 27l-4 4l-3 -26h-4l-3 16l-9 8h-5l-5 -2h-11l5 -31zM70 61l20 -9h5v11h-5l-10 11l-7 14l-9 8h-5zM64 430l12 22l8 26l8 7l7 -6l-16 -25l-7 -19l-3 3v-12zM45 369l12 33l5 21h4v-10l-2 -2v-11l-7 -12l-9 -40h-3v21zM26 128l-5 36v29l2 3v-17
l3 -4v-18l4 -36zM344 106l-2 -5h4l8 5h4v6h-12zM389 184v-11h3l4 9l3 11zM387 135l6 11l3 -3l-4 -4l3 -3l-13 -8zM529 -2v-10l5 5v9zM487 351v11h4l-2 -16zM20 209l3 2l3 -4v-7h-3zM477 375h2l3 -9h-3zM61 101h5l-5 9v-9zM23 258l3 -9l-3 -2v11zM330 106l5 -3v4h-5v-1z
M370 157v-2h5l-2 5zM470 330l2 -2v9l-2 -2v-5zM27 302l3 15v-9zM332 249v-2h3v4zM30 107l3 3v-4h-3v1zM468 348v-4h2v4h-2zM251 52v-3h5zM337 81h2l3 -3h-3zM330 92v-4h2v1zM323 101l2 -2v7zM28 117l2 4v-7zM396 175v-2h3v2h-3zM240 42v-2h4l-2 2h-2zM489 13l2 -2v5z
M415 366h3l-3 -2h-2zM299 78v-2h2v2h-2zM280 65v-2h2v2h-2zM292 71v-1h2v1h-2zM337 114l2 -2v2h-2zM318 101l-2 -2h2v2zM565 -1v-1h2zM363 96h2l-2 -2v2z" />
    <glyph glyph-name="v" unicode="v" horiz-adv-x="501" 
d="M124 21l-16 19l-4 9l-18 28l-18 70l-5 14l-7 28l-14 29l-3 9l-14 148l5 -12h2v9l-4 19v10l-5 4l-3 34l7 -4l5 11v7h5l3 16l14 -7l4 12l10 3l2 7l4 -3l3 -23l5 -10l5 5l2 12l3 -3v-19l4 -9v-12l8 -14l11 -6v-8l-2 -3v-3l7 3v-8l9 -14l20 -85l4 -8l4 -24l5 -5l6 -17l10 -21
l13 14l8 14l14 19l5 9l9 10l2 7l8 7l4 7l12 14l17 15l52 52l5 2l14 15l7 4l7 7l3 -4l2 7l10 9l-10 -13l14 4l12 9h5l5 5v5h-7v2l8 9l9 -12l9 3l4 5l5 -2l10 9h7l15 10l6 -3l3 3l4 2v7h5v-7l-14 -14v-5l5 -2v-3h-5l-5 -9l-2 2h-5l5 5v5l3 7h-6l-2 -5l-5 -5v-12l-9 -9l-5 -14
v-8l2 3v5h5l5 -3l7 7v-19l4 7h4l-7 -13l4 -10l8 4l-4 -7v-16l3 -5l2 7l7 -5l3 3h4l-10 -16l-9 -6h-2l2 5l-2 2l-6 -5l8 -9l-3 -3l5 -5l-11 -8h-9l-3 -12l-2 4l-3 -2h-7v-5l5 -2v-2h-7l-3 -3h-7l-4 -2h-8l-2 -7l-5 -3l-9 -9h-5v-5l-5 -10l-7 3v6l-7 -4v-9h7v-3l-9 -4l-6 -6
l-6 6l-6 -6l9 -4l-10 -16l-7 -15h-5l-3 -9l-4 9l-5 -2l2 -5l-2 -2l-8 8l-4 -3l-4 -18l-3 3v5l-2 2l-6 -11h6l5 -3l-8 -12l4 -6l-6 -17v-5l-5 -3l-5 -9h-9l5 -5v-5l-5 -4h-10l-2 -3l2 -2l-7 -4v-6l3 -2l7 10v-10l-5 -2l-2 -5l3 -7h-4l-4 12h-3v-19l-7 -15v-11l-16 -9v6l7 5
l-17 5l-5 -10h-14v5l-5 5l-2 -5h-5l-7 8l-7 -3l-2 -5l-7 -2l-19 -19h-5zM20 385v23l3 -3l2 -30v2zM70 218l3 -3v8l-7 21v-12zM469 322l10 7h2l-9 -11h-3v4zM424 299l3 -3h7v5h-3l-2 -2h-5zM312 176l3 -3l2 -12h-2zM286 182v-7l3 2v5h-3zM327 196h5l-3 5h-2v-5zM44 313l3 -7
l2 2l-2 5h-3zM305 166l3 2v-2l-3 -5v5zM53 276l3 -11v7zM80 208l2 -2v5l-2 2v-5zM339 215l-5 -4l9 4h-4zM251 54l2 -2v-3h-2v5zM51 291l3 -2v2l-3 3v-3zM279 132l3 -2v5zM87 436v-2h2v5zM113 104v-3h2v3h-2zM410 420v-3h2v3h-2zM315 363v-3h2v3h-2zM341 185v-5h-2zM415 315
l-3 -2h3l2 2h-2zM455 405h2v-2h-2v2zM441 306v-3h2zM453 375l2 -3h-2v3zM389 270l-3 -2h3v2zM265 104v-3h2zM260 59v-3h-2zM244 44h2v-2zM232 56v-2l2 2h-2z" />
    <glyph glyph-name="w" unicode="w" horiz-adv-x="769" 
d="M94 -48l-3 5h-4l-2 -5l-3 3l-7 43h-6l-3 12l-8 -3l-2 5v5l-3 9v5l-9 29v62l3 3l-5 38v53l-3 5v12l-3 14h6v16h-8v15h8v38h-3l-2 -7l-5 2l3 6l-3 46l2 5v35l-3 3l4 14l-3 39v4l-3 2v32l3 8l6 -31l4 4v19l-3 2l3 4h5v2l-8 4v25h3v-5l2 -5l7 13v2l3 13l-5 6v2l4 -2l8 -2
l2 -8l5 -7l-7 -3v-25l2 -10v-25l5 -5h4v21h8v-9l7 4l4 14l4 -7l6 3h3l3 9l21 -9h4l7 -7v-29l3 -47v-10l5 -41v-19l13 -113l19 26l12 12l5 7l19 19l5 3l2 6l14 4l3 9l14 11l2 2l5 3l14 14l4 7l9 3l5 8l17 9l6 18l2 -10h3v8l5 2l11 12l5 -3l3 5v8h6v-5l-2 -3v-2h8l7 19l4 5h2
v-3l-4 -5l2 -6l-4 -5l6 -8l-11 -9h-5l-5 -5v-3l7 3h5l-14 -14l-12 -6v-6l6 -8l4 4l2 11h4v-22l8 -4h7v-12h9l10 -10l13 -3l3 -18l3 3v10h2l4 -5v-5h8l5 2l6 -5l8 -19v-9l7 -10v-9l14 -21v-8l5 -2l7 -22l12 -18l-4 -7h9l-2 -3l6 -12l4 -3l-6 -4l10 -7l-8 -7v-15l8 8l-3 5l3 4
l10 -8l9 15l51 143l13 26l2 7l26 50l2 9l13 24l19 22l4 9l10 10l5 10l10 -4l7 -20l7 7l5 -3l-8 -14h-2v5l-3 2l-10 -10l5 -2l-7 -7l-3 6l8 13v5h-9v-10l-12 -15l9 -9l3 -9l4 -5l5 8l9 -7l7 4l3 -2l-6 -6l-5 -16h4l6 13l3 -3l-2 -2v-5l5 -5v-6l14 3l15 -6h6l3 4l16 9v-9
l-5 -4v9l-14 -17l-2 -2l-3 -5l-1 5h-3l-5 -28l3 -5h-8v-7l3 -7l-11 -22h-3l-3 2l-2 -4v7l7 2l4 10v4l-4 -1h-5l-12 -24v-10h5l2 2h3v-2l-10 -5l-2 -2l-5 -2v-7l9 7l3 -4l-7 -15l-2 -13l-5 -6v9l-12 -3v-14l-11 -15l4 -4l-3 -20l-9 -6l-7 -17l2 -2h13l-8 -17h-2l-8 -7v-4
l-6 -9l9 -5v-12l-14 -14h-5v-13l-3 -2l5 -2v-2h-5v-10l-5 -9h-5v-12l-9 -3v-9l-14 -13h-10l-12 -3l-6 5l-8 -4h-4v-7l-5 7l-5 -2v-5h-11l-7 -6l-9 5l-4 9l-23 -3l-3 2l8 7v5h-5l-6 -11l-19 14l-23 25l-9 13l-13 24l-3 13l-48 98l-5 7l-3 9l-16 29l-28 -29l-10 -14l-12 -11
l-3 -13l-8 -11h-6l-21 -32l-2 -3l-9 -14l-4 -13l-6 -10l-3 -11h-7l-3 -8l-4 -6l-10 -24l-2 -3l-8 -14l-9 -10h-11l-17 -16h-8l-6 -12l-8 -7l-19 -3l-2 -14h-6l-3 -10zM282 340v-5l9 6v-4l5 -2l2 2v4l-4 4l7 6l5 -5l1 8l13 11v5h-5zM29 538l3 5v19l2 3l10 -5l-3 -17l-4 -4
l-4 -12zM620 88h10v10l5 2v4h-11v-9zM90 -3l4 -15l6 10l-4 10zM659 274v-11h3l6 13l-2 2zM384 330l2 2l4 12h3l-3 -4l3 -13h-7zM706 359v-8h8v8h-8zM144 249h4v9l-9 4v-3l5 -5v-5zM139 290l5 -8l3 8l-5 5h-3v-5zM327 378v-5l7 2l3 7h-6zM690 406v12h5v-5l-3 -10zM82 -24
l3 -7v19l-3 5v-17zM605 83l4 -2l5 4v3h-9v-5zM253 233v-5l5 5h2l3 2l-3 5zM610 156l4 -4l5 2v5h-5zM277 314h5l5 4v4h-3zM384 416h2v-8h-7zM668 235v-2l8 2v5h-3zM53 497l3 -3l2 3v4l-2 2l-3 -2v-4zM606 204v-12l3 3v9h-3zM638 138v-3h2l5 5v4zM347 341l3 -9l3 9h-6z
M673 387v-5h5v5h-5zM666 446v-5h5v5h-5zM80 534h2l3 -2l-3 -5h-2v7zM371 351h4l-4 -11v11zM632 159h3l3 4l-3 3zM640 195v-5h3l2 5h-5zM56 487v-14l2 5v6zM609 71v-5h5l-3 5h-2zM371 422l3 3l2 -3v-2h-5v2zM369 320l2 -2v9l-2 -2v-5zM602 181v-5l3 5v4zM341 382v-2h3l2 2
l-2 2zM519 19v-5l5 5h-5zM20 487l3 2v-5h-3v3zM664 244v-4l4 2v2h-4zM478 130l3 -8v8h-3zM465 22l6 -5v2l-5 4h-1v-1zM638 117h5l-3 -3h-2v3zM39 459v-5h3v2zM296 273v-2l5 5v2zM625 119l-4 -5h4v5zM486 -7h4v-3h-2zM509 -2v-3h3v3h-3zM678 266v-3h3v3h-3zM592 41v-3h3v3h-3
zM592 102v-2h3l2 2h-5zM505 9v-2h4v2h-4zM522 -12l2 2v-5h-2v3zM668 211l3 -2l-3 -3v5zM390 304l3 -3v5zM279 282v-4l3 4h-3zM291 290v-5h2zM697 397l3 -3h-3v3zM374 411v-3h-3zM645 282l2 3v2zM652 161l2 -2l-2 -2v4zM662 382v-2h2v2h-2zM91 513v-3h-2zM592 159l3 -2v2h-3z
M312 346v-2l3 2h-3zM590 95l-3 -2h3v2zM700 306l-3 -2h3v2zM72 4v-2l3 2h-3zM355 365h3l-3 -2v2zM139 318l3 -2v2h-3zM341 368v-3h-2zM70 532v-3h-2zM108 -50h2v-3zM486 117l2 -3v3h-2zM85 4l-3 -2h3v2zM139 311l-2 -2h2v2zM381 432v-2h-2zM94 9v-2l2 2h-2zM446 211v-2h1v2
h-1zM605 102v-2h1v2h-1zM704 384l2 -2h-2v2zM301 380h2v-2z" />
    <glyph glyph-name="x" unicode="x" horiz-adv-x="551" 
d="M154 -2l5 9v15l-5 -3l-3 3l5 9v5l-11 8v6l-3 2l-2 -2v-5l-5 -4l-3 1h-4v10l4 12l-4 5h-2v5l6 7v9l5 5v12l5 5v5l3 2l14 33l2 7l14 28l5 5l10 24l2 15l10 9v6l-27 20l-14 5l-40 29l-48 40l-40 40v20l26 -20l19 -20l35 -28l91 -61h7l2 2l-2 5l-41 28l-9 5l-10 9l-33 21
l-14 15l-10 4l-22 23l-3 11l-5 5l-5 -2l-8 9l-1 2l2 3l14 -6v13l-16 20v16l9 -15l14 -14v10l-12 19l-7 14l-4 2l-5 9l-12 13l-8 -6l-5 4l11 6l4 14v8h3l8 -11l-8 -14l9 -8l3 12l8 -6l11 3v-2h9l5 -5l2 -8l9 -9l5 -2l5 -5h3l19 -17l4 -2l64 -52l10 -5l17 -12l5 -2l19 -15l8 3
l4 17l63 129l8 8l6 12l10 6l3 6l6 7v14h5l6 -14l-3 -9v-10l-8 -4v-4h3l5 5h7l2 -2l-8 -14h4l7 4l-7 -13v-2h4l2 4l3 -2v-10l5 5v-7l-8 -8v-4l3 -3l-7 -16v-5h2l7 8l10 18l10 -6l13 13l5 -5h21l3 -1l9 -4l-2 -14l-21 -33l-2 -5l-8 -11l-5 -12l-16 -29l-5 -11l-2 -8l-5 -10
l-6 -18l-6 11l-2 -9l-2 -3v-2h4v-6l-4 -10v-14l24 -21l54 -31l21 -19l6 -3l3 -7l11 -6l40 -42l6 -9l-4 -3l-20 5l-4 3l-5 -3l-21 22v-17l-9 2l-3 -4l-5 -3l-4 -4l-12 9h-15l-21 7l-9 6l-22 9l-32 20h-8l-9 4l-4 -11l20 -14l29 -16l34 -29h-3l-8 5l-19 7l-57 29h-14v5l-5 -3
h-2l-3 -7l-2 -3v-5h10v-2h-5v-2l2 -2v-3h-7v-5h2l4 -3l-9 -8l-2 -12l-4 9l-3 -5l-5 -5v-6l8 3v-8h-13l-2 -5l9 -4l-7 -15l-2 -2v12h-4l-3 -5l-5 -5l10 -12l-5 -4l-2 -10l-5 -4v-10l-3 -3l-3 10h-6v-12l-7 -7l-3 -12h-11v10l-7 -5l-7 -3l-5 -9h-12l-2 -10l-2 3l-3 10h-2l-5 1
l-5 -4l-3 -7l-6 -8l-8 -14h-2v8zM242 31h5v-19h-5v19zM78 450l12 -8v4l-10 10h-2v-6zM55 475l6 -10h3v10h-9zM248 82l10 -8v7l-5 2l-2 2zM121 93l2 7h3v-7l-5 -5h-3zM249 69v-7h2l5 4v3h-7zM61 497v8l3 -2l2 -6h-5zM347 508v-7l4 4v3h-4zM310 354v-8h3v5zM370 422l2 -2v7h-2
v-5zM147 36l3 -3v-2h-3v5zM287 147v-5h2v5h-2zM425 195v-5h2v5h-2zM166 60v-3h3v3h-3zM334 432v-2l3 2v3zM361 459v-5h2v2zM366 465v-5l2 5h-2zM126 117l2 2v-2l-2 -3v3zM194 36v-3l3 3h-3zM150 14l1 -2v-3h-1v5zM358 499v-2l3 2h-3zM366 558h2l-2 -2v2zM268 125l-2 -2h2v2z
M159 47v-2l2 2h-2zM358 306l-2 -2h2v2z" />
    <glyph glyph-name="y" unicode="y" horiz-adv-x="513" 
d="M259 -207l-4 -5v-6h-4l-5 9l-15 -5v7h-10v8h-2l-7 -17l-5 4l-2 17l-3 -2v-5l-6 -14l-8 9l-3 17l-4 5l-2 -12l-5 -8l-15 9l-4 13l-2 -2h-5v5l-3 4v17l-2 4v19l16 74l20 57l13 45l-6 2l-7 -9v9l5 20l-6 17l-70 159l-5 16l-4 5l-43 90l-24 62l5 2l5 -5l8 3l8 -8h2v5l-21 41
v11h4v13l-5 8l19 -9l5 -12h3v15l-3 4l-2 9l-7 4l-4 -12l-8 9v9l10 3l9 14v9l5 -2h5v-17l5 -7l6 3l3 9l2 -2l3 -7l7 -9l-2 -5l21 -22l5 -16l4 5l5 2v7l8 -7v-11l18 -6l7 -14l2 -7l8 -15l2 -11l5 -5l2 -7l12 -18v-13l7 -8l12 -21l-4 -3l4 -8l7 -8l5 -11l7 -10v-9l5 -3v-19
l7 -7l6 -14h5l13 19h5l2 5l6 3l13 22l9 23l15 18l32 54l15 15l10 19l18 17l3 12l7 6l21 29l8 8l2 4l9 10h5l27 18l2 -2l-26 -26v-4h2v-3l-10 -10l-2 -5l-7 -6v-5h3l6 -10l-5 -2l-1 -10l-5 -5l-6 -16h-4l-3 5h-1v-12l-8 -7v-12h-3l-5 -8l3 -7l5 5l3 8l5 2l11 12l6 -3l6 3
l2 -3v-9l-9 -10v-11l5 2l-12 -20v-11h5l2 -3l-7 -13l-8 -9l3 -5l-7 -5v-5h4l13 24l2 2l11 15l3 -4v-11l-5 -5v-10l-5 -4l-1 7l-8 -9v-8h-5l-2 -5l-3 -2v-7h5v-5h-6v-9l-3 -2v-8l-10 -3v-6l13 2l3 11l4 -5l-12 -25v12h-8l-5 -5v-7l-9 -4l-5 -10l-2 -3v-2h14l4 10h7l-9 -19
l-19 -29l-4 -3l-2 -6l-3 -3v-12l-11 -33l-8 -11v-12l-10 -24l-6 -21l-5 -8l-24 -69l-13 -47h-3l-3 3h-5v-10l7 -4l-7 -18l-3 -13l-7 -12l-4 14h-2v-14l-5 -3v-2h10l5 5l-5 -18v-6l-5 -29l-3 -36zM378 185h11l4 7l2 3v6h-2l-5 -4h-5l-5 -5v-7zM442 373l10 9l5 -5l-10 -12
l-2 -5h-3v13zM445 459l5 4l9 15v-5l-2 -8v-6h-7l-5 -5v5zM140 -78l5 16l5 -4l-10 -17v5zM20 416v11l4 -9l5 2v-7zM150 -40l6 5l-3 -13l-3 -2v10zM404 280v-7h3l2 12zM434 335l8 11h5l-7 -6l-3 -5h-3zM338 368l2 2l2 5h3v-2l-7 -8v3zM413 414l7 7l-3 4zM288 -62v-7h3v7h-3z
M298 306l4 5v-7h-4v2zM278 271l3 5l2 -3l-5 -5v3zM277 -104v-5h1l3 5l-3 2zM262 -152v-7h2v9zM490 503l3 5v-5l-3 -4v4zM262 -171v-9l2 2v4zM378 178v-7l2 2v5h-2zM357 142v-2h4v2l-2 2zM452 356h3v-2h-3v2zM350 157v-5l2 5h-2zM46 456v-2h2v2h-2zM433 346h3l-3 -2v2z
M143 418l-3 -2h3v2zM307 -5v-2l3 2h-3zM212 -197l-2 -2h2v2zM385 242l-2 -2h2v2zM259 -88l-1 -2h1v2z" />
    <glyph glyph-name="z" unicode="z" horiz-adv-x="487" 
d="M65 -31l-11 2l-6 9l1 16l-9 6l-4 -9l-1 3l1 7l-6 4l-10 3l1 18l14 39l1 14l5 13l2 9l9 9l1 15l5 13l3 2l4 12l7 10l-1 -6l11 18l1 5l5 1l5 13v-9l7 3l1 6l8 7l3 10l14 18v6l-3 2l-8 -11l-11 -10l14 26l5 1v10l13 17l7 14l7 9l8 13l7 14l12 17l12 23l-3 2l-19 -2l-9 -5
h-12l-10 -5h-3l-44 -11l-5 7l-5 2l30 8l1 5l-22 -5h-11l-7 -3l-7 10v10l-3 4l23 5v6l-15 27l-4 5l11 7v6l-7 10l17 5l-15 7l1 4l13 5l7 12l2 9l8 3h10l59 16l11 -5v10h8l2 -4h3l3 7h12v-1l-3 -2h6l3 5l3 -3l9 3h42l20 -10l4 -7l-1 -7l6 -7l5 5l2 -13v-13l2 -8h9v-6l-3 -8h12
l12 -8v-11l-7 -8h4l2 2h7l7 -7l2 -7l-3 -2l-4 -13h-13l3 -7l-1 -16l-2 -1l-7 7l4 10h-7l-1 -19l-3 -4l4 -11l-3 -8l-3 -2l-2 -5l-3 4l6 5v9h-6l-8 -13v-5l-6 -4l-3 -6l-4 -3v-11l-2 -3l1 -12l-2 -5l-8 18h-2l-1 -11l-8 -14h-1l1 5h-7l-3 -14l-3 9l-5 -9v-8h-6l-1 -7h6l2 -3
l-3 -5l7 -9l-7 -12l-4 -10l1 10l2 3l-7 9l-8 -8l-5 -2l3 -8l-1 -9h-4v-10l-7 -7l-2 9l-3 5l-2 -5l-1 -15l2 -4h-4l-1 -12l-6 8l-6 -23l-4 -6v-10l-4 4l-1 -14l-7 4l1 6l-6 -2v-18l-5 -10h-7l7 9l-8 -4v-10l10 -4l78 22l5 -4l4 8h10l6 -3l6 9l44 8l1 -4h3l3 7l22 3l14 4l2 -4
l-8 -4h6l8 4l2 5h3l43 3l14 -3l14 -14l1 -4l10 -5v-9h-6l-5 -4v-9l-4 -6l-5 -2l-13 -14l-1 -13h3l2 4l3 -3l-3 -8l6 5l6 9l12 -8l-8 -10l-2 -4h-13l-10 -6l-2 -7h-10l-4 -3l-10 -4v-5l11 -2v-3h-24l-78 -13l-142 -40l-55 -11h-38zM37 7h15l6 17l-5 5h-4l-4 10l-4 -10l-3 3
l3 6l2 8l-10 -2l-6 -16l-1 -17h7l1 12h4zM133 248l11 10l-2 13v2h-4v-10zM300 350l3 -4l12 11l1 4h-9l-3 -4h-2zM144 109v-6h2l2 4l7 2l-3 5v4l3 3v1h-2zM40 65l-1 -6h4l5 4v15zM148 280v-7h4l2 6l7 9h-2l-4 -3h-2zM53 386l21 5l-4 -5l-17 -4v4zM459 114l5 7l3 -4l-4 -13z
M215 211l10 7l-5 11zM154 499l-4 -5l20 6v3zM297 313l8 12l2 -3l-7 -9l-2 -6l-1 -2v8zM330 392h5l5 2l-4 8zM207 167l2 -3l-1 -5l-10 -3zM98 202l7 12h1l-1 -6l-8 -13zM296 342l-1 -8h4l1 8h-4zM454 99l1 8l3 -8v-8zM74 152v-6l4 6v6zM428 146v-4h4v4l-1 3zM91 392l-1 -3h6
l2 3h-7zM442 74v-2h7l-4 4zM438 127v-3h2l2 3l-2 2zM48 393v4l5 -4l-3 -1zM263 253h3v-3h-7zM214 176l1 5l2 -4v-4zM327 432v-3h2l2 3h-4zM269 294v-2h3v4zM315 436v-4h2v4h-2zM430 101l-1 -2h5l-1 2h-3zM314 374v-5h2v5h-2zM218 189l1 2l4 -2l-4 -2zM271 265v-5h-4z
M119 363l-5 -2h5l1 2h-1zM338 380h3l-1 -2h-3zM178 114l2 -2v-3h-2v5zM79 432v-4h2v1zM431 63l-4 -3h3zM100 351l-2 -2h3v2h-1zM84 167v-3l2 3v2zM442 112v-3h3v3h-3zM170 154v-2h2v2h-2zM170 142l-1 -3l2 1zM264 271h4l-1 -2zM344 422l3 -2h-3v2zM247 240l-1 -2h2zM286 351
v-2l2 2h-2zM436 140l-2 -1h4zM339 142l-1 -2l3 2h-2zM460 85l2 -2h-2v2zM231 244v-1l2 1h-2z" />
    <glyph glyph-name="Agrave" unicode="&#xc0;" horiz-adv-x="554" 
d="M93 25l-3 3l-6 -12h-5l-5 -6l-6 18h-6l-4 7l-3 -7l-9 -5l-8 12l-2 -6h-3l-2 7h-4l-7 11v19l5 22l2 20l16 84l1 10l7 39l2 4l3 16l17 67v7l79 283l25 56l3 -2l2 -9h4v-7l2 -1l2 4v10h9l4 -4l-4 -2v-4l2 -3l2 -6h11l3 6l4 -8l13 2v-11h4l6 10l12 -9l4 -14l7 2l2 2h7l5 -12
l10 -4l3 -8h6l1 -4l5 4l7 -14l13 -4l7 -7l25 -59l6 -6l68 -123l59 -128l10 -29l3 -4l13 -35v-13h6l3 -11v-12l7 -3v-35l1 -7v-11l-4 -1l-6 -7v-6l2 -5l-2 -4h-3v6h-8l-6 -6l-12 8l-6 -6h-6l-5 8l-15 3l-6 3l-3 -7l-4 4l-6 3l-10 18l-4 16l-11 26l-2 9l-24 50l-6 8l-5 16
l-5 4l-8 17v-8h-9l-4 -2l-2 2l-3 -6l-24 -10l-4 -4l-16 -6l-10 -7l-84 -30l-14 -7l-28 -6l-7 -6l-8 -51l-3 -6v-14l-6 -26l-4 -2v-11l1 -7l-1 -14l-8 -18l3 -2l-5 -12l-3 3v24h-3l-2 -11l-6 7l-3 -4v-6h7v-8h-7l-4 2h-5l-1 2l-3 -2h-9l-1 -6v15zM192 308l3 -7l6 3l122 35
l3 3l-9 14l-37 66l-37 76l-8 -16l-9 -40l-3 -7l-16 -63l-1 -7l-9 -33v-4l-3 -5zM116 58v-4l3 1l1 7zM127 47v-2h3v2h-3zM132 55v-4l2 3zM127 64v-2h3zM148 829l3 -3v-2l-3 2v3zM164 826v7h-3zM164 812h4v4h-4v-4zM256 731l-9 -9l-11 -2h-7l-13 13l-10 16l-47 62l-4 3v7l2 -2
v1l-3 6h5v4l-4 4v1h1l1 -1h3l1 5l2 -2h1v9l5 5l-1 3v5l1 -4l3 3l4 2v4l-3 6l2 3l-4 3v4l2 -3h6v6h6l39 -42l23 -28l2 -4l6 -6l23 -34l-2 -5l4 -7l-3 -1l-4 -5l3 -6l-3 1h-4l-4 -6h-7l-2 -5v-4z" />
    <glyph glyph-name="Aacute" unicode="&#xc1;" horiz-adv-x="554" 
d="M93 25l-3 3l-6 -12h-5l-5 -6l-6 18h-6l-4 7l-3 -7l-9 -5l-8 12l-2 -6h-3l-2 7h-4l-7 11v19l5 22l2 20l16 84l1 10l7 39l2 4l3 16l17 67v7l79 283l25 56l3 -2l2 -9h4v-7l2 -1l2 4v10h9l4 -4l-4 -2v-4l2 -3l2 -6h11l3 6l4 -8l13 2v-11h4l6 10l12 -9l4 -14l7 2l2 2h7l5 -12
l10 -4l3 -8h6l1 -4l5 4l7 -14l13 -4l7 -7l25 -59l6 -6l68 -123l59 -128l10 -29l3 -4l13 -35v-13h6l3 -11v-12l7 -3v-35l1 -7v-11l-4 -1l-6 -7v-6l2 -5l-2 -4h-3v6h-8l-6 -6l-12 8l-6 -6h-6l-5 8l-15 3l-6 3l-3 -7l-4 4l-6 3l-10 18l-4 16l-11 26l-2 9l-24 50l-6 8l-5 16
l-5 4l-8 17v-8h-9l-4 -2l-2 2l-3 -6l-24 -10l-4 -4l-16 -6l-10 -7l-84 -30l-14 -7l-28 -6l-7 -6l-8 -51l-3 -6v-14l-6 -26l-4 -2v-11l1 -7l-1 -14l-8 -18l3 -2l-5 -12l-3 3v24h-3l-2 -11l-6 7l-3 -4v-6h7v-8h-7l-4 2h-5l-1 2l-3 -2h-9l-1 -6v15zM192 308l3 -7l6 3l122 35
l3 3l-9 14l-37 66l-37 76l-8 -16l-9 -40l-3 -7l-16 -63l-1 -7l-9 -33v-4l-3 -5zM116 58v-4l3 1l1 7zM127 47v-2h3v2h-3zM132 55v-4l2 3zM127 64v-2h3zM150 724l-9 9v4l-2 5h-7l-4 6h-4l-3 -1l3 6l-4 5l-3 1l4 7l-2 5l23 34l6 6l2 4l23 28l39 42h6v-6h6l2 3v-4l-4 -3l2 -3
l-3 -6v-4l4 -2l3 -3l1 4v-5l-1 -3l5 -5v-9h1l2 2l1 -5h3l1 1h1v-1l-4 -4v-4h5l-3 -6v-1l2 2v-7l-4 -3l-47 -62l-10 -16l-13 -13h-7zM229 814h4v4h-4v-4zM231 865l2 1l1 -2l3 1v-3h-4zM233 835v-7l3 7h-3zM246 828l3 3v-3l-3 -2v2zM237 857h1v-1l-4 -2z" />
    <glyph glyph-name="Acircumflex" unicode="&#xc2;" horiz-adv-x="554" 
d="M93 25l-3 3l-6 -12h-5l-5 -6l-6 18h-6l-4 7l-3 -7l-9 -5l-8 12l-2 -6h-3l-2 7h-4l-7 11v19l5 22l2 20l16 84l1 10l7 39l2 4l3 16l17 67v7l79 283l25 56l3 -2l2 -9h4v-7l2 -1l2 4v10h9l4 -4l-4 -2v-4l2 -3l2 -6h11l3 6l4 -8l13 2v-11h4l6 10l12 -9l4 -14l7 2l2 2h7l5 -12
l10 -4l3 -8h6l1 -4l5 4l7 -14l13 -4l7 -7l25 -59l6 -6l68 -123l59 -128l10 -29l3 -4l13 -35v-13h6l3 -11v-12l7 -3v-35l1 -7v-11l-4 -1l-6 -7v-6l2 -5l-2 -4h-3v6h-8l-6 -6l-12 8l-6 -6h-6l-5 8l-15 3l-6 3l-3 -7l-4 4l-6 3l-10 18l-4 16l-11 26l-2 9l-24 50l-6 8l-5 16
l-5 4l-8 17v-8h-9l-4 -2l-2 2l-3 -6l-24 -10l-4 -4l-16 -6l-10 -7l-84 -30l-14 -7l-28 -6l-7 -6l-8 -51l-3 -6v-14l-6 -26l-4 -2v-11l1 -7l-1 -14l-8 -18l3 -2l-5 -12l-3 3v24h-3l-2 -11l-6 7l-3 -4v-6h7v-8h-7l-4 2h-5l-1 2l-3 -2h-9l-1 -6v15zM192 308l3 -7l6 3l122 35
l3 3l-9 14l-37 66l-37 76l-8 -16l-9 -40l-3 -7l-16 -63l-1 -7l-9 -33v-4l-3 -5zM116 58v-4l3 1l1 7zM127 47v-2h3v2h-3zM132 55v-4l2 3zM127 64v-2h3zM271 727l-15 16l-3 1l-27 32l-23 48h-2l-5 -6l-24 -40l-7 -14l-10 -13l-1 -3l-12 -5h-11l-2 6l-3 -1l-1 3l-2 1l2 6v6h-2
l-4 -5l-4 -3l-2 1l2 9l-10 2l-3 6l-2 -6l-3 5h-3v13l3 8l4 3l2 7l9 16l6 8l2 3l3 2l2 6l4 5v3l5 5v5l11 10v7h1l1 -2l5 8v4l1 1l1 -2l6 10l3 8l3 1l1 6l4 5l1 3h2l1 -5h6v5h-5v3h7l2 -3v-3h2l1 3l5 -2l4 -6l4 -2v-4h2l2 4v4h1l3 -2v-6l5 -12l2 6h3l2 -4h3l2 -5h1l2 2l3 -4h5
l5 -2l6 -12l4 -4l16 -39l25 -39l39 -37l4 -8l-3 -1v-3l-5 5h-3l-1 -2l-1 1l-3 1l-6 6l-2 -3l-1 -2v-2l-2 2v3l-3 -1h-4l3 -5h-2l-4 4l-2 -2h-4l-7 -1l3 -5l-7 5l-5 -3l-30 25h-3l4 -6l2 -2l3 -6l25 -26l-2 -1zM168 906l2 -1l1 1v2h-1zM178 908l1 -2h1v2h-2z" />
    <glyph glyph-name="Atilde" unicode="&#xc3;" horiz-adv-x="554" 
d="M93 25l-3 3l-6 -12h-5l-5 -6l-6 18h-6l-4 7l-3 -7l-9 -5l-8 12l-2 -6h-3l-2 7h-4l-7 11v19l5 22l2 20l16 84l1 10l7 39l2 4l3 16l17 67v7l79 283l25 56l3 -2l2 -9h4v-7l2 -1l2 4v10h9l4 -4l-4 -2v-4l2 -3l2 -6h11l3 6l4 -8l13 2v-11h4l6 10l12 -9l4 -14l7 2l2 2h7l5 -12
l10 -4l3 -8h6l1 -4l5 4l7 -14l13 -4l7 -7l25 -59l6 -6l68 -123l59 -128l10 -29l3 -4l13 -35v-13h6l3 -11v-12l7 -3v-35l1 -7v-11l-4 -1l-6 -7v-6l2 -5l-2 -4h-3v6h-8l-6 -6l-12 8l-6 -6h-6l-5 8l-15 3l-6 3l-3 -7l-4 4l-6 3l-10 18l-4 16l-11 26l-2 9l-24 50l-6 8l-5 16
l-5 4l-8 17v-8h-9l-4 -2l-2 2l-3 -6l-24 -10l-4 -4l-16 -6l-10 -7l-84 -30l-14 -7l-28 -6l-7 -6l-8 -51l-3 -6v-14l-6 -26l-4 -2v-11l1 -7l-1 -14l-8 -18l3 -2l-5 -12l-3 3v24h-3l-2 -11l-6 7l-3 -4v-6h7v-8h-7l-4 2h-5l-1 2l-3 -2h-9l-1 -6v15zM192 308l3 -7l6 3l122 35
l3 3l-9 14l-37 66l-37 76l-8 -16l-9 -40l-3 -7l-16 -63l-1 -7l-9 -33v-4l-3 -5zM116 58v-4l3 1l1 7zM127 47v-2h3v2h-3zM132 55v-4l2 3zM127 64v-2h3zM219 729h-8l-11 12l-29 36l-2 5l-5 1l-1 8l32 -38l5 -8l16 -13l16 -4l18 3l2 2l-1 1l-14 2l-8 5l-3 -2l-5 5l-7 2l-18 16
l-27 34l-14 14h-6l-3 -2l-1 -3l-3 -2l-1 -2h-1l-8 -8l-2 -3l-6 -8l-1 -2l-4 -5l-9 -23l-5 -7h-7l-4 -1l-7 1l-1 9l-2 -3v-2l-2 -4l-1 1v5l-2 3l-2 8h-1l-3 -1l-3 6l-5 -3v2l-12 9v7l7 21l18 36l6 6l2 5l8 8h4l1 3l6 3l1 -2l2 2v4l5 3h2l10 1v-3h1l2 4l10 -1l3 -2l15 -7l2 -3
l6 -2l2 -3h3l4 -6l6 -4l5 -5l3 -1l1 -1l2 -1l13 -14l6 -4l24 -24h10l14 4l18 14l6 10l4 25l4 4l2 6l5 6v7h3v2l-3 1l4 4l12 -11v-3l-1 -1v-3h1l5 4l2 -9h3l1 -2l-4 -3h4l4 8v-7l2 -4l-2 -2v-8l-2 -3l-2 -4l-1 -1v-2l3 2l2 3l2 -6h-4l-2 -2l5 -6v-2l2 -2l3 2l2 -7l4 -1l2 1
l-2 -3l-3 -1l-1 -2l3 -3v-3l-2 -2v-7l-1 -1l1 -8l-1 -3v-4l-5 -5l-2 4l-1 -2v-7l-2 -3h-5v-4l-5 -4l-1 -1l-3 -1l-10 -8l-16 -3l-2 -1l-10 -4l-5 3h-4v-3l-7 -1l-10 -6h-21zM340 795h5l-1 -5l-4 -3v8zM328 798l2 -1l1 2l-1 4l-2 -2v-3zM312 758v-3h3v3h-3zM322 814l3 -1v5z
M320 838l3 -1v3zM314 851v-1l3 1v2zM151 800h2l1 -2h-1zM129 868v-3l1 2v2zM118 868v-1h1v1h-1zM346 800v-2h-1z" />
    <glyph glyph-name="Adieresis" unicode="&#xc4;" horiz-adv-x="554" 
d="M93 25l-3 3l-6 -12h-5l-5 -6l-6 18h-6l-4 7l-3 -7l-9 -5l-8 12l-2 -6h-3l-2 7h-4l-7 11v19l5 22l2 20l16 84l1 10l7 39l2 4l3 16l17 67v7l79 283l25 56l3 -2l2 -9h4v-7l2 -1l2 4v10h9l4 -4l-4 -2v-4l2 -3l2 -6h11l3 6l4 -8l13 2v-11h4l6 10l12 -9l4 -14l7 2l2 2h7l5 -12
l10 -4l3 -8h6l1 -4l5 4l7 -14l13 -4l7 -7l25 -59l6 -6l68 -123l59 -128l10 -29l3 -4l13 -35v-13h6l3 -11v-12l7 -3v-35l1 -7v-11l-4 -1l-6 -7v-6l2 -5l-2 -4h-3v6h-8l-6 -6l-12 8l-6 -6h-6l-5 8l-15 3l-6 3l-3 -7l-4 4l-6 3l-10 18l-4 16l-11 26l-2 9l-24 50l-6 8l-5 16
l-5 4l-8 17v-8h-9l-4 -2l-2 2l-3 -6l-24 -10l-4 -4l-16 -6l-10 -7l-84 -30l-14 -7l-28 -6l-7 -6l-8 -51l-3 -6v-14l-6 -26l-4 -2v-11l1 -7l-1 -14l-8 -18l3 -2l-5 -12l-3 3v24h-3l-2 -11l-6 7l-3 -4v-6h7v-8h-7l-4 2h-5l-1 2l-3 -2h-9l-1 -6v15zM192 308l3 -7l6 3l122 35
l3 3l-9 14l-37 66l-37 76l-8 -16l-9 -40l-3 -7l-16 -63l-1 -7l-9 -33v-4l-3 -5zM116 58v-4l3 1l1 7zM127 47v-2h3v2h-3zM132 55v-4l2 3zM127 64v-2h3zM100 727v9h-4l-2 -6l-13 15l-4 9l1 7l-2 5v14l2 3v4l4 6v4l6 5l-4 3v4h4l4 -2v5l7 15l19 -9l2 -8l6 -4l6 -1l1 -4l10 -8
l2 -2l8 -5v-4l11 -15v-7l-3 -1l-7 -7l-16 -6l-12 -10h-12l-4 -2l1 -9l-2 -7zM259 731l4 19l-1 -1l-5 -9h-5l-5 4l-3 8l9 14h-1l-3 -3l-7 7v13l6 18l7 13l8 3l7 15h3l2 -3l7 -2v-4h7v-11h-2l9 -4l5 4v-9l3 -5l3 -2l8 -6l4 -11l6 -8l-1 -11l-11 -20h-4v1l-5 2l-4 -2l-11 2h-18
l-6 3l3 -7l-3 -2v-3l3 -2v-3zM72 760h4l-4 -3v3zM107 812h3v2zM278 819v-1h1v1h-1z" />
    <glyph glyph-name="Aring" unicode="&#xc5;" horiz-adv-x="554" 
d="M155 658l-20 12l-14 14l-8 14l-7 29v28l6 16l6 7l5 10l11 13l20 19l2 2l21 12h19v-2l-7 -1l7 -3l-8 -1l-2 -3v-2l5 2l3 -2h4l-9 -10v-7h5l17 5l-2 2v2h5l3 1h8v1l19 3l-5 3l3 2l4 -1l2 1l18 -3l1 -2l25 -11l3 -3v-3l5 -10l10 -3l3 -17l3 3v-7l-3 -1v-2h3l3 4l5 -5h-1
l-3 1l-4 -3l-1 -35l2 8h1l2 -4l3 -1l-6 -5v-5l-2 -3v-8h-7l-1 -5h-2v2h-2l-3 -9l-3 3h-2l-1 -1l2 -6h2l-3 -5l-6 -3v-1l-8 -2l-2 -6l-23 -10l-14 -8l-15 -2l-5 -3l-4 -1l3 -4l13 2v-11h4l6 10l12 -9l4 -14l7 2l2 2h7l5 -12l10 -4l3 -8h6l1 -4l5 4l7 -14l13 -4l7 -7l25 -59
l6 -6l68 -123l59 -128l10 -29l3 -4l13 -35v-13h6l3 -11v-12l7 -3v-35l1 -7v-11l-4 -1l-6 -7v-6l2 -5l-2 -4h-3v6h-8l-6 -6l-12 8l-6 -6h-6l-5 8l-15 3l-6 3l-3 -7l-4 4l-6 3l-10 18l-4 16l-11 26l-2 9l-24 50l-6 8l-5 16l-5 4l-8 17v-8h-9l-4 -2l-2 2l-3 -6l-24 -10l-4 -4
l-16 -6l-10 -7l-84 -30l-14 -7l-28 -6l-7 -6l-8 -51l-3 -6v-14l-6 -26l-4 -2v-11l1 -7l-1 -14l-8 -18l3 -2l-5 -12l-3 3v24h-3l-2 -11l-6 7l-3 -4v-6h7v-8h-7l-4 2h-5l-1 2l-3 -2h-9l-1 -6v15l-3 3l-6 -12h-5l-5 -6l-6 18h-6l-4 7l-3 -7l-9 -5l-8 12l-2 -6h-3l-2 7h-4l-7 11
v19l5 22l2 20l16 84l1 10l7 39l2 4l3 16l17 67v7l79 283l16 37zM192 308l3 -7l6 3l122 35l3 3l-9 14l-37 66l-37 76l-8 -16l-9 -40l-3 -7l-16 -63l-1 -7l-9 -33v-4l-3 -5zM170 712l7 -2h12l13 3l12 7l8 2l23 17l7 7l6 4l5 10l3 2v5l-1 1v4l-4 4l-4 1l-5 3l-14 3v5h-3l-12 8
h-6l-3 -6h-5l-2 -7l-16 -13l-16 -21l-2 -5l-1 -3l-4 -5v-16zM209 819l2 3h19l-8 -2h-8l-3 -2zM198 801v-3l3 1l6 3v3h-3l-3 -3zM203 650h11l1 2h-13zM318 749h3v-6l-3 -4v10zM116 58v-4l3 1l1 7zM199 827l2 1l1 -1v-3h-3v3zM180 822l1 -3l2 4h-2zM302 722v-2h3v2h-3zM127 47
v-2h3v2h-3zM201 819l1 -1l-1 -2h-3zM183 805l2 -2l1 3v1zM310 721v-3l2 3l1 2zM132 55v-4l2 3zM204 823h5l-2 -1h-3v1zM127 64v-2h3zM326 747v2l2 -2v-1zM209 801l-2 -2h2v2zM253 820v-2h1v1zM185 829v-1l3 1h-3zM318 717v-3h-1zM287 702v-1l2 1h-2zM296 721v-1h1v1h-1z" />
    <glyph glyph-name="AE" unicode="&#xc6;" horiz-adv-x="663" 
d="M252 6l-7 29l-7 91l4 75l-29 -10l-14 -7l-28 -6l-7 -6l-8 -51l-3 -6v-14l-6 -26l-4 -2v-11l1 -7l-1 -14l-8 -18l3 -2l-5 -12l-3 3v24h-3l-2 -11l-6 7l-3 -4v-6h7v-8h-7l-4 2h-5l-1 2l-3 -2h-9l-1 -6v15l-3 3l-6 -12h-5l-5 -6l-6 18h-6l-4 7l-3 -7l-9 -5l-8 12l-2 -6h-3
l-2 7h-4l-7 11v19l5 22l2 20l16 84l1 10l7 39l2 4l3 16l17 67v7l79 283l25 56l3 -2l2 -9h4v-7l2 -1l2 4v10h9l4 -4l-4 -2v-4l2 -3l2 -6h11l3 6l4 -8l5 1l-2 19l20 6l2 -6l15 4l5 9l16 -3l7 -4l30 7h38l9 2l3 -5l5 5l12 2v-7h5l2 7h13v-9l4 9l18 5l9 -2l22 2l3 8h7l6 2l3 -2
h12l7 -8h15l5 5h-17l10 4h10l7 9h4l5 -3l7 3h64l14 -6l-18 -18l6 -7l6 4v2l-4 2h11l-4 -9l-3 -3v-5l10 -4l-2 -7l-9 7l-3 -10h-4l-3 5h-14l-4 -12l3 -5l6 -3l-4 -26l7 -4v-19l-7 -3l-7 -8h-19l-7 -2h-63l-9 -5h-10l-5 -2l-31 -3l-14 -14l5 -4l25 4v-3l-2 -2v-5h-2l-3 5h-7
l-8 -7h-14l-51 -6l-9 -6v-73l-3 -10v-31l-4 5v-9l14 -4l15 8h14l4 5h9l4 3h4l3 1l7 3l3 -4h8l4 7l7 -4l11 12l4 -4l4 -8l8 -3l-3 -7l4 -10h6v9l-4 9l7 13l4 -10l3 -3l-7 -5l4 -13l5 -6h5l-5 -4v-10h-9v-7l9 -4l-12 -8v-10h10l-3 -10v-10h-10l-7 22v-9l-9 -5h-5l-5 -8v-7h7
l11 8l4 -8l5 -5l-8 -23l-2 -3v26l-10 -6v-20l-5 -5l-14 -7h-8l-8 -9l-10 -3l-25 -12l-18 -6l-9 -10l-5 -13l3 -2l-5 -3v-10l3 -2v-5l3 -11l-3 -10l-5 -6v-2h2l5 5v-5l-5 -5v-10l4 -3l-6 -6v-14h11l54 21l24 12h10l6 7l4 -9l2 5v6l17 8l10 3l14 10h13l4 4l11 -8l4 15l7 -7h2
v5l-2 5l12 4l2 -4l4 8l20 4l3 -5l-3 -3v-4l3 -3l7 7l5 -8l-2 -9l-7 -2l-3 -7l-5 -5v-4h7v-13l-2 -2l-3 5h-2v-7h-2l-5 4l-5 -10l-6 12l-9 -9v-14l-14 -5v-10h7l7 7h5v-10l3 -2l6 -11l-16 -8l-6 -14l-4 11l-3 -11l-5 6l-4 -6l-21 -23h-6l-7 -4h-4v-7l-5 -10l-8 -5l-3 -11
l-6 9l-10 -5l-5 -12l-2 -2v-6l4 -3l-45 -14l-4 8l-4 -6l4 -3l-16 -3h-19l-7 -3h-40l-5 -10h-8l-15 -4h-31zM192 308l3 -7l6 3l38 11v175l-4 -8l-9 -40l-3 -7l-16 -63l-1 -7l-9 -33v-4l-3 -5zM510 400l2 4l-3 11h20l-9 -5v-7l2 -5l-12 -5v7zM563 202l7 -7h7l4 8l-4 5l-6 -4
l-4 5l-4 -1v-6zM486 43l11 24l7 5l-1 -7l-8 -7l-7 -17l-2 -3v5zM471 376l5 -4l4 4v7h-9v-7zM261 21l5 -4h3l-8 20v-16zM635 685l-3 3v4l11 -2l-5 -10zM545 129l3 -4h7v7h-7zM594 185l10 6l-3 -8zM611 611h7l-7 -6h-3zM345 676l5 -3l3 3v2h-8v-2zM604 209h3v-1l-13 -13z
M510 60v5l2 2l2 -5v-4zM449 309v-6l3 3v10zM577 224v-9l3 2v5zM420 26v-7h3v7h-3zM495 50l5 3l3 -3l-6 -2zM116 58v-4l3 1l1 7zM434 36l3 -2v7h-3v-5zM589 236h9l-7 -4zM551 205v-10l2 3v7h-2zM563 219v-7h2v7h-2zM316 673l3 -2v5h-3v-3zM623 692v6l2 -3v-5zM611 635l3 -3
v-2h-3v5zM560 185v-2h3v5zM355 200v-5h2v5h-2zM454 157v-5h2v5h-2zM611 185l4 6v-3l-4 -5v2zM594 688v-3h3v3h-3zM483 70v-3h3v3h-3zM437 28v-4l3 2v2h-3zM591 217l3 -2v4h-3v-2zM399 678v-7l1 2v8zM565 147l2 2v-2l-2 -5v5zM541 688v-5h2v2zM536 79v2h2v-4zM507 555h3v-2
h-3v2zM521 690v-2h3v2h-3zM628 683h3v-2h-3v2zM127 47v-2h3v2h-3zM607 222v-3h-3zM132 55v-4l2 3zM611 149h3l-3 -2v2zM500 439h3v-2zM601 699v-1h3v1h-3zM127 64v-2h3zM529 699v-1h2v1h-2z" />
    <glyph glyph-name="Ccedilla" unicode="&#xc7;" horiz-adv-x="446" 
d="M200 -143h-11l-1 3h-18v2l-3 2l-2 2h-14l-8 5h9l3 5l-8 2l-16 1l5 2v2l-8 3l-3 2v2h8l8 2v3h-9l-1 1l3 2v8l-1 2l16 1h29l18 5l29 15l17 20l8 19l3 12v-10l5 15v4l-2 -1l-1 4l-7 5h-6l-13 -6l-11 -2l-10 -5h-6l-4 5l-2 -2l-2 -4h-10l-8 -4h-6v22l-7 6v29l5 52l-3 27v18
h-4l-7 7h-20l-7 5l-12 5l-8 7h-14l-3 -5l-7 3l-10 10v-10l23 -31l19 -13v-2l-20 9l-19 20l-14 24l-4 23l-14 23l-5 3l-5 21l-14 21v54l24 94l5 7l19 46l52 96l56 65l36 24l12 5l7 5l44 14l15 3l41 -8l3 -2l5 -2l10 -11l21 -4l10 -7l12 -3v-9l11 -3l4 -14l12 -8h7v-5l-12 -12
l-7 -2l-15 -8h-12l-51 -12l-8 -7l-24 -9l-27 -20l-39 -43l-34 -59l-5 -6l-16 -38l-5 -15l-10 -19l-3 -15l-14 -52v-31l7 -6l58 -4l132 27h7l12 3h15l-2 -3l-4 -9l23 -8l5 -5l-4 -3l-4 4l-14 -5l10 -3v-5l-5 -2l3 -16l-6 -12l-7 4h-12v-8h5v-5h-10l-3 -5l9 -5l-3 -7v-7h-3
l-5 5h-2v-5l-5 -2l-10 -10h-7l-4 4l-11 -4l-7 -7h-7l-20 -3h-14l-5 -5h-15l-13 -6l-10 10l-16 -8v-2l3 -3h4l3 -2l5 -3l6 -12l4 -34l4 -8h9l11 -2h2l20 -8l8 -9l7 -3l2 -4l2 -2l1 -3l2 -3l2 -2h4l7 -9v-3l3 -1l2 -5l10 -11l5 -16v-19l-4 -17l-1 -2l-2 -7v-3l-8 -20l-3 -4
l-2 -3l-3 3l-2 -6l-3 -2v-2l-2 -1l-3 -7l-4 -1l-7 -10l-12 -8l-4 -4l-13 -3l-4 -3h-7l-1 -3l-4 -2h-6l-18 -5h-5l-4 -2zM173 -16l6 -3l3 3l-2 4v4l-7 5v-13zM47 165v5l16 -23h-4zM256 -4l2 -3h2v6l-9 3l-3 -3l5 -3h3zM341 177h5v5h-5v-5zM382 186l3 3v-7l-3 -3v7zM387 262v2
h7l-4 -5zM363 245l2 -3l3 3v2h-3zM155 20v11l2 -12zM373 208l2 -2h2v2h-4zM321 -36l3 2v4zM250 -36v-2l1 1l2 7zM329 245v-3l2 3h-2zM394 218h3l-3 -2v2zM308 -79l2 -1v1h-2z" />
    <glyph glyph-name="Egrave" unicode="&#xc8;" horiz-adv-x="459" 
d="M48 18l-7 29l-7 91l7 135l-3 38l-3 7v229l5 20l5 11l-3 6l5 9v13h-13l4 14l2 3v7l-10 -5l-2 2l2 7v10l-5 -4v14l-2 2l-3 24l20 6l2 -6l15 4l5 9l16 -3l7 -4l30 7h38l9 2l3 -5l5 5l12 2v-7h5l2 7h13v-9l4 9l18 5l9 -2l22 2l3 8h7l6 2l3 -2h12l7 -8h15l5 5h-17l10 4h10l7 9
h4l5 -3l7 3h64l14 -6l-18 -18l6 -7l6 4v2l-4 2h11l-4 -9l-3 -3v-5l10 -4l-2 -7l-9 7l-3 -10h-4l-3 5h-14l-4 -12l3 -5l6 -3l-4 -26l7 -4v-19l-7 -3l-7 -8h-19l-7 -2h-63l-9 -5h-10l-5 -2l-31 -3l-14 -14l5 -4l25 4v-3l-2 -2v-5h-2l-3 5h-7l-8 -7h-14l-51 -6l-9 -6v-73
l-3 -10v-31l-4 5v-9l14 -4l15 8h14l4 5h9l4 3h4l3 1l7 3l3 -4h8l4 7l7 -4l11 12l4 -4l4 -8l8 -3l-3 -7l4 -10h6v9l-4 9l7 13l4 -10l3 -3l-7 -5l4 -13l5 -6h5l-5 -4v-10h-9v-7l9 -4l-12 -8v-10h10l-3 -10v-10h-10l-7 22v-9l-9 -5h-5l-5 -8v-7h7l11 8l4 -8l5 -5l-8 -23l-2 -3
v26l-10 -6v-20l-5 -5l-14 -7h-8l-8 -9l-10 -3l-25 -12l-18 -6l-9 -10l-5 -13l3 -2l-5 -3v-10l3 -2v-5l3 -11l-3 -10l-5 -6v-2h2l5 5v-5l-5 -5v-10l4 -3l-6 -6v-14h11l54 21l24 12h10l6 7l4 -9l2 5v6l17 8l10 3l14 10h13l4 4l11 -8l4 15l7 -7h2v5l-2 5l12 4l2 -4l4 8l20 4
l3 -5l-3 -3v-4l3 -3l7 7l5 -8l-2 -9l-7 -2l-3 -7l-5 -5v-4h7v-13l-2 -2l-3 5h-2v-7h-2l-5 4l-5 -10l-6 12l-9 -9v-14l-14 -5v-10h7l7 7h5v-10l3 -2l6 -11l-16 -8l-6 -14l-4 11l-3 -11l-5 6l-4 -6l-21 -23h-6l-7 -4h-4v-7l-5 -10l-8 -5l-3 -11l-6 9l-10 -5l-5 -12l-2 -2v-6
l4 -3l-45 -14l-4 8l-4 -6l4 -3l-16 -3h-19l-7 -3h-40l-5 -10h-8l-15 -4h-31zM306 412l2 4l-3 11h20l-9 -5v-7l2 -5l-12 -5v7zM359 214l7 -7h7l4 8l-4 5l-6 -4l-4 5l-4 -1v-6zM282 55l11 24l7 5l-1 -7l-8 -7l-7 -17l-2 -3v5zM267 388l5 -4l4 4v7h-9v-7zM57 33l5 -4h3l-8 20
v-16zM431 697l-3 3v4l11 -2l-5 -10zM341 141l3 -4h7v7h-7zM390 197l10 6l-3 -8zM407 623h7l-7 -6h-3zM141 688l5 -3l3 3v2h-8v-2zM400 221h3v-1l-13 -13zM306 72v5l2 2l2 -5v-4zM245 321v-6l3 3v10zM373 236v-9l3 2v5zM216 38v-7h3v7h-3zM291 62l5 3l3 -3l-6 -2zM230 48
l3 -2v7h-3v-5zM385 248h9l-7 -4zM347 217v-10l2 3v7h-2zM359 231v-7h2v7h-2zM112 685l3 -2v5h-3v-3zM419 704v6l2 -3v-5zM407 647l3 -3v-2h-3v5zM356 197v-2h3v5zM407 197l4 6v-3l-4 -5v2zM151 212v-5h2v5h-2zM250 169v-5h2v5h-2zM279 82v-3h3v3h-3zM387 229l3 -2v4h-3v-2z
M390 700v-3h3v3h-3zM233 40v-4l3 2v2h-3zM195 690v-7l1 2v8zM337 700v-5h2v2zM361 159l2 2v-2l-2 -5v5zM317 702v-2h3v2h-3zM303 567h3v-2h-3v2zM332 91v2h2v-4zM424 695h3v-2h-3v2zM403 234v-3h-3zM407 161h3l-3 -2v2zM296 451h3v-2zM397 711v-1h3v1h-3zM325 711v-1h2v1h-2
zM148 853l3 -3v-2l-3 2v3zM164 850v7h-3zM164 836h4v4h-4v-4zM256 755l-9 -9l-11 -2h-7l-13 13l-10 16l-47 62l-4 3v7l2 -2v1l-3 6h5v4l-4 4v1h1l1 -1h3l1 5l2 -2h1v9l5 5l-1 3v5l1 -4l3 3l4 2v4l-3 6l2 3l-4 3v4l2 -3h6v6h6l39 -42l23 -28l2 -4l6 -6l23 -34l-2 -5l4 -7
l-3 -1l-4 -5l3 -6l-3 1h-4l-4 -6h-7l-2 -5v-4z" />
    <glyph glyph-name="Eacute" unicode="&#xc9;" horiz-adv-x="459" 
d="M48 18l-7 29l-7 91l7 135l-3 38l-3 7v229l5 20l5 11l-3 6l5 9v13h-13l4 14l2 3v7l-10 -5l-2 2l2 7v10l-5 -4v14l-2 2l-3 24l20 6l2 -6l15 4l5 9l16 -3l7 -4l30 7h38l9 2l3 -5l5 5l12 2v-7h5l2 7h13v-9l4 9l18 5l9 -2l22 2l3 8h7l6 2l3 -2h12l7 -8h15l5 5h-17l10 4h10l7 9
h4l5 -3l7 3h64l14 -6l-18 -18l6 -7l6 4v2l-4 2h11l-4 -9l-3 -3v-5l10 -4l-2 -7l-9 7l-3 -10h-4l-3 5h-14l-4 -12l3 -5l6 -3l-4 -26l7 -4v-19l-7 -3l-7 -8h-19l-7 -2h-63l-9 -5h-10l-5 -2l-31 -3l-14 -14l5 -4l25 4v-3l-2 -2v-5h-2l-3 5h-7l-8 -7h-14l-51 -6l-9 -6v-73
l-3 -10v-31l-4 5v-9l14 -4l15 8h14l4 5h9l4 3h4l3 1l7 3l3 -4h8l4 7l7 -4l11 12l4 -4l4 -8l8 -3l-3 -7l4 -10h6v9l-4 9l7 13l4 -10l3 -3l-7 -5l4 -13l5 -6h5l-5 -4v-10h-9v-7l9 -4l-12 -8v-10h10l-3 -10v-10h-10l-7 22v-9l-9 -5h-5l-5 -8v-7h7l11 8l4 -8l5 -5l-8 -23l-2 -3
v26l-10 -6v-20l-5 -5l-14 -7h-8l-8 -9l-10 -3l-25 -12l-18 -6l-9 -10l-5 -13l3 -2l-5 -3v-10l3 -2v-5l3 -11l-3 -10l-5 -6v-2h2l5 5v-5l-5 -5v-10l4 -3l-6 -6v-14h11l54 21l24 12h10l6 7l4 -9l2 5v6l17 8l10 3l14 10h13l4 4l11 -8l4 15l7 -7h2v5l-2 5l12 4l2 -4l4 8l20 4
l3 -5l-3 -3v-4l3 -3l7 7l5 -8l-2 -9l-7 -2l-3 -7l-5 -5v-4h7v-13l-2 -2l-3 5h-2v-7h-2l-5 4l-5 -10l-6 12l-9 -9v-14l-14 -5v-10h7l7 7h5v-10l3 -2l6 -11l-16 -8l-6 -14l-4 11l-3 -11l-5 6l-4 -6l-21 -23h-6l-7 -4h-4v-7l-5 -10l-8 -5l-3 -11l-6 9l-10 -5l-5 -12l-2 -2v-6
l4 -3l-45 -14l-4 8l-4 -6l4 -3l-16 -3h-19l-7 -3h-40l-5 -10h-8l-15 -4h-31zM306 412l2 4l-3 11h20l-9 -5v-7l2 -5l-12 -5v7zM359 214l7 -7h7l4 8l-4 5l-6 -4l-4 5l-4 -1v-6zM282 55l11 24l7 5l-1 -7l-8 -7l-7 -17l-2 -3v5zM267 388l5 -4l4 4v7h-9v-7zM57 33l5 -4h3l-8 20
v-16zM431 697l-3 3v4l11 -2l-5 -10zM341 141l3 -4h7v7h-7zM390 197l10 6l-3 -8zM407 623h7l-7 -6h-3zM141 688l5 -3l3 3v2h-8v-2zM400 221h3v-1l-13 -13zM306 72v5l2 2l2 -5v-4zM245 321v-6l3 3v10zM373 236v-9l3 2v5zM216 38v-7h3v7h-3zM291 62l5 3l3 -3l-6 -2zM230 48
l3 -2v7h-3v-5zM385 248h9l-7 -4zM347 217v-10l2 3v7h-2zM359 231v-7h2v7h-2zM112 685l3 -2v5h-3v-3zM419 704v6l2 -3v-5zM407 647l3 -3v-2h-3v5zM356 197v-2h3v5zM407 197l4 6v-3l-4 -5v2zM151 212v-5h2v5h-2zM250 169v-5h2v5h-2zM279 82v-3h3v3h-3zM387 229l3 -2v4h-3v-2z
M390 700v-3h3v3h-3zM233 40v-4l3 2v2h-3zM195 690v-7l1 2v8zM337 700v-5h2v2zM361 159l2 2v-2l-2 -5v5zM317 702v-2h3v2h-3zM303 567h3v-2h-3v2zM332 91v2h2v-4zM424 695h3v-2h-3v2zM403 234v-3h-3zM407 161h3l-3 -2v2zM296 451h3v-2zM397 711v-1h3v1h-3zM325 711v-1h2v1h-2
zM150 748l-9 9v4l-2 5h-7l-4 6h-4l-3 -1l3 6l-4 5l-3 1l4 7l-2 5l23 34l6 6l2 4l23 28l39 42h6v-6h6l2 3v-4l-4 -3l2 -3l-3 -6v-4l4 -2l3 -3l1 4v-5l-1 -3l5 -5v-9h1l2 2l1 -5h3l1 1h1v-1l-4 -4v-4h5l-3 -6v-1l2 2v-7l-4 -3l-47 -62l-10 -16l-13 -13h-7zM229 838h4v4h-4v-4z
M231 889l2 1l1 -2l3 1v-3h-4zM233 859v-7l3 7h-3zM246 852l3 3v-3l-3 -2v2zM237 881h1v-1l-4 -2z" />
    <glyph glyph-name="Ecircumflex" unicode="&#xca;" horiz-adv-x="459" 
d="M48 18l-7 29l-7 91l7 135l-3 38l-3 7v229l5 20l5 11l-3 6l5 9v13h-13l4 14l2 3v7l-10 -5l-2 2l2 7v10l-5 -4v14l-2 2l-3 24l20 6l2 -6l15 4l5 9l16 -3l7 -4l30 7h38l9 2l3 -5l5 5l12 2v-7h5l2 7h13v-9l4 9l18 5l9 -2l22 2l3 8h7l6 2l3 -2h12l7 -8h15l5 5h-17l10 4h10l7 9
h4l5 -3l7 3h64l14 -6l-18 -18l6 -7l6 4v2l-4 2h11l-4 -9l-3 -3v-5l10 -4l-2 -7l-9 7l-3 -10h-4l-3 5h-14l-4 -12l3 -5l6 -3l-4 -26l7 -4v-19l-7 -3l-7 -8h-19l-7 -2h-63l-9 -5h-10l-5 -2l-31 -3l-14 -14l5 -4l25 4v-3l-2 -2v-5h-2l-3 5h-7l-8 -7h-14l-51 -6l-9 -6v-73
l-3 -10v-31l-4 5v-9l14 -4l15 8h14l4 5h9l4 3h4l3 1l7 3l3 -4h8l4 7l7 -4l11 12l4 -4l4 -8l8 -3l-3 -7l4 -10h6v9l-4 9l7 13l4 -10l3 -3l-7 -5l4 -13l5 -6h5l-5 -4v-10h-9v-7l9 -4l-12 -8v-10h10l-3 -10v-10h-10l-7 22v-9l-9 -5h-5l-5 -8v-7h7l11 8l4 -8l5 -5l-8 -23l-2 -3
v26l-10 -6v-20l-5 -5l-14 -7h-8l-8 -9l-10 -3l-25 -12l-18 -6l-9 -10l-5 -13l3 -2l-5 -3v-10l3 -2v-5l3 -11l-3 -10l-5 -6v-2h2l5 5v-5l-5 -5v-10l4 -3l-6 -6v-14h11l54 21l24 12h10l6 7l4 -9l2 5v6l17 8l10 3l14 10h13l4 4l11 -8l4 15l7 -7h2v5l-2 5l12 4l2 -4l4 8l20 4
l3 -5l-3 -3v-4l3 -3l7 7l5 -8l-2 -9l-7 -2l-3 -7l-5 -5v-4h7v-13l-2 -2l-3 5h-2v-7h-2l-5 4l-5 -10l-6 12l-9 -9v-14l-14 -5v-10h7l7 7h5v-10l3 -2l6 -11l-16 -8l-6 -14l-4 11l-3 -11l-5 6l-4 -6l-21 -23h-6l-7 -4h-4v-7l-5 -10l-8 -5l-3 -11l-6 9l-10 -5l-5 -12l-2 -2v-6
l4 -3l-45 -14l-4 8l-4 -6l4 -3l-16 -3h-19l-7 -3h-40l-5 -10h-8l-15 -4h-31zM306 412l2 4l-3 11h20l-9 -5v-7l2 -5l-12 -5v7zM359 214l7 -7h7l4 8l-4 5l-6 -4l-4 5l-4 -1v-6zM282 55l11 24l7 5l-1 -7l-8 -7l-7 -17l-2 -3v5zM267 388l5 -4l4 4v7h-9v-7zM57 33l5 -4h3l-8 20
v-16zM431 697l-3 3v4l11 -2l-5 -10zM341 141l3 -4h7v7h-7zM390 197l10 6l-3 -8zM407 623h7l-7 -6h-3zM141 688l5 -3l3 3v2h-8v-2zM400 221h3v-1l-13 -13zM306 72v5l2 2l2 -5v-4zM245 321v-6l3 3v10zM373 236v-9l3 2v5zM216 38v-7h3v7h-3zM291 62l5 3l3 -3l-6 -2zM230 48
l3 -2v7h-3v-5zM385 248h9l-7 -4zM347 217v-10l2 3v7h-2zM359 231v-7h2v7h-2zM112 685l3 -2v5h-3v-3zM419 704v6l2 -3v-5zM407 647l3 -3v-2h-3v5zM356 197v-2h3v5zM407 197l4 6v-3l-4 -5v2zM151 212v-5h2v5h-2zM250 169v-5h2v5h-2zM279 82v-3h3v3h-3zM387 229l3 -2v4h-3v-2z
M390 700v-3h3v3h-3zM233 40v-4l3 2v2h-3zM195 690v-7l1 2v8zM337 700v-5h2v2zM361 159l2 2v-2l-2 -5v5zM317 702v-2h3v2h-3zM303 567h3v-2h-3v2zM332 91v2h2v-4zM424 695h3v-2h-3v2zM403 234v-3h-3zM407 161h3l-3 -2v2zM296 451h3v-2zM397 711v-1h3v1h-3zM325 711v-1h2v1h-2
zM271 751l-15 16l-3 1l-27 32l-23 48h-2l-5 -6l-24 -40l-7 -14l-10 -13l-1 -3l-12 -5h-11l-2 6l-3 -1l-1 3l-2 1l2 6v6h-2l-4 -5l-4 -3l-2 1l2 9l-10 2l-3 6l-2 -6l-3 5h-3v13l3 8l4 3l2 7l9 16l6 8l2 3l3 2l2 6l4 5v3l5 5v5l11 10v7h1l1 -2l5 8v4l1 1l1 -2l6 10l3 8l3 1
l1 6l4 5l1 3h2l1 -5h6v5h-5v3h7l2 -3v-3h2l1 3l5 -2l4 -6l4 -2v-4h2l2 4v4h1l3 -2v-6l5 -12l2 6h3l2 -4h3l2 -5h1l2 2l3 -4h5l5 -2l6 -12l4 -4l16 -39l25 -39l39 -37l4 -8l-3 -1v-3l-5 5h-3l-1 -2l-1 1l-3 1l-6 6l-2 -3l-1 -2v-2l-2 2v3l-3 -1h-4l3 -5h-2l-4 4l-2 -2h-4
l-7 -1l3 -5l-7 5l-5 -3l-30 25h-3l4 -6l2 -2l3 -6l25 -26l-2 -1zM168 930l2 -1l1 1v2h-1zM178 932l1 -2h1v2h-2z" />
    <glyph glyph-name="Edieresis" unicode="&#xcb;" horiz-adv-x="459" 
d="M48 18l-7 29l-7 91l7 135l-3 38l-3 7v229l5 20l5 11l-3 6l5 9v13h-13l4 14l2 3v7l-10 -5l-2 2l2 7v10l-5 -4v14l-2 2l-3 24l20 6l2 -6l15 4l5 9l16 -3l7 -4l30 7h38l9 2l3 -5l5 5l12 2v-7h5l2 7h13v-9l4 9l18 5l9 -2l22 2l3 8h7l6 2l3 -2h12l7 -8h15l5 5h-17l10 4h10l7 9
h4l5 -3l7 3h64l14 -6l-18 -18l6 -7l6 4v2l-4 2h11l-4 -9l-3 -3v-5l10 -4l-2 -7l-9 7l-3 -10h-4l-3 5h-14l-4 -12l3 -5l6 -3l-4 -26l7 -4v-19l-7 -3l-7 -8h-19l-7 -2h-63l-9 -5h-10l-5 -2l-31 -3l-14 -14l5 -4l25 4v-3l-2 -2v-5h-2l-3 5h-7l-8 -7h-14l-51 -6l-9 -6v-73
l-3 -10v-31l-4 5v-9l14 -4l15 8h14l4 5h9l4 3h4l3 1l7 3l3 -4h8l4 7l7 -4l11 12l4 -4l4 -8l8 -3l-3 -7l4 -10h6v9l-4 9l7 13l4 -10l3 -3l-7 -5l4 -13l5 -6h5l-5 -4v-10h-9v-7l9 -4l-12 -8v-10h10l-3 -10v-10h-10l-7 22v-9l-9 -5h-5l-5 -8v-7h7l11 8l4 -8l5 -5l-8 -23l-2 -3
v26l-10 -6v-20l-5 -5l-14 -7h-8l-8 -9l-10 -3l-25 -12l-18 -6l-9 -10l-5 -13l3 -2l-5 -3v-10l3 -2v-5l3 -11l-3 -10l-5 -6v-2h2l5 5v-5l-5 -5v-10l4 -3l-6 -6v-14h11l54 21l24 12h10l6 7l4 -9l2 5v6l17 8l10 3l14 10h13l4 4l11 -8l4 15l7 -7h2v5l-2 5l12 4l2 -4l4 8l20 4
l3 -5l-3 -3v-4l3 -3l7 7l5 -8l-2 -9l-7 -2l-3 -7l-5 -5v-4h7v-13l-2 -2l-3 5h-2v-7h-2l-5 4l-5 -10l-6 12l-9 -9v-14l-14 -5v-10h7l7 7h5v-10l3 -2l6 -11l-16 -8l-6 -14l-4 11l-3 -11l-5 6l-4 -6l-21 -23h-6l-7 -4h-4v-7l-5 -10l-8 -5l-3 -11l-6 9l-10 -5l-5 -12l-2 -2v-6
l4 -3l-45 -14l-4 8l-4 -6l4 -3l-16 -3h-19l-7 -3h-40l-5 -10h-8l-15 -4h-31zM306 412l2 4l-3 11h20l-9 -5v-7l2 -5l-12 -5v7zM359 214l7 -7h7l4 8l-4 5l-6 -4l-4 5l-4 -1v-6zM282 55l11 24l7 5l-1 -7l-8 -7l-7 -17l-2 -3v5zM267 388l5 -4l4 4v7h-9v-7zM57 33l5 -4h3l-8 20
v-16zM431 697l-3 3v4l11 -2l-5 -10zM341 141l3 -4h7v7h-7zM390 197l10 6l-3 -8zM407 623h7l-7 -6h-3zM141 688l5 -3l3 3v2h-8v-2zM400 221h3v-1l-13 -13zM306 72v5l2 2l2 -5v-4zM245 321v-6l3 3v10zM373 236v-9l3 2v5zM216 38v-7h3v7h-3zM291 62l5 3l3 -3l-6 -2zM230 48
l3 -2v7h-3v-5zM385 248h9l-7 -4zM347 217v-10l2 3v7h-2zM359 231v-7h2v7h-2zM112 685l3 -2v5h-3v-3zM419 704v6l2 -3v-5zM407 647l3 -3v-2h-3v5zM356 197v-2h3v5zM407 197l4 6v-3l-4 -5v2zM151 212v-5h2v5h-2zM250 169v-5h2v5h-2zM279 82v-3h3v3h-3zM387 229l3 -2v4h-3v-2z
M390 700v-3h3v3h-3zM233 40v-4l3 2v2h-3zM195 690v-7l1 2v8zM337 700v-5h2v2zM361 159l2 2v-2l-2 -5v5zM317 702v-2h3v2h-3zM303 567h3v-2h-3v2zM332 91v2h2v-4zM424 695h3v-2h-3v2zM403 234v-3h-3zM407 161h3l-3 -2v2zM296 451h3v-2zM397 711v-1h3v1h-3zM325 711v-1h2v1h-2
zM100 751v9h-4l-2 -6l-13 15l-4 9l1 7l-2 5v14l2 3v4l4 6v4l6 5l-4 3v4h4l4 -2v5l7 15l19 -9l2 -8l6 -4l6 -1l1 -4l10 -8l2 -2l8 -5v-4l11 -15v-7l-3 -1l-7 -7l-16 -6l-12 -10h-12l-4 -2l1 -9l-2 -7zM259 755l4 19l-1 -1l-5 -9h-5l-5 4l-3 8l9 14h-1l-3 -3l-7 7v13l6 18
l7 13l8 3l7 15h3l2 -3l7 -2v-4h7v-11h-2l9 -4l5 4v-9l3 -5l3 -2l8 -6l4 -11l6 -8l-1 -11l-11 -20h-4v1l-5 2l-4 -2l-11 2h-18l-6 3l3 -7l-3 -2v-3l3 -2v-3zM72 784h4l-4 -3v3zM107 836h3v2zM278 843v-1h1v1h-1z" />
    <glyph glyph-name="Igrave" unicode="&#xcc;" horiz-adv-x="203" 
d="M119 70l-8 -4l-12 12l-4 -4v-7l-10 3l-6 6l-13 3l-22 25l-14 29l-5 34l-5 24v115l5 29v24l2 15v7l10 97l5 13v19l2 5v32l3 4v76l2 2v5l-2 3v17h7v12l-5 2v5l2 -2h5l4 6l23 -11h15l7 -8l7 -2l3 -2l13 -4l6 -6l3 -5l21 -15l15 -6l-16 -423l8 -88l9 -27l9 -15v-5h-12l-3 2
h-17l-5 3l-9 2l-8 4v-11zM44 661h3v-5zM64 658v-2h2v2h-2zM50 839l3 -3v-2l-3 2v3zM66 836v7h-3zM66 822h4v4h-4v-4zM158 741l-9 -9l-11 -2h-7l-13 13l-10 16l-47 62l-4 3v7l2 -2v1l-3 6h5v4l-4 4v1h1l1 -1h3l1 5l2 -2h1v9l5 5l-1 3v5l1 -4l3 3l4 2v4l-3 6l2 3l-4 3v4l2 -3
h6v6h6l39 -42l23 -28l2 -4l6 -6l23 -34l-2 -5l4 -7l-3 -1l-4 -5l3 -6l-3 1h-4l-4 -6h-7l-2 -5v-4z" />
    <glyph glyph-name="Iacute" unicode="&#xcd;" horiz-adv-x="203" 
d="M119 70l-8 -4l-12 12l-4 -4v-7l-10 3l-6 6l-13 3l-22 25l-14 29l-5 34l-5 24v115l5 29v24l2 15v7l10 97l5 13v19l2 5v32l3 4v76l2 2v5l-2 3v17h7v12l-5 2v5l2 -2h5l4 6l23 -11h15l7 -8l7 -2l3 -2l13 -4l6 -6l3 -5l21 -15l15 -6l-16 -423l8 -88l9 -27l9 -15v-5h-12l-3 2
h-17l-5 3l-9 2l-8 4v-11zM44 661h3v-5zM64 658v-2h2v2h-2zM52 734l-9 9v4l-2 5h-7l-4 6h-4l-3 -1l3 6l-4 5l-3 1l4 7l-2 5l23 34l6 6l2 4l23 28l39 42h6v-6h6l2 3v-4l-4 -3l2 -3l-3 -6v-4l4 -2l3 -3l1 4v-5l-1 -3l5 -5v-9h1l2 2l1 -5h3l1 1h1v-1l-4 -4v-4h5l-3 -6v-1l2 2v-7
l-4 -3l-47 -62l-10 -16l-13 -13h-7zM131 824h4v4h-4v-4zM133 875l2 1l1 -2l3 1v-3h-4zM135 845v-7l3 7h-3zM148 838l3 3v-3l-3 -2v2zM139 867h1v-1l-4 -2z" />
    <glyph glyph-name="Icircumflex" unicode="&#xce;" horiz-adv-x="203" 
d="M119 70l-8 -4l-12 12l-4 -4v-7l-10 3l-6 6l-13 3l-22 25l-14 29l-5 34l-5 24v115l5 29v24l2 15v7l10 97l5 13v19l2 5v32l3 4v76l2 2v5l-2 3v17h7v12l-5 2v5l2 -2h5l4 6l23 -11h15l7 -8l7 -2l3 -2l13 -4l6 -6l3 -5l21 -15l15 -6l-16 -423l8 -88l9 -27l9 -15v-5h-12l-3 2
h-17l-5 3l-9 2l-8 4v-11zM44 661h3v-5zM64 658v-2h2v2h-2zM173 737l-15 16l-3 1l-27 32l-23 48h-2l-5 -6l-24 -40l-7 -14l-10 -13l-1 -3l-12 -5h-11l-2 6l-3 -1l-1 3l-2 1l2 6v6h-2l-4 -5l-4 -3l-2 1l2 9l-10 2l-3 6l-2 -6l-3 5h-3v13l3 8l4 3l2 7l9 16l6 8l2 3l3 2l2 6l4 5
v3l5 5v5l11 10v7h1l1 -2l5 8v4l1 1l1 -2l6 10l3 8l3 1l1 6l4 5l1 3h2l1 -5h6v5h-5v3h7l2 -3v-3h2l1 3l5 -2l4 -6l4 -2v-4h2l2 4v4h1l3 -2v-6l5 -12l2 6h3l2 -4h3l2 -5h1l2 2l3 -4h5l5 -2l6 -12l4 -4l16 -39l25 -39l39 -37l4 -8l-3 -1v-3l-5 5h-3l-1 -2l-1 1l-3 1l-6 6l-2 -3
l-1 -2v-2l-2 2v3l-3 -1h-4l3 -5h-2l-4 4l-2 -2h-4l-7 -1l3 -5l-7 5l-5 -3l-30 25h-3l4 -6l2 -2l3 -6l25 -26l-2 -1zM70 916l2 -1l1 1v2h-1zM80 918l1 -2h1v2h-2z" />
    <glyph glyph-name="Idieresis" unicode="&#xcf;" horiz-adv-x="203" 
d="M119 70l-8 -4l-12 12l-4 -4v-7l-10 3l-6 6l-13 3l-22 25l-14 29l-5 34l-5 24v115l5 29v24l2 15v7l10 97l5 13v19l2 5v32l3 4v76l2 2v5l-2 3v17h7v12l-5 2v5l2 -2h5l4 6l23 -11h15l7 -8l7 -2l3 -2l13 -4l6 -6l3 -5l21 -15l15 -6l-16 -423l8 -88l9 -27l9 -15v-5h-12l-3 2
h-17l-5 3l-9 2l-8 4v-11zM44 661h3v-5zM64 658v-2h2v2h-2zM2 737v9h-4l-2 -6l-13 15l-4 9l1 7l-2 5v14l2 3v4l4 6v4l6 5l-4 3v4h4l4 -2v5l7 15l19 -9l2 -8l6 -4l6 -1l1 -4l10 -8l2 -2l8 -5v-4l11 -15v-7l-3 -1l-7 -7l-16 -6l-12 -10h-12l-4 -2l1 -9l-2 -7zM161 741l4 19
l-1 -1l-5 -9h-5l-5 4l-3 8l9 14h-1l-3 -3l-7 7v13l6 18l7 13l8 3l7 15h3l2 -3l7 -2v-4h7v-11h-2l9 -4l5 4v-9l3 -5l3 -2l8 -6l4 -11l6 -8l-1 -11l-11 -20h-4v1l-5 2l-4 -2l-11 2h-18l-6 3l3 -7l-3 -2v-3l3 -2v-3zM-26 770h4l-4 -3v3zM9 822h3v2zM180 829v-1h1v1h-1z" />
    <glyph glyph-name="Ograve" unicode="&#xd2;" horiz-adv-x="585" 
d="M189 28h-8l-4 -2h-7l-5 5h-7l-5 4h-7l-14 10l-16 3l-24 15l-28 29l-10 16h-4l3 -17l25 -37l35 -35l-14 5l-14 14h-9l-18 23l-19 38l-8 33l-2 30l-2 7l-7 40v92l14 61l3 19l8 9v11l5 5l5 19l4 7v9l7 7l3 12l9 19l5 5l6 17l36 53l44 51l10 8l14 14l12 9l50 25l25 6l31 2
l7 -7h4l3 -2l9 -5l7 -7l2 -9l5 -5h5l5 -5l-4 -6l13 -13l5 5l2 -2v-8l16 -20l45 -12l5 -3l17 -5l32 -32l23 -35v-7h4l6 -12l12 -19v-30h14v-10l-4 -4l6 -3v-2h-9l-7 5l-3 -3l4 -13l-8 -17h14l4 4l3 -18l7 -3l-3 -2h-7v-9l-2 -5l-3 16l-4 -4v-7l-5 7l-2 -3v-7l7 -12l-7 -7
l2 -2l4 4l3 -9h10l7 -9v-5l-8 8l-6 -10v-9l-5 -10v-7l-2 -5l4 -7l-6 -6l-4 8l-12 -17l6 -8v-5l3 -6l-8 -4v8h-5v14l-7 -14v-7l8 -4l-17 -11v-37l-8 -16l-13 14l-2 -3v-9l5 -6l-3 -3l-3 -7l-4 4l-5 -4h-4l7 9v9l-12 -4l-7 -4l-3 6h-7v-28l-11 -11l-3 -15l-4 -7h-5l7 14v2
l-13 -12l-4 -13h-9v4l2 3l10 11l2 5l5 5v14l-12 -12v-7h-3l-4 -7h-5l-2 2l-2 -2v-14l4 -9v-17l-4 -5h-7l7 24h-4l-7 -28l-4 8l-16 -22h-2v9h-5l-5 -16h-7v15l-11 -6l-7 -7l2 -2l2 4h7l-7 -9h-21v-14h-12l-7 2l-5 -6l-4 4l-5 -5h-18l-5 3h-17l-4 -5h-26zM149 136l9 -4h40
l23 7l45 21l18 11h5v-2l4 -3l4 8l9 9h7l2 7h7v11l9 -5l4 14l6 -3v9h9l8 7l2 5l13 10l3 6l7 7l3 10l4 4l3 5h11l10 15v8l5 3v7h7l2 7l9 9v16l7 3v7l5 2l2 17l5 9l5 14v36l-5 20l-16 24l-19 10l-2 2l-10 5h-19l-9 9l5 5v4h-21l-10 5l-7 2l-3 4l5 6v7l-4 -2h-10v7h-16l-2 4
l-13 10l-17 -6l-47 -37l-52 -72l-3 -7l-8 -13l-13 -32l-9 -19l-7 -23v-5l-7 -14l-5 -33l-2 -5v-11l-3 -5v-7l3 -3l-3 -11v-14l3 -5v-21l3 -32zM444 143l5 5l4 11l5 5v-7l-4 -7l6 -11h-9l-7 -4v8zM489 228l2 -3l3 7v7l2 5v7l-6 -3l-7 -13h6v-7zM470 218l5 -4v4l-4 4l5 5l8 -9
v9l-7 3v7l-7 -7v-12zM544 397h4l4 -3l3 7l5 3l-5 -14v-5h-3zM468 242l4 -5l5 26l-9 -14v-7zM417 142l4 -10h2l6 8l-6 3l-2 3zM557 340l-5 10l4 4l9 -18zM430 120l5 2l2 7h3v-12h-7zM500 215l8 8v-12h-5zM449 174l2 -3h3v5l-3 5l-7 -4l3 -3h2zM520 282l4 -5h4l-4 7v7l-4 -5
v-4zM545 286l-4 3h11v-7h-4zM534 373l9 -7v6l-9 5v-4zM120 12l-7 7h4l10 -7h-7zM484 178h5l5 5v5zM372 507l2 -2l5 4v5zM496 228l2 -3l3 3v4zM559 390h3v-5h-3v5zM363 86l4 -4v7zM379 108l2 -2v7h-2v-5zM500 258l3 -7v7h-3zM517 218l3 3v-3l-3 -4v4zM508 376v-5l2 2v5z
M362 120v-3h3v3h-3zM390 258l3 -2v5zM527 371l-3 -2h5v2h-2zM318 35h2v-2h-5zM522 301l2 -3v5zM435 193l2 -3v5zM527 397l-3 -3h3v3zM264 26l2 -2v4zM536 317l2 -2v4zM505 394l3 -2v2h-3zM477 197l3 -2v2h-3zM522 465l-2 -3h2v3zM466 178l-3 -2h3v2zM388 129l-2 -2h2v2z
M230 823l3 -3v-2l-3 2v3zM246 820v7h-3zM246 806h4v4h-4v-4zM338 725l-9 -9l-11 -2h-7l-13 13l-10 16l-47 62l-4 3v7l2 -2v1l-3 6h5v4l-4 4v1h1l1 -1h3l1 5l2 -2h1v9l5 5l-1 3v5l1 -4l3 3l4 2v4l-3 6l2 3l-4 3v4l2 -3h6v6h6l39 -42l23 -28l2 -4l6 -6l23 -34l-2 -5l4 -7
l-3 -1l-4 -5l3 -6l-3 1h-4l-4 -6h-7l-2 -5v-4z" />
    <glyph glyph-name="Oacute" unicode="&#xd3;" horiz-adv-x="585" 
d="M189 28h-8l-4 -2h-7l-5 5h-7l-5 4h-7l-14 10l-16 3l-24 15l-28 29l-10 16h-4l3 -17l25 -37l35 -35l-14 5l-14 14h-9l-18 23l-19 38l-8 33l-2 30l-2 7l-7 40v92l14 61l3 19l8 9v11l5 5l5 19l4 7v9l7 7l3 12l9 19l5 5l6 17l36 53l44 51l10 8l14 14l12 9l50 25l25 6l31 2
l7 -7h4l3 -2l9 -5l7 -7l2 -9l5 -5h5l5 -5l-4 -6l13 -13l5 5l2 -2v-8l16 -20l45 -12l5 -3l17 -5l32 -32l23 -35v-7h4l6 -12l12 -19v-30h14v-10l-4 -4l6 -3v-2h-9l-7 5l-3 -3l4 -13l-8 -17h14l4 4l3 -18l7 -3l-3 -2h-7v-9l-2 -5l-3 16l-4 -4v-7l-5 7l-2 -3v-7l7 -12l-7 -7
l2 -2l4 4l3 -9h10l7 -9v-5l-8 8l-6 -10v-9l-5 -10v-7l-2 -5l4 -7l-6 -6l-4 8l-12 -17l6 -8v-5l3 -6l-8 -4v8h-5v14l-7 -14v-7l8 -4l-17 -11v-37l-8 -16l-13 14l-2 -3v-9l5 -6l-3 -3l-3 -7l-4 4l-5 -4h-4l7 9v9l-12 -4l-7 -4l-3 6h-7v-28l-11 -11l-3 -15l-4 -7h-5l7 14v2
l-13 -12l-4 -13h-9v4l2 3l10 11l2 5l5 5v14l-12 -12v-7h-3l-4 -7h-5l-2 2l-2 -2v-14l4 -9v-17l-4 -5h-7l7 24h-4l-7 -28l-4 8l-16 -22h-2v9h-5l-5 -16h-7v15l-11 -6l-7 -7l2 -2l2 4h7l-7 -9h-21v-14h-12l-7 2l-5 -6l-4 4l-5 -5h-18l-5 3h-17l-4 -5h-26zM149 136l9 -4h40
l23 7l45 21l18 11h5v-2l4 -3l4 8l9 9h7l2 7h7v11l9 -5l4 14l6 -3v9h9l8 7l2 5l13 10l3 6l7 7l3 10l4 4l3 5h11l10 15v8l5 3v7h7l2 7l9 9v16l7 3v7l5 2l2 17l5 9l5 14v36l-5 20l-16 24l-19 10l-2 2l-10 5h-19l-9 9l5 5v4h-21l-10 5l-7 2l-3 4l5 6v7l-4 -2h-10v7h-16l-2 4
l-13 10l-17 -6l-47 -37l-52 -72l-3 -7l-8 -13l-13 -32l-9 -19l-7 -23v-5l-7 -14l-5 -33l-2 -5v-11l-3 -5v-7l3 -3l-3 -11v-14l3 -5v-21l3 -32zM444 143l5 5l4 11l5 5v-7l-4 -7l6 -11h-9l-7 -4v8zM489 228l2 -3l3 7v7l2 5v7l-6 -3l-7 -13h6v-7zM470 218l5 -4v4l-4 4l5 5l8 -9
v9l-7 3v7l-7 -7v-12zM544 397h4l4 -3l3 7l5 3l-5 -14v-5h-3zM468 242l4 -5l5 26l-9 -14v-7zM417 142l4 -10h2l6 8l-6 3l-2 3zM557 340l-5 10l4 4l9 -18zM430 120l5 2l2 7h3v-12h-7zM500 215l8 8v-12h-5zM449 174l2 -3h3v5l-3 5l-7 -4l3 -3h2zM520 282l4 -5h4l-4 7v7l-4 -5
v-4zM545 286l-4 3h11v-7h-4zM534 373l9 -7v6l-9 5v-4zM120 12l-7 7h4l10 -7h-7zM484 178h5l5 5v5zM372 507l2 -2l5 4v5zM496 228l2 -3l3 3v4zM559 390h3v-5h-3v5zM363 86l4 -4v7zM379 108l2 -2v7h-2v-5zM500 258l3 -7v7h-3zM517 218l3 3v-3l-3 -4v4zM508 376v-5l2 2v5z
M362 120v-3h3v3h-3zM390 258l3 -2v5zM527 371l-3 -2h5v2h-2zM318 35h2v-2h-5zM522 301l2 -3v5zM435 193l2 -3v5zM527 397l-3 -3h3v3zM264 26l2 -2v4zM536 317l2 -2v4zM505 394l3 -2v2h-3zM477 197l3 -2v2h-3zM522 465l-2 -3h2v3zM466 178l-3 -2h3v2zM388 129l-2 -2h2v2z
M232 718l-9 9v4l-2 5h-7l-4 6h-4l-3 -1l3 6l-4 5l-3 1l4 7l-2 5l23 34l6 6l2 4l23 28l39 42h6v-6h6l2 3v-4l-4 -3l2 -3l-3 -6v-4l4 -2l3 -3l1 4v-5l-1 -3l5 -5v-9h1l2 2l1 -5h3l1 1h1v-1l-4 -4v-4h5l-3 -6v-1l2 2v-7l-4 -3l-47 -62l-10 -16l-13 -13h-7zM311 808h4v4h-4v-4z
M313 859l2 1l1 -2l3 1v-3h-4zM315 829v-7l3 7h-3zM328 822l3 3v-3l-3 -2v2zM319 851h1v-1l-4 -2z" />
    <glyph glyph-name="Ocircumflex" unicode="&#xd4;" horiz-adv-x="585" 
d="M189 28h-8l-4 -2h-7l-5 5h-7l-5 4h-7l-14 10l-16 3l-24 15l-28 29l-10 16h-4l3 -17l25 -37l35 -35l-14 5l-14 14h-9l-18 23l-19 38l-8 33l-2 30l-2 7l-7 40v92l14 61l3 19l8 9v11l5 5l5 19l4 7v9l7 7l3 12l9 19l5 5l6 17l36 53l44 51l10 8l14 14l12 9l50 25l25 6l31 2
l7 -7h4l3 -2l9 -5l7 -7l2 -9l5 -5h5l5 -5l-4 -6l13 -13l5 5l2 -2v-8l16 -20l45 -12l5 -3l17 -5l32 -32l23 -35v-7h4l6 -12l12 -19v-30h14v-10l-4 -4l6 -3v-2h-9l-7 5l-3 -3l4 -13l-8 -17h14l4 4l3 -18l7 -3l-3 -2h-7v-9l-2 -5l-3 16l-4 -4v-7l-5 7l-2 -3v-7l7 -12l-7 -7
l2 -2l4 4l3 -9h10l7 -9v-5l-8 8l-6 -10v-9l-5 -10v-7l-2 -5l4 -7l-6 -6l-4 8l-12 -17l6 -8v-5l3 -6l-8 -4v8h-5v14l-7 -14v-7l8 -4l-17 -11v-37l-8 -16l-13 14l-2 -3v-9l5 -6l-3 -3l-3 -7l-4 4l-5 -4h-4l7 9v9l-12 -4l-7 -4l-3 6h-7v-28l-11 -11l-3 -15l-4 -7h-5l7 14v2
l-13 -12l-4 -13h-9v4l2 3l10 11l2 5l5 5v14l-12 -12v-7h-3l-4 -7h-5l-2 2l-2 -2v-14l4 -9v-17l-4 -5h-7l7 24h-4l-7 -28l-4 8l-16 -22h-2v9h-5l-5 -16h-7v15l-11 -6l-7 -7l2 -2l2 4h7l-7 -9h-21v-14h-12l-7 2l-5 -6l-4 4l-5 -5h-18l-5 3h-17l-4 -5h-26zM149 136l9 -4h40
l23 7l45 21l18 11h5v-2l4 -3l4 8l9 9h7l2 7h7v11l9 -5l4 14l6 -3v9h9l8 7l2 5l13 10l3 6l7 7l3 10l4 4l3 5h11l10 15v8l5 3v7h7l2 7l9 9v16l7 3v7l5 2l2 17l5 9l5 14v36l-5 20l-16 24l-19 10l-2 2l-10 5h-19l-9 9l5 5v4h-21l-10 5l-7 2l-3 4l5 6v7l-4 -2h-10v7h-16l-2 4
l-13 10l-17 -6l-47 -37l-52 -72l-3 -7l-8 -13l-13 -32l-9 -19l-7 -23v-5l-7 -14l-5 -33l-2 -5v-11l-3 -5v-7l3 -3l-3 -11v-14l3 -5v-21l3 -32zM444 143l5 5l4 11l5 5v-7l-4 -7l6 -11h-9l-7 -4v8zM489 228l2 -3l3 7v7l2 5v7l-6 -3l-7 -13h6v-7zM470 218l5 -4v4l-4 4l5 5l8 -9
v9l-7 3v7l-7 -7v-12zM544 397h4l4 -3l3 7l5 3l-5 -14v-5h-3zM468 242l4 -5l5 26l-9 -14v-7zM417 142l4 -10h2l6 8l-6 3l-2 3zM557 340l-5 10l4 4l9 -18zM430 120l5 2l2 7h3v-12h-7zM500 215l8 8v-12h-5zM449 174l2 -3h3v5l-3 5l-7 -4l3 -3h2zM520 282l4 -5h4l-4 7v7l-4 -5
v-4zM545 286l-4 3h11v-7h-4zM534 373l9 -7v6l-9 5v-4zM120 12l-7 7h4l10 -7h-7zM484 178h5l5 5v5zM372 507l2 -2l5 4v5zM496 228l2 -3l3 3v4zM559 390h3v-5h-3v5zM363 86l4 -4v7zM379 108l2 -2v7h-2v-5zM500 258l3 -7v7h-3zM517 218l3 3v-3l-3 -4v4zM508 376v-5l2 2v5z
M362 120v-3h3v3h-3zM390 258l3 -2v5zM527 371l-3 -2h5v2h-2zM318 35h2v-2h-5zM522 301l2 -3v5zM435 193l2 -3v5zM527 397l-3 -3h3v3zM264 26l2 -2v4zM536 317l2 -2v4zM505 394l3 -2v2h-3zM477 197l3 -2v2h-3zM522 465l-2 -3h2v3zM466 178l-3 -2h3v2zM388 129l-2 -2h2v2z
M353 721l-15 16l-3 1l-27 32l-23 48h-2l-5 -6l-24 -40l-7 -14l-10 -13l-1 -3l-12 -5h-11l-2 6l-3 -1l-1 3l-2 1l2 6v6h-2l-4 -5l-4 -3l-2 1l2 9l-10 2l-3 6l-2 -6l-3 5h-3v13l3 8l4 3l2 7l9 16l6 8l2 3l3 2l2 6l4 5v3l5 5v5l11 10v7h1l1 -2l5 8v4l1 1l1 -2l6 10l3 8l3 1l1 6
l4 5l1 3h2l1 -5h6v5h-5v3h7l2 -3v-3h2l1 3l5 -2l4 -6l4 -2v-4h2l2 4v4h1l3 -2v-6l5 -12l2 6h3l2 -4h3l2 -5h1l2 2l3 -4h5l5 -2l6 -12l4 -4l16 -39l25 -39l39 -37l4 -8l-3 -1v-3l-5 5h-3l-1 -2l-1 1l-3 1l-6 6l-2 -3l-1 -2v-2l-2 2v3l-3 -1h-4l3 -5h-2l-4 4l-2 -2h-4l-7 -1
l3 -5l-7 5l-5 -3l-30 25h-3l4 -6l2 -2l3 -6l25 -26l-2 -1zM250 900l2 -1l1 1v2h-1zM260 902l1 -2h1v2h-2z" />
    <glyph glyph-name="Otilde" unicode="&#xd5;" horiz-adv-x="585" 
d="M189 28h-8l-4 -2h-7l-5 5h-7l-5 4h-7l-14 10l-16 3l-24 15l-28 29l-10 16h-4l3 -17l25 -37l35 -35l-14 5l-14 14h-9l-18 23l-19 38l-8 33l-2 30l-2 7l-7 40v92l14 61l3 19l8 9v11l5 5l5 19l4 7v9l7 7l3 12l9 19l5 5l6 17l36 53l44 51l10 8l14 14l12 9l50 25l25 6l31 2
l7 -7h4l3 -2l9 -5l7 -7l2 -9l5 -5h5l5 -5l-4 -6l13 -13l5 5l2 -2v-8l16 -20l45 -12l5 -3l17 -5l32 -32l23 -35v-7h4l6 -12l12 -19v-30h14v-10l-4 -4l6 -3v-2h-9l-7 5l-3 -3l4 -13l-8 -17h14l4 4l3 -18l7 -3l-3 -2h-7v-9l-2 -5l-3 16l-4 -4v-7l-5 7l-2 -3v-7l7 -12l-7 -7
l2 -2l4 4l3 -9h10l7 -9v-5l-8 8l-6 -10v-9l-5 -10v-7l-2 -5l4 -7l-6 -6l-4 8l-12 -17l6 -8v-5l3 -6l-8 -4v8h-5v14l-7 -14v-7l8 -4l-17 -11v-37l-8 -16l-13 14l-2 -3v-9l5 -6l-3 -3l-3 -7l-4 4l-5 -4h-4l7 9v9l-12 -4l-7 -4l-3 6h-7v-28l-11 -11l-3 -15l-4 -7h-5l7 14v2
l-13 -12l-4 -13h-9v4l2 3l10 11l2 5l5 5v14l-12 -12v-7h-3l-4 -7h-5l-2 2l-2 -2v-14l4 -9v-17l-4 -5h-7l7 24h-4l-7 -28l-4 8l-16 -22h-2v9h-5l-5 -16h-7v15l-11 -6l-7 -7l2 -2l2 4h7l-7 -9h-21v-14h-12l-7 2l-5 -6l-4 4l-5 -5h-18l-5 3h-17l-4 -5h-26zM149 136l9 -4h40
l23 7l45 21l18 11h5v-2l4 -3l4 8l9 9h7l2 7h7v11l9 -5l4 14l6 -3v9h9l8 7l2 5l13 10l3 6l7 7l3 10l4 4l3 5h11l10 15v8l5 3v7h7l2 7l9 9v16l7 3v7l5 2l2 17l5 9l5 14v36l-5 20l-16 24l-19 10l-2 2l-10 5h-19l-9 9l5 5v4h-21l-10 5l-7 2l-3 4l5 6v7l-4 -2h-10v7h-16l-2 4
l-13 10l-17 -6l-47 -37l-52 -72l-3 -7l-8 -13l-13 -32l-9 -19l-7 -23v-5l-7 -14l-5 -33l-2 -5v-11l-3 -5v-7l3 -3l-3 -11v-14l3 -5v-21l3 -32zM444 143l5 5l4 11l5 5v-7l-4 -7l6 -11h-9l-7 -4v8zM489 228l2 -3l3 7v7l2 5v7l-6 -3l-7 -13h6v-7zM470 218l5 -4v4l-4 4l5 5l8 -9
v9l-7 3v7l-7 -7v-12zM544 397h4l4 -3l3 7l5 3l-5 -14v-5h-3zM468 242l4 -5l5 26l-9 -14v-7zM417 142l4 -10h2l6 8l-6 3l-2 3zM557 340l-5 10l4 4l9 -18zM430 120l5 2l2 7h3v-12h-7zM500 215l8 8v-12h-5zM449 174l2 -3h3v5l-3 5l-7 -4l3 -3h2zM520 282l4 -5h4l-4 7v7l-4 -5
v-4zM545 286l-4 3h11v-7h-4zM534 373l9 -7v6l-9 5v-4zM120 12l-7 7h4l10 -7h-7zM484 178h5l5 5v5zM372 507l2 -2l5 4v5zM496 228l2 -3l3 3v4zM559 390h3v-5h-3v5zM363 86l4 -4v7zM379 108l2 -2v7h-2v-5zM500 258l3 -7v7h-3zM517 218l3 3v-3l-3 -4v4zM508 376v-5l2 2v5z
M362 120v-3h3v3h-3zM390 258l3 -2v5zM527 371l-3 -2h5v2h-2zM318 35h2v-2h-5zM522 301l2 -3v5zM435 193l2 -3v5zM527 397l-3 -3h3v3zM264 26l2 -2v4zM536 317l2 -2v4zM505 394l3 -2v2h-3zM477 197l3 -2v2h-3zM522 465l-2 -3h2v3zM466 178l-3 -2h3v2zM388 129l-2 -2h2v2z
M301 723h-8l-11 12l-29 36l-2 5l-5 1l-1 8l32 -38l5 -8l16 -13l16 -4l18 3l2 2l-1 1l-14 2l-8 5l-3 -2l-5 5l-7 2l-18 16l-27 34l-14 14h-6l-3 -2l-1 -3l-3 -2l-1 -2h-1l-8 -8l-2 -3l-6 -8l-1 -2l-4 -5l-9 -23l-5 -7h-7l-4 -1l-7 1l-1 9l-2 -3v-2l-2 -4l-1 1v5l-2 3l-2 8h-1
l-3 -1l-3 6l-5 -3v2l-12 9v7l7 21l18 36l6 6l2 5l8 8h4l1 3l6 3l1 -2l2 2v4l5 3h2l10 1v-3h1l2 4l10 -1l3 -2l15 -7l2 -3l6 -2l2 -3h3l4 -6l6 -4l5 -5l3 -1l1 -1l2 -1l13 -14l6 -4l24 -24h10l14 4l18 14l6 10l4 25l4 4l2 6l5 6v7h3v2l-3 1l4 4l12 -11v-3l-1 -1v-3h1l5 4
l2 -9h3l1 -2l-4 -3h4l4 8v-7l2 -4l-2 -2v-8l-2 -3l-2 -4l-1 -1v-2l3 2l2 3l2 -6h-4l-2 -2l5 -6v-2l2 -2l3 2l2 -7l4 -1l2 1l-2 -3l-3 -1l-1 -2l3 -3v-3l-2 -2v-7l-1 -1l1 -8l-1 -3v-4l-5 -5l-2 4l-1 -2v-7l-2 -3h-5v-4l-5 -4l-1 -1l-3 -1l-10 -8l-16 -3l-2 -1l-10 -4l-5 3
h-4v-3l-7 -1l-10 -6h-21zM422 789h5l-1 -5l-4 -3v8zM410 792l2 -1l1 2l-1 4l-2 -2v-3zM394 752v-3h3v3h-3zM404 808l3 -1v5zM402 832l3 -1v3zM396 845v-1l3 1v2zM233 794h2l1 -2h-1zM211 862v-3l1 2v2zM200 862v-1h1v1h-1zM428 794v-2h-1z" />
    <glyph glyph-name="Odieresis" unicode="&#xd6;" horiz-adv-x="585" 
d="M189 28h-8l-4 -2h-7l-5 5h-7l-5 4h-7l-14 10l-16 3l-24 15l-28 29l-10 16h-4l3 -17l25 -37l35 -35l-14 5l-14 14h-9l-18 23l-19 38l-8 33l-2 30l-2 7l-7 40v92l14 61l3 19l8 9v11l5 5l5 19l4 7v9l7 7l3 12l9 19l5 5l6 17l36 53l44 51l10 8l14 14l12 9l50 25l25 6l31 2
l7 -7h4l3 -2l9 -5l7 -7l2 -9l5 -5h5l5 -5l-4 -6l13 -13l5 5l2 -2v-8l16 -20l45 -12l5 -3l17 -5l32 -32l23 -35v-7h4l6 -12l12 -19v-30h14v-10l-4 -4l6 -3v-2h-9l-7 5l-3 -3l4 -13l-8 -17h14l4 4l3 -18l7 -3l-3 -2h-7v-9l-2 -5l-3 16l-4 -4v-7l-5 7l-2 -3v-7l7 -12l-7 -7
l2 -2l4 4l3 -9h10l7 -9v-5l-8 8l-6 -10v-9l-5 -10v-7l-2 -5l4 -7l-6 -6l-4 8l-12 -17l6 -8v-5l3 -6l-8 -4v8h-5v14l-7 -14v-7l8 -4l-17 -11v-37l-8 -16l-13 14l-2 -3v-9l5 -6l-3 -3l-3 -7l-4 4l-5 -4h-4l7 9v9l-12 -4l-7 -4l-3 6h-7v-28l-11 -11l-3 -15l-4 -7h-5l7 14v2
l-13 -12l-4 -13h-9v4l2 3l10 11l2 5l5 5v14l-12 -12v-7h-3l-4 -7h-5l-2 2l-2 -2v-14l4 -9v-17l-4 -5h-7l7 24h-4l-7 -28l-4 8l-16 -22h-2v9h-5l-5 -16h-7v15l-11 -6l-7 -7l2 -2l2 4h7l-7 -9h-21v-14h-12l-7 2l-5 -6l-4 4l-5 -5h-18l-5 3h-17l-4 -5h-26zM149 136l9 -4h40
l23 7l45 21l18 11h5v-2l4 -3l4 8l9 9h7l2 7h7v11l9 -5l4 14l6 -3v9h9l8 7l2 5l13 10l3 6l7 7l3 10l4 4l3 5h11l10 15v8l5 3v7h7l2 7l9 9v16l7 3v7l5 2l2 17l5 9l5 14v36l-5 20l-16 24l-19 10l-2 2l-10 5h-19l-9 9l5 5v4h-21l-10 5l-7 2l-3 4l5 6v7l-4 -2h-10v7h-16l-2 4
l-13 10l-17 -6l-47 -37l-52 -72l-3 -7l-8 -13l-13 -32l-9 -19l-7 -23v-5l-7 -14l-5 -33l-2 -5v-11l-3 -5v-7l3 -3l-3 -11v-14l3 -5v-21l3 -32zM444 143l5 5l4 11l5 5v-7l-4 -7l6 -11h-9l-7 -4v8zM489 228l2 -3l3 7v7l2 5v7l-6 -3l-7 -13h6v-7zM470 218l5 -4v4l-4 4l5 5l8 -9
v9l-7 3v7l-7 -7v-12zM544 397h4l4 -3l3 7l5 3l-5 -14v-5h-3zM468 242l4 -5l5 26l-9 -14v-7zM417 142l4 -10h2l6 8l-6 3l-2 3zM557 340l-5 10l4 4l9 -18zM430 120l5 2l2 7h3v-12h-7zM500 215l8 8v-12h-5zM449 174l2 -3h3v5l-3 5l-7 -4l3 -3h2zM520 282l4 -5h4l-4 7v7l-4 -5
v-4zM545 286l-4 3h11v-7h-4zM534 373l9 -7v6l-9 5v-4zM120 12l-7 7h4l10 -7h-7zM484 178h5l5 5v5zM372 507l2 -2l5 4v5zM496 228l2 -3l3 3v4zM559 390h3v-5h-3v5zM363 86l4 -4v7zM379 108l2 -2v7h-2v-5zM500 258l3 -7v7h-3zM517 218l3 3v-3l-3 -4v4zM508 376v-5l2 2v5z
M362 120v-3h3v3h-3zM390 258l3 -2v5zM527 371l-3 -2h5v2h-2zM318 35h2v-2h-5zM522 301l2 -3v5zM435 193l2 -3v5zM527 397l-3 -3h3v3zM264 26l2 -2v4zM536 317l2 -2v4zM505 394l3 -2v2h-3zM477 197l3 -2v2h-3zM522 465l-2 -3h2v3zM466 178l-3 -2h3v2zM388 129l-2 -2h2v2z
M182 721v9h-4l-2 -6l-13 15l-4 9l1 7l-2 5v14l2 3v4l4 6v4l6 5l-4 3v4h4l4 -2v5l7 15l19 -9l2 -8l6 -4l6 -1l1 -4l10 -8l2 -2l8 -5v-4l11 -15v-7l-3 -1l-7 -7l-16 -6l-12 -10h-12l-4 -2l1 -9l-2 -7zM341 725l4 19l-1 -1l-5 -9h-5l-5 4l-3 8l9 14h-1l-3 -3l-7 7v13l6 18l7 13
l8 3l7 15h3l2 -3l7 -2v-4h7v-11h-2l9 -4l5 4v-9l3 -5l3 -2l8 -6l4 -11l6 -8l-1 -11l-11 -20h-4v1l-5 2l-4 -2l-11 2h-18l-6 3l3 -7l-3 -2v-3l3 -2v-3zM154 754h4l-4 -3v3zM189 806h3v2zM360 813v-1h1v1h-1z" />
    <glyph glyph-name="Oslash" unicode="&#xd8;" horiz-adv-x="585" 
d="M226 -17v14h-6v-8l-4 -5l-8 5l-5 5h-18l-12 6h-6v29l-2 2h-7l-5 4h-7l-14 10l-16 3l-24 15l-28 29l-10 16h-4l3 -17l25 -37l35 -35l-14 5l-14 14h-9l-18 23l-19 38l-8 33l-2 30l-2 7l-7 40v92l14 61l3 19l8 9v11l5 5l5 19l4 7v9l7 7l3 12l9 19l5 5l6 17l36 53l44 51l10 8
l14 14l12 9l50 25l25 6l31 2l7 -7h4l1 -1l1 2v24h10l3 -8l3 2h16v-6l-5 -8h17v4l2 2v-8l2 -10v-3l2 -5v-2l6 4l12 -7h4l17 -18v-14l-8 -29l30 -8l5 -3l17 -5l32 -32l23 -35v-7h4l6 -12l12 -19v-30h14v-10l-4 -4l6 -3v-2h-9l-7 5l-3 -3l4 -13l-8 -17h14l4 4l3 -18l7 -3l-3 -2
h-7v-9l-2 -5l-3 16l-4 -4v-7l-5 7l-2 -3v-7l7 -12l-7 -7l2 -2l4 4l3 -9h10l7 -9v-5l-8 8l-6 -10v-9l-5 -10v-7l-2 -5l4 -7l-6 -6l-4 8l-12 -17l6 -8v-5l3 -6l-8 -4v8h-5v14l-7 -14v-7l8 -4l-17 -11v-37l-8 -16l-13 14l-2 -3v-9l5 -6l-3 -3l-3 -7l-4 4l-5 -4h-4l7 9v9l-12 -4
l-7 -4l-3 6h-7v-28l-11 -11l-3 -15l-4 -7h-5l7 14v2l-13 -12l-4 -13h-9v4l2 3l10 11l2 5l5 5v14l-12 -12v-7h-3l-4 -7h-5l-2 2l-2 -2v-14l4 -9v-17l-4 -5h-7l7 24h-4l-7 -28l-4 8l-16 -22h-2v9h-5l-5 -16h-7v15l-11 -6l-7 -7l2 -2l2 4h7l-7 -9h-21v-14h-12l-7 2l-5 -6l-4 4
l-5 -5h-2v-1h-6v1h-11l-6 -4l3 -2l2 2h2v-2l-5 -6l5 -10l-7 -2h-3l-2 -13l-3 3l-1 10h-2l-4 -18zM149 136l9 -4h19l19 95l12 38l4 17l59 202l10 24l4 29l-44 -35l-52 -72l-3 -7l-8 -13l-13 -32l-9 -19l-7 -23v-5l-7 -14l-5 -33l-2 -5v-11l-3 -5v-7l3 -3l-3 -11v-14l3 -5v-21
l3 -32zM390 484l-7 7l-9 -37l-4 -8l-4 -18l-4 -11v-6l-4 -8l-10 -40l-1 -3v-6l-10 -34l-3 -2l-15 -57v-16l-10 -19l-3 -20l-7 -14v-12l-2 -6l9 9h7l2 7h7v11l9 -5l4 14l6 -3v9h9l8 7l2 5l13 10l3 6l7 7l3 10l4 4l3 5h11l10 15v8l5 3v7h7l2 7l9 9v16l7 3v7l5 2l2 17l5 9l5 14
v36l-5 20l-16 24l-19 10l-2 2l-10 5h-19zM444 143l5 5l4 11l5 5v-7l-4 -7l6 -11h-9l-7 -4v8zM489 228l2 -3l3 7v7l2 5v7l-6 -3l-7 -13h6v-7zM470 218l5 -4v4l-4 4l5 5l8 -9v9l-7 3v7l-7 -7v-12zM544 397h4l4 -3l3 7l5 3l-5 -14v-5h-3zM301 243l-2 -19h2l4 7v8l4 4l-2 2z
M468 242l4 -5l5 26l-9 -14v-7zM417 142l4 -10h2l6 8l-6 3l-2 3zM557 340l-5 10l4 4l9 -18zM430 120l5 2l2 7h3v-12h-7zM271 164v-1l7 4l1 3l8 2l-2 2l-7 3l-2 -8zM500 215l8 8v-12h-5zM449 174l2 -3h3v5l-3 5l-7 -4l3 -3h2zM520 282l4 -5h4l-4 7v7l-4 -5v-4zM545 286l-4 3
h11v-7h-4zM261 -1l-1 1v20l4 -7zM534 373l9 -7v6l-9 5v-4zM120 12l-7 7h4l10 -7h-7zM281 182l3 -2h8v4h-8zM484 178h5l5 5v5zM303 273l6 -2v11h-2l-2 -8zM315 308l8 -8v8h-8zM292 200v-4h1l5 5l-3 2zM332 670l2 -3l3 2v4h-3zM320 320l3 -8h1v8h-4zM496 228l2 -3l3 3v4z
M303 294h4v4h-4v-4zM344 401h4v4h-4v-4zM559 390h3v-5h-3v5zM363 86l4 -4v7zM313 282l2 -8l1 5v3h-3zM379 108l2 -2v7h-2v-5zM340 677v-4h2l2 2l-2 2h-2zM329 339v-5l2 2v6zM517 218l3 3v-3l-3 -4v4zM500 258l3 -7v7h-3zM386 502h-2v-6l2 2v4zM508 376v-5l2 2v5zM362 120v-3
h3v3h-3zM301 253v-2h2l2 4zM390 258l3 -2v5zM527 371l-3 -2h5v2h-2zM318 35h2v-2h-5zM293 231v-2h2v5zM309 257l2 -2v4h-2v-2zM281 231l3 -4v4h-3zM316 292v-2l3 2v2zM522 301l2 -3v5zM435 193l2 -3v5zM527 397l-3 -3h3v3zM536 317l2 -2v4zM268 169v-3h1v4zM505 394l3 -2v2
h-3zM477 197l3 -2v2h-3zM466 178l-3 -2h3v2zM522 465l-2 -3h2v3zM388 129l-2 -2h2v2zM260 -8h1v-1h-1v1z" />
    <glyph glyph-name="Ugrave" unicode="&#xd9;" horiz-adv-x="472" 
d="M123 14l-15 11l-14 4l-11 12l-14 21l-8 23l-6 12l-18 61l-13 69v7l-4 27v112l7 118l13 97v11l2 11l5 52v18l16 -2v-5h11l6 -6l3 -5l10 3l5 -3v-8l7 -3l-3 -4l5 -4l10 5l20 -19l14 -8l5 -11l-3 -27v-13l-4 -15l-5 -68v-15l-9 -17l4 -244l8 -7l13 12l18 27l9 11l4 10l13 18
l12 19l9 19l12 11v9l17 29v4l9 14l9 27l5 7l4 11l6 9l10 35l9 15l5 22l13 17l9 26v9l4 9l3 14l20 45h6l4 -15l4 3l4 9v-9l-3 -6l3 -3l5 5v9h4v-6l6 -16h3l9 8l2 -7h8l-4 -10l3 -5v-9l8 -4l-5 -19l3 -3l6 15v9l4 4l-3 3v4h5l4 5v-7l-4 -7v-7h4l-9 -12v-13l-1 -2l-3 5h-4v-9h8
l-5 -9l4 -4l10 22v-7l-4 -19l-6 -4v-2h6v-11l-2 4h-4l-5 -7v-26h6l14 17v-4l-6 -16l-8 -5l-4 -8h-2v8h-7l-4 -13l-6 -3l10 -5l16 13v-5l-4 -4v-7l-5 -9l-4 5h-12v-7l11 -16l-6 -9l-5 9v9h-4l-7 -13l8 -4v-16h-13l-2 -3l-8 -5l5 -6l14 -3l-9 -17l-6 -21l-6 -5l-3 -11l-7 4
v-10l-3 -3l-6 4v-4l6 -6v-7l-6 7h-7v-10l10 -4l-8 -15l-2 -3v-9l-9 -9l-7 -21l-7 -4l-7 -13l-4 -5l3 -6l-5 -3l-9 -13l-7 -14l-9 -13l-6 -14l-23 -22l-5 -9l-9 -12l-18 -20l-8 -6l-3 -5l-5 -5l-10 -17v4l5 11h-4l-10 -7l-13 -12l-10 -4l-20 -14l4 8l5 5h-9l-7 -5l-14 -7
l-12 -17l15 -7l26 9l39 35v-7l-25 -22l-2 -3l-5 -1l-15 -11l-19 -3zM80 54l16 -16v7l-12 24h-8zM98 45l6 -4h10l7 6l3 -6l8 8l-9 2l-2 3l-6 3l-2 -6zM376 364v-15h2l9 9zM290 428v-9h3l4 9v9h-2zM358 333l3 -2l8 3v6h-5zM274 406v-8h3l3 8h-6zM401 579l1 -2l8 6h-8zM344 283
l2 -1l3 1v5h-3zM306 468v-4h5v4h-5zM317 496l2 -3l2 3v4h-2zM439 527h3l-3 -9v9zM435 502l4 3v-5h-3zM324 248v-3h3v3h-3zM340 277l-3 -3h3l2 3h-2zM337 268l3 -3l2 3h-5zM450 545l2 4v-2l-2 -7v5zM394 406l2 -3l2 3h-4zM319 236v-2h2v2h-2zM293 189l2 -2h2l-2 2h-2z
M441 513l2 2v-2l-2 -2v2zM186 797l3 -3v-2l-3 2v3zM202 794v7h-3zM202 780h4v4h-4v-4zM294 699l-9 -9l-11 -2h-7l-13 13l-10 16l-47 62l-4 3v7l2 -2v1l-3 6h5v4l-4 4v1h1l1 -1h3l1 5l2 -2h1v9l5 5l-1 3v5l1 -4l3 3l4 2v4l-3 6l2 3l-4 3v4l2 -3h6v6h6l39 -42l23 -28l2 -4
l6 -6l23 -34l-2 -5l4 -7l-3 -1l-4 -5l3 -6l-3 1h-4l-4 -6h-7l-2 -5v-4z" />
    <glyph glyph-name="Uacute" unicode="&#xda;" horiz-adv-x="472" 
d="M123 14l-15 11l-14 4l-11 12l-14 21l-8 23l-6 12l-18 61l-13 69v7l-4 27v112l7 118l13 97v11l2 11l5 52v18l16 -2v-5h11l6 -6l3 -5l10 3l5 -3v-8l7 -3l-3 -4l5 -4l10 5l20 -19l14 -8l5 -11l-3 -27v-13l-4 -15l-5 -68v-15l-9 -17l4 -244l8 -7l13 12l18 27l9 11l4 10l13 18
l12 19l9 19l12 11v9l17 29v4l9 14l9 27l5 7l4 11l6 9l10 35l9 15l5 22l13 17l9 26v9l4 9l3 14l20 45h6l4 -15l4 3l4 9v-9l-3 -6l3 -3l5 5v9h4v-6l6 -16h3l9 8l2 -7h8l-4 -10l3 -5v-9l8 -4l-5 -19l3 -3l6 15v9l4 4l-3 3v4h5l4 5v-7l-4 -7v-7h4l-9 -12v-13l-1 -2l-3 5h-4v-9h8
l-5 -9l4 -4l10 22v-7l-4 -19l-6 -4v-2h6v-11l-2 4h-4l-5 -7v-26h6l14 17v-4l-6 -16l-8 -5l-4 -8h-2v8h-7l-4 -13l-6 -3l10 -5l16 13v-5l-4 -4v-7l-5 -9l-4 5h-12v-7l11 -16l-6 -9l-5 9v9h-4l-7 -13l8 -4v-16h-13l-2 -3l-8 -5l5 -6l14 -3l-9 -17l-6 -21l-6 -5l-3 -11l-7 4
v-10l-3 -3l-6 4v-4l6 -6v-7l-6 7h-7v-10l10 -4l-8 -15l-2 -3v-9l-9 -9l-7 -21l-7 -4l-7 -13l-4 -5l3 -6l-5 -3l-9 -13l-7 -14l-9 -13l-6 -14l-23 -22l-5 -9l-9 -12l-18 -20l-8 -6l-3 -5l-5 -5l-10 -17v4l5 11h-4l-10 -7l-13 -12l-10 -4l-20 -14l4 8l5 5h-9l-7 -5l-14 -7
l-12 -17l15 -7l26 9l39 35v-7l-25 -22l-2 -3l-5 -1l-15 -11l-19 -3zM80 54l16 -16v7l-12 24h-8zM98 45l6 -4h10l7 6l3 -6l8 8l-9 2l-2 3l-6 3l-2 -6zM376 364v-15h2l9 9zM290 428v-9h3l4 9v9h-2zM358 333l3 -2l8 3v6h-5zM274 406v-8h3l3 8h-6zM401 579l1 -2l8 6h-8zM344 283
l2 -1l3 1v5h-3zM306 468v-4h5v4h-5zM317 496l2 -3l2 3v4h-2zM439 527h3l-3 -9v9zM435 502l4 3v-5h-3zM324 248v-3h3v3h-3zM340 277l-3 -3h3l2 3h-2zM337 268l3 -3l2 3h-5zM450 545l2 4v-2l-2 -7v5zM394 406l2 -3l2 3h-4zM319 236v-2h2v2h-2zM293 189l2 -2h2l-2 2h-2z
M441 513l2 2v-2l-2 -2v2zM188 692l-9 9v4l-2 5h-7l-4 6h-4l-3 -1l3 6l-4 5l-3 1l4 7l-2 5l23 34l6 6l2 4l23 28l39 42h6v-6h6l2 3v-4l-4 -3l2 -3l-3 -6v-4l4 -2l3 -3l1 4v-5l-1 -3l5 -5v-9h1l2 2l1 -5h3l1 1h1v-1l-4 -4v-4h5l-3 -6v-1l2 2v-7l-4 -3l-47 -62l-10 -16l-13 -13
h-7zM267 782h4v4h-4v-4zM269 833l2 1l1 -2l3 1v-3h-4zM271 803v-7l3 7h-3zM284 796l3 3v-3l-3 -2v2zM275 825h1v-1l-4 -2z" />
    <glyph glyph-name="Ucircumflex" unicode="&#xdb;" horiz-adv-x="472" 
d="M123 14l-15 11l-14 4l-11 12l-14 21l-8 23l-6 12l-18 61l-13 69v7l-4 27v112l7 118l13 97v11l2 11l5 52v18l16 -2v-5h11l6 -6l3 -5l10 3l5 -3v-8l7 -3l-3 -4l5 -4l10 5l20 -19l14 -8l5 -11l-3 -27v-13l-4 -15l-5 -68v-15l-9 -17l4 -244l8 -7l13 12l18 27l9 11l4 10l13 18
l12 19l9 19l12 11v9l17 29v4l9 14l9 27l5 7l4 11l6 9l10 35l9 15l5 22l13 17l9 26v9l4 9l3 14l20 45h6l4 -15l4 3l4 9v-9l-3 -6l3 -3l5 5v9h4v-6l6 -16h3l9 8l2 -7h8l-4 -10l3 -5v-9l8 -4l-5 -19l3 -3l6 15v9l4 4l-3 3v4h5l4 5v-7l-4 -7v-7h4l-9 -12v-13l-1 -2l-3 5h-4v-9h8
l-5 -9l4 -4l10 22v-7l-4 -19l-6 -4v-2h6v-11l-2 4h-4l-5 -7v-26h6l14 17v-4l-6 -16l-8 -5l-4 -8h-2v8h-7l-4 -13l-6 -3l10 -5l16 13v-5l-4 -4v-7l-5 -9l-4 5h-12v-7l11 -16l-6 -9l-5 9v9h-4l-7 -13l8 -4v-16h-13l-2 -3l-8 -5l5 -6l14 -3l-9 -17l-6 -21l-6 -5l-3 -11l-7 4
v-10l-3 -3l-6 4v-4l6 -6v-7l-6 7h-7v-10l10 -4l-8 -15l-2 -3v-9l-9 -9l-7 -21l-7 -4l-7 -13l-4 -5l3 -6l-5 -3l-9 -13l-7 -14l-9 -13l-6 -14l-23 -22l-5 -9l-9 -12l-18 -20l-8 -6l-3 -5l-5 -5l-10 -17v4l5 11h-4l-10 -7l-13 -12l-10 -4l-20 -14l4 8l5 5h-9l-7 -5l-14 -7
l-12 -17l15 -7l26 9l39 35v-7l-25 -22l-2 -3l-5 -1l-15 -11l-19 -3zM80 54l16 -16v7l-12 24h-8zM98 45l6 -4h10l7 6l3 -6l8 8l-9 2l-2 3l-6 3l-2 -6zM376 364v-15h2l9 9zM290 428v-9h3l4 9v9h-2zM358 333l3 -2l8 3v6h-5zM274 406v-8h3l3 8h-6zM401 579l1 -2l8 6h-8zM344 283
l2 -1l3 1v5h-3zM306 468v-4h5v4h-5zM317 496l2 -3l2 3v4h-2zM439 527h3l-3 -9v9zM435 502l4 3v-5h-3zM324 248v-3h3v3h-3zM340 277l-3 -3h3l2 3h-2zM337 268l3 -3l2 3h-5zM450 545l2 4v-2l-2 -7v5zM394 406l2 -3l2 3h-4zM319 236v-2h2v2h-2zM293 189l2 -2h2l-2 2h-2z
M441 513l2 2v-2l-2 -2v2zM309 695l-15 16l-3 1l-27 32l-23 48h-2l-5 -6l-24 -40l-7 -14l-10 -13l-1 -3l-12 -5h-11l-2 6l-3 -1l-1 3l-2 1l2 6v6h-2l-4 -5l-4 -3l-2 1l2 9l-10 2l-3 6l-2 -6l-3 5h-3v13l3 8l4 3l2 7l9 16l6 8l2 3l3 2l2 6l4 5v3l5 5v5l11 10v7h1l1 -2l5 8v4
l1 1l1 -2l6 10l3 8l3 1l1 6l4 5l1 3h2l1 -5h6v5h-5v3h7l2 -3v-3h2l1 3l5 -2l4 -6l4 -2v-4h2l2 4v4h1l3 -2v-6l5 -12l2 6h3l2 -4h3l2 -5h1l2 2l3 -4h5l5 -2l6 -12l4 -4l16 -39l25 -39l39 -37l4 -8l-3 -1v-3l-5 5h-3l-1 -2l-1 1l-3 1l-6 6l-2 -3l-1 -2v-2l-2 2v3l-3 -1h-4
l3 -5h-2l-4 4l-2 -2h-4l-7 -1l3 -5l-7 5l-5 -3l-30 25h-3l4 -6l2 -2l3 -6l25 -26l-2 -1zM206 874l2 -1l1 1v2h-1zM216 876l1 -2h1v2h-2z" />
    <glyph glyph-name="Udieresis" unicode="&#xdc;" horiz-adv-x="472" 
d="M123 14l-15 11l-14 4l-11 12l-14 21l-8 23l-6 12l-18 61l-13 69v7l-4 27v112l7 118l13 97v11l2 11l5 52v18l16 -2v-5h11l6 -6l3 -5l10 3l5 -3v-8l7 -3l-3 -4l5 -4l10 5l20 -19l14 -8l5 -11l-3 -27v-13l-4 -15l-5 -68v-15l-9 -17l4 -244l8 -7l13 12l18 27l9 11l4 10l13 18
l12 19l9 19l12 11v9l17 29v4l9 14l9 27l5 7l4 11l6 9l10 35l9 15l5 22l13 17l9 26v9l4 9l3 14l20 45h6l4 -15l4 3l4 9v-9l-3 -6l3 -3l5 5v9h4v-6l6 -16h3l9 8l2 -7h8l-4 -10l3 -5v-9l8 -4l-5 -19l3 -3l6 15v9l4 4l-3 3v4h5l4 5v-7l-4 -7v-7h4l-9 -12v-13l-1 -2l-3 5h-4v-9h8
l-5 -9l4 -4l10 22v-7l-4 -19l-6 -4v-2h6v-11l-2 4h-4l-5 -7v-26h6l14 17v-4l-6 -16l-8 -5l-4 -8h-2v8h-7l-4 -13l-6 -3l10 -5l16 13v-5l-4 -4v-7l-5 -9l-4 5h-12v-7l11 -16l-6 -9l-5 9v9h-4l-7 -13l8 -4v-16h-13l-2 -3l-8 -5l5 -6l14 -3l-9 -17l-6 -21l-6 -5l-3 -11l-7 4
v-10l-3 -3l-6 4v-4l6 -6v-7l-6 7h-7v-10l10 -4l-8 -15l-2 -3v-9l-9 -9l-7 -21l-7 -4l-7 -13l-4 -5l3 -6l-5 -3l-9 -13l-7 -14l-9 -13l-6 -14l-23 -22l-5 -9l-9 -12l-18 -20l-8 -6l-3 -5l-5 -5l-10 -17v4l5 11h-4l-10 -7l-13 -12l-10 -4l-20 -14l4 8l5 5h-9l-7 -5l-14 -7
l-12 -17l15 -7l26 9l39 35v-7l-25 -22l-2 -3l-5 -1l-15 -11l-19 -3zM80 54l16 -16v7l-12 24h-8zM98 45l6 -4h10l7 6l3 -6l8 8l-9 2l-2 3l-6 3l-2 -6zM376 364v-15h2l9 9zM290 428v-9h3l4 9v9h-2zM358 333l3 -2l8 3v6h-5zM274 406v-8h3l3 8h-6zM401 579l1 -2l8 6h-8zM344 283
l2 -1l3 1v5h-3zM306 468v-4h5v4h-5zM317 496l2 -3l2 3v4h-2zM439 527h3l-3 -9v9zM435 502l4 3v-5h-3zM324 248v-3h3v3h-3zM340 277l-3 -3h3l2 3h-2zM337 268l3 -3l2 3h-5zM450 545l2 4v-2l-2 -7v5zM394 406l2 -3l2 3h-4zM319 236v-2h2v2h-2zM293 189l2 -2h2l-2 2h-2z
M441 513l2 2v-2l-2 -2v2zM138 695v9h-4l-2 -6l-13 15l-4 9l1 7l-2 5v14l2 3v4l4 6v4l6 5l-4 3v4h4l4 -2v5l7 15l19 -9l2 -8l6 -4l6 -1l1 -4l10 -8l2 -2l8 -5v-4l11 -15v-7l-3 -1l-7 -7l-16 -6l-12 -10h-12l-4 -2l1 -9l-2 -7zM297 699l4 19l-1 -1l-5 -9h-5l-5 4l-3 8l9 14h-1
l-3 -3l-7 7v13l6 18l7 13l8 3l7 15h3l2 -3l7 -2v-4h7v-11h-2l9 -4l5 4v-9l3 -5l3 -2l8 -6l4 -11l6 -8l-1 -11l-11 -20h-4v1l-5 2l-4 -2l-11 2h-18l-6 3l3 -7l-3 -2v-3l3 -2v-3zM110 728h4l-4 -3v3zM145 780h3v2zM316 787v-1h1v1h-1z" />
    <glyph glyph-name="Yacute" unicode="&#xdd;" horiz-adv-x="500" 
d="M289 -76l-16 3l-4 4l-3 -6h-11l-4 7l-8 2l-5 5h-2l-7 5l-7 -7l-3 -7l-7 2l-2 9l-5 5l-5 58l3 59l7 47l25 96l-4 8l-40 40l-120 178l-28 56l-23 61v10l7 -5l2 9l5 7l-7 22l-6 29l4 4l14 -10l5 5l-14 21l4 5h2l3 2l-3 5h-7l-2 21l3 3l11 -8l5 2v-4h9l5 -19h4l7 -7h9l22 -19
l12 -2l10 -15l12 -4l8 -12l10 -28l37 -75l14 -21l7 -14l69 -104h5l4 15l4 9l52 172l5 30l4 14l6 32l9 17v26h9l5 -2h7l9 -10l5 -2l9 -9l10 -3l4 -9l5 -5l2 -5l7 -2l-4 -2h-7l-3 -3l7 -4h10v-6l11 -6l3 -6l7 -3l7 -7l7 -4v-8l-12 -28v-12l-5 -14l-2 -12l-7 -21l-2 -24l-5 -9
v-21l-7 -14l-2 -12l-3 -2v-7l-7 -7v-14l-9 -19v-19l-3 -5l-3 -15l-6 -6v-4l-7 -15v-4l-5 -21l-4 -7l-3 -12l-4 -7l-3 -14h-11l9 -10l-12 -19v-11l-4 -5l-4 -24l-8 -13v-5l-5 -19l-5 -2l3 -6l-4 -8l-3 -14l-3 -5l-4 -24v-4l-10 -45v-28l-2 -14v-10l-2 -7v-14l-3 -7v7l-9 10
l-5 -5l5 -7v-7l4 -8l-8 -8zM306 -47l8 -4l-8 16h-7v-12h7zM323 108h9v2l-5 5l-2 5h-2v-12zM344 148l3 -3l4 9l-3 3l-4 -4v-5zM310 12l3 -3l6 6l-5 5zM354 189l4 -3l6 5l-4 4zM71 650v4l9 -4l-4 -4zM328 95l4 -3l5 4l-4 4zM78 629l5 -5l3 3l-5 5zM306 35v-7h3l2 5l-2 2h-3z
M381 263l-2 -7h5v7h-3zM316 -84l3 3l-3 4v2l4 -2v-5l-4 -7v5zM334 157l4 -3l3 3l-3 4zM332 134l2 -2l7 7h-4zM311 -12l2 -2l3 2l-3 3zM428 423l3 -3l2 3l-2 2zM395 315v-3h3l2 3h-5zM341 176l3 -2l2 2l-2 2zM240 237l3 -2l2 2l-2 2zM367 239l5 -4v4h-5zM391 291l2 -2l2 2
l-2 2h-2v-2zM358 254v-3h2v5zM222 357l2 -2l2 2l-2 2zM36 664l3 -2h2l-2 2h-3zM416 371v-2h3zM412 345l-3 -2h3v2zM318 35v-2h2zM172 690l-9 9v4l-2 5h-7l-4 6h-4l-3 -1l3 6l-4 5l-3 1l4 7l-2 5l23 34l6 6l2 4l23 28l39 42h6v-6h6l2 3v-4l-4 -3l2 -3l-3 -6v-4l4 -2l3 -3l1 4
v-5l-1 -3l5 -5v-9h1l2 2l1 -5h3l1 1h1v-1l-4 -4v-4h5l-3 -6v-1l2 2v-7l-4 -3l-47 -62l-10 -16l-13 -13h-7zM251 780h4v4h-4v-4zM253 831l2 1l1 -2l3 1v-3h-4zM255 801v-7l3 7h-3zM268 794l3 3v-3l-3 -2v2zM259 823h1v-1l-4 -2z" />
    <glyph glyph-name="germandbls" unicode="&#xdf;" horiz-adv-x="547" 
d="M368 -32l24 14l5 9h-7l-29 -13l-18 -6v7l-17 5v2l12 5v4l-2 2l-2 4l-5 4v2l-6 4l-2 5l-23 16l3 2v4l-20 8v7h13l-6 3l3 7l-12 10h4l5 -1h8v5l-13 9l5 2h10v3l-2 3l-2 7l-11 8l-2 8l-4 7l4 3l5 -4l2 2h8l7 -4l7 -2l2 -2h11l20 -13h7l19 17l7 12l4 13l5 6l17 42l5 41v29
l-3 6v12l-7 12l-34 3l-54 -10l-27 -17h-15l-27 -18l-3 4l-4 -7h-11l-5 7l-7 -7h-4l9 13v5h-5v15h-4l-3 -6h-6l-5 -4l-5 8l-5 -2l4 7l-4 8l-6 2l4 6v4l10 8v7h-8l-3 2l-6 -2l4 8l3 14l12 15l21 20l19 16l9 18l10 15l12 23l16 42l-2 2l-5 -2l2 4l5 4v3h-2v40l-5 9l-7 30
l-13 21l-9 5l-11 -4l-15 -13l-7 -2l-16 -19l-28 -46l5 -3l-19 -48l-10 -11v-7l2 -3l-2 -16h-2v8l-3 -2v-12l3 -2l-3 -2l-4 -19v-51h4v-19l3 -16v-34l6 -48l4 -9l2 -19l2 -4l4 -30l3 -5l7 -38l5 -18v-6l4 -15l5 2v-8l-2 3v-19h5v14l4 -12l-4 -8l2 -5l3 4l9 -35l-5 8l-4 17v-9
l4 -19h5l4 -16l3 -4l-5 -4v4h-3l-5 -8l-36 -15l-18 6l-10 21h-4l3 -20l-2 -2l-4 21l-10 -4v7l-3 3l-3 11l-4 3l-5 -3l-4 10v-13l-5 -8l-2 2l-2 9l-3 7l-5 32l-9 7l-28 151l-3 8v13l-3 4v23l-9 48v3l-4 120l2 11l2 22l2 7v8l10 27l5 8v9l7 10l5 21l9 14l2 2l14 22h8v3l-5 4
l7 2l2 9l7 6l3 -3l-3 -3l-4 -11l-4 -7h4l8 11h5l-13 -19v-2l11 10l2 7l8 8l3 6l2 3l9 12l9 8l13 16l7 3l4 6l12 10v4h7l5 7h2v-2h7l5 5h-7l34 24h6l9 5v-4l-4 -7l9 -2l2 -3h-11l-29 -23l-2 -1l-13 -3l-6 -10l-15 -6l-13 -15v-4h2l19 17h7v6l26 9v7h4v-8l4 -2l9 9h10l3 6
l5 -5l12 -2l8 -16l6 6v6h3v5l-14 9h-5l-9 10l14 5l4 4h10v-1l-3 -3l5 -10v-5h15l2 -1l5 -2v-7l9 -5l7 -9l2 5l7 -3l17 -12v-7l4 -2l8 -12l4 -9l8 -12v-12l4 -9v-4l3 -6l6 -29v-4l3 -21v-6l4 -8v-64l-2 -4v-21l-11 -17v-6l-5 -10v-6l35 -10l12 -11l14 -6l8 -7l6 -2v-14l3 2h7
l6 -8l5 -4l5 -9l12 -10v-8l7 -6v10h2l9 -15l5 -3l8 -13v-4l-8 6v-8l13 -7l2 -16l2 -4v-8l5 -21l-7 -3l4 -7v-14l-7 -4l9 -8l-4 -9v-3l-2 -3v-5l-5 -4l5 -4l-7 -6h-2v-4h4v-9h-9l5 -14l-6 -7v-10l-5 -8l-3 -11l-10 -10h-5v-5l10 5l-14 -27l-31 -27l-22 -6l-21 -25l-26 -20
h-10zM270 601l13 -13v6l-4 10l-11 18h-15zM97 636l8 4l7 10l5 4l4 13h5l9 8v-7l-9 -8l-12 -14l-2 -4l-6 -4l-3 -10zM140 679l28 25v-4l-5 -5h-2l-7 -9l-10 -7h-4zM137 628v-5h3l6 7v6zM117 642l27 25l-23 -25h-4zM206 729l15 6v-4l-15 -4v2zM506 215l5 -4l2 7h-2zM86 590v-6
h2l4 6h-6zM291 675l5 -4l2 2v4zM495 128l3 -5l2 6l-2 2zM352 400v-4h5v4h-5zM472 67v-6h3v6h-3zM163 516l-2 -4h5v4h-3zM152 642v-4h2l3 2l-3 2h-2zM369 497l9 -3v3h-9zM444 27l-4 -3h4l5 3h-5zM243 700l3 2v-5h-3v3zM367 566v-7l2 2v5h-2zM489 119l7 -3v3h-7zM290 689v-2h4
v2h-4zM277 63h4v-4zM338 598v-2l3 2v3zM513 232l2 -2v7zM310 46v-4h2v3zM345 13v-2l5 2h-5zM359 414l2 -2v5zM376 476l2 -1v3h-2v-2zM518 177l-3 -3h3v3zM55 553v-2h2v2h-2zM69 63h2v-4zM253 724h3v-2zM491 193v-1h3v1h-3zM496 200v-3h2zM86 596v-3l2 1zM194 722v-1h-2z
M505 162v-2l2 2h-2zM371 483l-2 -2h2v2zM46 530v-2h2zM270 55h2v-2zM505 173l2 -2v2h-2zM283 687v-1l3 1h-3z" />
    <glyph glyph-name="agrave" unicode="&#xe0;" horiz-adv-x="486" 
d="M387 -12v5h-3l-2 -5l-8 3l-5 -2l-4 6l-9 4l-4 12l-12 77l-2 4v10l-8 -5v-6l3 -2l-7 -5v-1h6l2 -1l-10 -10h-8l1 -7h-10l-6 -8l1 -10h-5l-3 -3h-5l-2 -2h-5l-10 -7h-10l-5 -7l-11 -3l-14 -12l-15 -5l-50 -3l-67 12l-25 10l-11 12l-6 3l-20 27l-2 15l1 5l6 -14l4 -4l-3 22
l-6 8l-3 6h-3l3 -18h-2l-3 24h-4l-1 -21l-3 4l1 27l-3 25l10 28v14l19 20l9 4l9 13l45 22l17 13l38 15l95 22l19 1l30 11l-4 2l3 5l-16 40l-4 3l-17 6l-35 -2l-7 1l-20 -1l-1 1l1 3l46 2l29 -1l-22 6l-73 -4l-7 -5l-35 -17l-22 -8l-3 2l-12 -4l-2 2l-9 -1l-1 -4h-6l-5 3
l-11 -1l1 2l10 3l12 15l1 11h-1l-1 -3l-7 -2l-3 -6l-8 9l-5 2l-2 5h-1v4l-8 1l6 11l-7 12h-5v3l3 4h4l5 5v2l-5 -1l-2 8l9 6l1 4v12l26 15l13 5l2 2l44 18h6l12 5l53 8l10 -4l19 2l8 -6l18 -1l21 -16l15 -6l7 -9h5l13 -14v-3l9 -9l4 -7h6l5 -11l11 -14l13 -13l20 -27l17 -46
l-4 -5l2 -2h3v-1l-1 -2l2 -9h-4l2 -15l-5 -2l1 -2h9v-9l3 -3l-2 -6l1 -12l6 -35l-1 -2l5 -29l-3 -14l3 -10l8 -52l-4 -8l-4 27l-2 -16l2 -16l2 -1l4 5h5l-1 -12l-6 -1l3 -68l4 -26h-5v7l-9 -1l-4 -5l-2 5l1 10h-4v-6l-9 -1l-2 -15h-6l-1 21l-4 -1l-2 -17l-6 10h-2v-11l-4 4
v14l-4 8l-3 -4l3 -22l-4 -4zM150 129l54 -1l63 18l32 14l28 7l3 6l-2 16l2 4l4 -9l-1 21l-5 15l2 -24l-2 1l-4 23l-4 6l-10 -7l-52 -10h-4l-41 -12l-4 -3l-9 -3l-27 -14l-27 -17l-16 -20l2 -2l10 -3zM71 47l21 -1l-1 2l-14 15l-3 2l-14 19l-9 4l1 -7l13 -27zM317 116v-7
l20 1v16l-7 -1l-7 -11l-1 2h-5zM455 68l4 5l2 -16l-2 -2l1 -9h-2zM433 218l7 -1l-2 4l-2 1l-3 8v-12zM461 36l-2 5h3l1 -14zM441 124v-2h6l-1 15l-2 -11zM447 4l4 -3l2 4l-4 2zM327 140l-3 -4h2l3 2zM449 29l2 -8l-1 5zM436 24l2 -4h2l-2 4h-2zM401 367l1 -2h3v2l-4 2v-2z
M334 119l1 -4l-6 -1zM429 240l-1 -3h4l2 3h-5zM306 52h2l2 -3h-3zM464 19l2 -2v-2h-2v4zM63 392h2v-2h-2v2zM409 353l3 -2v4h-2zM330 106l-1 -2l4 1v2zM448 43l1 -3h2zM41 193l-1 -3l4 1zM259 254l-1 -2h2zM29 149l-1 -2h2zM420 327v-2l2 2h-2zM423 258h2v1zM173 679l3 -3
v-2l-3 2v3zM189 676v7h-3zM189 662h4v4h-4v-4zM281 581l-9 -9l-11 -2h-7l-13 13l-10 16l-47 62l-4 3v7l2 -2v1l-3 6h5v4l-4 4v1h1l1 -1h3l1 5l2 -2h1v9l5 5l-1 3v5l1 -4l3 3l4 2v4l-3 6l2 3l-4 3v4l2 -3h6v6h6l39 -42l23 -28l2 -4l6 -6l23 -34l-2 -5l4 -7l-3 -1l-4 -5l3 -6
l-3 1h-4l-4 -6h-7l-2 -5v-4z" />
    <glyph glyph-name="aacute" unicode="&#xe1;" horiz-adv-x="486" 
d="M387 -12v5h-3l-2 -5l-8 3l-5 -2l-4 6l-9 4l-4 12l-12 77l-2 4v10l-8 -5v-6l3 -2l-7 -5v-1h6l2 -1l-10 -10h-8l1 -7h-10l-6 -8l1 -10h-5l-3 -3h-5l-2 -2h-5l-10 -7h-10l-5 -7l-11 -3l-14 -12l-15 -5l-50 -3l-67 12l-25 10l-11 12l-6 3l-20 27l-2 15l1 5l6 -14l4 -4l-3 22
l-6 8l-3 6h-3l3 -18h-2l-3 24h-4l-1 -21l-3 4l1 27l-3 25l10 28v14l19 20l9 4l9 13l45 22l17 13l38 15l95 22l19 1l30 11l-4 2l3 5l-16 40l-4 3l-17 6l-35 -2l-7 1l-20 -1l-1 1l1 3l46 2l29 -1l-22 6l-73 -4l-7 -5l-35 -17l-22 -8l-3 2l-12 -4l-2 2l-9 -1l-1 -4h-6l-5 3
l-11 -1l1 2l10 3l12 15l1 11h-1l-1 -3l-7 -2l-3 -6l-8 9l-5 2l-2 5h-1v4l-8 1l6 11l-7 12h-5v3l3 4h4l5 5v2l-5 -1l-2 8l9 6l1 4v12l26 15l13 5l2 2l44 18h6l12 5l53 8l10 -4l19 2l8 -6l18 -1l21 -16l15 -6l7 -9h5l13 -14v-3l9 -9l4 -7h6l5 -11l11 -14l13 -13l20 -27l17 -46
l-4 -5l2 -2h3v-1l-1 -2l2 -9h-4l2 -15l-5 -2l1 -2h9v-9l3 -3l-2 -6l1 -12l6 -35l-1 -2l5 -29l-3 -14l3 -10l8 -52l-4 -8l-4 27l-2 -16l2 -16l2 -1l4 5h5l-1 -12l-6 -1l3 -68l4 -26h-5v7l-9 -1l-4 -5l-2 5l1 10h-4v-6l-9 -1l-2 -15h-6l-1 21l-4 -1l-2 -17l-6 10h-2v-11l-4 4
v14l-4 8l-3 -4l3 -22l-4 -4zM150 129l54 -1l63 18l32 14l28 7l3 6l-2 16l2 4l4 -9l-1 21l-5 15l2 -24l-2 1l-4 23l-4 6l-10 -7l-52 -10h-4l-41 -12l-4 -3l-9 -3l-27 -14l-27 -17l-16 -20l2 -2l10 -3zM71 47l21 -1l-1 2l-14 15l-3 2l-14 19l-9 4l1 -7l13 -27zM317 116v-7
l20 1v16l-7 -1l-7 -11l-1 2h-5zM455 68l4 5l2 -16l-2 -2l1 -9h-2zM433 218l7 -1l-2 4l-2 1l-3 8v-12zM461 36l-2 5h3l1 -14zM441 124v-2h6l-1 15l-2 -11zM447 4l4 -3l2 4l-4 2zM327 140l-3 -4h2l3 2zM449 29l2 -8l-1 5zM436 24l2 -4h2l-2 4h-2zM401 367l1 -2h3v2l-4 2v-2z
M334 119l1 -4l-6 -1zM429 240l-1 -3h4l2 3h-5zM306 52h2l2 -3h-3zM464 19l2 -2v-2h-2v4zM63 392h2v-2h-2v2zM409 353l3 -2v4h-2zM330 106l-1 -2l4 1v2zM448 43l1 -3h2zM41 193l-1 -3l4 1zM259 254l-1 -2h2zM29 149l-1 -2h2zM420 327v-2l2 2h-2zM423 258h2v1zM175 574l-9 9v4
l-2 5h-7l-4 6h-4l-3 -1l3 6l-4 5l-3 1l4 7l-2 5l23 34l6 6l2 4l23 28l39 42h6v-6h6l2 3v-4l-4 -3l2 -3l-3 -6v-4l4 -2l3 -3l1 4v-5l-1 -3l5 -5v-9h1l2 2l1 -5h3l1 1h1v-1l-4 -4v-4h5l-3 -6v-1l2 2v-7l-4 -3l-47 -62l-10 -16l-13 -13h-7zM254 664h4v4h-4v-4zM256 715l2 1
l1 -2l3 1v-3h-4zM258 685v-7l3 7h-3zM271 678l3 3v-3l-3 -2v2zM262 707h1v-1l-4 -2z" />
    <glyph glyph-name="acircumflex" unicode="&#xe2;" horiz-adv-x="486" 
d="M387 -12v5h-3l-2 -5l-8 3l-5 -2l-4 6l-9 4l-4 12l-12 77l-2 4v10l-8 -5v-6l3 -2l-7 -5v-1h6l2 -1l-10 -10h-8l1 -7h-10l-6 -8l1 -10h-5l-3 -3h-5l-2 -2h-5l-10 -7h-10l-5 -7l-11 -3l-14 -12l-15 -5l-50 -3l-67 12l-25 10l-11 12l-6 3l-20 27l-2 15l1 5l6 -14l4 -4l-3 22
l-6 8l-3 6h-3l3 -18h-2l-3 24h-4l-1 -21l-3 4l1 27l-3 25l10 28v14l19 20l9 4l9 13l45 22l17 13l38 15l95 22l19 1l30 11l-4 2l3 5l-16 40l-4 3l-17 6l-35 -2l-7 1l-20 -1l-1 1l1 3l46 2l29 -1l-22 6l-73 -4l-7 -5l-35 -17l-22 -8l-3 2l-12 -4l-2 2l-9 -1l-1 -4h-6l-5 3
l-11 -1l1 2l10 3l12 15l1 11h-1l-1 -3l-7 -2l-3 -6l-8 9l-5 2l-2 5h-1v4l-8 1l6 11l-7 12h-5v3l3 4h4l5 5v2l-5 -1l-2 8l9 6l1 4v12l26 15l13 5l2 2l44 18h6l12 5l53 8l10 -4l19 2l8 -6l18 -1l21 -16l15 -6l7 -9h5l13 -14v-3l9 -9l4 -7h6l5 -11l11 -14l13 -13l20 -27l17 -46
l-4 -5l2 -2h3v-1l-1 -2l2 -9h-4l2 -15l-5 -2l1 -2h9v-9l3 -3l-2 -6l1 -12l6 -35l-1 -2l5 -29l-3 -14l3 -10l8 -52l-4 -8l-4 27l-2 -16l2 -16l2 -1l4 5h5l-1 -12l-6 -1l3 -68l4 -26h-5v7l-9 -1l-4 -5l-2 5l1 10h-4v-6l-9 -1l-2 -15h-6l-1 21l-4 -1l-2 -17l-6 10h-2v-11l-4 4
v14l-4 8l-3 -4l3 -22l-4 -4zM150 129l54 -1l63 18l32 14l28 7l3 6l-2 16l2 4l4 -9l-1 21l-5 15l2 -24l-2 1l-4 23l-4 6l-10 -7l-52 -10h-4l-41 -12l-4 -3l-9 -3l-27 -14l-27 -17l-16 -20l2 -2l10 -3zM71 47l21 -1l-1 2l-14 15l-3 2l-14 19l-9 4l1 -7l13 -27zM317 116v-7
l20 1v16l-7 -1l-7 -11l-1 2h-5zM455 68l4 5l2 -16l-2 -2l1 -9h-2zM433 218l7 -1l-2 4l-2 1l-3 8v-12zM461 36l-2 5h3l1 -14zM441 124v-2h6l-1 15l-2 -11zM447 4l4 -3l2 4l-4 2zM327 140l-3 -4h2l3 2zM449 29l2 -8l-1 5zM436 24l2 -4h2l-2 4h-2zM401 367l1 -2h3v2l-4 2v-2z
M334 119l1 -4l-6 -1zM429 240l-1 -3h4l2 3h-5zM306 52h2l2 -3h-3zM464 19l2 -2v-2h-2v4zM63 392h2v-2h-2v2zM409 353l3 -2v4h-2zM330 106l-1 -2l4 1v2zM448 43l1 -3h2zM41 193l-1 -3l4 1zM259 254l-1 -2h2zM29 149l-1 -2h2zM420 327v-2l2 2h-2zM423 258h2v1zM296 577l-15 16
l-3 1l-27 32l-23 48h-2l-5 -6l-24 -40l-7 -14l-10 -13l-1 -3l-12 -5h-11l-2 6l-3 -1l-1 3l-2 1l2 6v6h-2l-4 -5l-4 -3l-2 1l2 9l-10 2l-3 6l-2 -6l-3 5h-3v13l3 8l4 3l2 7l9 16l6 8l2 3l3 2l2 6l4 5v3l5 5v5l11 10v7h1l1 -2l5 8v4l1 1l1 -2l6 10l3 8l3 1l1 6l4 5l1 3h2l1 -5
h6v5h-5v3h7l2 -3v-3h2l1 3l5 -2l4 -6l4 -2v-4h2l2 4v4h1l3 -2v-6l5 -12l2 6h3l2 -4h3l2 -5h1l2 2l3 -4h5l5 -2l6 -12l4 -4l16 -39l25 -39l39 -37l4 -8l-3 -1v-3l-5 5h-3l-1 -2l-1 1l-3 1l-6 6l-2 -3l-1 -2v-2l-2 2v3l-3 -1h-4l3 -5h-2l-4 4l-2 -2h-4l-7 -1l3 -5l-7 5l-5 -3
l-30 25h-3l4 -6l2 -2l3 -6l25 -26l-2 -1zM193 756l2 -1l1 1v2h-1zM203 758l1 -2h1v2h-2z" />
    <glyph glyph-name="atilde" unicode="&#xe3;" horiz-adv-x="486" 
d="M387 -12v5h-3l-2 -5l-8 3l-5 -2l-4 6l-9 4l-4 12l-12 77l-2 4v10l-8 -5v-6l3 -2l-7 -5v-1h6l2 -1l-10 -10h-8l1 -7h-10l-6 -8l1 -10h-5l-3 -3h-5l-2 -2h-5l-10 -7h-10l-5 -7l-11 -3l-14 -12l-15 -5l-50 -3l-67 12l-25 10l-11 12l-6 3l-20 27l-2 15l1 5l6 -14l4 -4l-3 22
l-6 8l-3 6h-3l3 -18h-2l-3 24h-4l-1 -21l-3 4l1 27l-3 25l10 28v14l19 20l9 4l9 13l45 22l17 13l38 15l95 22l19 1l30 11l-4 2l3 5l-16 40l-4 3l-17 6l-35 -2l-7 1l-20 -1l-1 1l1 3l46 2l29 -1l-22 6l-73 -4l-7 -5l-35 -17l-22 -8l-3 2l-12 -4l-2 2l-9 -1l-1 -4h-6l-5 3
l-11 -1l1 2l10 3l12 15l1 11h-1l-1 -3l-7 -2l-3 -6l-8 9l-5 2l-2 5h-1v4l-8 1l6 11l-7 12h-5v3l3 4h4l5 5v2l-5 -1l-2 8l9 6l1 4v12l26 15l13 5l2 2l44 18h6l12 5l53 8l10 -4l19 2l8 -6l18 -1l21 -16l15 -6l7 -9h5l13 -14v-3l9 -9l4 -7h6l5 -11l11 -14l13 -13l20 -27l17 -46
l-4 -5l2 -2h3v-1l-1 -2l2 -9h-4l2 -15l-5 -2l1 -2h9v-9l3 -3l-2 -6l1 -12l6 -35l-1 -2l5 -29l-3 -14l3 -10l8 -52l-4 -8l-4 27l-2 -16l2 -16l2 -1l4 5h5l-1 -12l-6 -1l3 -68l4 -26h-5v7l-9 -1l-4 -5l-2 5l1 10h-4v-6l-9 -1l-2 -15h-6l-1 21l-4 -1l-2 -17l-6 10h-2v-11l-4 4
v14l-4 8l-3 -4l3 -22l-4 -4zM150 129l54 -1l63 18l32 14l28 7l3 6l-2 16l2 4l4 -9l-1 21l-5 15l2 -24l-2 1l-4 23l-4 6l-10 -7l-52 -10h-4l-41 -12l-4 -3l-9 -3l-27 -14l-27 -17l-16 -20l2 -2l10 -3zM71 47l21 -1l-1 2l-14 15l-3 2l-14 19l-9 4l1 -7l13 -27zM317 116v-7
l20 1v16l-7 -1l-7 -11l-1 2h-5zM455 68l4 5l2 -16l-2 -2l1 -9h-2zM433 218l7 -1l-2 4l-2 1l-3 8v-12zM461 36l-2 5h3l1 -14zM441 124v-2h6l-1 15l-2 -11zM447 4l4 -3l2 4l-4 2zM327 140l-3 -4h2l3 2zM449 29l2 -8l-1 5zM436 24l2 -4h2l-2 4h-2zM401 367l1 -2h3v2l-4 2v-2z
M334 119l1 -4l-6 -1zM429 240l-1 -3h4l2 3h-5zM306 52h2l2 -3h-3zM464 19l2 -2v-2h-2v4zM63 392h2v-2h-2v2zM409 353l3 -2v4h-2zM330 106l-1 -2l4 1v2zM448 43l1 -3h2zM41 193l-1 -3l4 1zM259 254l-1 -2h2zM29 149l-1 -2h2zM420 327v-2l2 2h-2zM423 258h2v1zM244 579h-8
l-11 12l-29 36l-2 5l-5 1l-1 8l32 -38l5 -8l16 -13l16 -4l18 3l2 2l-1 1l-14 2l-8 5l-3 -2l-5 5l-7 2l-18 16l-27 34l-14 14h-6l-3 -2l-1 -3l-3 -2l-1 -2h-1l-8 -8l-2 -3l-6 -8l-1 -2l-4 -5l-9 -23l-5 -7h-7l-4 -1l-7 1l-1 9l-2 -3v-2l-2 -4l-1 1v5l-2 3l-2 8h-1l-3 -1l-3 6
l-5 -3v2l-12 9v7l7 21l18 36l6 6l2 5l8 8h4l1 3l6 3l1 -2l2 2v4l5 3h2l10 1v-3h1l2 4l10 -1l3 -2l15 -7l2 -3l6 -2l2 -3h3l4 -6l6 -4l5 -5l3 -1l1 -1l2 -1l13 -14l6 -4l24 -24h10l14 4l18 14l6 10l4 25l4 4l2 6l5 6v7h3v2l-3 1l4 4l12 -11v-3l-1 -1v-3h1l5 4l2 -9h3l1 -2
l-4 -3h4l4 8v-7l2 -4l-2 -2v-8l-2 -3l-2 -4l-1 -1v-2l3 2l2 3l2 -6h-4l-2 -2l5 -6v-2l2 -2l3 2l2 -7l4 -1l2 1l-2 -3l-3 -1l-1 -2l3 -3v-3l-2 -2v-7l-1 -1l1 -8l-1 -3v-4l-5 -5l-2 4l-1 -2v-7l-2 -3h-5v-4l-5 -4l-1 -1l-3 -1l-10 -8l-16 -3l-2 -1l-10 -4l-5 3h-4v-3l-7 -1
l-10 -6h-21zM365 645h5l-1 -5l-4 -3v8zM353 648l2 -1l1 2l-1 4l-2 -2v-3zM337 608v-3h3v3h-3zM347 664l3 -1v5zM345 688l3 -1v3zM339 701v-1l3 1v2zM176 650h2l1 -2h-1zM154 718v-3l1 2v2zM143 718v-1h1v1h-1zM371 650v-2h-1z" />
    <glyph glyph-name="adieresis" unicode="&#xe4;" horiz-adv-x="486" 
d="M387 -12v5h-3l-2 -5l-8 3l-5 -2l-4 6l-9 4l-4 12l-12 77l-2 4v10l-8 -5v-6l3 -2l-7 -5v-1h6l2 -1l-10 -10h-8l1 -7h-10l-6 -8l1 -10h-5l-3 -3h-5l-2 -2h-5l-10 -7h-10l-5 -7l-11 -3l-14 -12l-15 -5l-50 -3l-67 12l-25 10l-11 12l-6 3l-20 27l-2 15l1 5l6 -14l4 -4l-3 22
l-6 8l-3 6h-3l3 -18h-2l-3 24h-4l-1 -21l-3 4l1 27l-3 25l10 28v14l19 20l9 4l9 13l45 22l17 13l38 15l95 22l19 1l30 11l-4 2l3 5l-16 40l-4 3l-17 6l-35 -2l-7 1l-20 -1l-1 1l1 3l46 2l29 -1l-22 6l-73 -4l-7 -5l-35 -17l-22 -8l-3 2l-12 -4l-2 2l-9 -1l-1 -4h-6l-5 3
l-11 -1l1 2l10 3l12 15l1 11h-1l-1 -3l-7 -2l-3 -6l-8 9l-5 2l-2 5h-1v4l-8 1l6 11l-7 12h-5v3l3 4h4l5 5v2l-5 -1l-2 8l9 6l1 4v12l26 15l13 5l2 2l44 18h6l12 5l53 8l10 -4l19 2l8 -6l18 -1l21 -16l15 -6l7 -9h5l13 -14v-3l9 -9l4 -7h6l5 -11l11 -14l13 -13l20 -27l17 -46
l-4 -5l2 -2h3v-1l-1 -2l2 -9h-4l2 -15l-5 -2l1 -2h9v-9l3 -3l-2 -6l1 -12l6 -35l-1 -2l5 -29l-3 -14l3 -10l8 -52l-4 -8l-4 27l-2 -16l2 -16l2 -1l4 5h5l-1 -12l-6 -1l3 -68l4 -26h-5v7l-9 -1l-4 -5l-2 5l1 10h-4v-6l-9 -1l-2 -15h-6l-1 21l-4 -1l-2 -17l-6 10h-2v-11l-4 4
v14l-4 8l-3 -4l3 -22l-4 -4zM150 129l54 -1l63 18l32 14l28 7l3 6l-2 16l2 4l4 -9l-1 21l-5 15l2 -24l-2 1l-4 23l-4 6l-10 -7l-52 -10h-4l-41 -12l-4 -3l-9 -3l-27 -14l-27 -17l-16 -20l2 -2l10 -3zM71 47l21 -1l-1 2l-14 15l-3 2l-14 19l-9 4l1 -7l13 -27zM317 116v-7
l20 1v16l-7 -1l-7 -11l-1 2h-5zM455 68l4 5l2 -16l-2 -2l1 -9h-2zM433 218l7 -1l-2 4l-2 1l-3 8v-12zM461 36l-2 5h3l1 -14zM441 124v-2h6l-1 15l-2 -11zM447 4l4 -3l2 4l-4 2zM327 140l-3 -4h2l3 2zM449 29l2 -8l-1 5zM436 24l2 -4h2l-2 4h-2zM401 367l1 -2h3v2l-4 2v-2z
M334 119l1 -4l-6 -1zM429 240l-1 -3h4l2 3h-5zM306 52h2l2 -3h-3zM464 19l2 -2v-2h-2v4zM63 392h2v-2h-2v2zM409 353l3 -2v4h-2zM330 106l-1 -2l4 1v2zM448 43l1 -3h2zM41 193l-1 -3l4 1zM259 254l-1 -2h2zM29 149l-1 -2h2zM420 327v-2l2 2h-2zM423 258h2v1zM125 577v9h-4
l-2 -6l-13 15l-4 9l1 7l-2 5v14l2 3v4l4 6v4l6 5l-4 3v4h4l4 -2v5l7 15l19 -9l2 -8l6 -4l6 -1l1 -4l10 -8l2 -2l8 -5v-4l11 -15v-7l-3 -1l-7 -7l-16 -6l-12 -10h-12l-4 -2l1 -9l-2 -7zM284 581l4 19l-1 -1l-5 -9h-5l-5 4l-3 8l9 14h-1l-3 -3l-7 7v13l6 18l7 13l8 3l7 15h3
l2 -3l7 -2v-4h7v-11h-2l9 -4l5 4v-9l3 -5l3 -2l8 -6l4 -11l6 -8l-1 -11l-11 -20h-4v1l-5 2l-4 -2l-11 2h-18l-6 3l3 -7l-3 -2v-3l3 -2v-3zM97 610h4l-4 -3v3zM132 662h3v2zM303 669v-1h1v1h-1z" />
    <glyph glyph-name="aring" unicode="&#xe5;" horiz-adv-x="486" 
d="M387 -12v5h-3l-2 -5l-8 3l-5 -2l-4 6l-9 4l-4 12l-12 77l-2 4v10l-8 -5v-6l3 -2l-7 -5v-1h6l2 -1l-10 -10h-8l1 -7h-10l-6 -8l1 -10h-5l-3 -3h-5l-2 -2h-5l-10 -7h-10l-5 -7l-11 -3l-14 -12l-15 -5l-50 -3l-67 12l-25 10l-11 12l-6 3l-20 27l-2 15l1 5l6 -14l4 -4l-3 22
l-6 8l-3 6h-3l3 -18h-2l-3 24h-4l-1 -21l-3 4l1 27l-3 25l10 28v14l19 20l9 4l9 13l45 22l17 13l38 15l95 22l19 1l30 11l-4 2l3 5l-16 40l-4 3l-17 6l-35 -2l-7 1l-20 -1l-1 1l1 3l46 2l29 -1l-22 6l-73 -4l-7 -5l-35 -17l-22 -8l-3 2l-12 -4l-2 2l-9 -1l-1 -4h-6l-5 3
l-11 -1l1 2l10 3l12 15l1 11h-1l-1 -3l-7 -2l-3 -6l-8 9l-5 2l-2 5h-1v4l-8 1l6 11l-7 12h-5v3l3 4h4l5 5v2l-5 -1l-2 8l9 6l1 4v12l26 15l13 5l2 2l44 18h6l12 5l53 8l10 -4l19 2l8 -6l18 -1l21 -16l15 -6l7 -9h5l13 -14v-3l9 -9l4 -7h6l5 -11l11 -14l13 -13l20 -27l17 -46
l-4 -5l2 -2h3v-1l-1 -2l2 -9h-4l2 -15l-5 -2l1 -2h9v-9l3 -3l-2 -6l1 -12l6 -35l-1 -2l5 -29l-3 -14l3 -10l8 -52l-4 -8l-4 27l-2 -16l2 -16l2 -1l4 5h5l-1 -12l-6 -1l3 -68l4 -26h-5v7l-9 -1l-4 -5l-2 5l1 10h-4v-6l-9 -1l-2 -15h-6l-1 21l-4 -1l-2 -17l-6 10h-2v-11l-4 4
v14l-4 8l-3 -4l3 -22l-4 -4zM150 129l54 -1l63 18l32 14l28 7l3 6l-2 16l2 4l4 -9l-1 21l-5 15l2 -24l-2 1l-4 23l-4 6l-10 -7l-52 -10h-4l-41 -12l-4 -3l-9 -3l-27 -14l-27 -17l-16 -20l2 -2l10 -3zM71 47l21 -1l-1 2l-14 15l-3 2l-14 19l-9 4l1 -7l13 -27zM317 116v-7
l20 1v16l-7 -1l-7 -11l-1 2h-5zM455 68l4 5l2 -16l-2 -2l1 -9h-2zM433 218l7 -1l-2 4l-2 1l-3 8v-12zM461 36l-2 5h3l1 -14zM441 124v-2h6l-1 15l-2 -11zM447 4l4 -3l2 4l-4 2zM327 140l-3 -4h2l3 2zM449 29l2 -8l-1 5zM436 24l2 -4h2l-2 4h-2zM401 367l1 -2h3v2l-4 2v-2z
M334 119l1 -4l-6 -1zM429 240l-1 -3h4l2 3h-5zM306 52h2l2 -3h-3zM464 19l2 -2v-2h-2v4zM63 392h2v-2h-2v2zM409 353l3 -2v4h-2zM330 106l-1 -2l4 1v2zM448 43l1 -3h2zM41 193l-1 -3l4 1zM259 254l-1 -2h2zM29 149l-1 -2h2zM420 327v-2l2 2h-2zM423 258h2v1zM168 584l-20 12
l-14 14l-8 14l-7 29v28l6 16l6 7l5 10l11 13l20 19l2 2l21 12h19v-2l-7 -1l7 -3l-8 -1l-2 -3v-2l5 2l3 -2h4l-9 -10v-7h5l17 5l-2 2v2h5l3 1h8v1l19 3l-5 3l3 2l4 -1l2 1l18 -3l1 -2l25 -11l3 -3v-3l5 -10l10 -3l3 -17l3 3v-7l-3 -1v-2h3l3 4l5 -5h-1l-3 1l-4 -3l-1 -35l2 8
h1l2 -4l3 -1l-6 -5v-5l-2 -3v-8h-7l-1 -5h-2v2h-2l-3 -9l-3 3h-2l-1 -1l2 -6h2l-3 -5l-6 -3v-1l-8 -2l-2 -6l-23 -10l-14 -8l-15 -2l-5 -3l-38 -2zM183 638l7 -2h12l13 3l12 7l8 2l23 17l7 7l6 4l5 10l3 2v5l-1 1v4l-4 4l-4 1l-5 3l-14 3v5h-3l-12 8h-6l-3 -6h-5l-2 -7
l-16 -13l-16 -21l-2 -5l-1 -3l-4 -5v-16zM222 745l2 3h19l-8 -2h-8l-3 -2zM211 727v-3l3 1l6 3v3h-3l-3 -3zM331 675h3v-6l-3 -4v10zM212 753l2 1l1 -1v-3h-3v3zM214 745l1 -1l-1 -2h-3zM193 748l1 -3l2 4h-2zM315 648v-2h3v2h-3zM196 731l2 -2l1 3v1zM323 647v-3l2 3l1 2z
M217 749h5l-2 -1h-3v1zM339 673v2l2 -2v-1zM222 727l-2 -2h2v2zM198 755v-1l3 1h-3zM266 746v-2h1v1zM331 643v-3h-1zM309 647v-1h1v1h-1zM300 628v-1l2 1h-2z" />
    </font>
</defs>
</svg>
